%TF.GenerationSoftware,KiCad,Pcbnew,(5.1.9)-1*%
%TF.CreationDate,2021-07-30T14:52:09-07:00*%
%TF.ProjectId,NullWiiConv2.2,4e756c6c-5769-4694-936f-6e76322e322e,rev?*%
%TF.SameCoordinates,Original*%
%TF.FileFunction,Copper,L2,Bot*%
%TF.FilePolarity,Positive*%
%FSLAX46Y46*%
G04 Gerber Fmt 4.6, Leading zero omitted, Abs format (unit mm)*
G04 Created by KiCad (PCBNEW (5.1.9)-1) date 2021-07-30 14:52:09*
%MOMM*%
%LPD*%
G01*
G04 APERTURE LIST*
%TA.AperFunction,ComponentPad*%
%ADD10O,1.600000X1.000000*%
%TD*%
%TA.AperFunction,ComponentPad*%
%ADD11O,2.100000X1.000000*%
%TD*%
%TA.AperFunction,ComponentPad*%
%ADD12C,3.048000*%
%TD*%
%TA.AperFunction,ComponentPad*%
%ADD13C,1.270000*%
%TD*%
%TA.AperFunction,ComponentPad*%
%ADD14R,1.270000X1.270000*%
%TD*%
%TA.AperFunction,ComponentPad*%
%ADD15O,1.700000X1.700000*%
%TD*%
%TA.AperFunction,ComponentPad*%
%ADD16R,1.700000X1.700000*%
%TD*%
%TA.AperFunction,ComponentPad*%
%ADD17C,1.879600*%
%TD*%
%TA.AperFunction,ComponentPad*%
%ADD18O,1.600000X1.600000*%
%TD*%
%TA.AperFunction,ComponentPad*%
%ADD19R,1.600000X1.600000*%
%TD*%
%TA.AperFunction,SMDPad,CuDef*%
%ADD20R,1.380000X0.450000*%
%TD*%
%TA.AperFunction,SMDPad,CuDef*%
%ADD21R,1.550000X1.425000*%
%TD*%
%TA.AperFunction,SMDPad,CuDef*%
%ADD22R,1.300000X1.650000*%
%TD*%
%TA.AperFunction,SMDPad,CuDef*%
%ADD23R,1.900000X1.800000*%
%TD*%
%TA.AperFunction,SMDPad,CuDef*%
%ADD24R,1.900000X1.000000*%
%TD*%
%TA.AperFunction,ViaPad*%
%ADD25C,0.700000*%
%TD*%
%TA.AperFunction,ViaPad*%
%ADD26C,0.800000*%
%TD*%
%TA.AperFunction,Conductor*%
%ADD27C,0.203200*%
%TD*%
%TA.AperFunction,Conductor*%
%ADD28C,0.152400*%
%TD*%
%TA.AperFunction,Conductor*%
%ADD29C,0.381000*%
%TD*%
%TA.AperFunction,Conductor*%
%ADD30C,0.254000*%
%TD*%
%TA.AperFunction,Conductor*%
%ADD31C,0.100000*%
%TD*%
G04 APERTURE END LIST*
D10*
%TO.P,J1,S1*%
%TO.N,Net-(J1-PadS1)*%
X117796000Y-84199000D03*
X117796000Y-92839000D03*
D11*
X113616000Y-84199000D03*
X113616000Y-92839000D03*
%TD*%
D12*
%TO.P,P1,6*%
%TO.N,GND*%
X79375000Y-94488000D03*
X74041000Y-81788000D03*
X74041000Y-94488000D03*
X79375000Y-81788000D03*
D13*
X80264000Y-90043000D03*
%TO.P,P1,5*%
%TO.N,/SDA*%
X82169000Y-90043000D03*
%TO.P,P1,4*%
%TO.N,Net-(P1-Pad4)*%
X80264000Y-88138000D03*
%TO.P,P1,3*%
%TO.N,/CONT_DETECT*%
X82169000Y-88138000D03*
%TO.P,P1,2*%
%TO.N,/SCL*%
X80264000Y-86233000D03*
D14*
%TO.P,P1,1*%
%TO.N,+3V3*%
X82169000Y-86233000D03*
%TD*%
D15*
%TO.P,J4,5*%
%TO.N,GND*%
X108204000Y-82296000D03*
%TO.P,J4,4*%
%TO.N,/ID*%
X108204000Y-84836000D03*
%TO.P,J4,3*%
%TO.N,/D+*%
X108204000Y-87376000D03*
%TO.P,J4,2*%
%TO.N,/D-*%
X108204000Y-89916000D03*
D16*
%TO.P,J4,1*%
%TO.N,+5VA*%
X108204000Y-92456000D03*
%TD*%
D17*
%TO.P,J5,6*%
%TO.N,+5V*%
X104267000Y-95123000D03*
%TO.P,J5,5*%
%TO.N,GND*%
X101727000Y-94615000D03*
%TO.P,J5,4*%
%TO.N,/SCLK*%
X99187000Y-95123000D03*
%TO.P,J5,3*%
%TO.N,/MOSI*%
X96647000Y-94615000D03*
%TO.P,J5,2*%
%TO.N,/MISO*%
X94107000Y-95123000D03*
%TO.P,J5,1*%
%TO.N,/RESET*%
X91567000Y-94615000D03*
%TD*%
D18*
%TO.P,SW1,12*%
%TO.N,/DIP_SW1*%
X85344000Y-78613000D03*
%TO.P,SW1,6*%
%TO.N,GND*%
X72644000Y-70993000D03*
%TO.P,SW1,11*%
%TO.N,/DIP_SW2*%
X82804000Y-78613000D03*
%TO.P,SW1,5*%
%TO.N,GND*%
X75184000Y-70993000D03*
%TO.P,SW1,10*%
%TO.N,/DIP_SW3*%
X80264000Y-78613000D03*
%TO.P,SW1,4*%
%TO.N,GND*%
X77724000Y-70993000D03*
%TO.P,SW1,9*%
%TO.N,/DIP_SW4*%
X77724000Y-78613000D03*
%TO.P,SW1,3*%
%TO.N,GND*%
X80264000Y-70993000D03*
%TO.P,SW1,8*%
%TO.N,/DIP_SW5*%
X75184000Y-78613000D03*
%TO.P,SW1,2*%
%TO.N,GND*%
X82804000Y-70993000D03*
%TO.P,SW1,7*%
%TO.N,/DIP_SW6*%
X72644000Y-78613000D03*
D19*
%TO.P,SW1,1*%
%TO.N,GND*%
X85344000Y-70993000D03*
%TD*%
D15*
%TO.P,SW3,3*%
%TO.N,/S*%
X107696000Y-71120000D03*
%TO.P,SW3,2*%
%TO.N,GND*%
X105156000Y-71120000D03*
D16*
%TO.P,SW3,1*%
%TO.N,/X*%
X102616000Y-71120000D03*
%TD*%
D20*
%TO.P,J3,1*%
%TO.N,+5VA*%
X116777000Y-86965000D03*
%TO.P,J3,2*%
%TO.N,/D-*%
X116777000Y-87615000D03*
%TO.P,J3,3*%
%TO.N,/D+*%
X116777000Y-88265000D03*
%TO.P,J3,4*%
%TO.N,/ID*%
X116777000Y-88915000D03*
%TO.P,J3,5*%
%TO.N,GND*%
X116777000Y-89565000D03*
D21*
%TO.P,J3,6*%
%TO.N,Net-(J3-Pad6)*%
X116862000Y-85777500D03*
X116862000Y-90752500D03*
D22*
X119437000Y-84890000D03*
X119437000Y-91640000D03*
D23*
X119437000Y-87115000D03*
D24*
X119437000Y-89815000D03*
%TD*%
D15*
%TO.P,J2,5*%
%TO.N,GND*%
X88519000Y-93345000D03*
%TO.P,J2,4*%
%TO.N,+3V3*%
X88519000Y-90805000D03*
%TO.P,J2,3*%
%TO.N,/SDA*%
X88519000Y-88265000D03*
%TO.P,J2,2*%
%TO.N,/SCL*%
X88519000Y-85725000D03*
D16*
%TO.P,J2,1*%
%TO.N,/CONT_DETECT*%
X88519000Y-83185000D03*
%TD*%
D25*
%TO.N,+5V*%
X104494500Y-75718500D03*
X111760000Y-71628000D03*
%TO.N,GND*%
X96774000Y-86868000D03*
X92710000Y-83693000D03*
X95377000Y-92837000D03*
X93218000Y-93472000D03*
X101219000Y-91567000D03*
X110617000Y-92710000D03*
X118745000Y-94107000D03*
X118364000Y-80518000D03*
X116840000Y-76454000D03*
X113665000Y-71628000D03*
X118872000Y-71628000D03*
X110109000Y-71628000D03*
X110617000Y-76327000D03*
X107442000Y-75819000D03*
X102489000Y-76073000D03*
X75311000Y-75565000D03*
X82550000Y-83058000D03*
X101981000Y-87376000D03*
X104521000Y-92583000D03*
X93091000Y-91694000D03*
X73152000Y-88900000D03*
X77343000Y-86487000D03*
X82296000Y-93599000D03*
X84709000Y-76200000D03*
X98298000Y-80899000D03*
X110871000Y-79248000D03*
X118364000Y-82550000D03*
X94107000Y-74930000D03*
X95377000Y-70866000D03*
X100965000Y-71120000D03*
X97409000Y-92837000D03*
X100203000Y-91948000D03*
X109982000Y-86995000D03*
X109855000Y-82804000D03*
X105791000Y-79121000D03*
D26*
X83312000Y-91313000D03*
X82677000Y-94869000D03*
X88519000Y-95504000D03*
X71120000Y-93218000D03*
X77724000Y-80264000D03*
X116713000Y-71628000D03*
X99568000Y-79756000D03*
X93091000Y-70993000D03*
X96520000Y-72009000D03*
X100711000Y-74803000D03*
D25*
%TO.N,+3V3*%
X70993000Y-73406000D03*
%TO.N,/STATUS*%
X106172000Y-89535000D03*
X112395000Y-80645000D03*
%TO.N,+5VA*%
X115951000Y-84201000D03*
%TO.N,/D-*%
X114027800Y-88754800D03*
%TO.N,/D+*%
X114034000Y-87769000D03*
D26*
%TO.N,/SDA*%
X93853000Y-80518000D03*
D25*
%TO.N,/SCL*%
X93853000Y-79248000D03*
D26*
%TO.N,/CONT_DETECT*%
X92964000Y-81915000D03*
X101981000Y-79121000D03*
D25*
%TO.N,/ID*%
X111252000Y-84201000D03*
X115443000Y-87503000D03*
D26*
%TO.N,/X*%
X100076000Y-82804000D03*
D25*
%TO.N,/RESET*%
X100838000Y-83439000D03*
%TO.N,/MOSI*%
X102235000Y-83566000D03*
%TO.N,/SCLK*%
X102679500Y-84391500D03*
%TO.N,/MISO*%
X101600000Y-82804000D03*
%TO.N,/RX_LED*%
X103378000Y-85090000D03*
X110617000Y-80772000D03*
X103378000Y-85090000D03*
%TO.N,/DIP_SW6*%
X86868000Y-84455000D03*
%TO.N,Net-(JP1-Pad2)*%
X90932000Y-90551000D03*
D26*
X103632000Y-79248000D03*
%TD*%
D27*
%TO.N,+5V*%
X104494500Y-75718500D02*
X105537000Y-74676000D01*
X105537000Y-74676000D02*
X106045000Y-74168000D01*
X106045000Y-74168000D02*
X109220000Y-74168000D01*
X109220000Y-74168000D02*
X111760000Y-71628000D01*
D28*
%TO.N,GND*%
X110871000Y-86106000D02*
X109982000Y-86995000D01*
X115934600Y-89565000D02*
X115119209Y-88749609D01*
X116777000Y-89565000D02*
X115934600Y-89565000D01*
X114554000Y-87466778D02*
X114554000Y-87122000D01*
X114554000Y-87122000D02*
X114046000Y-86614000D01*
X112776000Y-86614000D02*
X112268000Y-86106000D01*
X114046000Y-86614000D02*
X112776000Y-86614000D01*
X112268000Y-86106000D02*
X110871000Y-86106000D01*
X114866799Y-87779577D02*
X114554000Y-87466778D01*
X114866799Y-87942799D02*
X114866799Y-87779577D01*
X115119209Y-88195209D02*
X114866799Y-87942799D01*
X115119209Y-88749609D02*
X115119209Y-88195209D01*
D29*
X105791000Y-79121000D02*
X105029000Y-79121000D01*
X105029000Y-79121000D02*
X102870000Y-81280000D01*
X101092000Y-81280000D02*
X99568000Y-79756000D01*
X102870000Y-81280000D02*
X101092000Y-81280000D01*
D27*
%TO.N,+3V3*%
X70993000Y-73406000D02*
X70993000Y-83693000D01*
X70993000Y-83693000D02*
X72390000Y-85090000D01*
X72390000Y-85090000D02*
X81788000Y-85090000D01*
X82169000Y-85471000D02*
X82169000Y-86233000D01*
X81788000Y-85090000D02*
X82169000Y-85471000D01*
D28*
%TO.N,/STATUS*%
X105664000Y-90043000D02*
X106172000Y-89535000D01*
X104013000Y-90043000D02*
X105664000Y-90043000D01*
X103759000Y-86741000D02*
X103759000Y-89789000D01*
X106172000Y-84328000D02*
X103759000Y-86741000D01*
X106172000Y-81788000D02*
X106172000Y-84328000D01*
X107188000Y-80772000D02*
X106172000Y-81788000D01*
X103759000Y-89789000D02*
X104013000Y-90043000D01*
X109347000Y-80772000D02*
X107188000Y-80772000D01*
X109923201Y-81348201D02*
X109347000Y-80772000D01*
X111691799Y-81348201D02*
X109923201Y-81348201D01*
X112395000Y-80645000D02*
X111691799Y-81348201D01*
D27*
%TO.N,+5VA*%
X115883800Y-86965000D02*
X115443000Y-86524200D01*
X116777000Y-86965000D02*
X115883800Y-86965000D01*
X115443000Y-84709000D02*
X115951000Y-84201000D01*
X115443000Y-86524200D02*
X115443000Y-84709000D01*
D28*
%TO.N,/D-*%
X118286200Y-89150038D02*
X118283799Y-89152439D01*
X116777000Y-87615000D02*
X117242000Y-87615000D01*
X117242000Y-87615000D02*
X117390800Y-87763800D01*
X118286200Y-88319014D02*
X118286200Y-89150038D01*
X117390800Y-87763800D02*
X117730986Y-87763800D01*
X117730986Y-87763800D02*
X118286200Y-88319014D01*
X118283799Y-89152439D02*
X118283799Y-90477561D01*
X118283799Y-90477561D02*
X118286200Y-90479962D01*
X118286200Y-90479962D02*
X118286200Y-91639986D01*
X118286200Y-91639986D02*
X117801986Y-92124200D01*
X117801986Y-92124200D02*
X115624014Y-92124200D01*
X115624014Y-92124200D02*
X114758800Y-91258986D01*
X114758800Y-91258986D02*
X114758800Y-89479894D01*
X114758800Y-89479894D02*
X114487408Y-89208502D01*
X114027800Y-88754800D02*
X114281800Y-88754800D01*
X114281800Y-88754800D02*
X114487408Y-88960408D01*
X114487408Y-89208502D02*
X114487408Y-88960408D01*
%TO.N,/D+*%
X117933800Y-91494014D02*
X117656014Y-91771800D01*
X117933800Y-89004082D02*
X117931408Y-89006474D01*
X117931409Y-90623527D02*
X117933800Y-90625918D01*
X117390800Y-88116200D02*
X117585014Y-88116200D01*
X117585014Y-88116200D02*
X117933800Y-88464986D01*
X117933800Y-90625918D02*
X117933800Y-91494014D01*
X117242000Y-88265000D02*
X117390800Y-88116200D01*
X116777000Y-88265000D02*
X117242000Y-88265000D01*
X117931408Y-89006474D02*
X117931409Y-90623527D01*
X117933800Y-88464986D02*
X117933800Y-89004082D01*
X117656014Y-91771800D02*
X115769986Y-91771800D01*
X115769986Y-91771800D02*
X115111200Y-91113014D01*
X114770616Y-88505616D02*
X114034000Y-87769000D01*
X114839799Y-88574799D02*
X114770616Y-88505616D01*
X114839799Y-89062537D02*
X114839799Y-88574799D01*
X115111200Y-89333938D02*
X114839799Y-89062537D01*
X115111200Y-91113014D02*
X115111200Y-89333938D01*
%TO.N,/SDA*%
X82169000Y-90043000D02*
X83820000Y-88392000D01*
X88773000Y-88392000D02*
X88900000Y-88265000D01*
X83820000Y-88392000D02*
X88773000Y-88392000D01*
X93853000Y-81153000D02*
X93853000Y-80518000D01*
X93726000Y-82169000D02*
X93726000Y-81280000D01*
X92837000Y-83058000D02*
X93726000Y-82169000D01*
X92202000Y-83058000D02*
X92837000Y-83058000D01*
X93726000Y-81280000D02*
X93853000Y-81153000D01*
X91948000Y-83312000D02*
X92202000Y-83058000D01*
X91948000Y-87376000D02*
X91948000Y-83312000D01*
X91059000Y-88265000D02*
X91948000Y-87376000D01*
X88519000Y-88265000D02*
X91059000Y-88265000D01*
%TO.N,/SCL*%
X81175201Y-87144201D02*
X84178799Y-87144201D01*
X80264000Y-86233000D02*
X81175201Y-87144201D01*
X84178799Y-87144201D02*
X84582000Y-86741000D01*
X84582000Y-86741000D02*
X84582000Y-86233000D01*
X85090000Y-85725000D02*
X88900000Y-85725000D01*
X84582000Y-86233000D02*
X85090000Y-85725000D01*
X91186000Y-79248000D02*
X93853000Y-79248000D01*
X90233500Y-80200500D02*
X91186000Y-79248000D01*
X90233500Y-85153500D02*
X90233500Y-80200500D01*
X89662000Y-85725000D02*
X90233500Y-85153500D01*
X88519000Y-85725000D02*
X89662000Y-85725000D01*
%TO.N,/CONT_DETECT*%
X91694000Y-81915000D02*
X92964000Y-81915000D01*
X90883590Y-82725410D02*
X91694000Y-81915000D01*
X90883590Y-86154410D02*
X90883590Y-82725410D01*
X90043000Y-86995000D02*
X90883590Y-86154410D01*
X84836000Y-86995000D02*
X90043000Y-86995000D01*
X84327999Y-87503001D02*
X84836000Y-86995000D01*
X82803999Y-87503001D02*
X84327999Y-87503001D01*
X82169000Y-88138000D02*
X82803999Y-87503001D01*
X92964000Y-80480222D02*
X92964000Y-81915000D01*
X93561222Y-79883000D02*
X92964000Y-80480222D01*
X94070778Y-79883000D02*
X93561222Y-79883000D01*
X94742000Y-79211778D02*
X94070778Y-79883000D01*
X94742000Y-72517000D02*
X94742000Y-79211778D01*
X97917000Y-69342000D02*
X94742000Y-72517000D01*
X103692201Y-75594021D02*
X106553000Y-72733222D01*
X103692201Y-77409799D02*
X103692201Y-75594021D01*
X101981000Y-79121000D02*
X103692201Y-77409799D01*
X103124000Y-69342000D02*
X97917000Y-69342000D01*
X103378000Y-69342000D02*
X103124000Y-69342000D01*
X105918000Y-69342000D02*
X106553000Y-69977000D01*
X106553000Y-72733222D02*
X106553000Y-69977000D01*
X105918000Y-69342000D02*
X103124000Y-69342000D01*
%TO.N,/ID*%
X111252000Y-84201000D02*
X110744000Y-84201000D01*
X110109000Y-84836000D02*
X108204000Y-84836000D01*
X110744000Y-84201000D02*
X110109000Y-84836000D01*
X115934600Y-88915000D02*
X116777000Y-88915000D01*
X115443000Y-88423400D02*
X115934600Y-88915000D01*
X115443000Y-87503000D02*
X115443000Y-88423400D01*
%TO.N,/X*%
X99441000Y-78486000D02*
X99441000Y-74295000D01*
X98679000Y-79248000D02*
X99441000Y-78486000D01*
X98679000Y-80264000D02*
X98679000Y-79248000D01*
X100076000Y-81661000D02*
X98679000Y-80264000D01*
X99441000Y-74295000D02*
X102616000Y-71120000D01*
X100076000Y-82804000D02*
X100076000Y-81661000D01*
%TO.N,/RESET*%
X100838000Y-83439000D02*
X100838000Y-83439000D01*
X100838000Y-84963000D02*
X100838000Y-83439000D01*
X91567000Y-94234000D02*
X100838000Y-84963000D01*
X91567000Y-94615000D02*
X91567000Y-94234000D01*
%TO.N,/MOSI*%
X96647000Y-90424000D02*
X96647000Y-94615000D01*
X102029409Y-85041591D02*
X96647000Y-90424000D01*
X102029409Y-83771591D02*
X102029409Y-85041591D01*
X102235000Y-83566000D02*
X102029409Y-83771591D01*
%TO.N,/SCLK*%
X99187000Y-95123000D02*
X99187000Y-88392000D01*
X99187000Y-88392000D02*
X102489000Y-85090000D01*
X102489000Y-85090000D02*
X102489000Y-84582000D01*
X102489000Y-84582000D02*
X102679500Y-84391500D01*
X102679500Y-84391500D02*
X102743000Y-84328000D01*
%TO.N,/MISO*%
X94107000Y-92329000D02*
X94107000Y-95123000D01*
X101409500Y-85026500D02*
X94107000Y-92329000D01*
X101409500Y-84518500D02*
X101409500Y-85026500D01*
X101600000Y-84328000D02*
X101409500Y-84518500D01*
X101600000Y-82804000D02*
X101600000Y-84328000D01*
%TO.N,/RX_LED*%
X110617000Y-80899000D02*
X110617000Y-80772000D01*
X103378000Y-81788000D02*
X103378000Y-85090000D01*
X105029000Y-80137000D02*
X103378000Y-81788000D01*
X109982000Y-80137000D02*
X105029000Y-80137000D01*
X110617000Y-80772000D02*
X109982000Y-80137000D01*
%TO.N,/DIP_SW6*%
X79377702Y-84455000D02*
X74805702Y-79883000D01*
X86868000Y-84455000D02*
X79377702Y-84455000D01*
X73914000Y-79883000D02*
X72644000Y-78613000D01*
X74805702Y-79883000D02*
X73914000Y-79883000D01*
%TO.N,Net-(JP1-Pad2)*%
X103459799Y-79547201D02*
X103459799Y-79420201D01*
X90932000Y-90551000D02*
X97490799Y-83992201D01*
X97490799Y-71800201D02*
X99568000Y-69723000D01*
X103886000Y-74676000D02*
X103296201Y-75265799D01*
X99568000Y-69723000D02*
X103326162Y-69723000D01*
X97490799Y-83992201D02*
X97490799Y-71800201D01*
X102607201Y-80399799D02*
X103459799Y-79547201D01*
X103326162Y-69723000D02*
X103886000Y-70282838D01*
X101354799Y-80036397D02*
X101718201Y-80399799D01*
X103459799Y-79420201D02*
X103632000Y-79248000D01*
X103886000Y-70282838D02*
X103886000Y-74676000D01*
X103296201Y-75265799D02*
X103296201Y-76879021D01*
X103296201Y-76879021D02*
X101354799Y-78820423D01*
X101354799Y-78820423D02*
X101354799Y-80036397D01*
X101718201Y-80399799D02*
X102607201Y-80399799D01*
%TD*%
D30*
%TO.N,GND*%
X99364801Y-81955589D02*
X99364801Y-82051488D01*
X99272063Y-82144226D01*
X99158795Y-82313744D01*
X99080774Y-82502102D01*
X99041000Y-82702061D01*
X99041000Y-82905939D01*
X99080774Y-83105898D01*
X99158795Y-83294256D01*
X99272063Y-83463774D01*
X99416226Y-83607937D01*
X99585744Y-83721205D01*
X99774102Y-83799226D01*
X99934249Y-83831081D01*
X99965104Y-83905572D01*
X100072901Y-84066901D01*
X100126801Y-84120801D01*
X100126800Y-84668412D01*
X91749553Y-93045660D01*
X91722104Y-93040200D01*
X91411896Y-93040200D01*
X91107648Y-93100718D01*
X90821052Y-93219430D01*
X90563123Y-93391773D01*
X90343773Y-93611123D01*
X90171430Y-93869052D01*
X90052718Y-94155648D01*
X89992200Y-94459896D01*
X89992200Y-94770104D01*
X90052718Y-95074352D01*
X90171430Y-95360948D01*
X90343773Y-95618877D01*
X90563123Y-95838227D01*
X90595709Y-95860000D01*
X80926608Y-95860000D01*
X80883742Y-95817134D01*
X81201758Y-95658236D01*
X81394959Y-95279368D01*
X81510534Y-94870087D01*
X81544042Y-94446124D01*
X81494194Y-94023770D01*
X81389728Y-93701890D01*
X87077524Y-93701890D01*
X87122175Y-93849099D01*
X87247359Y-94111920D01*
X87421412Y-94345269D01*
X87637645Y-94540178D01*
X87887748Y-94689157D01*
X88162109Y-94786481D01*
X88392000Y-94665814D01*
X88392000Y-93472000D01*
X88646000Y-93472000D01*
X88646000Y-94665814D01*
X88875891Y-94786481D01*
X89150252Y-94689157D01*
X89400355Y-94540178D01*
X89616588Y-94345269D01*
X89790641Y-94111920D01*
X89915825Y-93849099D01*
X89960476Y-93701890D01*
X89839155Y-93472000D01*
X88646000Y-93472000D01*
X88392000Y-93472000D01*
X87198845Y-93472000D01*
X87077524Y-93701890D01*
X81389728Y-93701890D01*
X81362908Y-93619256D01*
X81201758Y-93317764D01*
X80883740Y-93158865D01*
X79554605Y-94488000D01*
X79568748Y-94502143D01*
X79389143Y-94681748D01*
X79375000Y-94667605D01*
X79360858Y-94681748D01*
X79181253Y-94502143D01*
X79195395Y-94488000D01*
X77866260Y-93158865D01*
X77548242Y-93317764D01*
X77355041Y-93696632D01*
X77239466Y-94105913D01*
X77205958Y-94529876D01*
X77255806Y-94952230D01*
X77387092Y-95356744D01*
X77548242Y-95658236D01*
X77866258Y-95817134D01*
X77823392Y-95860000D01*
X75592608Y-95860000D01*
X75549742Y-95817134D01*
X75867758Y-95658236D01*
X76060959Y-95279368D01*
X76176534Y-94870087D01*
X76210042Y-94446124D01*
X76160194Y-94023770D01*
X76028908Y-93619256D01*
X75867758Y-93317764D01*
X75549740Y-93158865D01*
X74220605Y-94488000D01*
X74234748Y-94502143D01*
X74055143Y-94681748D01*
X74041000Y-94667605D01*
X74026858Y-94681748D01*
X73847253Y-94502143D01*
X73861395Y-94488000D01*
X72532260Y-93158865D01*
X72214242Y-93317764D01*
X72021041Y-93696632D01*
X71905466Y-94105913D01*
X71871958Y-94529876D01*
X71921806Y-94952230D01*
X72053092Y-95356744D01*
X72214242Y-95658236D01*
X72532258Y-95817134D01*
X72489392Y-95860000D01*
X70256000Y-95860000D01*
X70256000Y-92979260D01*
X72711865Y-92979260D01*
X74041000Y-94308395D01*
X75370135Y-92979260D01*
X78045865Y-92979260D01*
X79375000Y-94308395D01*
X80704135Y-92979260D01*
X80545236Y-92661242D01*
X80166368Y-92468041D01*
X79757087Y-92352466D01*
X79333124Y-92318958D01*
X78910770Y-92368806D01*
X78506256Y-92500092D01*
X78204764Y-92661242D01*
X78045865Y-92979260D01*
X75370135Y-92979260D01*
X75211236Y-92661242D01*
X74832368Y-92468041D01*
X74423087Y-92352466D01*
X73999124Y-92318958D01*
X73576770Y-92368806D01*
X73172256Y-92500092D01*
X72870764Y-92661242D01*
X72711865Y-92979260D01*
X70256000Y-92979260D01*
X70256000Y-90917800D01*
X79568805Y-90917800D01*
X79620369Y-91144946D01*
X79847716Y-91249339D01*
X80091059Y-91307373D01*
X80341049Y-91316818D01*
X80588078Y-91277310D01*
X80822653Y-91190369D01*
X80907631Y-91144946D01*
X80959195Y-90917800D01*
X80264000Y-90222605D01*
X79568805Y-90917800D01*
X70256000Y-90917800D01*
X70256000Y-90120049D01*
X78990182Y-90120049D01*
X79029690Y-90367078D01*
X79116631Y-90601653D01*
X79162054Y-90686631D01*
X79389200Y-90738195D01*
X80084395Y-90043000D01*
X79389200Y-89347805D01*
X79162054Y-89399369D01*
X79057661Y-89626716D01*
X78999627Y-89870059D01*
X78990182Y-90120049D01*
X70256000Y-90120049D01*
X70256000Y-83725122D01*
X70263766Y-83803967D01*
X70267059Y-83837399D01*
X70271887Y-83853314D01*
X70305170Y-83963032D01*
X70309179Y-83976249D01*
X70315352Y-83987798D01*
X70377576Y-84104212D01*
X70441020Y-84181518D01*
X70469626Y-84216375D01*
X70497732Y-84239441D01*
X71843554Y-85585263D01*
X71866625Y-85613375D01*
X71978787Y-85705424D01*
X72106751Y-85773822D01*
X72245601Y-85815942D01*
X72353814Y-85826600D01*
X72353823Y-85826600D01*
X72389999Y-85830163D01*
X72426175Y-85826600D01*
X79057698Y-85826600D01*
X79042805Y-85862555D01*
X78994000Y-86107916D01*
X78994000Y-86358084D01*
X79042805Y-86603445D01*
X79138541Y-86834571D01*
X79277527Y-87042578D01*
X79420449Y-87185500D01*
X79277527Y-87328422D01*
X79138541Y-87536429D01*
X79042805Y-87767555D01*
X78994000Y-88012916D01*
X78994000Y-88263084D01*
X79042805Y-88508445D01*
X79138541Y-88739571D01*
X79277527Y-88947578D01*
X79454422Y-89124473D01*
X79662429Y-89263459D01*
X79665220Y-89264615D01*
X80264000Y-89863395D01*
X80862780Y-89264615D01*
X80865571Y-89263459D01*
X81073578Y-89124473D01*
X81216500Y-88981551D01*
X81325449Y-89090500D01*
X81182527Y-89233422D01*
X81043541Y-89441429D01*
X81042385Y-89444220D01*
X80443605Y-90043000D01*
X81042385Y-90641780D01*
X81043541Y-90644571D01*
X81182527Y-90852578D01*
X81359422Y-91029473D01*
X81567429Y-91168459D01*
X81798555Y-91264195D01*
X82043916Y-91313000D01*
X82294084Y-91313000D01*
X82539445Y-91264195D01*
X82770571Y-91168459D01*
X82978578Y-91029473D01*
X83155473Y-90852578D01*
X83294459Y-90644571D01*
X83390195Y-90413445D01*
X83439000Y-90168084D01*
X83439000Y-89917916D01*
X83415917Y-89801871D01*
X84114589Y-89103200D01*
X87293073Y-89103200D01*
X87365525Y-89211632D01*
X87572368Y-89418475D01*
X87746760Y-89535000D01*
X87572368Y-89651525D01*
X87365525Y-89858368D01*
X87203010Y-90101589D01*
X87091068Y-90371842D01*
X87034000Y-90658740D01*
X87034000Y-90951260D01*
X87091068Y-91238158D01*
X87203010Y-91508411D01*
X87365525Y-91751632D01*
X87572368Y-91958475D01*
X87754534Y-92080195D01*
X87637645Y-92149822D01*
X87421412Y-92344731D01*
X87247359Y-92578080D01*
X87122175Y-92840901D01*
X87077524Y-92988110D01*
X87198845Y-93218000D01*
X88392000Y-93218000D01*
X88392000Y-93198000D01*
X88646000Y-93198000D01*
X88646000Y-93218000D01*
X89839155Y-93218000D01*
X89960476Y-92988110D01*
X89915825Y-92840901D01*
X89790641Y-92578080D01*
X89616588Y-92344731D01*
X89400355Y-92149822D01*
X89283466Y-92080195D01*
X89465632Y-91958475D01*
X89672475Y-91751632D01*
X89834990Y-91508411D01*
X89946932Y-91238158D01*
X90004000Y-90951260D01*
X90004000Y-90884539D01*
X90059104Y-91017572D01*
X90166901Y-91178901D01*
X90304099Y-91316099D01*
X90465428Y-91423896D01*
X90644686Y-91498147D01*
X90834986Y-91536000D01*
X91029014Y-91536000D01*
X91219314Y-91498147D01*
X91398572Y-91423896D01*
X91559901Y-91316099D01*
X91697099Y-91178901D01*
X91804896Y-91017572D01*
X91879147Y-90838314D01*
X91917000Y-90648014D01*
X91917000Y-90571787D01*
X97969000Y-84519789D01*
X97996125Y-84497528D01*
X98018387Y-84470402D01*
X98018396Y-84470393D01*
X98083141Y-84391500D01*
X98085001Y-84389234D01*
X98151041Y-84265682D01*
X98191708Y-84131621D01*
X98201999Y-84027137D01*
X98201999Y-84027120D01*
X98205438Y-83992202D01*
X98201999Y-83957284D01*
X98201999Y-80792786D01*
X99364801Y-81955589D01*
%TA.AperFunction,Conductor*%
D31*
G36*
X99364801Y-81955589D02*
G01*
X99364801Y-82051488D01*
X99272063Y-82144226D01*
X99158795Y-82313744D01*
X99080774Y-82502102D01*
X99041000Y-82702061D01*
X99041000Y-82905939D01*
X99080774Y-83105898D01*
X99158795Y-83294256D01*
X99272063Y-83463774D01*
X99416226Y-83607937D01*
X99585744Y-83721205D01*
X99774102Y-83799226D01*
X99934249Y-83831081D01*
X99965104Y-83905572D01*
X100072901Y-84066901D01*
X100126801Y-84120801D01*
X100126800Y-84668412D01*
X91749553Y-93045660D01*
X91722104Y-93040200D01*
X91411896Y-93040200D01*
X91107648Y-93100718D01*
X90821052Y-93219430D01*
X90563123Y-93391773D01*
X90343773Y-93611123D01*
X90171430Y-93869052D01*
X90052718Y-94155648D01*
X89992200Y-94459896D01*
X89992200Y-94770104D01*
X90052718Y-95074352D01*
X90171430Y-95360948D01*
X90343773Y-95618877D01*
X90563123Y-95838227D01*
X90595709Y-95860000D01*
X80926608Y-95860000D01*
X80883742Y-95817134D01*
X81201758Y-95658236D01*
X81394959Y-95279368D01*
X81510534Y-94870087D01*
X81544042Y-94446124D01*
X81494194Y-94023770D01*
X81389728Y-93701890D01*
X87077524Y-93701890D01*
X87122175Y-93849099D01*
X87247359Y-94111920D01*
X87421412Y-94345269D01*
X87637645Y-94540178D01*
X87887748Y-94689157D01*
X88162109Y-94786481D01*
X88392000Y-94665814D01*
X88392000Y-93472000D01*
X88646000Y-93472000D01*
X88646000Y-94665814D01*
X88875891Y-94786481D01*
X89150252Y-94689157D01*
X89400355Y-94540178D01*
X89616588Y-94345269D01*
X89790641Y-94111920D01*
X89915825Y-93849099D01*
X89960476Y-93701890D01*
X89839155Y-93472000D01*
X88646000Y-93472000D01*
X88392000Y-93472000D01*
X87198845Y-93472000D01*
X87077524Y-93701890D01*
X81389728Y-93701890D01*
X81362908Y-93619256D01*
X81201758Y-93317764D01*
X80883740Y-93158865D01*
X79554605Y-94488000D01*
X79568748Y-94502143D01*
X79389143Y-94681748D01*
X79375000Y-94667605D01*
X79360858Y-94681748D01*
X79181253Y-94502143D01*
X79195395Y-94488000D01*
X77866260Y-93158865D01*
X77548242Y-93317764D01*
X77355041Y-93696632D01*
X77239466Y-94105913D01*
X77205958Y-94529876D01*
X77255806Y-94952230D01*
X77387092Y-95356744D01*
X77548242Y-95658236D01*
X77866258Y-95817134D01*
X77823392Y-95860000D01*
X75592608Y-95860000D01*
X75549742Y-95817134D01*
X75867758Y-95658236D01*
X76060959Y-95279368D01*
X76176534Y-94870087D01*
X76210042Y-94446124D01*
X76160194Y-94023770D01*
X76028908Y-93619256D01*
X75867758Y-93317764D01*
X75549740Y-93158865D01*
X74220605Y-94488000D01*
X74234748Y-94502143D01*
X74055143Y-94681748D01*
X74041000Y-94667605D01*
X74026858Y-94681748D01*
X73847253Y-94502143D01*
X73861395Y-94488000D01*
X72532260Y-93158865D01*
X72214242Y-93317764D01*
X72021041Y-93696632D01*
X71905466Y-94105913D01*
X71871958Y-94529876D01*
X71921806Y-94952230D01*
X72053092Y-95356744D01*
X72214242Y-95658236D01*
X72532258Y-95817134D01*
X72489392Y-95860000D01*
X70256000Y-95860000D01*
X70256000Y-92979260D01*
X72711865Y-92979260D01*
X74041000Y-94308395D01*
X75370135Y-92979260D01*
X78045865Y-92979260D01*
X79375000Y-94308395D01*
X80704135Y-92979260D01*
X80545236Y-92661242D01*
X80166368Y-92468041D01*
X79757087Y-92352466D01*
X79333124Y-92318958D01*
X78910770Y-92368806D01*
X78506256Y-92500092D01*
X78204764Y-92661242D01*
X78045865Y-92979260D01*
X75370135Y-92979260D01*
X75211236Y-92661242D01*
X74832368Y-92468041D01*
X74423087Y-92352466D01*
X73999124Y-92318958D01*
X73576770Y-92368806D01*
X73172256Y-92500092D01*
X72870764Y-92661242D01*
X72711865Y-92979260D01*
X70256000Y-92979260D01*
X70256000Y-90917800D01*
X79568805Y-90917800D01*
X79620369Y-91144946D01*
X79847716Y-91249339D01*
X80091059Y-91307373D01*
X80341049Y-91316818D01*
X80588078Y-91277310D01*
X80822653Y-91190369D01*
X80907631Y-91144946D01*
X80959195Y-90917800D01*
X80264000Y-90222605D01*
X79568805Y-90917800D01*
X70256000Y-90917800D01*
X70256000Y-90120049D01*
X78990182Y-90120049D01*
X79029690Y-90367078D01*
X79116631Y-90601653D01*
X79162054Y-90686631D01*
X79389200Y-90738195D01*
X80084395Y-90043000D01*
X79389200Y-89347805D01*
X79162054Y-89399369D01*
X79057661Y-89626716D01*
X78999627Y-89870059D01*
X78990182Y-90120049D01*
X70256000Y-90120049D01*
X70256000Y-83725122D01*
X70263766Y-83803967D01*
X70267059Y-83837399D01*
X70271887Y-83853314D01*
X70305170Y-83963032D01*
X70309179Y-83976249D01*
X70315352Y-83987798D01*
X70377576Y-84104212D01*
X70441020Y-84181518D01*
X70469626Y-84216375D01*
X70497732Y-84239441D01*
X71843554Y-85585263D01*
X71866625Y-85613375D01*
X71978787Y-85705424D01*
X72106751Y-85773822D01*
X72245601Y-85815942D01*
X72353814Y-85826600D01*
X72353823Y-85826600D01*
X72389999Y-85830163D01*
X72426175Y-85826600D01*
X79057698Y-85826600D01*
X79042805Y-85862555D01*
X78994000Y-86107916D01*
X78994000Y-86358084D01*
X79042805Y-86603445D01*
X79138541Y-86834571D01*
X79277527Y-87042578D01*
X79420449Y-87185500D01*
X79277527Y-87328422D01*
X79138541Y-87536429D01*
X79042805Y-87767555D01*
X78994000Y-88012916D01*
X78994000Y-88263084D01*
X79042805Y-88508445D01*
X79138541Y-88739571D01*
X79277527Y-88947578D01*
X79454422Y-89124473D01*
X79662429Y-89263459D01*
X79665220Y-89264615D01*
X80264000Y-89863395D01*
X80862780Y-89264615D01*
X80865571Y-89263459D01*
X81073578Y-89124473D01*
X81216500Y-88981551D01*
X81325449Y-89090500D01*
X81182527Y-89233422D01*
X81043541Y-89441429D01*
X81042385Y-89444220D01*
X80443605Y-90043000D01*
X81042385Y-90641780D01*
X81043541Y-90644571D01*
X81182527Y-90852578D01*
X81359422Y-91029473D01*
X81567429Y-91168459D01*
X81798555Y-91264195D01*
X82043916Y-91313000D01*
X82294084Y-91313000D01*
X82539445Y-91264195D01*
X82770571Y-91168459D01*
X82978578Y-91029473D01*
X83155473Y-90852578D01*
X83294459Y-90644571D01*
X83390195Y-90413445D01*
X83439000Y-90168084D01*
X83439000Y-89917916D01*
X83415917Y-89801871D01*
X84114589Y-89103200D01*
X87293073Y-89103200D01*
X87365525Y-89211632D01*
X87572368Y-89418475D01*
X87746760Y-89535000D01*
X87572368Y-89651525D01*
X87365525Y-89858368D01*
X87203010Y-90101589D01*
X87091068Y-90371842D01*
X87034000Y-90658740D01*
X87034000Y-90951260D01*
X87091068Y-91238158D01*
X87203010Y-91508411D01*
X87365525Y-91751632D01*
X87572368Y-91958475D01*
X87754534Y-92080195D01*
X87637645Y-92149822D01*
X87421412Y-92344731D01*
X87247359Y-92578080D01*
X87122175Y-92840901D01*
X87077524Y-92988110D01*
X87198845Y-93218000D01*
X88392000Y-93218000D01*
X88392000Y-93198000D01*
X88646000Y-93198000D01*
X88646000Y-93218000D01*
X89839155Y-93218000D01*
X89960476Y-92988110D01*
X89915825Y-92840901D01*
X89790641Y-92578080D01*
X89616588Y-92344731D01*
X89400355Y-92149822D01*
X89283466Y-92080195D01*
X89465632Y-91958475D01*
X89672475Y-91751632D01*
X89834990Y-91508411D01*
X89946932Y-91238158D01*
X90004000Y-90951260D01*
X90004000Y-90884539D01*
X90059104Y-91017572D01*
X90166901Y-91178901D01*
X90304099Y-91316099D01*
X90465428Y-91423896D01*
X90644686Y-91498147D01*
X90834986Y-91536000D01*
X91029014Y-91536000D01*
X91219314Y-91498147D01*
X91398572Y-91423896D01*
X91559901Y-91316099D01*
X91697099Y-91178901D01*
X91804896Y-91017572D01*
X91879147Y-90838314D01*
X91917000Y-90648014D01*
X91917000Y-90571787D01*
X97969000Y-84519789D01*
X97996125Y-84497528D01*
X98018387Y-84470402D01*
X98018396Y-84470393D01*
X98083141Y-84391500D01*
X98085001Y-84389234D01*
X98151041Y-84265682D01*
X98191708Y-84131621D01*
X98201999Y-84027137D01*
X98201999Y-84027120D01*
X98205438Y-83992202D01*
X98201999Y-83957284D01*
X98201999Y-80792786D01*
X99364801Y-81955589D01*
G37*
%TD.AperFunction*%
D30*
X112117716Y-84832623D02*
X112259551Y-85005449D01*
X112432377Y-85147284D01*
X112629553Y-85252676D01*
X112843501Y-85317577D01*
X113010248Y-85334000D01*
X113229096Y-85334000D01*
X113222892Y-85348978D01*
X113186000Y-85534448D01*
X113186000Y-85723552D01*
X113222892Y-85909022D01*
X113295259Y-86083731D01*
X113400319Y-86240964D01*
X113534036Y-86374681D01*
X113691269Y-86479741D01*
X113865978Y-86552108D01*
X114051448Y-86589000D01*
X114240552Y-86589000D01*
X114426022Y-86552108D01*
X114600731Y-86479741D01*
X114706400Y-86409135D01*
X114706400Y-86488016D01*
X114702836Y-86524200D01*
X114706400Y-86560383D01*
X114706400Y-86560385D01*
X114717058Y-86668598D01*
X114756007Y-86796993D01*
X114677901Y-86875099D01*
X114613464Y-86971536D01*
X114500572Y-86896104D01*
X114321314Y-86821853D01*
X114131014Y-86784000D01*
X113936986Y-86784000D01*
X113746686Y-86821853D01*
X113567428Y-86896104D01*
X113406099Y-87003901D01*
X113268901Y-87141099D01*
X113161104Y-87302428D01*
X113086853Y-87481686D01*
X113049000Y-87671986D01*
X113049000Y-87866014D01*
X113086853Y-88056314D01*
X113161104Y-88235572D01*
X113175596Y-88257261D01*
X113154904Y-88288228D01*
X113080653Y-88467486D01*
X113042800Y-88657786D01*
X113042800Y-88851814D01*
X113080653Y-89042114D01*
X113154904Y-89221372D01*
X113262701Y-89382701D01*
X113399899Y-89519899D01*
X113561228Y-89627696D01*
X113740486Y-89701947D01*
X113930786Y-89739800D01*
X114012919Y-89739800D01*
X114047601Y-89774482D01*
X114047600Y-90449765D01*
X113865978Y-90485892D01*
X113691269Y-90558259D01*
X113534036Y-90663319D01*
X113400319Y-90797036D01*
X113295259Y-90954269D01*
X113222892Y-91128978D01*
X113186000Y-91314448D01*
X113186000Y-91503552D01*
X113222892Y-91689022D01*
X113229096Y-91704000D01*
X113010248Y-91704000D01*
X112843501Y-91720423D01*
X112629553Y-91785324D01*
X112432377Y-91890716D01*
X112259551Y-92032551D01*
X112117716Y-92205377D01*
X112012324Y-92402553D01*
X111947423Y-92616501D01*
X111925509Y-92839000D01*
X111947423Y-93061499D01*
X112012324Y-93275447D01*
X112117716Y-93472623D01*
X112259551Y-93645449D01*
X112432377Y-93787284D01*
X112629553Y-93892676D01*
X112843501Y-93957577D01*
X113010248Y-93974000D01*
X114221752Y-93974000D01*
X114388499Y-93957577D01*
X114602447Y-93892676D01*
X114799623Y-93787284D01*
X114972449Y-93645449D01*
X115114284Y-93472623D01*
X115219676Y-93275447D01*
X115284577Y-93061499D01*
X115306491Y-92839000D01*
X115298372Y-92756561D01*
X115350533Y-92784442D01*
X115484594Y-92825109D01*
X115589078Y-92835400D01*
X115589087Y-92835400D01*
X115624013Y-92838840D01*
X115658939Y-92835400D01*
X116355864Y-92835400D01*
X116355509Y-92839000D01*
X116377423Y-93061499D01*
X116442324Y-93275447D01*
X116547716Y-93472623D01*
X116689551Y-93645449D01*
X116862377Y-93787284D01*
X117059553Y-93892676D01*
X117273501Y-93957577D01*
X117440248Y-93974000D01*
X118151752Y-93974000D01*
X118318499Y-93957577D01*
X118532447Y-93892676D01*
X118729623Y-93787284D01*
X118902449Y-93645449D01*
X119044284Y-93472623D01*
X119149676Y-93275447D01*
X119201966Y-93103072D01*
X120087000Y-93103072D01*
X120211482Y-93090812D01*
X120244000Y-93080948D01*
X120244000Y-95860000D01*
X105666276Y-95860000D01*
X105781282Y-95582352D01*
X105841800Y-95278104D01*
X105841800Y-94967896D01*
X105781282Y-94663648D01*
X105662570Y-94377052D01*
X105490227Y-94119123D01*
X105270877Y-93899773D01*
X105012948Y-93727430D01*
X104726352Y-93608718D01*
X104422104Y-93548200D01*
X104111896Y-93548200D01*
X103807648Y-93608718D01*
X103521052Y-93727430D01*
X103263123Y-93899773D01*
X103175825Y-93987071D01*
X103162865Y-93949914D01*
X103077723Y-93790623D01*
X102819476Y-93702129D01*
X101906605Y-94615000D01*
X101920748Y-94629143D01*
X101741143Y-94808748D01*
X101727000Y-94794605D01*
X101712858Y-94808748D01*
X101533253Y-94629143D01*
X101547395Y-94615000D01*
X100634524Y-93702129D01*
X100376277Y-93790623D01*
X100280370Y-93989266D01*
X100190877Y-93899773D01*
X99932948Y-93727430D01*
X99898200Y-93713037D01*
X99898200Y-93522524D01*
X100814129Y-93522524D01*
X101727000Y-94435395D01*
X102639871Y-93522524D01*
X102551377Y-93264277D01*
X102272024Y-93129403D01*
X101971725Y-93051619D01*
X101662023Y-93033916D01*
X101354816Y-93076973D01*
X101061914Y-93179135D01*
X100902623Y-93264277D01*
X100814129Y-93522524D01*
X99898200Y-93522524D01*
X99898200Y-88686587D01*
X102739894Y-85844894D01*
X102750099Y-85855099D01*
X102911428Y-85962896D01*
X103090686Y-86037147D01*
X103280986Y-86075000D01*
X103419213Y-86075000D01*
X103280810Y-86213403D01*
X103253673Y-86235674D01*
X103164798Y-86343968D01*
X103098758Y-86467520D01*
X103058091Y-86601581D01*
X103047800Y-86706065D01*
X103047800Y-86706074D01*
X103044360Y-86741000D01*
X103047800Y-86775926D01*
X103047801Y-89754064D01*
X103044360Y-89789000D01*
X103047801Y-89823936D01*
X103058092Y-89928420D01*
X103092982Y-90043437D01*
X103098759Y-90062481D01*
X103164798Y-90186032D01*
X103179610Y-90204080D01*
X103253674Y-90294327D01*
X103280809Y-90316596D01*
X103485402Y-90521190D01*
X103507673Y-90548327D01*
X103615967Y-90637202D01*
X103739519Y-90703242D01*
X103873580Y-90743909D01*
X103978064Y-90754200D01*
X103978073Y-90754200D01*
X104012999Y-90757640D01*
X104047925Y-90754200D01*
X105629074Y-90754200D01*
X105664000Y-90757640D01*
X105698926Y-90754200D01*
X105698936Y-90754200D01*
X105803420Y-90743909D01*
X105937481Y-90703242D01*
X106061033Y-90637202D01*
X106169327Y-90548327D01*
X106191601Y-90521186D01*
X106192787Y-90520000D01*
X106269014Y-90520000D01*
X106459314Y-90482147D01*
X106638572Y-90407896D01*
X106770250Y-90319911D01*
X106776068Y-90349158D01*
X106888010Y-90619411D01*
X107050525Y-90862632D01*
X107182380Y-90994487D01*
X107109820Y-91016498D01*
X106999506Y-91075463D01*
X106902815Y-91154815D01*
X106823463Y-91251506D01*
X106764498Y-91361820D01*
X106728188Y-91481518D01*
X106715928Y-91606000D01*
X106715928Y-93306000D01*
X106728188Y-93430482D01*
X106764498Y-93550180D01*
X106823463Y-93660494D01*
X106902815Y-93757185D01*
X106999506Y-93836537D01*
X107109820Y-93895502D01*
X107229518Y-93931812D01*
X107354000Y-93944072D01*
X109054000Y-93944072D01*
X109178482Y-93931812D01*
X109298180Y-93895502D01*
X109408494Y-93836537D01*
X109505185Y-93757185D01*
X109584537Y-93660494D01*
X109643502Y-93550180D01*
X109679812Y-93430482D01*
X109692072Y-93306000D01*
X109692072Y-91606000D01*
X109679812Y-91481518D01*
X109643502Y-91361820D01*
X109584537Y-91251506D01*
X109505185Y-91154815D01*
X109408494Y-91075463D01*
X109298180Y-91016498D01*
X109225620Y-90994487D01*
X109357475Y-90862632D01*
X109519990Y-90619411D01*
X109631932Y-90349158D01*
X109689000Y-90062260D01*
X109689000Y-89769740D01*
X109631932Y-89482842D01*
X109519990Y-89212589D01*
X109357475Y-88969368D01*
X109150632Y-88762525D01*
X108976240Y-88646000D01*
X109150632Y-88529475D01*
X109357475Y-88322632D01*
X109519990Y-88079411D01*
X109631932Y-87809158D01*
X109689000Y-87522260D01*
X109689000Y-87229740D01*
X109631932Y-86942842D01*
X109519990Y-86672589D01*
X109357475Y-86429368D01*
X109150632Y-86222525D01*
X108976240Y-86106000D01*
X109150632Y-85989475D01*
X109357475Y-85782632D01*
X109514786Y-85547200D01*
X110074074Y-85547200D01*
X110109000Y-85550640D01*
X110143926Y-85547200D01*
X110143936Y-85547200D01*
X110248420Y-85536909D01*
X110382481Y-85496242D01*
X110506033Y-85430202D01*
X110614327Y-85341327D01*
X110636601Y-85314186D01*
X110850103Y-85100685D01*
X110964686Y-85148147D01*
X111154986Y-85186000D01*
X111349014Y-85186000D01*
X111539314Y-85148147D01*
X111718572Y-85073896D01*
X111879901Y-84966099D01*
X112017099Y-84828901D01*
X112071894Y-84746895D01*
X112117716Y-84832623D01*
%TA.AperFunction,Conductor*%
D31*
G36*
X112117716Y-84832623D02*
G01*
X112259551Y-85005449D01*
X112432377Y-85147284D01*
X112629553Y-85252676D01*
X112843501Y-85317577D01*
X113010248Y-85334000D01*
X113229096Y-85334000D01*
X113222892Y-85348978D01*
X113186000Y-85534448D01*
X113186000Y-85723552D01*
X113222892Y-85909022D01*
X113295259Y-86083731D01*
X113400319Y-86240964D01*
X113534036Y-86374681D01*
X113691269Y-86479741D01*
X113865978Y-86552108D01*
X114051448Y-86589000D01*
X114240552Y-86589000D01*
X114426022Y-86552108D01*
X114600731Y-86479741D01*
X114706400Y-86409135D01*
X114706400Y-86488016D01*
X114702836Y-86524200D01*
X114706400Y-86560383D01*
X114706400Y-86560385D01*
X114717058Y-86668598D01*
X114756007Y-86796993D01*
X114677901Y-86875099D01*
X114613464Y-86971536D01*
X114500572Y-86896104D01*
X114321314Y-86821853D01*
X114131014Y-86784000D01*
X113936986Y-86784000D01*
X113746686Y-86821853D01*
X113567428Y-86896104D01*
X113406099Y-87003901D01*
X113268901Y-87141099D01*
X113161104Y-87302428D01*
X113086853Y-87481686D01*
X113049000Y-87671986D01*
X113049000Y-87866014D01*
X113086853Y-88056314D01*
X113161104Y-88235572D01*
X113175596Y-88257261D01*
X113154904Y-88288228D01*
X113080653Y-88467486D01*
X113042800Y-88657786D01*
X113042800Y-88851814D01*
X113080653Y-89042114D01*
X113154904Y-89221372D01*
X113262701Y-89382701D01*
X113399899Y-89519899D01*
X113561228Y-89627696D01*
X113740486Y-89701947D01*
X113930786Y-89739800D01*
X114012919Y-89739800D01*
X114047601Y-89774482D01*
X114047600Y-90449765D01*
X113865978Y-90485892D01*
X113691269Y-90558259D01*
X113534036Y-90663319D01*
X113400319Y-90797036D01*
X113295259Y-90954269D01*
X113222892Y-91128978D01*
X113186000Y-91314448D01*
X113186000Y-91503552D01*
X113222892Y-91689022D01*
X113229096Y-91704000D01*
X113010248Y-91704000D01*
X112843501Y-91720423D01*
X112629553Y-91785324D01*
X112432377Y-91890716D01*
X112259551Y-92032551D01*
X112117716Y-92205377D01*
X112012324Y-92402553D01*
X111947423Y-92616501D01*
X111925509Y-92839000D01*
X111947423Y-93061499D01*
X112012324Y-93275447D01*
X112117716Y-93472623D01*
X112259551Y-93645449D01*
X112432377Y-93787284D01*
X112629553Y-93892676D01*
X112843501Y-93957577D01*
X113010248Y-93974000D01*
X114221752Y-93974000D01*
X114388499Y-93957577D01*
X114602447Y-93892676D01*
X114799623Y-93787284D01*
X114972449Y-93645449D01*
X115114284Y-93472623D01*
X115219676Y-93275447D01*
X115284577Y-93061499D01*
X115306491Y-92839000D01*
X115298372Y-92756561D01*
X115350533Y-92784442D01*
X115484594Y-92825109D01*
X115589078Y-92835400D01*
X115589087Y-92835400D01*
X115624013Y-92838840D01*
X115658939Y-92835400D01*
X116355864Y-92835400D01*
X116355509Y-92839000D01*
X116377423Y-93061499D01*
X116442324Y-93275447D01*
X116547716Y-93472623D01*
X116689551Y-93645449D01*
X116862377Y-93787284D01*
X117059553Y-93892676D01*
X117273501Y-93957577D01*
X117440248Y-93974000D01*
X118151752Y-93974000D01*
X118318499Y-93957577D01*
X118532447Y-93892676D01*
X118729623Y-93787284D01*
X118902449Y-93645449D01*
X119044284Y-93472623D01*
X119149676Y-93275447D01*
X119201966Y-93103072D01*
X120087000Y-93103072D01*
X120211482Y-93090812D01*
X120244000Y-93080948D01*
X120244000Y-95860000D01*
X105666276Y-95860000D01*
X105781282Y-95582352D01*
X105841800Y-95278104D01*
X105841800Y-94967896D01*
X105781282Y-94663648D01*
X105662570Y-94377052D01*
X105490227Y-94119123D01*
X105270877Y-93899773D01*
X105012948Y-93727430D01*
X104726352Y-93608718D01*
X104422104Y-93548200D01*
X104111896Y-93548200D01*
X103807648Y-93608718D01*
X103521052Y-93727430D01*
X103263123Y-93899773D01*
X103175825Y-93987071D01*
X103162865Y-93949914D01*
X103077723Y-93790623D01*
X102819476Y-93702129D01*
X101906605Y-94615000D01*
X101920748Y-94629143D01*
X101741143Y-94808748D01*
X101727000Y-94794605D01*
X101712858Y-94808748D01*
X101533253Y-94629143D01*
X101547395Y-94615000D01*
X100634524Y-93702129D01*
X100376277Y-93790623D01*
X100280370Y-93989266D01*
X100190877Y-93899773D01*
X99932948Y-93727430D01*
X99898200Y-93713037D01*
X99898200Y-93522524D01*
X100814129Y-93522524D01*
X101727000Y-94435395D01*
X102639871Y-93522524D01*
X102551377Y-93264277D01*
X102272024Y-93129403D01*
X101971725Y-93051619D01*
X101662023Y-93033916D01*
X101354816Y-93076973D01*
X101061914Y-93179135D01*
X100902623Y-93264277D01*
X100814129Y-93522524D01*
X99898200Y-93522524D01*
X99898200Y-88686587D01*
X102739894Y-85844894D01*
X102750099Y-85855099D01*
X102911428Y-85962896D01*
X103090686Y-86037147D01*
X103280986Y-86075000D01*
X103419213Y-86075000D01*
X103280810Y-86213403D01*
X103253673Y-86235674D01*
X103164798Y-86343968D01*
X103098758Y-86467520D01*
X103058091Y-86601581D01*
X103047800Y-86706065D01*
X103047800Y-86706074D01*
X103044360Y-86741000D01*
X103047800Y-86775926D01*
X103047801Y-89754064D01*
X103044360Y-89789000D01*
X103047801Y-89823936D01*
X103058092Y-89928420D01*
X103092982Y-90043437D01*
X103098759Y-90062481D01*
X103164798Y-90186032D01*
X103179610Y-90204080D01*
X103253674Y-90294327D01*
X103280809Y-90316596D01*
X103485402Y-90521190D01*
X103507673Y-90548327D01*
X103615967Y-90637202D01*
X103739519Y-90703242D01*
X103873580Y-90743909D01*
X103978064Y-90754200D01*
X103978073Y-90754200D01*
X104012999Y-90757640D01*
X104047925Y-90754200D01*
X105629074Y-90754200D01*
X105664000Y-90757640D01*
X105698926Y-90754200D01*
X105698936Y-90754200D01*
X105803420Y-90743909D01*
X105937481Y-90703242D01*
X106061033Y-90637202D01*
X106169327Y-90548327D01*
X106191601Y-90521186D01*
X106192787Y-90520000D01*
X106269014Y-90520000D01*
X106459314Y-90482147D01*
X106638572Y-90407896D01*
X106770250Y-90319911D01*
X106776068Y-90349158D01*
X106888010Y-90619411D01*
X107050525Y-90862632D01*
X107182380Y-90994487D01*
X107109820Y-91016498D01*
X106999506Y-91075463D01*
X106902815Y-91154815D01*
X106823463Y-91251506D01*
X106764498Y-91361820D01*
X106728188Y-91481518D01*
X106715928Y-91606000D01*
X106715928Y-93306000D01*
X106728188Y-93430482D01*
X106764498Y-93550180D01*
X106823463Y-93660494D01*
X106902815Y-93757185D01*
X106999506Y-93836537D01*
X107109820Y-93895502D01*
X107229518Y-93931812D01*
X107354000Y-93944072D01*
X109054000Y-93944072D01*
X109178482Y-93931812D01*
X109298180Y-93895502D01*
X109408494Y-93836537D01*
X109505185Y-93757185D01*
X109584537Y-93660494D01*
X109643502Y-93550180D01*
X109679812Y-93430482D01*
X109692072Y-93306000D01*
X109692072Y-91606000D01*
X109679812Y-91481518D01*
X109643502Y-91361820D01*
X109584537Y-91251506D01*
X109505185Y-91154815D01*
X109408494Y-91075463D01*
X109298180Y-91016498D01*
X109225620Y-90994487D01*
X109357475Y-90862632D01*
X109519990Y-90619411D01*
X109631932Y-90349158D01*
X109689000Y-90062260D01*
X109689000Y-89769740D01*
X109631932Y-89482842D01*
X109519990Y-89212589D01*
X109357475Y-88969368D01*
X109150632Y-88762525D01*
X108976240Y-88646000D01*
X109150632Y-88529475D01*
X109357475Y-88322632D01*
X109519990Y-88079411D01*
X109631932Y-87809158D01*
X109689000Y-87522260D01*
X109689000Y-87229740D01*
X109631932Y-86942842D01*
X109519990Y-86672589D01*
X109357475Y-86429368D01*
X109150632Y-86222525D01*
X108976240Y-86106000D01*
X109150632Y-85989475D01*
X109357475Y-85782632D01*
X109514786Y-85547200D01*
X110074074Y-85547200D01*
X110109000Y-85550640D01*
X110143926Y-85547200D01*
X110143936Y-85547200D01*
X110248420Y-85536909D01*
X110382481Y-85496242D01*
X110506033Y-85430202D01*
X110614327Y-85341327D01*
X110636601Y-85314186D01*
X110850103Y-85100685D01*
X110964686Y-85148147D01*
X111154986Y-85186000D01*
X111349014Y-85186000D01*
X111539314Y-85148147D01*
X111718572Y-85073896D01*
X111879901Y-84966099D01*
X112017099Y-84828901D01*
X112071894Y-84746895D01*
X112117716Y-84832623D01*
G37*
%TD.AperFunction*%
D30*
X93395800Y-93713037D02*
X93361052Y-93727430D01*
X93103123Y-93899773D01*
X93012735Y-93990161D01*
X92962570Y-93869052D01*
X92952623Y-93854165D01*
X93395800Y-93410987D01*
X93395800Y-93713037D01*
%TA.AperFunction,Conductor*%
D31*
G36*
X93395800Y-93713037D02*
G01*
X93361052Y-93727430D01*
X93103123Y-93899773D01*
X93012735Y-93990161D01*
X92962570Y-93869052D01*
X92952623Y-93854165D01*
X93395800Y-93410987D01*
X93395800Y-93713037D01*
G37*
%TD.AperFunction*%
D30*
X95935801Y-93205037D02*
X95901052Y-93219430D01*
X95643123Y-93391773D01*
X95423773Y-93611123D01*
X95251430Y-93869052D01*
X95201265Y-93990161D01*
X95110877Y-93899773D01*
X94852948Y-93727430D01*
X94818200Y-93713037D01*
X94818200Y-92623587D01*
X95935800Y-91505987D01*
X95935801Y-93205037D01*
%TA.AperFunction,Conductor*%
D31*
G36*
X95935801Y-93205037D02*
G01*
X95901052Y-93219430D01*
X95643123Y-93391773D01*
X95423773Y-93611123D01*
X95251430Y-93869052D01*
X95201265Y-93990161D01*
X95110877Y-93899773D01*
X94852948Y-93727430D01*
X94818200Y-93713037D01*
X94818200Y-92623587D01*
X95935800Y-91505987D01*
X95935801Y-93205037D01*
G37*
%TD.AperFunction*%
D30*
X98475800Y-93713037D02*
X98441052Y-93727430D01*
X98183123Y-93899773D01*
X98092735Y-93990161D01*
X98042570Y-93869052D01*
X97870227Y-93611123D01*
X97650877Y-93391773D01*
X97392948Y-93219430D01*
X97358200Y-93205037D01*
X97358200Y-90718587D01*
X98475801Y-89600986D01*
X98475800Y-93713037D01*
%TA.AperFunction,Conductor*%
D31*
G36*
X98475800Y-93713037D02*
G01*
X98441052Y-93727430D01*
X98183123Y-93899773D01*
X98092735Y-93990161D01*
X98042570Y-93869052D01*
X97870227Y-93611123D01*
X97650877Y-93391773D01*
X97392948Y-93219430D01*
X97358200Y-93205037D01*
X97358200Y-90718587D01*
X98475801Y-89600986D01*
X98475800Y-93713037D01*
G37*
%TD.AperFunction*%
D30*
X97012609Y-71272604D02*
X96985473Y-71294874D01*
X96896598Y-71403168D01*
X96830558Y-71526720D01*
X96789891Y-71660781D01*
X96780980Y-71751252D01*
X96776159Y-71800201D01*
X96779600Y-71835137D01*
X96779599Y-83697612D01*
X90911213Y-89566000D01*
X90834986Y-89566000D01*
X90644686Y-89603853D01*
X90465428Y-89678104D01*
X90304099Y-89785901D01*
X90166901Y-89923099D01*
X90059104Y-90084428D01*
X89984853Y-90263686D01*
X89955136Y-90413085D01*
X89946932Y-90371842D01*
X89834990Y-90101589D01*
X89672475Y-89858368D01*
X89465632Y-89651525D01*
X89291240Y-89535000D01*
X89465632Y-89418475D01*
X89672475Y-89211632D01*
X89829786Y-88976200D01*
X91024074Y-88976200D01*
X91059000Y-88979640D01*
X91093926Y-88976200D01*
X91093936Y-88976200D01*
X91198420Y-88965909D01*
X91332481Y-88925242D01*
X91456033Y-88859202D01*
X91564327Y-88770327D01*
X91586602Y-88743185D01*
X92426195Y-87903593D01*
X92453326Y-87881327D01*
X92475593Y-87854195D01*
X92475597Y-87854191D01*
X92542202Y-87773033D01*
X92576086Y-87709640D01*
X92608242Y-87649481D01*
X92648909Y-87515420D01*
X92659200Y-87410936D01*
X92659200Y-87410929D01*
X92662640Y-87376000D01*
X92659200Y-87341072D01*
X92659200Y-83769200D01*
X92802074Y-83769200D01*
X92837000Y-83772640D01*
X92871926Y-83769200D01*
X92871936Y-83769200D01*
X92976420Y-83758909D01*
X93110481Y-83718242D01*
X93234033Y-83652202D01*
X93342327Y-83563327D01*
X93364602Y-83536185D01*
X94204195Y-82696593D01*
X94231326Y-82674327D01*
X94253593Y-82647195D01*
X94253597Y-82647191D01*
X94320202Y-82566033D01*
X94339247Y-82530403D01*
X94386242Y-82442481D01*
X94426909Y-82308420D01*
X94437200Y-82203936D01*
X94437200Y-82203929D01*
X94440640Y-82169000D01*
X94437200Y-82134072D01*
X94437200Y-81562220D01*
X94447202Y-81550033D01*
X94513242Y-81426481D01*
X94553909Y-81292420D01*
X94555178Y-81279533D01*
X94656937Y-81177774D01*
X94770205Y-81008256D01*
X94848226Y-80819898D01*
X94888000Y-80619939D01*
X94888000Y-80416061D01*
X94848226Y-80216102D01*
X94817542Y-80142024D01*
X95220196Y-79739371D01*
X95247327Y-79717105D01*
X95269593Y-79689974D01*
X95269597Y-79689970D01*
X95336202Y-79608811D01*
X95340487Y-79600795D01*
X95402242Y-79485259D01*
X95442909Y-79351198D01*
X95453200Y-79246714D01*
X95453200Y-79246705D01*
X95456640Y-79211779D01*
X95453200Y-79176853D01*
X95453200Y-72811587D01*
X98211588Y-70053200D01*
X98232012Y-70053200D01*
X97012609Y-71272604D01*
%TA.AperFunction,Conductor*%
D31*
G36*
X97012609Y-71272604D02*
G01*
X96985473Y-71294874D01*
X96896598Y-71403168D01*
X96830558Y-71526720D01*
X96789891Y-71660781D01*
X96780980Y-71751252D01*
X96776159Y-71800201D01*
X96779600Y-71835137D01*
X96779599Y-83697612D01*
X90911213Y-89566000D01*
X90834986Y-89566000D01*
X90644686Y-89603853D01*
X90465428Y-89678104D01*
X90304099Y-89785901D01*
X90166901Y-89923099D01*
X90059104Y-90084428D01*
X89984853Y-90263686D01*
X89955136Y-90413085D01*
X89946932Y-90371842D01*
X89834990Y-90101589D01*
X89672475Y-89858368D01*
X89465632Y-89651525D01*
X89291240Y-89535000D01*
X89465632Y-89418475D01*
X89672475Y-89211632D01*
X89829786Y-88976200D01*
X91024074Y-88976200D01*
X91059000Y-88979640D01*
X91093926Y-88976200D01*
X91093936Y-88976200D01*
X91198420Y-88965909D01*
X91332481Y-88925242D01*
X91456033Y-88859202D01*
X91564327Y-88770327D01*
X91586602Y-88743185D01*
X92426195Y-87903593D01*
X92453326Y-87881327D01*
X92475593Y-87854195D01*
X92475597Y-87854191D01*
X92542202Y-87773033D01*
X92576086Y-87709640D01*
X92608242Y-87649481D01*
X92648909Y-87515420D01*
X92659200Y-87410936D01*
X92659200Y-87410929D01*
X92662640Y-87376000D01*
X92659200Y-87341072D01*
X92659200Y-83769200D01*
X92802074Y-83769200D01*
X92837000Y-83772640D01*
X92871926Y-83769200D01*
X92871936Y-83769200D01*
X92976420Y-83758909D01*
X93110481Y-83718242D01*
X93234033Y-83652202D01*
X93342327Y-83563327D01*
X93364602Y-83536185D01*
X94204195Y-82696593D01*
X94231326Y-82674327D01*
X94253593Y-82647195D01*
X94253597Y-82647191D01*
X94320202Y-82566033D01*
X94339247Y-82530403D01*
X94386242Y-82442481D01*
X94426909Y-82308420D01*
X94437200Y-82203936D01*
X94437200Y-82203929D01*
X94440640Y-82169000D01*
X94437200Y-82134072D01*
X94437200Y-81562220D01*
X94447202Y-81550033D01*
X94513242Y-81426481D01*
X94553909Y-81292420D01*
X94555178Y-81279533D01*
X94656937Y-81177774D01*
X94770205Y-81008256D01*
X94848226Y-80819898D01*
X94888000Y-80619939D01*
X94888000Y-80416061D01*
X94848226Y-80216102D01*
X94817542Y-80142024D01*
X95220196Y-79739371D01*
X95247327Y-79717105D01*
X95269593Y-79689974D01*
X95269597Y-79689970D01*
X95336202Y-79608811D01*
X95340487Y-79600795D01*
X95402242Y-79485259D01*
X95442909Y-79351198D01*
X95453200Y-79246714D01*
X95453200Y-79246705D01*
X95456640Y-79211779D01*
X95453200Y-79176853D01*
X95453200Y-72811587D01*
X98211588Y-70053200D01*
X98232012Y-70053200D01*
X97012609Y-71272604D01*
G37*
%TD.AperFunction*%
D30*
X71964273Y-79884680D02*
X72225426Y-79992853D01*
X72502665Y-80048000D01*
X72785335Y-80048000D01*
X72832059Y-80038706D01*
X72711865Y-80279260D01*
X74041000Y-81608395D01*
X74055143Y-81594253D01*
X74234748Y-81773858D01*
X74220605Y-81788000D01*
X75549740Y-83117135D01*
X75867758Y-82958236D01*
X76060959Y-82579368D01*
X76156819Y-82239904D01*
X78270313Y-84353400D01*
X72695109Y-84353400D01*
X71729600Y-83387891D01*
X71729600Y-83296740D01*
X72711865Y-83296740D01*
X72870764Y-83614758D01*
X73249632Y-83807959D01*
X73658913Y-83923534D01*
X74082876Y-83957042D01*
X74505230Y-83907194D01*
X74909744Y-83775908D01*
X75211236Y-83614758D01*
X75370135Y-83296740D01*
X74041000Y-81967605D01*
X72711865Y-83296740D01*
X71729600Y-83296740D01*
X71729600Y-81829876D01*
X71871958Y-81829876D01*
X71921806Y-82252230D01*
X72053092Y-82656744D01*
X72214242Y-82958236D01*
X72532260Y-83117135D01*
X73861395Y-81788000D01*
X72532260Y-80458865D01*
X72214242Y-80617764D01*
X72021041Y-80996632D01*
X71905466Y-81405913D01*
X71871958Y-81829876D01*
X71729600Y-81829876D01*
X71729600Y-79727877D01*
X71964273Y-79884680D01*
%TA.AperFunction,Conductor*%
D31*
G36*
X71964273Y-79884680D02*
G01*
X72225426Y-79992853D01*
X72502665Y-80048000D01*
X72785335Y-80048000D01*
X72832059Y-80038706D01*
X72711865Y-80279260D01*
X74041000Y-81608395D01*
X74055143Y-81594253D01*
X74234748Y-81773858D01*
X74220605Y-81788000D01*
X75549740Y-83117135D01*
X75867758Y-82958236D01*
X76060959Y-82579368D01*
X76156819Y-82239904D01*
X78270313Y-84353400D01*
X72695109Y-84353400D01*
X71729600Y-83387891D01*
X71729600Y-83296740D01*
X72711865Y-83296740D01*
X72870764Y-83614758D01*
X73249632Y-83807959D01*
X73658913Y-83923534D01*
X74082876Y-83957042D01*
X74505230Y-83907194D01*
X74909744Y-83775908D01*
X75211236Y-83614758D01*
X75370135Y-83296740D01*
X74041000Y-81967605D01*
X72711865Y-83296740D01*
X71729600Y-83296740D01*
X71729600Y-81829876D01*
X71871958Y-81829876D01*
X71921806Y-82252230D01*
X72053092Y-82656744D01*
X72214242Y-82958236D01*
X72532260Y-83117135D01*
X73861395Y-81788000D01*
X72532260Y-80458865D01*
X72214242Y-80617764D01*
X72021041Y-80996632D01*
X71905466Y-81405913D01*
X71871958Y-81829876D01*
X71729600Y-81829876D01*
X71729600Y-79727877D01*
X71964273Y-79884680D01*
G37*
%TD.AperFunction*%
D30*
X120244000Y-83449052D02*
X120211482Y-83439188D01*
X120087000Y-83426928D01*
X118930662Y-83426928D01*
X118902449Y-83392551D01*
X118729623Y-83250716D01*
X118532447Y-83145324D01*
X118318499Y-83080423D01*
X118151752Y-83064000D01*
X117440248Y-83064000D01*
X117273501Y-83080423D01*
X117059553Y-83145324D01*
X116862377Y-83250716D01*
X116689551Y-83392551D01*
X116620135Y-83477135D01*
X116578901Y-83435901D01*
X116417572Y-83328104D01*
X116238314Y-83253853D01*
X116048014Y-83216000D01*
X115853986Y-83216000D01*
X115663686Y-83253853D01*
X115484428Y-83328104D01*
X115323099Y-83435901D01*
X115185901Y-83573099D01*
X115148406Y-83629215D01*
X115114284Y-83565377D01*
X114972449Y-83392551D01*
X114799623Y-83250716D01*
X114602447Y-83145324D01*
X114388499Y-83080423D01*
X114221752Y-83064000D01*
X113010248Y-83064000D01*
X112843501Y-83080423D01*
X112629553Y-83145324D01*
X112432377Y-83250716D01*
X112259551Y-83392551D01*
X112117716Y-83565377D01*
X112070706Y-83653327D01*
X112017099Y-83573099D01*
X111879901Y-83435901D01*
X111718572Y-83328104D01*
X111539314Y-83253853D01*
X111349014Y-83216000D01*
X111154986Y-83216000D01*
X110964686Y-83253853D01*
X110785428Y-83328104D01*
X110624099Y-83435901D01*
X110540458Y-83519542D01*
X110470518Y-83540758D01*
X110346967Y-83606798D01*
X110265809Y-83673402D01*
X110265804Y-83673407D01*
X110238673Y-83695673D01*
X110216407Y-83722804D01*
X109814412Y-84124800D01*
X109514786Y-84124800D01*
X109357475Y-83889368D01*
X109150632Y-83682525D01*
X108968466Y-83560805D01*
X109085355Y-83491178D01*
X109301588Y-83296269D01*
X109475641Y-83062920D01*
X109600825Y-82800099D01*
X109645476Y-82652890D01*
X109524155Y-82423000D01*
X108331000Y-82423000D01*
X108331000Y-82443000D01*
X108077000Y-82443000D01*
X108077000Y-82423000D01*
X108057000Y-82423000D01*
X108057000Y-82169000D01*
X108077000Y-82169000D01*
X108077000Y-82149000D01*
X108331000Y-82149000D01*
X108331000Y-82169000D01*
X109524155Y-82169000D01*
X109617871Y-81991419D01*
X109649720Y-82008443D01*
X109783781Y-82049110D01*
X109888265Y-82059401D01*
X109888274Y-82059401D01*
X109923200Y-82062841D01*
X109958126Y-82059401D01*
X111656873Y-82059401D01*
X111691799Y-82062841D01*
X111726725Y-82059401D01*
X111726735Y-82059401D01*
X111831219Y-82049110D01*
X111965280Y-82008443D01*
X112088832Y-81942403D01*
X112197126Y-81853528D01*
X112219400Y-81826387D01*
X112415788Y-81630000D01*
X112492014Y-81630000D01*
X112682314Y-81592147D01*
X112861572Y-81517896D01*
X113022901Y-81410099D01*
X113160099Y-81272901D01*
X113267896Y-81111572D01*
X113342147Y-80932314D01*
X113380000Y-80742014D01*
X113380000Y-80547986D01*
X113342147Y-80357686D01*
X113267896Y-80178428D01*
X113160099Y-80017099D01*
X113022901Y-79879901D01*
X112861572Y-79772104D01*
X112682314Y-79697853D01*
X112492014Y-79660000D01*
X112297986Y-79660000D01*
X112107686Y-79697853D01*
X111928428Y-79772104D01*
X111767099Y-79879901D01*
X111629901Y-80017099D01*
X111522104Y-80178428D01*
X111477305Y-80286584D01*
X111382099Y-80144099D01*
X111244901Y-80006901D01*
X111083572Y-79899104D01*
X110904314Y-79824853D01*
X110714014Y-79787000D01*
X110637788Y-79787000D01*
X110509601Y-79658814D01*
X110487327Y-79631673D01*
X110379033Y-79542798D01*
X110255481Y-79476758D01*
X110121420Y-79436091D01*
X110016936Y-79425800D01*
X110016926Y-79425800D01*
X109982000Y-79422360D01*
X109947074Y-79425800D01*
X105063928Y-79425800D01*
X105029000Y-79422360D01*
X104994071Y-79425800D01*
X104994064Y-79425800D01*
X104889580Y-79436091D01*
X104755518Y-79476758D01*
X104631967Y-79542798D01*
X104627989Y-79546063D01*
X104667000Y-79349939D01*
X104667000Y-79146061D01*
X104627226Y-78946102D01*
X104549205Y-78757744D01*
X104435937Y-78588226D01*
X104291774Y-78444063D01*
X104122256Y-78330795D01*
X103933898Y-78252774D01*
X103868102Y-78239686D01*
X104170402Y-77937387D01*
X104197527Y-77915126D01*
X104219789Y-77888000D01*
X104219799Y-77887990D01*
X104286403Y-77806832D01*
X104352443Y-77683281D01*
X104393110Y-77549219D01*
X104400595Y-77473223D01*
X104403401Y-77444735D01*
X104403401Y-77444728D01*
X104406841Y-77409799D01*
X104403401Y-77374871D01*
X104403401Y-76703500D01*
X104591514Y-76703500D01*
X104781814Y-76665647D01*
X104961072Y-76591396D01*
X105122401Y-76483599D01*
X105259599Y-76346401D01*
X105367396Y-76185072D01*
X105441647Y-76005814D01*
X105479500Y-75815514D01*
X105479500Y-75775209D01*
X106083442Y-75171268D01*
X106083447Y-75171262D01*
X106350109Y-74904600D01*
X109183817Y-74904600D01*
X109220000Y-74908164D01*
X109256183Y-74904600D01*
X109256186Y-74904600D01*
X109364399Y-74893942D01*
X109503249Y-74851822D01*
X109631213Y-74783424D01*
X109743375Y-74691375D01*
X109766446Y-74663263D01*
X111816709Y-72613000D01*
X111857014Y-72613000D01*
X112047314Y-72575147D01*
X112226572Y-72500896D01*
X112387901Y-72393099D01*
X112525099Y-72255901D01*
X112632896Y-72094572D01*
X112707147Y-71915314D01*
X112745000Y-71725014D01*
X112745000Y-71530986D01*
X112707147Y-71340686D01*
X112632896Y-71161428D01*
X112525099Y-71000099D01*
X112387901Y-70862901D01*
X112226572Y-70755104D01*
X112047314Y-70680853D01*
X111857014Y-70643000D01*
X111662986Y-70643000D01*
X111472686Y-70680853D01*
X111293428Y-70755104D01*
X111132099Y-70862901D01*
X110994901Y-71000099D01*
X110887104Y-71161428D01*
X110812853Y-71340686D01*
X110775000Y-71530986D01*
X110775000Y-71571291D01*
X108914891Y-73431400D01*
X106860611Y-73431400D01*
X107031201Y-73260810D01*
X107058326Y-73238549D01*
X107080588Y-73211423D01*
X107080598Y-73211413D01*
X107147202Y-73130255D01*
X107213242Y-73006704D01*
X107253909Y-72872642D01*
X107253909Y-72872641D01*
X107264200Y-72768158D01*
X107264200Y-72768151D01*
X107267640Y-72733222D01*
X107264200Y-72698294D01*
X107264200Y-72548202D01*
X107549740Y-72605000D01*
X107842260Y-72605000D01*
X108129158Y-72547932D01*
X108399411Y-72435990D01*
X108642632Y-72273475D01*
X108849475Y-72066632D01*
X109011990Y-71823411D01*
X109123932Y-71553158D01*
X109181000Y-71266260D01*
X109181000Y-70973740D01*
X109123932Y-70686842D01*
X109011990Y-70416589D01*
X108849475Y-70173368D01*
X108642632Y-69966525D01*
X108399411Y-69804010D01*
X108129158Y-69692068D01*
X107842260Y-69635000D01*
X107549740Y-69635000D01*
X107262842Y-69692068D01*
X107215693Y-69711598D01*
X107213242Y-69703518D01*
X107147202Y-69579967D01*
X107080598Y-69498809D01*
X107080593Y-69498804D01*
X107058327Y-69471673D01*
X107031196Y-69449407D01*
X106821788Y-69240000D01*
X120244001Y-69240000D01*
X120244000Y-83449052D01*
%TA.AperFunction,Conductor*%
D31*
G36*
X120244000Y-83449052D02*
G01*
X120211482Y-83439188D01*
X120087000Y-83426928D01*
X118930662Y-83426928D01*
X118902449Y-83392551D01*
X118729623Y-83250716D01*
X118532447Y-83145324D01*
X118318499Y-83080423D01*
X118151752Y-83064000D01*
X117440248Y-83064000D01*
X117273501Y-83080423D01*
X117059553Y-83145324D01*
X116862377Y-83250716D01*
X116689551Y-83392551D01*
X116620135Y-83477135D01*
X116578901Y-83435901D01*
X116417572Y-83328104D01*
X116238314Y-83253853D01*
X116048014Y-83216000D01*
X115853986Y-83216000D01*
X115663686Y-83253853D01*
X115484428Y-83328104D01*
X115323099Y-83435901D01*
X115185901Y-83573099D01*
X115148406Y-83629215D01*
X115114284Y-83565377D01*
X114972449Y-83392551D01*
X114799623Y-83250716D01*
X114602447Y-83145324D01*
X114388499Y-83080423D01*
X114221752Y-83064000D01*
X113010248Y-83064000D01*
X112843501Y-83080423D01*
X112629553Y-83145324D01*
X112432377Y-83250716D01*
X112259551Y-83392551D01*
X112117716Y-83565377D01*
X112070706Y-83653327D01*
X112017099Y-83573099D01*
X111879901Y-83435901D01*
X111718572Y-83328104D01*
X111539314Y-83253853D01*
X111349014Y-83216000D01*
X111154986Y-83216000D01*
X110964686Y-83253853D01*
X110785428Y-83328104D01*
X110624099Y-83435901D01*
X110540458Y-83519542D01*
X110470518Y-83540758D01*
X110346967Y-83606798D01*
X110265809Y-83673402D01*
X110265804Y-83673407D01*
X110238673Y-83695673D01*
X110216407Y-83722804D01*
X109814412Y-84124800D01*
X109514786Y-84124800D01*
X109357475Y-83889368D01*
X109150632Y-83682525D01*
X108968466Y-83560805D01*
X109085355Y-83491178D01*
X109301588Y-83296269D01*
X109475641Y-83062920D01*
X109600825Y-82800099D01*
X109645476Y-82652890D01*
X109524155Y-82423000D01*
X108331000Y-82423000D01*
X108331000Y-82443000D01*
X108077000Y-82443000D01*
X108077000Y-82423000D01*
X108057000Y-82423000D01*
X108057000Y-82169000D01*
X108077000Y-82169000D01*
X108077000Y-82149000D01*
X108331000Y-82149000D01*
X108331000Y-82169000D01*
X109524155Y-82169000D01*
X109617871Y-81991419D01*
X109649720Y-82008443D01*
X109783781Y-82049110D01*
X109888265Y-82059401D01*
X109888274Y-82059401D01*
X109923200Y-82062841D01*
X109958126Y-82059401D01*
X111656873Y-82059401D01*
X111691799Y-82062841D01*
X111726725Y-82059401D01*
X111726735Y-82059401D01*
X111831219Y-82049110D01*
X111965280Y-82008443D01*
X112088832Y-81942403D01*
X112197126Y-81853528D01*
X112219400Y-81826387D01*
X112415788Y-81630000D01*
X112492014Y-81630000D01*
X112682314Y-81592147D01*
X112861572Y-81517896D01*
X113022901Y-81410099D01*
X113160099Y-81272901D01*
X113267896Y-81111572D01*
X113342147Y-80932314D01*
X113380000Y-80742014D01*
X113380000Y-80547986D01*
X113342147Y-80357686D01*
X113267896Y-80178428D01*
X113160099Y-80017099D01*
X113022901Y-79879901D01*
X112861572Y-79772104D01*
X112682314Y-79697853D01*
X112492014Y-79660000D01*
X112297986Y-79660000D01*
X112107686Y-79697853D01*
X111928428Y-79772104D01*
X111767099Y-79879901D01*
X111629901Y-80017099D01*
X111522104Y-80178428D01*
X111477305Y-80286584D01*
X111382099Y-80144099D01*
X111244901Y-80006901D01*
X111083572Y-79899104D01*
X110904314Y-79824853D01*
X110714014Y-79787000D01*
X110637788Y-79787000D01*
X110509601Y-79658814D01*
X110487327Y-79631673D01*
X110379033Y-79542798D01*
X110255481Y-79476758D01*
X110121420Y-79436091D01*
X110016936Y-79425800D01*
X110016926Y-79425800D01*
X109982000Y-79422360D01*
X109947074Y-79425800D01*
X105063928Y-79425800D01*
X105029000Y-79422360D01*
X104994071Y-79425800D01*
X104994064Y-79425800D01*
X104889580Y-79436091D01*
X104755518Y-79476758D01*
X104631967Y-79542798D01*
X104627989Y-79546063D01*
X104667000Y-79349939D01*
X104667000Y-79146061D01*
X104627226Y-78946102D01*
X104549205Y-78757744D01*
X104435937Y-78588226D01*
X104291774Y-78444063D01*
X104122256Y-78330795D01*
X103933898Y-78252774D01*
X103868102Y-78239686D01*
X104170402Y-77937387D01*
X104197527Y-77915126D01*
X104219789Y-77888000D01*
X104219799Y-77887990D01*
X104286403Y-77806832D01*
X104352443Y-77683281D01*
X104393110Y-77549219D01*
X104400595Y-77473223D01*
X104403401Y-77444735D01*
X104403401Y-77444728D01*
X104406841Y-77409799D01*
X104403401Y-77374871D01*
X104403401Y-76703500D01*
X104591514Y-76703500D01*
X104781814Y-76665647D01*
X104961072Y-76591396D01*
X105122401Y-76483599D01*
X105259599Y-76346401D01*
X105367396Y-76185072D01*
X105441647Y-76005814D01*
X105479500Y-75815514D01*
X105479500Y-75775209D01*
X106083442Y-75171268D01*
X106083447Y-75171262D01*
X106350109Y-74904600D01*
X109183817Y-74904600D01*
X109220000Y-74908164D01*
X109256183Y-74904600D01*
X109256186Y-74904600D01*
X109364399Y-74893942D01*
X109503249Y-74851822D01*
X109631213Y-74783424D01*
X109743375Y-74691375D01*
X109766446Y-74663263D01*
X111816709Y-72613000D01*
X111857014Y-72613000D01*
X112047314Y-72575147D01*
X112226572Y-72500896D01*
X112387901Y-72393099D01*
X112525099Y-72255901D01*
X112632896Y-72094572D01*
X112707147Y-71915314D01*
X112745000Y-71725014D01*
X112745000Y-71530986D01*
X112707147Y-71340686D01*
X112632896Y-71161428D01*
X112525099Y-71000099D01*
X112387901Y-70862901D01*
X112226572Y-70755104D01*
X112047314Y-70680853D01*
X111857014Y-70643000D01*
X111662986Y-70643000D01*
X111472686Y-70680853D01*
X111293428Y-70755104D01*
X111132099Y-70862901D01*
X110994901Y-71000099D01*
X110887104Y-71161428D01*
X110812853Y-71340686D01*
X110775000Y-71530986D01*
X110775000Y-71571291D01*
X108914891Y-73431400D01*
X106860611Y-73431400D01*
X107031201Y-73260810D01*
X107058326Y-73238549D01*
X107080588Y-73211423D01*
X107080598Y-73211413D01*
X107147202Y-73130255D01*
X107213242Y-73006704D01*
X107253909Y-72872642D01*
X107253909Y-72872641D01*
X107264200Y-72768158D01*
X107264200Y-72768151D01*
X107267640Y-72733222D01*
X107264200Y-72698294D01*
X107264200Y-72548202D01*
X107549740Y-72605000D01*
X107842260Y-72605000D01*
X108129158Y-72547932D01*
X108399411Y-72435990D01*
X108642632Y-72273475D01*
X108849475Y-72066632D01*
X109011990Y-71823411D01*
X109123932Y-71553158D01*
X109181000Y-71266260D01*
X109181000Y-70973740D01*
X109123932Y-70686842D01*
X109011990Y-70416589D01*
X108849475Y-70173368D01*
X108642632Y-69966525D01*
X108399411Y-69804010D01*
X108129158Y-69692068D01*
X107842260Y-69635000D01*
X107549740Y-69635000D01*
X107262842Y-69692068D01*
X107215693Y-69711598D01*
X107213242Y-69703518D01*
X107147202Y-69579967D01*
X107080598Y-69498809D01*
X107080593Y-69498804D01*
X107058327Y-69471673D01*
X107031196Y-69449407D01*
X106821788Y-69240000D01*
X120244001Y-69240000D01*
X120244000Y-83449052D01*
G37*
%TD.AperFunction*%
D30*
X94263811Y-71989402D02*
X94236673Y-72011674D01*
X94147798Y-72119968D01*
X94081758Y-72243520D01*
X94041091Y-72377581D01*
X94030800Y-72482065D01*
X94030800Y-72482074D01*
X94027360Y-72517000D01*
X94030800Y-72551926D01*
X94030801Y-78279069D01*
X93950014Y-78263000D01*
X93755986Y-78263000D01*
X93565686Y-78300853D01*
X93386428Y-78375104D01*
X93225099Y-78482901D01*
X93171200Y-78536800D01*
X91220925Y-78536800D01*
X91185999Y-78533360D01*
X91151073Y-78536800D01*
X91151064Y-78536800D01*
X91046580Y-78547091D01*
X90912519Y-78587758D01*
X90832098Y-78630744D01*
X90788967Y-78653798D01*
X90707808Y-78720403D01*
X90707804Y-78720407D01*
X90680673Y-78742673D01*
X90658407Y-78769804D01*
X89755310Y-79672903D01*
X89728174Y-79695173D01*
X89705904Y-79722309D01*
X89705903Y-79722310D01*
X89639298Y-79803468D01*
X89580920Y-79912687D01*
X89573259Y-79927019D01*
X89532592Y-80061080D01*
X89525327Y-80134841D01*
X89518860Y-80200500D01*
X89522301Y-80235436D01*
X89522301Y-81717930D01*
X89493482Y-81709188D01*
X89369000Y-81696928D01*
X87669000Y-81696928D01*
X87544518Y-81709188D01*
X87424820Y-81745498D01*
X87314506Y-81804463D01*
X87217815Y-81883815D01*
X87138463Y-81980506D01*
X87079498Y-82090820D01*
X87043188Y-82210518D01*
X87030928Y-82335000D01*
X87030928Y-83483111D01*
X86965014Y-83470000D01*
X86770986Y-83470000D01*
X86580686Y-83507853D01*
X86401428Y-83582104D01*
X86240099Y-83689901D01*
X86186200Y-83743800D01*
X80303814Y-83743800D01*
X80545236Y-83614758D01*
X80704135Y-83296740D01*
X79375000Y-81967605D01*
X79360858Y-81981748D01*
X79181253Y-81802143D01*
X79195395Y-81788000D01*
X79554605Y-81788000D01*
X80883740Y-83117135D01*
X81201758Y-82958236D01*
X81394959Y-82579368D01*
X81510534Y-82170087D01*
X81544042Y-81746124D01*
X81494194Y-81323770D01*
X81362908Y-80919256D01*
X81201758Y-80617764D01*
X80883740Y-80458865D01*
X79554605Y-81788000D01*
X79195395Y-81788000D01*
X77866260Y-80458865D01*
X77548242Y-80617764D01*
X77355041Y-80996632D01*
X77260371Y-81331882D01*
X75827977Y-79899488D01*
X75863727Y-79884680D01*
X76098759Y-79727637D01*
X76298637Y-79527759D01*
X76454000Y-79295241D01*
X76609363Y-79527759D01*
X76809241Y-79727637D01*
X77044273Y-79884680D01*
X77305426Y-79992853D01*
X77582665Y-80048000D01*
X77865335Y-80048000D01*
X78142574Y-79992853D01*
X78201078Y-79968620D01*
X78045865Y-80279260D01*
X79375000Y-81608395D01*
X80704135Y-80279260D01*
X80572019Y-80014844D01*
X80682574Y-79992853D01*
X80943727Y-79884680D01*
X81178759Y-79727637D01*
X81378637Y-79527759D01*
X81534000Y-79295241D01*
X81689363Y-79527759D01*
X81889241Y-79727637D01*
X82124273Y-79884680D01*
X82385426Y-79992853D01*
X82662665Y-80048000D01*
X82945335Y-80048000D01*
X83222574Y-79992853D01*
X83483727Y-79884680D01*
X83718759Y-79727637D01*
X83918637Y-79527759D01*
X84074000Y-79295241D01*
X84229363Y-79527759D01*
X84429241Y-79727637D01*
X84664273Y-79884680D01*
X84925426Y-79992853D01*
X85202665Y-80048000D01*
X85485335Y-80048000D01*
X85762574Y-79992853D01*
X86023727Y-79884680D01*
X86258759Y-79727637D01*
X86458637Y-79527759D01*
X86615680Y-79292727D01*
X86723853Y-79031574D01*
X86779000Y-78754335D01*
X86779000Y-78471665D01*
X86723853Y-78194426D01*
X86615680Y-77933273D01*
X86458637Y-77698241D01*
X86258759Y-77498363D01*
X86023727Y-77341320D01*
X85762574Y-77233147D01*
X85485335Y-77178000D01*
X85202665Y-77178000D01*
X84925426Y-77233147D01*
X84664273Y-77341320D01*
X84429241Y-77498363D01*
X84229363Y-77698241D01*
X84074000Y-77930759D01*
X83918637Y-77698241D01*
X83718759Y-77498363D01*
X83483727Y-77341320D01*
X83222574Y-77233147D01*
X82945335Y-77178000D01*
X82662665Y-77178000D01*
X82385426Y-77233147D01*
X82124273Y-77341320D01*
X81889241Y-77498363D01*
X81689363Y-77698241D01*
X81534000Y-77930759D01*
X81378637Y-77698241D01*
X81178759Y-77498363D01*
X80943727Y-77341320D01*
X80682574Y-77233147D01*
X80405335Y-77178000D01*
X80122665Y-77178000D01*
X79845426Y-77233147D01*
X79584273Y-77341320D01*
X79349241Y-77498363D01*
X79149363Y-77698241D01*
X78994000Y-77930759D01*
X78838637Y-77698241D01*
X78638759Y-77498363D01*
X78403727Y-77341320D01*
X78142574Y-77233147D01*
X77865335Y-77178000D01*
X77582665Y-77178000D01*
X77305426Y-77233147D01*
X77044273Y-77341320D01*
X76809241Y-77498363D01*
X76609363Y-77698241D01*
X76454000Y-77930759D01*
X76298637Y-77698241D01*
X76098759Y-77498363D01*
X75863727Y-77341320D01*
X75602574Y-77233147D01*
X75325335Y-77178000D01*
X75042665Y-77178000D01*
X74765426Y-77233147D01*
X74504273Y-77341320D01*
X74269241Y-77498363D01*
X74069363Y-77698241D01*
X73914000Y-77930759D01*
X73758637Y-77698241D01*
X73558759Y-77498363D01*
X73323727Y-77341320D01*
X73062574Y-77233147D01*
X72785335Y-77178000D01*
X72502665Y-77178000D01*
X72225426Y-77233147D01*
X71964273Y-77341320D01*
X71729600Y-77498123D01*
X71729600Y-74062400D01*
X71758099Y-74033901D01*
X71865896Y-73872572D01*
X71940147Y-73693314D01*
X71978000Y-73503014D01*
X71978000Y-73308986D01*
X71940147Y-73118686D01*
X71865896Y-72939428D01*
X71758099Y-72778099D01*
X71620901Y-72640901D01*
X71459572Y-72533104D01*
X71280314Y-72458853D01*
X71090014Y-72421000D01*
X70895986Y-72421000D01*
X70705686Y-72458853D01*
X70526428Y-72533104D01*
X70365099Y-72640901D01*
X70256000Y-72750000D01*
X70256000Y-71342040D01*
X71252091Y-71342040D01*
X71346930Y-71606881D01*
X71491615Y-71848131D01*
X71680586Y-72056519D01*
X71906580Y-72224037D01*
X72160913Y-72344246D01*
X72294961Y-72384904D01*
X72517000Y-72262915D01*
X72517000Y-71120000D01*
X72771000Y-71120000D01*
X72771000Y-72262915D01*
X72993039Y-72384904D01*
X73127087Y-72344246D01*
X73381420Y-72224037D01*
X73607414Y-72056519D01*
X73796385Y-71848131D01*
X73914000Y-71652018D01*
X74031615Y-71848131D01*
X74220586Y-72056519D01*
X74446580Y-72224037D01*
X74700913Y-72344246D01*
X74834961Y-72384904D01*
X75057000Y-72262915D01*
X75057000Y-71120000D01*
X75311000Y-71120000D01*
X75311000Y-72262915D01*
X75533039Y-72384904D01*
X75667087Y-72344246D01*
X75921420Y-72224037D01*
X76147414Y-72056519D01*
X76336385Y-71848131D01*
X76454000Y-71652018D01*
X76571615Y-71848131D01*
X76760586Y-72056519D01*
X76986580Y-72224037D01*
X77240913Y-72344246D01*
X77374961Y-72384904D01*
X77597000Y-72262915D01*
X77597000Y-71120000D01*
X77851000Y-71120000D01*
X77851000Y-72262915D01*
X78073039Y-72384904D01*
X78207087Y-72344246D01*
X78461420Y-72224037D01*
X78687414Y-72056519D01*
X78876385Y-71848131D01*
X78994000Y-71652018D01*
X79111615Y-71848131D01*
X79300586Y-72056519D01*
X79526580Y-72224037D01*
X79780913Y-72344246D01*
X79914961Y-72384904D01*
X80137000Y-72262915D01*
X80137000Y-71120000D01*
X80391000Y-71120000D01*
X80391000Y-72262915D01*
X80613039Y-72384904D01*
X80747087Y-72344246D01*
X81001420Y-72224037D01*
X81227414Y-72056519D01*
X81416385Y-71848131D01*
X81534000Y-71652018D01*
X81651615Y-71848131D01*
X81840586Y-72056519D01*
X82066580Y-72224037D01*
X82320913Y-72344246D01*
X82454961Y-72384904D01*
X82677000Y-72262915D01*
X82677000Y-71120000D01*
X82931000Y-71120000D01*
X82931000Y-72262915D01*
X83153039Y-72384904D01*
X83287087Y-72344246D01*
X83541420Y-72224037D01*
X83767414Y-72056519D01*
X83915769Y-71892920D01*
X83918188Y-71917482D01*
X83954498Y-72037180D01*
X84013463Y-72147494D01*
X84092815Y-72244185D01*
X84189506Y-72323537D01*
X84299820Y-72382502D01*
X84419518Y-72418812D01*
X84544000Y-72431072D01*
X85058250Y-72428000D01*
X85217000Y-72269250D01*
X85217000Y-71120000D01*
X85471000Y-71120000D01*
X85471000Y-72269250D01*
X85629750Y-72428000D01*
X86144000Y-72431072D01*
X86268482Y-72418812D01*
X86388180Y-72382502D01*
X86498494Y-72323537D01*
X86595185Y-72244185D01*
X86674537Y-72147494D01*
X86733502Y-72037180D01*
X86769812Y-71917482D01*
X86782072Y-71793000D01*
X86779000Y-71278750D01*
X86620250Y-71120000D01*
X85471000Y-71120000D01*
X85217000Y-71120000D01*
X82931000Y-71120000D01*
X82677000Y-71120000D01*
X80391000Y-71120000D01*
X80137000Y-71120000D01*
X77851000Y-71120000D01*
X77597000Y-71120000D01*
X75311000Y-71120000D01*
X75057000Y-71120000D01*
X72771000Y-71120000D01*
X72517000Y-71120000D01*
X71373376Y-71120000D01*
X71252091Y-71342040D01*
X70256000Y-71342040D01*
X70256000Y-70643960D01*
X71252091Y-70643960D01*
X71373376Y-70866000D01*
X72517000Y-70866000D01*
X72517000Y-69723085D01*
X72771000Y-69723085D01*
X72771000Y-70866000D01*
X75057000Y-70866000D01*
X75057000Y-69723085D01*
X75311000Y-69723085D01*
X75311000Y-70866000D01*
X77597000Y-70866000D01*
X77597000Y-69723085D01*
X77851000Y-69723085D01*
X77851000Y-70866000D01*
X80137000Y-70866000D01*
X80137000Y-69723085D01*
X80391000Y-69723085D01*
X80391000Y-70866000D01*
X82677000Y-70866000D01*
X82677000Y-69723085D01*
X82931000Y-69723085D01*
X82931000Y-70866000D01*
X85217000Y-70866000D01*
X85217000Y-69716750D01*
X85471000Y-69716750D01*
X85471000Y-70866000D01*
X86620250Y-70866000D01*
X86779000Y-70707250D01*
X86782072Y-70193000D01*
X86769812Y-70068518D01*
X86733502Y-69948820D01*
X86674537Y-69838506D01*
X86595185Y-69741815D01*
X86498494Y-69662463D01*
X86388180Y-69603498D01*
X86268482Y-69567188D01*
X86144000Y-69554928D01*
X85629750Y-69558000D01*
X85471000Y-69716750D01*
X85217000Y-69716750D01*
X85058250Y-69558000D01*
X84544000Y-69554928D01*
X84419518Y-69567188D01*
X84299820Y-69603498D01*
X84189506Y-69662463D01*
X84092815Y-69741815D01*
X84013463Y-69838506D01*
X83954498Y-69948820D01*
X83918188Y-70068518D01*
X83915769Y-70093080D01*
X83767414Y-69929481D01*
X83541420Y-69761963D01*
X83287087Y-69641754D01*
X83153039Y-69601096D01*
X82931000Y-69723085D01*
X82677000Y-69723085D01*
X82454961Y-69601096D01*
X82320913Y-69641754D01*
X82066580Y-69761963D01*
X81840586Y-69929481D01*
X81651615Y-70137869D01*
X81534000Y-70333982D01*
X81416385Y-70137869D01*
X81227414Y-69929481D01*
X81001420Y-69761963D01*
X80747087Y-69641754D01*
X80613039Y-69601096D01*
X80391000Y-69723085D01*
X80137000Y-69723085D01*
X79914961Y-69601096D01*
X79780913Y-69641754D01*
X79526580Y-69761963D01*
X79300586Y-69929481D01*
X79111615Y-70137869D01*
X78994000Y-70333982D01*
X78876385Y-70137869D01*
X78687414Y-69929481D01*
X78461420Y-69761963D01*
X78207087Y-69641754D01*
X78073039Y-69601096D01*
X77851000Y-69723085D01*
X77597000Y-69723085D01*
X77374961Y-69601096D01*
X77240913Y-69641754D01*
X76986580Y-69761963D01*
X76760586Y-69929481D01*
X76571615Y-70137869D01*
X76454000Y-70333982D01*
X76336385Y-70137869D01*
X76147414Y-69929481D01*
X75921420Y-69761963D01*
X75667087Y-69641754D01*
X75533039Y-69601096D01*
X75311000Y-69723085D01*
X75057000Y-69723085D01*
X74834961Y-69601096D01*
X74700913Y-69641754D01*
X74446580Y-69761963D01*
X74220586Y-69929481D01*
X74031615Y-70137869D01*
X73914000Y-70333982D01*
X73796385Y-70137869D01*
X73607414Y-69929481D01*
X73381420Y-69761963D01*
X73127087Y-69641754D01*
X72993039Y-69601096D01*
X72771000Y-69723085D01*
X72517000Y-69723085D01*
X72294961Y-69601096D01*
X72160913Y-69641754D01*
X71906580Y-69761963D01*
X71680586Y-69929481D01*
X71491615Y-70137869D01*
X71346930Y-70379119D01*
X71252091Y-70643960D01*
X70256000Y-70643960D01*
X70256000Y-69240000D01*
X97013212Y-69240000D01*
X94263811Y-71989402D01*
%TA.AperFunction,Conductor*%
D31*
G36*
X94263811Y-71989402D02*
G01*
X94236673Y-72011674D01*
X94147798Y-72119968D01*
X94081758Y-72243520D01*
X94041091Y-72377581D01*
X94030800Y-72482065D01*
X94030800Y-72482074D01*
X94027360Y-72517000D01*
X94030800Y-72551926D01*
X94030801Y-78279069D01*
X93950014Y-78263000D01*
X93755986Y-78263000D01*
X93565686Y-78300853D01*
X93386428Y-78375104D01*
X93225099Y-78482901D01*
X93171200Y-78536800D01*
X91220925Y-78536800D01*
X91185999Y-78533360D01*
X91151073Y-78536800D01*
X91151064Y-78536800D01*
X91046580Y-78547091D01*
X90912519Y-78587758D01*
X90832098Y-78630744D01*
X90788967Y-78653798D01*
X90707808Y-78720403D01*
X90707804Y-78720407D01*
X90680673Y-78742673D01*
X90658407Y-78769804D01*
X89755310Y-79672903D01*
X89728174Y-79695173D01*
X89705904Y-79722309D01*
X89705903Y-79722310D01*
X89639298Y-79803468D01*
X89580920Y-79912687D01*
X89573259Y-79927019D01*
X89532592Y-80061080D01*
X89525327Y-80134841D01*
X89518860Y-80200500D01*
X89522301Y-80235436D01*
X89522301Y-81717930D01*
X89493482Y-81709188D01*
X89369000Y-81696928D01*
X87669000Y-81696928D01*
X87544518Y-81709188D01*
X87424820Y-81745498D01*
X87314506Y-81804463D01*
X87217815Y-81883815D01*
X87138463Y-81980506D01*
X87079498Y-82090820D01*
X87043188Y-82210518D01*
X87030928Y-82335000D01*
X87030928Y-83483111D01*
X86965014Y-83470000D01*
X86770986Y-83470000D01*
X86580686Y-83507853D01*
X86401428Y-83582104D01*
X86240099Y-83689901D01*
X86186200Y-83743800D01*
X80303814Y-83743800D01*
X80545236Y-83614758D01*
X80704135Y-83296740D01*
X79375000Y-81967605D01*
X79360858Y-81981748D01*
X79181253Y-81802143D01*
X79195395Y-81788000D01*
X79554605Y-81788000D01*
X80883740Y-83117135D01*
X81201758Y-82958236D01*
X81394959Y-82579368D01*
X81510534Y-82170087D01*
X81544042Y-81746124D01*
X81494194Y-81323770D01*
X81362908Y-80919256D01*
X81201758Y-80617764D01*
X80883740Y-80458865D01*
X79554605Y-81788000D01*
X79195395Y-81788000D01*
X77866260Y-80458865D01*
X77548242Y-80617764D01*
X77355041Y-80996632D01*
X77260371Y-81331882D01*
X75827977Y-79899488D01*
X75863727Y-79884680D01*
X76098759Y-79727637D01*
X76298637Y-79527759D01*
X76454000Y-79295241D01*
X76609363Y-79527759D01*
X76809241Y-79727637D01*
X77044273Y-79884680D01*
X77305426Y-79992853D01*
X77582665Y-80048000D01*
X77865335Y-80048000D01*
X78142574Y-79992853D01*
X78201078Y-79968620D01*
X78045865Y-80279260D01*
X79375000Y-81608395D01*
X80704135Y-80279260D01*
X80572019Y-80014844D01*
X80682574Y-79992853D01*
X80943727Y-79884680D01*
X81178759Y-79727637D01*
X81378637Y-79527759D01*
X81534000Y-79295241D01*
X81689363Y-79527759D01*
X81889241Y-79727637D01*
X82124273Y-79884680D01*
X82385426Y-79992853D01*
X82662665Y-80048000D01*
X82945335Y-80048000D01*
X83222574Y-79992853D01*
X83483727Y-79884680D01*
X83718759Y-79727637D01*
X83918637Y-79527759D01*
X84074000Y-79295241D01*
X84229363Y-79527759D01*
X84429241Y-79727637D01*
X84664273Y-79884680D01*
X84925426Y-79992853D01*
X85202665Y-80048000D01*
X85485335Y-80048000D01*
X85762574Y-79992853D01*
X86023727Y-79884680D01*
X86258759Y-79727637D01*
X86458637Y-79527759D01*
X86615680Y-79292727D01*
X86723853Y-79031574D01*
X86779000Y-78754335D01*
X86779000Y-78471665D01*
X86723853Y-78194426D01*
X86615680Y-77933273D01*
X86458637Y-77698241D01*
X86258759Y-77498363D01*
X86023727Y-77341320D01*
X85762574Y-77233147D01*
X85485335Y-77178000D01*
X85202665Y-77178000D01*
X84925426Y-77233147D01*
X84664273Y-77341320D01*
X84429241Y-77498363D01*
X84229363Y-77698241D01*
X84074000Y-77930759D01*
X83918637Y-77698241D01*
X83718759Y-77498363D01*
X83483727Y-77341320D01*
X83222574Y-77233147D01*
X82945335Y-77178000D01*
X82662665Y-77178000D01*
X82385426Y-77233147D01*
X82124273Y-77341320D01*
X81889241Y-77498363D01*
X81689363Y-77698241D01*
X81534000Y-77930759D01*
X81378637Y-77698241D01*
X81178759Y-77498363D01*
X80943727Y-77341320D01*
X80682574Y-77233147D01*
X80405335Y-77178000D01*
X80122665Y-77178000D01*
X79845426Y-77233147D01*
X79584273Y-77341320D01*
X79349241Y-77498363D01*
X79149363Y-77698241D01*
X78994000Y-77930759D01*
X78838637Y-77698241D01*
X78638759Y-77498363D01*
X78403727Y-77341320D01*
X78142574Y-77233147D01*
X77865335Y-77178000D01*
X77582665Y-77178000D01*
X77305426Y-77233147D01*
X77044273Y-77341320D01*
X76809241Y-77498363D01*
X76609363Y-77698241D01*
X76454000Y-77930759D01*
X76298637Y-77698241D01*
X76098759Y-77498363D01*
X75863727Y-77341320D01*
X75602574Y-77233147D01*
X75325335Y-77178000D01*
X75042665Y-77178000D01*
X74765426Y-77233147D01*
X74504273Y-77341320D01*
X74269241Y-77498363D01*
X74069363Y-77698241D01*
X73914000Y-77930759D01*
X73758637Y-77698241D01*
X73558759Y-77498363D01*
X73323727Y-77341320D01*
X73062574Y-77233147D01*
X72785335Y-77178000D01*
X72502665Y-77178000D01*
X72225426Y-77233147D01*
X71964273Y-77341320D01*
X71729600Y-77498123D01*
X71729600Y-74062400D01*
X71758099Y-74033901D01*
X71865896Y-73872572D01*
X71940147Y-73693314D01*
X71978000Y-73503014D01*
X71978000Y-73308986D01*
X71940147Y-73118686D01*
X71865896Y-72939428D01*
X71758099Y-72778099D01*
X71620901Y-72640901D01*
X71459572Y-72533104D01*
X71280314Y-72458853D01*
X71090014Y-72421000D01*
X70895986Y-72421000D01*
X70705686Y-72458853D01*
X70526428Y-72533104D01*
X70365099Y-72640901D01*
X70256000Y-72750000D01*
X70256000Y-71342040D01*
X71252091Y-71342040D01*
X71346930Y-71606881D01*
X71491615Y-71848131D01*
X71680586Y-72056519D01*
X71906580Y-72224037D01*
X72160913Y-72344246D01*
X72294961Y-72384904D01*
X72517000Y-72262915D01*
X72517000Y-71120000D01*
X72771000Y-71120000D01*
X72771000Y-72262915D01*
X72993039Y-72384904D01*
X73127087Y-72344246D01*
X73381420Y-72224037D01*
X73607414Y-72056519D01*
X73796385Y-71848131D01*
X73914000Y-71652018D01*
X74031615Y-71848131D01*
X74220586Y-72056519D01*
X74446580Y-72224037D01*
X74700913Y-72344246D01*
X74834961Y-72384904D01*
X75057000Y-72262915D01*
X75057000Y-71120000D01*
X75311000Y-71120000D01*
X75311000Y-72262915D01*
X75533039Y-72384904D01*
X75667087Y-72344246D01*
X75921420Y-72224037D01*
X76147414Y-72056519D01*
X76336385Y-71848131D01*
X76454000Y-71652018D01*
X76571615Y-71848131D01*
X76760586Y-72056519D01*
X76986580Y-72224037D01*
X77240913Y-72344246D01*
X77374961Y-72384904D01*
X77597000Y-72262915D01*
X77597000Y-71120000D01*
X77851000Y-71120000D01*
X77851000Y-72262915D01*
X78073039Y-72384904D01*
X78207087Y-72344246D01*
X78461420Y-72224037D01*
X78687414Y-72056519D01*
X78876385Y-71848131D01*
X78994000Y-71652018D01*
X79111615Y-71848131D01*
X79300586Y-72056519D01*
X79526580Y-72224037D01*
X79780913Y-72344246D01*
X79914961Y-72384904D01*
X80137000Y-72262915D01*
X80137000Y-71120000D01*
X80391000Y-71120000D01*
X80391000Y-72262915D01*
X80613039Y-72384904D01*
X80747087Y-72344246D01*
X81001420Y-72224037D01*
X81227414Y-72056519D01*
X81416385Y-71848131D01*
X81534000Y-71652018D01*
X81651615Y-71848131D01*
X81840586Y-72056519D01*
X82066580Y-72224037D01*
X82320913Y-72344246D01*
X82454961Y-72384904D01*
X82677000Y-72262915D01*
X82677000Y-71120000D01*
X82931000Y-71120000D01*
X82931000Y-72262915D01*
X83153039Y-72384904D01*
X83287087Y-72344246D01*
X83541420Y-72224037D01*
X83767414Y-72056519D01*
X83915769Y-71892920D01*
X83918188Y-71917482D01*
X83954498Y-72037180D01*
X84013463Y-72147494D01*
X84092815Y-72244185D01*
X84189506Y-72323537D01*
X84299820Y-72382502D01*
X84419518Y-72418812D01*
X84544000Y-72431072D01*
X85058250Y-72428000D01*
X85217000Y-72269250D01*
X85217000Y-71120000D01*
X85471000Y-71120000D01*
X85471000Y-72269250D01*
X85629750Y-72428000D01*
X86144000Y-72431072D01*
X86268482Y-72418812D01*
X86388180Y-72382502D01*
X86498494Y-72323537D01*
X86595185Y-72244185D01*
X86674537Y-72147494D01*
X86733502Y-72037180D01*
X86769812Y-71917482D01*
X86782072Y-71793000D01*
X86779000Y-71278750D01*
X86620250Y-71120000D01*
X85471000Y-71120000D01*
X85217000Y-71120000D01*
X82931000Y-71120000D01*
X82677000Y-71120000D01*
X80391000Y-71120000D01*
X80137000Y-71120000D01*
X77851000Y-71120000D01*
X77597000Y-71120000D01*
X75311000Y-71120000D01*
X75057000Y-71120000D01*
X72771000Y-71120000D01*
X72517000Y-71120000D01*
X71373376Y-71120000D01*
X71252091Y-71342040D01*
X70256000Y-71342040D01*
X70256000Y-70643960D01*
X71252091Y-70643960D01*
X71373376Y-70866000D01*
X72517000Y-70866000D01*
X72517000Y-69723085D01*
X72771000Y-69723085D01*
X72771000Y-70866000D01*
X75057000Y-70866000D01*
X75057000Y-69723085D01*
X75311000Y-69723085D01*
X75311000Y-70866000D01*
X77597000Y-70866000D01*
X77597000Y-69723085D01*
X77851000Y-69723085D01*
X77851000Y-70866000D01*
X80137000Y-70866000D01*
X80137000Y-69723085D01*
X80391000Y-69723085D01*
X80391000Y-70866000D01*
X82677000Y-70866000D01*
X82677000Y-69723085D01*
X82931000Y-69723085D01*
X82931000Y-70866000D01*
X85217000Y-70866000D01*
X85217000Y-69716750D01*
X85471000Y-69716750D01*
X85471000Y-70866000D01*
X86620250Y-70866000D01*
X86779000Y-70707250D01*
X86782072Y-70193000D01*
X86769812Y-70068518D01*
X86733502Y-69948820D01*
X86674537Y-69838506D01*
X86595185Y-69741815D01*
X86498494Y-69662463D01*
X86388180Y-69603498D01*
X86268482Y-69567188D01*
X86144000Y-69554928D01*
X85629750Y-69558000D01*
X85471000Y-69716750D01*
X85217000Y-69716750D01*
X85058250Y-69558000D01*
X84544000Y-69554928D01*
X84419518Y-69567188D01*
X84299820Y-69603498D01*
X84189506Y-69662463D01*
X84092815Y-69741815D01*
X84013463Y-69838506D01*
X83954498Y-69948820D01*
X83918188Y-70068518D01*
X83915769Y-70093080D01*
X83767414Y-69929481D01*
X83541420Y-69761963D01*
X83287087Y-69641754D01*
X83153039Y-69601096D01*
X82931000Y-69723085D01*
X82677000Y-69723085D01*
X82454961Y-69601096D01*
X82320913Y-69641754D01*
X82066580Y-69761963D01*
X81840586Y-69929481D01*
X81651615Y-70137869D01*
X81534000Y-70333982D01*
X81416385Y-70137869D01*
X81227414Y-69929481D01*
X81001420Y-69761963D01*
X80747087Y-69641754D01*
X80613039Y-69601096D01*
X80391000Y-69723085D01*
X80137000Y-69723085D01*
X79914961Y-69601096D01*
X79780913Y-69641754D01*
X79526580Y-69761963D01*
X79300586Y-69929481D01*
X79111615Y-70137869D01*
X78994000Y-70333982D01*
X78876385Y-70137869D01*
X78687414Y-69929481D01*
X78461420Y-69761963D01*
X78207087Y-69641754D01*
X78073039Y-69601096D01*
X77851000Y-69723085D01*
X77597000Y-69723085D01*
X77374961Y-69601096D01*
X77240913Y-69641754D01*
X76986580Y-69761963D01*
X76760586Y-69929481D01*
X76571615Y-70137869D01*
X76454000Y-70333982D01*
X76336385Y-70137869D01*
X76147414Y-69929481D01*
X75921420Y-69761963D01*
X75667087Y-69641754D01*
X75533039Y-69601096D01*
X75311000Y-69723085D01*
X75057000Y-69723085D01*
X74834961Y-69601096D01*
X74700913Y-69641754D01*
X74446580Y-69761963D01*
X74220586Y-69929481D01*
X74031615Y-70137869D01*
X73914000Y-70333982D01*
X73796385Y-70137869D01*
X73607414Y-69929481D01*
X73381420Y-69761963D01*
X73127087Y-69641754D01*
X72993039Y-69601096D01*
X72771000Y-69723085D01*
X72517000Y-69723085D01*
X72294961Y-69601096D01*
X72160913Y-69641754D01*
X71906580Y-69761963D01*
X71680586Y-69929481D01*
X71491615Y-70137869D01*
X71346930Y-70379119D01*
X71252091Y-70643960D01*
X70256000Y-70643960D01*
X70256000Y-69240000D01*
X97013212Y-69240000D01*
X94263811Y-71989402D01*
G37*
%TD.AperFunction*%
D30*
X103174801Y-74381411D02*
X102818011Y-74738202D01*
X102790874Y-74760473D01*
X102701999Y-74868767D01*
X102635959Y-74992319D01*
X102595292Y-75126380D01*
X102585001Y-75230864D01*
X102585001Y-75230873D01*
X102581561Y-75265799D01*
X102585001Y-75300725D01*
X102585002Y-76584432D01*
X100876609Y-78292825D01*
X100849472Y-78315097D01*
X100760597Y-78423391D01*
X100694557Y-78546943D01*
X100653890Y-78681004D01*
X100643599Y-78785488D01*
X100643599Y-78785497D01*
X100640159Y-78820423D01*
X100643599Y-78855349D01*
X100643600Y-80001462D01*
X100640159Y-80036397D01*
X100643600Y-80071333D01*
X100653891Y-80175817D01*
X100680641Y-80264000D01*
X100694558Y-80309878D01*
X100760597Y-80433429D01*
X100814015Y-80498519D01*
X100849473Y-80541724D01*
X100876609Y-80563994D01*
X101190599Y-80877984D01*
X101212874Y-80905126D01*
X101321168Y-80994001D01*
X101444720Y-81060041D01*
X101578781Y-81100708D01*
X101683265Y-81110999D01*
X101683274Y-81110999D01*
X101718200Y-81114439D01*
X101753126Y-81110999D01*
X102572275Y-81110999D01*
X102607201Y-81114439D01*
X102642127Y-81110999D01*
X102642137Y-81110999D01*
X102746621Y-81100708D01*
X102880682Y-81060041D01*
X103004234Y-80994001D01*
X103112528Y-80905126D01*
X103134802Y-80877985D01*
X103729788Y-80283000D01*
X103733939Y-80283000D01*
X103912786Y-80247425D01*
X102899810Y-81260403D01*
X102872673Y-81282674D01*
X102783798Y-81390968D01*
X102717758Y-81514520D01*
X102677091Y-81648581D01*
X102666800Y-81753065D01*
X102666800Y-81753074D01*
X102663360Y-81788000D01*
X102666800Y-81822926D01*
X102666800Y-82678701D01*
X102571524Y-82639236D01*
X102547147Y-82516686D01*
X102472896Y-82337428D01*
X102365099Y-82176099D01*
X102227901Y-82038901D01*
X102066572Y-81931104D01*
X101887314Y-81856853D01*
X101697014Y-81819000D01*
X101502986Y-81819000D01*
X101312686Y-81856853D01*
X101133428Y-81931104D01*
X100972099Y-82038901D01*
X100873356Y-82137645D01*
X100787200Y-82051489D01*
X100787200Y-81695925D01*
X100790640Y-81660999D01*
X100787200Y-81626073D01*
X100787200Y-81626064D01*
X100776909Y-81521580D01*
X100736242Y-81387519D01*
X100670202Y-81263967D01*
X100658896Y-81250191D01*
X100603597Y-81182808D01*
X100603593Y-81182804D01*
X100581327Y-81155673D01*
X100554196Y-81133407D01*
X99390200Y-79969413D01*
X99390200Y-79542588D01*
X99919200Y-79013589D01*
X99946326Y-78991327D01*
X99968588Y-78964201D01*
X99968598Y-78964191D01*
X100035202Y-78883033D01*
X100101242Y-78759482D01*
X100141909Y-78625420D01*
X100145618Y-78587758D01*
X100152200Y-78520936D01*
X100152200Y-78520929D01*
X100155640Y-78486000D01*
X100152200Y-78451072D01*
X100152200Y-74589587D01*
X102133716Y-72608072D01*
X103174801Y-72608072D01*
X103174801Y-74381411D01*
%TA.AperFunction,Conductor*%
D31*
G36*
X103174801Y-74381411D02*
G01*
X102818011Y-74738202D01*
X102790874Y-74760473D01*
X102701999Y-74868767D01*
X102635959Y-74992319D01*
X102595292Y-75126380D01*
X102585001Y-75230864D01*
X102585001Y-75230873D01*
X102581561Y-75265799D01*
X102585001Y-75300725D01*
X102585002Y-76584432D01*
X100876609Y-78292825D01*
X100849472Y-78315097D01*
X100760597Y-78423391D01*
X100694557Y-78546943D01*
X100653890Y-78681004D01*
X100643599Y-78785488D01*
X100643599Y-78785497D01*
X100640159Y-78820423D01*
X100643599Y-78855349D01*
X100643600Y-80001462D01*
X100640159Y-80036397D01*
X100643600Y-80071333D01*
X100653891Y-80175817D01*
X100680641Y-80264000D01*
X100694558Y-80309878D01*
X100760597Y-80433429D01*
X100814015Y-80498519D01*
X100849473Y-80541724D01*
X100876609Y-80563994D01*
X101190599Y-80877984D01*
X101212874Y-80905126D01*
X101321168Y-80994001D01*
X101444720Y-81060041D01*
X101578781Y-81100708D01*
X101683265Y-81110999D01*
X101683274Y-81110999D01*
X101718200Y-81114439D01*
X101753126Y-81110999D01*
X102572275Y-81110999D01*
X102607201Y-81114439D01*
X102642127Y-81110999D01*
X102642137Y-81110999D01*
X102746621Y-81100708D01*
X102880682Y-81060041D01*
X103004234Y-80994001D01*
X103112528Y-80905126D01*
X103134802Y-80877985D01*
X103729788Y-80283000D01*
X103733939Y-80283000D01*
X103912786Y-80247425D01*
X102899810Y-81260403D01*
X102872673Y-81282674D01*
X102783798Y-81390968D01*
X102717758Y-81514520D01*
X102677091Y-81648581D01*
X102666800Y-81753065D01*
X102666800Y-81753074D01*
X102663360Y-81788000D01*
X102666800Y-81822926D01*
X102666800Y-82678701D01*
X102571524Y-82639236D01*
X102547147Y-82516686D01*
X102472896Y-82337428D01*
X102365099Y-82176099D01*
X102227901Y-82038901D01*
X102066572Y-81931104D01*
X101887314Y-81856853D01*
X101697014Y-81819000D01*
X101502986Y-81819000D01*
X101312686Y-81856853D01*
X101133428Y-81931104D01*
X100972099Y-82038901D01*
X100873356Y-82137645D01*
X100787200Y-82051489D01*
X100787200Y-81695925D01*
X100790640Y-81660999D01*
X100787200Y-81626073D01*
X100787200Y-81626064D01*
X100776909Y-81521580D01*
X100736242Y-81387519D01*
X100670202Y-81263967D01*
X100658896Y-81250191D01*
X100603597Y-81182808D01*
X100603593Y-81182804D01*
X100581327Y-81155673D01*
X100554196Y-81133407D01*
X99390200Y-79969413D01*
X99390200Y-79542588D01*
X99919200Y-79013589D01*
X99946326Y-78991327D01*
X99968588Y-78964201D01*
X99968598Y-78964191D01*
X100035202Y-78883033D01*
X100101242Y-78759482D01*
X100141909Y-78625420D01*
X100145618Y-78587758D01*
X100152200Y-78520936D01*
X100152200Y-78520929D01*
X100155640Y-78486000D01*
X100152200Y-78451072D01*
X100152200Y-74589587D01*
X102133716Y-72608072D01*
X103174801Y-72608072D01*
X103174801Y-74381411D01*
G37*
%TD.AperFunction*%
D30*
X101127928Y-71602284D02*
X98962810Y-73767403D01*
X98935674Y-73789673D01*
X98913404Y-73816809D01*
X98913403Y-73816810D01*
X98846798Y-73897968D01*
X98805575Y-73975091D01*
X98780759Y-74021519D01*
X98740092Y-74155580D01*
X98737615Y-74180733D01*
X98726360Y-74295000D01*
X98729801Y-74329936D01*
X98729800Y-78191411D01*
X98201999Y-78719214D01*
X98201999Y-72094788D01*
X99862588Y-70434200D01*
X101127928Y-70434200D01*
X101127928Y-71602284D01*
%TA.AperFunction,Conductor*%
D31*
G36*
X101127928Y-71602284D02*
G01*
X98962810Y-73767403D01*
X98935674Y-73789673D01*
X98913404Y-73816809D01*
X98913403Y-73816810D01*
X98846798Y-73897968D01*
X98805575Y-73975091D01*
X98780759Y-74021519D01*
X98740092Y-74155580D01*
X98737615Y-74180733D01*
X98726360Y-74295000D01*
X98729801Y-74329936D01*
X98729800Y-78191411D01*
X98201999Y-78719214D01*
X98201999Y-72094788D01*
X99862588Y-70434200D01*
X101127928Y-70434200D01*
X101127928Y-71602284D01*
G37*
%TD.AperFunction*%
D30*
X105283000Y-70993000D02*
X105303000Y-70993000D01*
X105303000Y-71247000D01*
X105283000Y-71247000D01*
X105283000Y-72440155D01*
X105512890Y-72561476D01*
X105660099Y-72516825D01*
X105841800Y-72430279D01*
X105841800Y-72438633D01*
X104597200Y-73683234D01*
X104597200Y-72490770D01*
X104651901Y-72516825D01*
X104799110Y-72561476D01*
X105029000Y-72440155D01*
X105029000Y-71247000D01*
X105009000Y-71247000D01*
X105009000Y-70993000D01*
X105029000Y-70993000D01*
X105029000Y-70973000D01*
X105283000Y-70973000D01*
X105283000Y-70993000D01*
%TA.AperFunction,Conductor*%
D31*
G36*
X105283000Y-70993000D02*
G01*
X105303000Y-70993000D01*
X105303000Y-71247000D01*
X105283000Y-71247000D01*
X105283000Y-72440155D01*
X105512890Y-72561476D01*
X105660099Y-72516825D01*
X105841800Y-72430279D01*
X105841800Y-72438633D01*
X104597200Y-73683234D01*
X104597200Y-72490770D01*
X104651901Y-72516825D01*
X104799110Y-72561476D01*
X105029000Y-72440155D01*
X105029000Y-71247000D01*
X105009000Y-71247000D01*
X105009000Y-70993000D01*
X105029000Y-70993000D01*
X105029000Y-70973000D01*
X105283000Y-70973000D01*
X105283000Y-70993000D01*
G37*
%TD.AperFunction*%
%TD*%
M02*
