%TF.GenerationSoftware,KiCad,Pcbnew,(5.1.9)-1*%
%TF.CreationDate,2021-07-30T14:52:09-07:00*%
%TF.ProjectId,NullWiiConv2.2,4e756c6c-5769-4694-936f-6e76322e322e,rev?*%
%TF.SameCoordinates,Original*%
%TF.FileFunction,Copper,L1,Top*%
%TF.FilePolarity,Positive*%
%FSLAX46Y46*%
G04 Gerber Fmt 4.6, Leading zero omitted, Abs format (unit mm)*
G04 Created by KiCad (PCBNEW (5.1.9)-1) date 2021-07-30 14:52:09*
%MOMM*%
%LPD*%
G01*
G04 APERTURE LIST*
%TA.AperFunction,EtchedComponent*%
%ADD10C,0.100000*%
%TD*%
%TA.AperFunction,SMDPad,CuDef*%
%ADD11C,0.100000*%
%TD*%
%TA.AperFunction,SMDPad,CuDef*%
%ADD12R,1.000000X1.500000*%
%TD*%
%TA.AperFunction,SMDPad,CuDef*%
%ADD13R,4.000000X4.000000*%
%TD*%
%TA.AperFunction,SMDPad,CuDef*%
%ADD14R,0.900000X1.200000*%
%TD*%
%TA.AperFunction,ComponentPad*%
%ADD15O,1.600000X1.000000*%
%TD*%
%TA.AperFunction,ComponentPad*%
%ADD16O,2.100000X1.000000*%
%TD*%
%TA.AperFunction,SMDPad,CuDef*%
%ADD17R,2.450000X0.300000*%
%TD*%
%TA.AperFunction,SMDPad,CuDef*%
%ADD18R,2.450000X0.600000*%
%TD*%
%TA.AperFunction,ComponentPad*%
%ADD19C,3.048000*%
%TD*%
%TA.AperFunction,ComponentPad*%
%ADD20C,1.270000*%
%TD*%
%TA.AperFunction,ComponentPad*%
%ADD21R,1.270000X1.270000*%
%TD*%
%TA.AperFunction,ComponentPad*%
%ADD22O,1.700000X1.700000*%
%TD*%
%TA.AperFunction,ComponentPad*%
%ADD23R,1.700000X1.700000*%
%TD*%
%TA.AperFunction,SMDPad,CuDef*%
%ADD24R,2.180000X1.600000*%
%TD*%
%TA.AperFunction,SMDPad,CuDef*%
%ADD25R,1.400000X1.200000*%
%TD*%
%TA.AperFunction,ComponentPad*%
%ADD26C,1.879600*%
%TD*%
%TA.AperFunction,ComponentPad*%
%ADD27O,1.600000X1.600000*%
%TD*%
%TA.AperFunction,ComponentPad*%
%ADD28R,1.600000X1.600000*%
%TD*%
%TA.AperFunction,SMDPad,CuDef*%
%ADD29R,0.900000X0.800000*%
%TD*%
%TA.AperFunction,ViaPad*%
%ADD30C,0.700000*%
%TD*%
%TA.AperFunction,ViaPad*%
%ADD31C,0.800000*%
%TD*%
%TA.AperFunction,Conductor*%
%ADD32C,0.203200*%
%TD*%
%TA.AperFunction,Conductor*%
%ADD33C,0.152400*%
%TD*%
%TA.AperFunction,Conductor*%
%ADD34C,0.254000*%
%TD*%
%TA.AperFunction,Conductor*%
%ADD35C,0.500000*%
%TD*%
%TA.AperFunction,Conductor*%
%ADD36C,0.381000*%
%TD*%
%TA.AperFunction,Conductor*%
%ADD37C,0.100000*%
%TD*%
G04 APERTURE END LIST*
D10*
%TO.C,JP1*%
G36*
X101970000Y-80472000D02*
G01*
X102470000Y-80472000D01*
X102470000Y-81072000D01*
X101970000Y-81072000D01*
X101970000Y-80472000D01*
G37*
%TD*%
%TA.AperFunction,SMDPad,CuDef*%
D11*
%TO.P,JP1,1*%
%TO.N,/CONT_DETECT*%
G36*
X102120000Y-81522000D02*
G01*
X101570000Y-81522000D01*
X101570000Y-81521398D01*
X101545466Y-81521398D01*
X101496635Y-81516588D01*
X101448510Y-81507016D01*
X101401555Y-81492772D01*
X101356222Y-81473995D01*
X101312949Y-81450864D01*
X101272150Y-81423604D01*
X101234221Y-81392476D01*
X101199524Y-81357779D01*
X101168396Y-81319850D01*
X101141136Y-81279051D01*
X101118005Y-81235778D01*
X101099228Y-81190445D01*
X101084984Y-81143490D01*
X101075412Y-81095365D01*
X101070602Y-81046534D01*
X101070602Y-81022000D01*
X101070000Y-81022000D01*
X101070000Y-80522000D01*
X101070602Y-80522000D01*
X101070602Y-80497466D01*
X101075412Y-80448635D01*
X101084984Y-80400510D01*
X101099228Y-80353555D01*
X101118005Y-80308222D01*
X101141136Y-80264949D01*
X101168396Y-80224150D01*
X101199524Y-80186221D01*
X101234221Y-80151524D01*
X101272150Y-80120396D01*
X101312949Y-80093136D01*
X101356222Y-80070005D01*
X101401555Y-80051228D01*
X101448510Y-80036984D01*
X101496635Y-80027412D01*
X101545466Y-80022602D01*
X101570000Y-80022602D01*
X101570000Y-80022000D01*
X102120000Y-80022000D01*
X102120000Y-81522000D01*
G37*
%TD.AperFunction*%
D12*
%TO.P,JP1,2*%
%TO.N,Net-(JP1-Pad2)*%
X102870000Y-80772000D03*
%TA.AperFunction,SMDPad,CuDef*%
D11*
%TO.P,JP1,3*%
%TO.N,GND*%
G36*
X104170000Y-80022602D02*
G01*
X104194534Y-80022602D01*
X104243365Y-80027412D01*
X104291490Y-80036984D01*
X104338445Y-80051228D01*
X104383778Y-80070005D01*
X104427051Y-80093136D01*
X104467850Y-80120396D01*
X104505779Y-80151524D01*
X104540476Y-80186221D01*
X104571604Y-80224150D01*
X104598864Y-80264949D01*
X104621995Y-80308222D01*
X104640772Y-80353555D01*
X104655016Y-80400510D01*
X104664588Y-80448635D01*
X104669398Y-80497466D01*
X104669398Y-80522000D01*
X104670000Y-80522000D01*
X104670000Y-81022000D01*
X104669398Y-81022000D01*
X104669398Y-81046534D01*
X104664588Y-81095365D01*
X104655016Y-81143490D01*
X104640772Y-81190445D01*
X104621995Y-81235778D01*
X104598864Y-81279051D01*
X104571604Y-81319850D01*
X104540476Y-81357779D01*
X104505779Y-81392476D01*
X104467850Y-81423604D01*
X104427051Y-81450864D01*
X104383778Y-81473995D01*
X104338445Y-81492772D01*
X104291490Y-81507016D01*
X104243365Y-81516588D01*
X104194534Y-81521398D01*
X104170000Y-81521398D01*
X104170000Y-81522000D01*
X103620000Y-81522000D01*
X103620000Y-80022000D01*
X104170000Y-80022000D01*
X104170000Y-80022602D01*
G37*
%TD.AperFunction*%
%TD*%
D13*
%TO.P,U2,45*%
%TO.N,GND*%
X96662000Y-86980000D03*
%TO.P,U2,44*%
%TO.N,+5V*%
%TA.AperFunction,SMDPad,CuDef*%
G36*
G01*
X99287000Y-89852500D02*
X99287000Y-91727500D01*
G75*
G02*
X99224500Y-91790000I-62500J0D01*
G01*
X99099500Y-91790000D01*
G75*
G02*
X99037000Y-91727500I0J62500D01*
G01*
X99037000Y-89852500D01*
G75*
G02*
X99099500Y-89790000I62500J0D01*
G01*
X99224500Y-89790000D01*
G75*
G02*
X99287000Y-89852500I0J-62500D01*
G01*
G37*
%TD.AperFunction*%
%TO.P,U2,43*%
%TO.N,GND*%
%TA.AperFunction,SMDPad,CuDef*%
G36*
G01*
X98787000Y-89852500D02*
X98787000Y-91727500D01*
G75*
G02*
X98724500Y-91790000I-62500J0D01*
G01*
X98599500Y-91790000D01*
G75*
G02*
X98537000Y-91727500I0J62500D01*
G01*
X98537000Y-89852500D01*
G75*
G02*
X98599500Y-89790000I62500J0D01*
G01*
X98724500Y-89790000D01*
G75*
G02*
X98787000Y-89852500I0J-62500D01*
G01*
G37*
%TD.AperFunction*%
%TO.P,U2,42*%
%TO.N,Net-(C7-Pad1)*%
%TA.AperFunction,SMDPad,CuDef*%
G36*
G01*
X98287000Y-89852500D02*
X98287000Y-91727500D01*
G75*
G02*
X98224500Y-91790000I-62500J0D01*
G01*
X98099500Y-91790000D01*
G75*
G02*
X98037000Y-91727500I0J62500D01*
G01*
X98037000Y-89852500D01*
G75*
G02*
X98099500Y-89790000I62500J0D01*
G01*
X98224500Y-89790000D01*
G75*
G02*
X98287000Y-89852500I0J-62500D01*
G01*
G37*
%TD.AperFunction*%
%TO.P,U2,41*%
%TO.N,Net-(U2-Pad41)*%
%TA.AperFunction,SMDPad,CuDef*%
G36*
G01*
X97787000Y-89852500D02*
X97787000Y-91727500D01*
G75*
G02*
X97724500Y-91790000I-62500J0D01*
G01*
X97599500Y-91790000D01*
G75*
G02*
X97537000Y-91727500I0J62500D01*
G01*
X97537000Y-89852500D01*
G75*
G02*
X97599500Y-89790000I62500J0D01*
G01*
X97724500Y-89790000D01*
G75*
G02*
X97787000Y-89852500I0J-62500D01*
G01*
G37*
%TD.AperFunction*%
%TO.P,U2,40*%
%TO.N,Net-(U2-Pad40)*%
%TA.AperFunction,SMDPad,CuDef*%
G36*
G01*
X97287000Y-89852500D02*
X97287000Y-91727500D01*
G75*
G02*
X97224500Y-91790000I-62500J0D01*
G01*
X97099500Y-91790000D01*
G75*
G02*
X97037000Y-91727500I0J62500D01*
G01*
X97037000Y-89852500D01*
G75*
G02*
X97099500Y-89790000I62500J0D01*
G01*
X97224500Y-89790000D01*
G75*
G02*
X97287000Y-89852500I0J-62500D01*
G01*
G37*
%TD.AperFunction*%
%TO.P,U2,39*%
%TO.N,Net-(U2-Pad39)*%
%TA.AperFunction,SMDPad,CuDef*%
G36*
G01*
X96787000Y-89852500D02*
X96787000Y-91727500D01*
G75*
G02*
X96724500Y-91790000I-62500J0D01*
G01*
X96599500Y-91790000D01*
G75*
G02*
X96537000Y-91727500I0J62500D01*
G01*
X96537000Y-89852500D01*
G75*
G02*
X96599500Y-89790000I62500J0D01*
G01*
X96724500Y-89790000D01*
G75*
G02*
X96787000Y-89852500I0J-62500D01*
G01*
G37*
%TD.AperFunction*%
%TO.P,U2,38*%
%TO.N,Net-(U2-Pad38)*%
%TA.AperFunction,SMDPad,CuDef*%
G36*
G01*
X96287000Y-89852500D02*
X96287000Y-91727500D01*
G75*
G02*
X96224500Y-91790000I-62500J0D01*
G01*
X96099500Y-91790000D01*
G75*
G02*
X96037000Y-91727500I0J62500D01*
G01*
X96037000Y-89852500D01*
G75*
G02*
X96099500Y-89790000I62500J0D01*
G01*
X96224500Y-89790000D01*
G75*
G02*
X96287000Y-89852500I0J-62500D01*
G01*
G37*
%TD.AperFunction*%
%TO.P,U2,37*%
%TO.N,Net-(U2-Pad37)*%
%TA.AperFunction,SMDPad,CuDef*%
G36*
G01*
X95787000Y-89852500D02*
X95787000Y-91727500D01*
G75*
G02*
X95724500Y-91790000I-62500J0D01*
G01*
X95599500Y-91790000D01*
G75*
G02*
X95537000Y-91727500I0J62500D01*
G01*
X95537000Y-89852500D01*
G75*
G02*
X95599500Y-89790000I62500J0D01*
G01*
X95724500Y-89790000D01*
G75*
G02*
X95787000Y-89852500I0J-62500D01*
G01*
G37*
%TD.AperFunction*%
%TO.P,U2,36*%
%TO.N,Net-(U2-Pad36)*%
%TA.AperFunction,SMDPad,CuDef*%
G36*
G01*
X95287000Y-89852500D02*
X95287000Y-91727500D01*
G75*
G02*
X95224500Y-91790000I-62500J0D01*
G01*
X95099500Y-91790000D01*
G75*
G02*
X95037000Y-91727500I0J62500D01*
G01*
X95037000Y-89852500D01*
G75*
G02*
X95099500Y-89790000I62500J0D01*
G01*
X95224500Y-89790000D01*
G75*
G02*
X95287000Y-89852500I0J-62500D01*
G01*
G37*
%TD.AperFunction*%
%TO.P,U2,35*%
%TO.N,GND*%
%TA.AperFunction,SMDPad,CuDef*%
G36*
G01*
X94787000Y-89852500D02*
X94787000Y-91727500D01*
G75*
G02*
X94724500Y-91790000I-62500J0D01*
G01*
X94599500Y-91790000D01*
G75*
G02*
X94537000Y-91727500I0J62500D01*
G01*
X94537000Y-89852500D01*
G75*
G02*
X94599500Y-89790000I62500J0D01*
G01*
X94724500Y-89790000D01*
G75*
G02*
X94787000Y-89852500I0J-62500D01*
G01*
G37*
%TD.AperFunction*%
%TO.P,U2,34*%
%TO.N,+5V*%
%TA.AperFunction,SMDPad,CuDef*%
G36*
G01*
X94287000Y-89852500D02*
X94287000Y-91727500D01*
G75*
G02*
X94224500Y-91790000I-62500J0D01*
G01*
X94099500Y-91790000D01*
G75*
G02*
X94037000Y-91727500I0J62500D01*
G01*
X94037000Y-89852500D01*
G75*
G02*
X94099500Y-89790000I62500J0D01*
G01*
X94224500Y-89790000D01*
G75*
G02*
X94287000Y-89852500I0J-62500D01*
G01*
G37*
%TD.AperFunction*%
%TO.P,U2,33*%
%TO.N,Net-(JP1-Pad2)*%
%TA.AperFunction,SMDPad,CuDef*%
G36*
G01*
X93852000Y-89417500D02*
X93852000Y-89542500D01*
G75*
G02*
X93789500Y-89605000I-62500J0D01*
G01*
X91914500Y-89605000D01*
G75*
G02*
X91852000Y-89542500I0J62500D01*
G01*
X91852000Y-89417500D01*
G75*
G02*
X91914500Y-89355000I62500J0D01*
G01*
X93789500Y-89355000D01*
G75*
G02*
X93852000Y-89417500I0J-62500D01*
G01*
G37*
%TD.AperFunction*%
%TO.P,U2,32*%
%TO.N,Net-(U2-Pad32)*%
%TA.AperFunction,SMDPad,CuDef*%
G36*
G01*
X93852000Y-88917500D02*
X93852000Y-89042500D01*
G75*
G02*
X93789500Y-89105000I-62500J0D01*
G01*
X91914500Y-89105000D01*
G75*
G02*
X91852000Y-89042500I0J62500D01*
G01*
X91852000Y-88917500D01*
G75*
G02*
X91914500Y-88855000I62500J0D01*
G01*
X93789500Y-88855000D01*
G75*
G02*
X93852000Y-88917500I0J-62500D01*
G01*
G37*
%TD.AperFunction*%
%TO.P,U2,31*%
%TO.N,/DIP_SW6*%
%TA.AperFunction,SMDPad,CuDef*%
G36*
G01*
X93852000Y-88417500D02*
X93852000Y-88542500D01*
G75*
G02*
X93789500Y-88605000I-62500J0D01*
G01*
X91914500Y-88605000D01*
G75*
G02*
X91852000Y-88542500I0J62500D01*
G01*
X91852000Y-88417500D01*
G75*
G02*
X91914500Y-88355000I62500J0D01*
G01*
X93789500Y-88355000D01*
G75*
G02*
X93852000Y-88417500I0J-62500D01*
G01*
G37*
%TD.AperFunction*%
%TO.P,U2,30*%
%TO.N,/DIP_SW5*%
%TA.AperFunction,SMDPad,CuDef*%
G36*
G01*
X93852000Y-87917500D02*
X93852000Y-88042500D01*
G75*
G02*
X93789500Y-88105000I-62500J0D01*
G01*
X91914500Y-88105000D01*
G75*
G02*
X91852000Y-88042500I0J62500D01*
G01*
X91852000Y-87917500D01*
G75*
G02*
X91914500Y-87855000I62500J0D01*
G01*
X93789500Y-87855000D01*
G75*
G02*
X93852000Y-87917500I0J-62500D01*
G01*
G37*
%TD.AperFunction*%
%TO.P,U2,29*%
%TO.N,/DIP_SW4*%
%TA.AperFunction,SMDPad,CuDef*%
G36*
G01*
X93852000Y-87417500D02*
X93852000Y-87542500D01*
G75*
G02*
X93789500Y-87605000I-62500J0D01*
G01*
X91914500Y-87605000D01*
G75*
G02*
X91852000Y-87542500I0J62500D01*
G01*
X91852000Y-87417500D01*
G75*
G02*
X91914500Y-87355000I62500J0D01*
G01*
X93789500Y-87355000D01*
G75*
G02*
X93852000Y-87417500I0J-62500D01*
G01*
G37*
%TD.AperFunction*%
%TO.P,U2,28*%
%TO.N,/DIP_SW3*%
%TA.AperFunction,SMDPad,CuDef*%
G36*
G01*
X93852000Y-86917500D02*
X93852000Y-87042500D01*
G75*
G02*
X93789500Y-87105000I-62500J0D01*
G01*
X91914500Y-87105000D01*
G75*
G02*
X91852000Y-87042500I0J62500D01*
G01*
X91852000Y-86917500D01*
G75*
G02*
X91914500Y-86855000I62500J0D01*
G01*
X93789500Y-86855000D01*
G75*
G02*
X93852000Y-86917500I0J-62500D01*
G01*
G37*
%TD.AperFunction*%
%TO.P,U2,27*%
%TO.N,/DIP_SW2*%
%TA.AperFunction,SMDPad,CuDef*%
G36*
G01*
X93852000Y-86417500D02*
X93852000Y-86542500D01*
G75*
G02*
X93789500Y-86605000I-62500J0D01*
G01*
X91914500Y-86605000D01*
G75*
G02*
X91852000Y-86542500I0J62500D01*
G01*
X91852000Y-86417500D01*
G75*
G02*
X91914500Y-86355000I62500J0D01*
G01*
X93789500Y-86355000D01*
G75*
G02*
X93852000Y-86417500I0J-62500D01*
G01*
G37*
%TD.AperFunction*%
%TO.P,U2,26*%
%TO.N,/DIP_SW1*%
%TA.AperFunction,SMDPad,CuDef*%
G36*
G01*
X93852000Y-85917500D02*
X93852000Y-86042500D01*
G75*
G02*
X93789500Y-86105000I-62500J0D01*
G01*
X91914500Y-86105000D01*
G75*
G02*
X91852000Y-86042500I0J62500D01*
G01*
X91852000Y-85917500D01*
G75*
G02*
X91914500Y-85855000I62500J0D01*
G01*
X93789500Y-85855000D01*
G75*
G02*
X93852000Y-85917500I0J-62500D01*
G01*
G37*
%TD.AperFunction*%
%TO.P,U2,25*%
%TO.N,/CONFIG*%
%TA.AperFunction,SMDPad,CuDef*%
G36*
G01*
X93852000Y-85417500D02*
X93852000Y-85542500D01*
G75*
G02*
X93789500Y-85605000I-62500J0D01*
G01*
X91914500Y-85605000D01*
G75*
G02*
X91852000Y-85542500I0J62500D01*
G01*
X91852000Y-85417500D01*
G75*
G02*
X91914500Y-85355000I62500J0D01*
G01*
X93789500Y-85355000D01*
G75*
G02*
X93852000Y-85417500I0J-62500D01*
G01*
G37*
%TD.AperFunction*%
%TO.P,U2,24*%
%TO.N,+5V*%
%TA.AperFunction,SMDPad,CuDef*%
G36*
G01*
X93852000Y-84917500D02*
X93852000Y-85042500D01*
G75*
G02*
X93789500Y-85105000I-62500J0D01*
G01*
X91914500Y-85105000D01*
G75*
G02*
X91852000Y-85042500I0J62500D01*
G01*
X91852000Y-84917500D01*
G75*
G02*
X91914500Y-84855000I62500J0D01*
G01*
X93789500Y-84855000D01*
G75*
G02*
X93852000Y-84917500I0J-62500D01*
G01*
G37*
%TD.AperFunction*%
%TO.P,U2,23*%
%TO.N,GND*%
%TA.AperFunction,SMDPad,CuDef*%
G36*
G01*
X93852000Y-84417500D02*
X93852000Y-84542500D01*
G75*
G02*
X93789500Y-84605000I-62500J0D01*
G01*
X91914500Y-84605000D01*
G75*
G02*
X91852000Y-84542500I0J62500D01*
G01*
X91852000Y-84417500D01*
G75*
G02*
X91914500Y-84355000I62500J0D01*
G01*
X93789500Y-84355000D01*
G75*
G02*
X93852000Y-84417500I0J-62500D01*
G01*
G37*
%TD.AperFunction*%
%TO.P,U2,22*%
%TO.N,/TX_LED*%
%TA.AperFunction,SMDPad,CuDef*%
G36*
G01*
X94287000Y-82232500D02*
X94287000Y-84107500D01*
G75*
G02*
X94224500Y-84170000I-62500J0D01*
G01*
X94099500Y-84170000D01*
G75*
G02*
X94037000Y-84107500I0J62500D01*
G01*
X94037000Y-82232500D01*
G75*
G02*
X94099500Y-82170000I62500J0D01*
G01*
X94224500Y-82170000D01*
G75*
G02*
X94287000Y-82232500I0J-62500D01*
G01*
G37*
%TD.AperFunction*%
%TO.P,U2,21*%
%TO.N,/CONT_DETECT*%
%TA.AperFunction,SMDPad,CuDef*%
G36*
G01*
X94787000Y-82232500D02*
X94787000Y-84107500D01*
G75*
G02*
X94724500Y-84170000I-62500J0D01*
G01*
X94599500Y-84170000D01*
G75*
G02*
X94537000Y-84107500I0J62500D01*
G01*
X94537000Y-82232500D01*
G75*
G02*
X94599500Y-82170000I62500J0D01*
G01*
X94724500Y-82170000D01*
G75*
G02*
X94787000Y-82232500I0J-62500D01*
G01*
G37*
%TD.AperFunction*%
%TO.P,U2,20*%
%TO.N,Net-(U2-Pad20)*%
%TA.AperFunction,SMDPad,CuDef*%
G36*
G01*
X95287000Y-82232500D02*
X95287000Y-84107500D01*
G75*
G02*
X95224500Y-84170000I-62500J0D01*
G01*
X95099500Y-84170000D01*
G75*
G02*
X95037000Y-84107500I0J62500D01*
G01*
X95037000Y-82232500D01*
G75*
G02*
X95099500Y-82170000I62500J0D01*
G01*
X95224500Y-82170000D01*
G75*
G02*
X95287000Y-82232500I0J-62500D01*
G01*
G37*
%TD.AperFunction*%
%TO.P,U2,19*%
%TO.N,/SDA*%
%TA.AperFunction,SMDPad,CuDef*%
G36*
G01*
X95787000Y-82232500D02*
X95787000Y-84107500D01*
G75*
G02*
X95724500Y-84170000I-62500J0D01*
G01*
X95599500Y-84170000D01*
G75*
G02*
X95537000Y-84107500I0J62500D01*
G01*
X95537000Y-82232500D01*
G75*
G02*
X95599500Y-82170000I62500J0D01*
G01*
X95724500Y-82170000D01*
G75*
G02*
X95787000Y-82232500I0J-62500D01*
G01*
G37*
%TD.AperFunction*%
%TO.P,U2,18*%
%TO.N,/SCL*%
%TA.AperFunction,SMDPad,CuDef*%
G36*
G01*
X96287000Y-82232500D02*
X96287000Y-84107500D01*
G75*
G02*
X96224500Y-84170000I-62500J0D01*
G01*
X96099500Y-84170000D01*
G75*
G02*
X96037000Y-84107500I0J62500D01*
G01*
X96037000Y-82232500D01*
G75*
G02*
X96099500Y-82170000I62500J0D01*
G01*
X96224500Y-82170000D01*
G75*
G02*
X96287000Y-82232500I0J-62500D01*
G01*
G37*
%TD.AperFunction*%
%TO.P,U2,17*%
%TO.N,/XTAL+*%
%TA.AperFunction,SMDPad,CuDef*%
G36*
G01*
X96787000Y-82232500D02*
X96787000Y-84107500D01*
G75*
G02*
X96724500Y-84170000I-62500J0D01*
G01*
X96599500Y-84170000D01*
G75*
G02*
X96537000Y-84107500I0J62500D01*
G01*
X96537000Y-82232500D01*
G75*
G02*
X96599500Y-82170000I62500J0D01*
G01*
X96724500Y-82170000D01*
G75*
G02*
X96787000Y-82232500I0J-62500D01*
G01*
G37*
%TD.AperFunction*%
%TO.P,U2,16*%
%TO.N,/XTAL-*%
%TA.AperFunction,SMDPad,CuDef*%
G36*
G01*
X97287000Y-82232500D02*
X97287000Y-84107500D01*
G75*
G02*
X97224500Y-84170000I-62500J0D01*
G01*
X97099500Y-84170000D01*
G75*
G02*
X97037000Y-84107500I0J62500D01*
G01*
X97037000Y-82232500D01*
G75*
G02*
X97099500Y-82170000I62500J0D01*
G01*
X97224500Y-82170000D01*
G75*
G02*
X97287000Y-82232500I0J-62500D01*
G01*
G37*
%TD.AperFunction*%
%TO.P,U2,15*%
%TO.N,GND*%
%TA.AperFunction,SMDPad,CuDef*%
G36*
G01*
X97787000Y-82232500D02*
X97787000Y-84107500D01*
G75*
G02*
X97724500Y-84170000I-62500J0D01*
G01*
X97599500Y-84170000D01*
G75*
G02*
X97537000Y-84107500I0J62500D01*
G01*
X97537000Y-82232500D01*
G75*
G02*
X97599500Y-82170000I62500J0D01*
G01*
X97724500Y-82170000D01*
G75*
G02*
X97787000Y-82232500I0J-62500D01*
G01*
G37*
%TD.AperFunction*%
%TO.P,U2,14*%
%TO.N,+5V*%
%TA.AperFunction,SMDPad,CuDef*%
G36*
G01*
X98287000Y-82232500D02*
X98287000Y-84107500D01*
G75*
G02*
X98224500Y-84170000I-62500J0D01*
G01*
X98099500Y-84170000D01*
G75*
G02*
X98037000Y-84107500I0J62500D01*
G01*
X98037000Y-82232500D01*
G75*
G02*
X98099500Y-82170000I62500J0D01*
G01*
X98224500Y-82170000D01*
G75*
G02*
X98287000Y-82232500I0J-62500D01*
G01*
G37*
%TD.AperFunction*%
%TO.P,U2,13*%
%TO.N,/RESET*%
%TA.AperFunction,SMDPad,CuDef*%
G36*
G01*
X98787000Y-82232500D02*
X98787000Y-84107500D01*
G75*
G02*
X98724500Y-84170000I-62500J0D01*
G01*
X98599500Y-84170000D01*
G75*
G02*
X98537000Y-84107500I0J62500D01*
G01*
X98537000Y-82232500D01*
G75*
G02*
X98599500Y-82170000I62500J0D01*
G01*
X98724500Y-82170000D01*
G75*
G02*
X98787000Y-82232500I0J-62500D01*
G01*
G37*
%TD.AperFunction*%
%TO.P,U2,12*%
%TO.N,/X*%
%TA.AperFunction,SMDPad,CuDef*%
G36*
G01*
X99287000Y-82232500D02*
X99287000Y-84107500D01*
G75*
G02*
X99224500Y-84170000I-62500J0D01*
G01*
X99099500Y-84170000D01*
G75*
G02*
X99037000Y-84107500I0J62500D01*
G01*
X99037000Y-82232500D01*
G75*
G02*
X99099500Y-82170000I62500J0D01*
G01*
X99224500Y-82170000D01*
G75*
G02*
X99287000Y-82232500I0J-62500D01*
G01*
G37*
%TD.AperFunction*%
%TO.P,U2,11*%
%TO.N,/MISO*%
%TA.AperFunction,SMDPad,CuDef*%
G36*
G01*
X101472000Y-84417500D02*
X101472000Y-84542500D01*
G75*
G02*
X101409500Y-84605000I-62500J0D01*
G01*
X99534500Y-84605000D01*
G75*
G02*
X99472000Y-84542500I0J62500D01*
G01*
X99472000Y-84417500D01*
G75*
G02*
X99534500Y-84355000I62500J0D01*
G01*
X101409500Y-84355000D01*
G75*
G02*
X101472000Y-84417500I0J-62500D01*
G01*
G37*
%TD.AperFunction*%
%TO.P,U2,10*%
%TO.N,/MOSI*%
%TA.AperFunction,SMDPad,CuDef*%
G36*
G01*
X101472000Y-84917500D02*
X101472000Y-85042500D01*
G75*
G02*
X101409500Y-85105000I-62500J0D01*
G01*
X99534500Y-85105000D01*
G75*
G02*
X99472000Y-85042500I0J62500D01*
G01*
X99472000Y-84917500D01*
G75*
G02*
X99534500Y-84855000I62500J0D01*
G01*
X101409500Y-84855000D01*
G75*
G02*
X101472000Y-84917500I0J-62500D01*
G01*
G37*
%TD.AperFunction*%
%TO.P,U2,9*%
%TO.N,/SCLK*%
%TA.AperFunction,SMDPad,CuDef*%
G36*
G01*
X101472000Y-85417500D02*
X101472000Y-85542500D01*
G75*
G02*
X101409500Y-85605000I-62500J0D01*
G01*
X99534500Y-85605000D01*
G75*
G02*
X99472000Y-85542500I0J62500D01*
G01*
X99472000Y-85417500D01*
G75*
G02*
X99534500Y-85355000I62500J0D01*
G01*
X101409500Y-85355000D01*
G75*
G02*
X101472000Y-85417500I0J-62500D01*
G01*
G37*
%TD.AperFunction*%
%TO.P,U2,8*%
%TO.N,/RX_LED*%
%TA.AperFunction,SMDPad,CuDef*%
G36*
G01*
X101472000Y-85917500D02*
X101472000Y-86042500D01*
G75*
G02*
X101409500Y-86105000I-62500J0D01*
G01*
X99534500Y-86105000D01*
G75*
G02*
X99472000Y-86042500I0J62500D01*
G01*
X99472000Y-85917500D01*
G75*
G02*
X99534500Y-85855000I62500J0D01*
G01*
X101409500Y-85855000D01*
G75*
G02*
X101472000Y-85917500I0J-62500D01*
G01*
G37*
%TD.AperFunction*%
%TO.P,U2,7*%
%TO.N,+5V*%
%TA.AperFunction,SMDPad,CuDef*%
G36*
G01*
X101472000Y-86417500D02*
X101472000Y-86542500D01*
G75*
G02*
X101409500Y-86605000I-62500J0D01*
G01*
X99534500Y-86605000D01*
G75*
G02*
X99472000Y-86542500I0J62500D01*
G01*
X99472000Y-86417500D01*
G75*
G02*
X99534500Y-86355000I62500J0D01*
G01*
X101409500Y-86355000D01*
G75*
G02*
X101472000Y-86417500I0J-62500D01*
G01*
G37*
%TD.AperFunction*%
%TO.P,U2,6*%
%TO.N,Net-(C8-Pad2)*%
%TA.AperFunction,SMDPad,CuDef*%
G36*
G01*
X101472000Y-86917500D02*
X101472000Y-87042500D01*
G75*
G02*
X101409500Y-87105000I-62500J0D01*
G01*
X99534500Y-87105000D01*
G75*
G02*
X99472000Y-87042500I0J62500D01*
G01*
X99472000Y-86917500D01*
G75*
G02*
X99534500Y-86855000I62500J0D01*
G01*
X101409500Y-86855000D01*
G75*
G02*
X101472000Y-86917500I0J-62500D01*
G01*
G37*
%TD.AperFunction*%
%TO.P,U2,5*%
%TO.N,GND*%
%TA.AperFunction,SMDPad,CuDef*%
G36*
G01*
X101472000Y-87417500D02*
X101472000Y-87542500D01*
G75*
G02*
X101409500Y-87605000I-62500J0D01*
G01*
X99534500Y-87605000D01*
G75*
G02*
X99472000Y-87542500I0J62500D01*
G01*
X99472000Y-87417500D01*
G75*
G02*
X99534500Y-87355000I62500J0D01*
G01*
X101409500Y-87355000D01*
G75*
G02*
X101472000Y-87417500I0J-62500D01*
G01*
G37*
%TD.AperFunction*%
%TO.P,U2,4*%
%TO.N,/rD+*%
%TA.AperFunction,SMDPad,CuDef*%
G36*
G01*
X101472000Y-87917500D02*
X101472000Y-88042500D01*
G75*
G02*
X101409500Y-88105000I-62500J0D01*
G01*
X99534500Y-88105000D01*
G75*
G02*
X99472000Y-88042500I0J62500D01*
G01*
X99472000Y-87917500D01*
G75*
G02*
X99534500Y-87855000I62500J0D01*
G01*
X101409500Y-87855000D01*
G75*
G02*
X101472000Y-87917500I0J-62500D01*
G01*
G37*
%TD.AperFunction*%
%TO.P,U2,3*%
%TO.N,/rD-*%
%TA.AperFunction,SMDPad,CuDef*%
G36*
G01*
X101472000Y-88417500D02*
X101472000Y-88542500D01*
G75*
G02*
X101409500Y-88605000I-62500J0D01*
G01*
X99534500Y-88605000D01*
G75*
G02*
X99472000Y-88542500I0J62500D01*
G01*
X99472000Y-88417500D01*
G75*
G02*
X99534500Y-88355000I62500J0D01*
G01*
X101409500Y-88355000D01*
G75*
G02*
X101472000Y-88417500I0J-62500D01*
G01*
G37*
%TD.AperFunction*%
%TO.P,U2,2*%
%TO.N,+5V*%
%TA.AperFunction,SMDPad,CuDef*%
G36*
G01*
X101472000Y-88917500D02*
X101472000Y-89042500D01*
G75*
G02*
X101409500Y-89105000I-62500J0D01*
G01*
X99534500Y-89105000D01*
G75*
G02*
X99472000Y-89042500I0J62500D01*
G01*
X99472000Y-88917500D01*
G75*
G02*
X99534500Y-88855000I62500J0D01*
G01*
X101409500Y-88855000D01*
G75*
G02*
X101472000Y-88917500I0J-62500D01*
G01*
G37*
%TD.AperFunction*%
%TO.P,U2,1*%
%TO.N,/STATUS*%
%TA.AperFunction,SMDPad,CuDef*%
G36*
G01*
X101472000Y-89417500D02*
X101472000Y-89542500D01*
G75*
G02*
X101409500Y-89605000I-62500J0D01*
G01*
X99534500Y-89605000D01*
G75*
G02*
X99472000Y-89542500I0J62500D01*
G01*
X99472000Y-89417500D01*
G75*
G02*
X99534500Y-89355000I62500J0D01*
G01*
X101409500Y-89355000D01*
G75*
G02*
X101472000Y-89417500I0J-62500D01*
G01*
G37*
%TD.AperFunction*%
%TD*%
D14*
%TO.P,D1,2*%
%TO.N,Net-(D1-Pad2)*%
X109854000Y-94996000D03*
%TO.P,D1,1*%
%TO.N,+5V*%
X106554000Y-94996000D03*
%TD*%
D15*
%TO.P,J1,S1*%
%TO.N,Net-(J1-PadS1)*%
X117796000Y-84199000D03*
X117796000Y-92839000D03*
D16*
X113616000Y-84199000D03*
X113616000Y-92839000D03*
D17*
%TO.P,J1,A6*%
%TO.N,/D+*%
X112201000Y-88769000D03*
%TO.P,J1,A7*%
%TO.N,/D-*%
X112201000Y-88269000D03*
%TO.P,J1,B6*%
%TO.N,/D+*%
X112201000Y-87769000D03*
%TO.P,J1,B7*%
%TO.N,/D-*%
X112201000Y-89269000D03*
%TO.P,J1,A8*%
%TO.N,Net-(J1-PadA8)*%
X112201000Y-87269000D03*
%TO.P,J1,A5*%
%TO.N,/CC1*%
X112201000Y-89769000D03*
%TO.P,J1,B5*%
%TO.N,/CC2*%
X112201000Y-86769000D03*
%TO.P,J1,B8*%
%TO.N,Net-(J1-PadB8)*%
X112201000Y-90269000D03*
D18*
%TO.P,J1,A4*%
%TO.N,+5VA*%
X112201000Y-90969000D03*
%TO.P,J1,B4*%
X112201000Y-86069000D03*
%TO.P,J1,A1*%
%TO.N,GND*%
X112201000Y-91744000D03*
%TO.P,J1,A12*%
X112201000Y-85294000D03*
%TO.P,J1,B12*%
X112196000Y-91744000D03*
%TO.P,J1,B9*%
%TO.N,+5VA*%
X112171000Y-90969000D03*
%TO.P,J1,A9*%
X112196000Y-86069000D03*
%TO.P,J1,B1*%
%TO.N,GND*%
X112196000Y-85294000D03*
%TD*%
D19*
%TO.P,P1,6*%
%TO.N,GND*%
X79375000Y-94488000D03*
X74041000Y-81788000D03*
X74041000Y-94488000D03*
X79375000Y-81788000D03*
D20*
X80264000Y-90043000D03*
%TO.P,P1,5*%
%TO.N,/SDA*%
X82169000Y-90043000D03*
%TO.P,P1,4*%
%TO.N,Net-(P1-Pad4)*%
X80264000Y-88138000D03*
%TO.P,P1,3*%
%TO.N,/CONT_DETECT*%
X82169000Y-88138000D03*
%TO.P,P1,2*%
%TO.N,/SCL*%
X80264000Y-86233000D03*
D21*
%TO.P,P1,1*%
%TO.N,+3V3*%
X82169000Y-86233000D03*
%TD*%
D22*
%TO.P,J4,5*%
%TO.N,GND*%
X108204000Y-82296000D03*
%TO.P,J4,4*%
%TO.N,/ID*%
X108204000Y-84836000D03*
%TO.P,J4,3*%
%TO.N,/D+*%
X108204000Y-87376000D03*
%TO.P,J4,2*%
%TO.N,/D-*%
X108204000Y-89916000D03*
D23*
%TO.P,J4,1*%
%TO.N,+5VA*%
X108204000Y-92456000D03*
%TD*%
D24*
%TO.P,SW2,2*%
%TO.N,/RESET*%
X89898000Y-71120000D03*
%TO.P,SW2,1*%
%TO.N,GND*%
X99078000Y-71120000D03*
%TD*%
%TO.P,C6,2*%
%TO.N,/XTAL-*%
%TA.AperFunction,SMDPad,CuDef*%
G36*
G01*
X97353000Y-74659500D02*
X97353000Y-74184500D01*
G75*
G02*
X97590500Y-73947000I237500J0D01*
G01*
X98190500Y-73947000D01*
G75*
G02*
X98428000Y-74184500I0J-237500D01*
G01*
X98428000Y-74659500D01*
G75*
G02*
X98190500Y-74897000I-237500J0D01*
G01*
X97590500Y-74897000D01*
G75*
G02*
X97353000Y-74659500I0J237500D01*
G01*
G37*
%TD.AperFunction*%
%TO.P,C6,1*%
%TO.N,GND*%
%TA.AperFunction,SMDPad,CuDef*%
G36*
G01*
X95628000Y-74659500D02*
X95628000Y-74184500D01*
G75*
G02*
X95865500Y-73947000I237500J0D01*
G01*
X96465500Y-73947000D01*
G75*
G02*
X96703000Y-74184500I0J-237500D01*
G01*
X96703000Y-74659500D01*
G75*
G02*
X96465500Y-74897000I-237500J0D01*
G01*
X95865500Y-74897000D01*
G75*
G02*
X95628000Y-74659500I0J237500D01*
G01*
G37*
%TD.AperFunction*%
%TD*%
%TO.P,C5,2*%
%TO.N,GND*%
%TA.AperFunction,SMDPad,CuDef*%
G36*
G01*
X93455500Y-76891000D02*
X92980500Y-76891000D01*
G75*
G02*
X92743000Y-76653500I0J237500D01*
G01*
X92743000Y-76053500D01*
G75*
G02*
X92980500Y-75816000I237500J0D01*
G01*
X93455500Y-75816000D01*
G75*
G02*
X93693000Y-76053500I0J-237500D01*
G01*
X93693000Y-76653500D01*
G75*
G02*
X93455500Y-76891000I-237500J0D01*
G01*
G37*
%TD.AperFunction*%
%TO.P,C5,1*%
%TO.N,/XTAL+*%
%TA.AperFunction,SMDPad,CuDef*%
G36*
G01*
X93455500Y-78616000D02*
X92980500Y-78616000D01*
G75*
G02*
X92743000Y-78378500I0J237500D01*
G01*
X92743000Y-77778500D01*
G75*
G02*
X92980500Y-77541000I237500J0D01*
G01*
X93455500Y-77541000D01*
G75*
G02*
X93693000Y-77778500I0J-237500D01*
G01*
X93693000Y-78378500D01*
G75*
G02*
X93455500Y-78616000I-237500J0D01*
G01*
G37*
%TD.AperFunction*%
%TD*%
D25*
%TO.P,Y1,4*%
%TO.N,Net-(Y1-Pad4)*%
X95336000Y-76454000D03*
%TO.P,Y1,3*%
%TO.N,/XTAL-*%
X97536000Y-76454000D03*
%TO.P,Y1,2*%
%TO.N,Net-(Y1-Pad2)*%
X97536000Y-78154000D03*
%TO.P,Y1,1*%
%TO.N,/XTAL+*%
X95336000Y-78154000D03*
%TD*%
D26*
%TO.P,J5,6*%
%TO.N,+5V*%
X104267000Y-95123000D03*
%TO.P,J5,5*%
%TO.N,GND*%
X101727000Y-94615000D03*
%TO.P,J5,4*%
%TO.N,/SCLK*%
X99187000Y-95123000D03*
%TO.P,J5,3*%
%TO.N,/MOSI*%
X96647000Y-94615000D03*
%TO.P,J5,2*%
%TO.N,/MISO*%
X94107000Y-95123000D03*
%TO.P,J5,1*%
%TO.N,/RESET*%
X91567000Y-94615000D03*
%TD*%
D27*
%TO.P,SW1,12*%
%TO.N,/DIP_SW1*%
X85344000Y-78613000D03*
%TO.P,SW1,6*%
%TO.N,GND*%
X72644000Y-70993000D03*
%TO.P,SW1,11*%
%TO.N,/DIP_SW2*%
X82804000Y-78613000D03*
%TO.P,SW1,5*%
%TO.N,GND*%
X75184000Y-70993000D03*
%TO.P,SW1,10*%
%TO.N,/DIP_SW3*%
X80264000Y-78613000D03*
%TO.P,SW1,4*%
%TO.N,GND*%
X77724000Y-70993000D03*
%TO.P,SW1,9*%
%TO.N,/DIP_SW4*%
X77724000Y-78613000D03*
%TO.P,SW1,3*%
%TO.N,GND*%
X80264000Y-70993000D03*
%TO.P,SW1,8*%
%TO.N,/DIP_SW5*%
X75184000Y-78613000D03*
%TO.P,SW1,2*%
%TO.N,GND*%
X82804000Y-70993000D03*
%TO.P,SW1,7*%
%TO.N,/DIP_SW6*%
X72644000Y-78613000D03*
D28*
%TO.P,SW1,1*%
%TO.N,GND*%
X85344000Y-70993000D03*
%TD*%
D22*
%TO.P,SW3,3*%
%TO.N,/S*%
X107696000Y-71120000D03*
%TO.P,SW3,2*%
%TO.N,GND*%
X105156000Y-71120000D03*
D23*
%TO.P,SW3,1*%
%TO.N,/X*%
X102616000Y-71120000D03*
%TD*%
%TO.P,R15,2*%
%TO.N,Net-(D6-Pad1)*%
%TA.AperFunction,SMDPad,CuDef*%
G36*
G01*
X77641000Y-74786500D02*
X77641000Y-74311500D01*
G75*
G02*
X77878500Y-74074000I237500J0D01*
G01*
X78378500Y-74074000D01*
G75*
G02*
X78616000Y-74311500I0J-237500D01*
G01*
X78616000Y-74786500D01*
G75*
G02*
X78378500Y-75024000I-237500J0D01*
G01*
X77878500Y-75024000D01*
G75*
G02*
X77641000Y-74786500I0J237500D01*
G01*
G37*
%TD.AperFunction*%
%TO.P,R15,1*%
%TO.N,GND*%
%TA.AperFunction,SMDPad,CuDef*%
G36*
G01*
X75816000Y-74786500D02*
X75816000Y-74311500D01*
G75*
G02*
X76053500Y-74074000I237500J0D01*
G01*
X76553500Y-74074000D01*
G75*
G02*
X76791000Y-74311500I0J-237500D01*
G01*
X76791000Y-74786500D01*
G75*
G02*
X76553500Y-75024000I-237500J0D01*
G01*
X76053500Y-75024000D01*
G75*
G02*
X75816000Y-74786500I0J237500D01*
G01*
G37*
%TD.AperFunction*%
%TD*%
%TO.P,D6,2*%
%TO.N,/CONFIG*%
%TA.AperFunction,SMDPad,CuDef*%
G36*
G01*
X82138000Y-74786500D02*
X82138000Y-74311500D01*
G75*
G02*
X82375500Y-74074000I237500J0D01*
G01*
X82950500Y-74074000D01*
G75*
G02*
X83188000Y-74311500I0J-237500D01*
G01*
X83188000Y-74786500D01*
G75*
G02*
X82950500Y-75024000I-237500J0D01*
G01*
X82375500Y-75024000D01*
G75*
G02*
X82138000Y-74786500I0J237500D01*
G01*
G37*
%TD.AperFunction*%
%TO.P,D6,1*%
%TO.N,Net-(D6-Pad1)*%
%TA.AperFunction,SMDPad,CuDef*%
G36*
G01*
X80388000Y-74786500D02*
X80388000Y-74311500D01*
G75*
G02*
X80625500Y-74074000I237500J0D01*
G01*
X81200500Y-74074000D01*
G75*
G02*
X81438000Y-74311500I0J-237500D01*
G01*
X81438000Y-74786500D01*
G75*
G02*
X81200500Y-75024000I-237500J0D01*
G01*
X80625500Y-75024000D01*
G75*
G02*
X80388000Y-74786500I0J237500D01*
G01*
G37*
%TD.AperFunction*%
%TD*%
D29*
%TO.P,U1,3*%
%TO.N,+5V*%
X84471000Y-94615000D03*
%TO.P,U1,2*%
%TO.N,+3V3*%
X86471000Y-93665000D03*
%TO.P,U1,1*%
%TO.N,GND*%
X86471000Y-95565000D03*
%TD*%
%TO.P,R14,2*%
%TO.N,+5V*%
%TA.AperFunction,SMDPad,CuDef*%
G36*
G01*
X89043500Y-74466000D02*
X89518500Y-74466000D01*
G75*
G02*
X89756000Y-74703500I0J-237500D01*
G01*
X89756000Y-75203500D01*
G75*
G02*
X89518500Y-75441000I-237500J0D01*
G01*
X89043500Y-75441000D01*
G75*
G02*
X88806000Y-75203500I0J237500D01*
G01*
X88806000Y-74703500D01*
G75*
G02*
X89043500Y-74466000I237500J0D01*
G01*
G37*
%TD.AperFunction*%
%TO.P,R14,1*%
%TO.N,/RESET*%
%TA.AperFunction,SMDPad,CuDef*%
G36*
G01*
X89043500Y-72641000D02*
X89518500Y-72641000D01*
G75*
G02*
X89756000Y-72878500I0J-237500D01*
G01*
X89756000Y-73378500D01*
G75*
G02*
X89518500Y-73616000I-237500J0D01*
G01*
X89043500Y-73616000D01*
G75*
G02*
X88806000Y-73378500I0J237500D01*
G01*
X88806000Y-72878500D01*
G75*
G02*
X89043500Y-72641000I237500J0D01*
G01*
G37*
%TD.AperFunction*%
%TD*%
%TO.P,R13,1*%
%TO.N,/rD+*%
%TA.AperFunction,SMDPad,CuDef*%
G36*
G01*
X102486000Y-87613500D02*
X102486000Y-87138500D01*
G75*
G02*
X102723500Y-86901000I237500J0D01*
G01*
X103223500Y-86901000D01*
G75*
G02*
X103461000Y-87138500I0J-237500D01*
G01*
X103461000Y-87613500D01*
G75*
G02*
X103223500Y-87851000I-237500J0D01*
G01*
X102723500Y-87851000D01*
G75*
G02*
X102486000Y-87613500I0J237500D01*
G01*
G37*
%TD.AperFunction*%
%TO.P,R13,2*%
%TO.N,/D+*%
%TA.AperFunction,SMDPad,CuDef*%
G36*
G01*
X104311000Y-87613500D02*
X104311000Y-87138500D01*
G75*
G02*
X104548500Y-86901000I237500J0D01*
G01*
X105048500Y-86901000D01*
G75*
G02*
X105286000Y-87138500I0J-237500D01*
G01*
X105286000Y-87613500D01*
G75*
G02*
X105048500Y-87851000I-237500J0D01*
G01*
X104548500Y-87851000D01*
G75*
G02*
X104311000Y-87613500I0J237500D01*
G01*
G37*
%TD.AperFunction*%
%TD*%
%TO.P,R12,1*%
%TO.N,/D-*%
%TA.AperFunction,SMDPad,CuDef*%
G36*
G01*
X105286000Y-88916500D02*
X105286000Y-89391500D01*
G75*
G02*
X105048500Y-89629000I-237500J0D01*
G01*
X104548500Y-89629000D01*
G75*
G02*
X104311000Y-89391500I0J237500D01*
G01*
X104311000Y-88916500D01*
G75*
G02*
X104548500Y-88679000I237500J0D01*
G01*
X105048500Y-88679000D01*
G75*
G02*
X105286000Y-88916500I0J-237500D01*
G01*
G37*
%TD.AperFunction*%
%TO.P,R12,2*%
%TO.N,/rD-*%
%TA.AperFunction,SMDPad,CuDef*%
G36*
G01*
X103461000Y-88916500D02*
X103461000Y-89391500D01*
G75*
G02*
X103223500Y-89629000I-237500J0D01*
G01*
X102723500Y-89629000D01*
G75*
G02*
X102486000Y-89391500I0J237500D01*
G01*
X102486000Y-88916500D01*
G75*
G02*
X102723500Y-88679000I237500J0D01*
G01*
X103223500Y-88679000D01*
G75*
G02*
X103461000Y-88916500I0J-237500D01*
G01*
G37*
%TD.AperFunction*%
%TD*%
%TO.P,R9,2*%
%TO.N,+3V3*%
%TA.AperFunction,SMDPad,CuDef*%
G36*
G01*
X85896000Y-86089500D02*
X85896000Y-85614500D01*
G75*
G02*
X86133500Y-85377000I237500J0D01*
G01*
X86633500Y-85377000D01*
G75*
G02*
X86871000Y-85614500I0J-237500D01*
G01*
X86871000Y-86089500D01*
G75*
G02*
X86633500Y-86327000I-237500J0D01*
G01*
X86133500Y-86327000D01*
G75*
G02*
X85896000Y-86089500I0J237500D01*
G01*
G37*
%TD.AperFunction*%
%TO.P,R9,1*%
%TO.N,/SCL*%
%TA.AperFunction,SMDPad,CuDef*%
G36*
G01*
X84071000Y-86089500D02*
X84071000Y-85614500D01*
G75*
G02*
X84308500Y-85377000I237500J0D01*
G01*
X84808500Y-85377000D01*
G75*
G02*
X85046000Y-85614500I0J-237500D01*
G01*
X85046000Y-86089500D01*
G75*
G02*
X84808500Y-86327000I-237500J0D01*
G01*
X84308500Y-86327000D01*
G75*
G02*
X84071000Y-86089500I0J237500D01*
G01*
G37*
%TD.AperFunction*%
%TD*%
%TO.P,R8,2*%
%TO.N,+3V3*%
%TA.AperFunction,SMDPad,CuDef*%
G36*
G01*
X85896000Y-88629500D02*
X85896000Y-88154500D01*
G75*
G02*
X86133500Y-87917000I237500J0D01*
G01*
X86633500Y-87917000D01*
G75*
G02*
X86871000Y-88154500I0J-237500D01*
G01*
X86871000Y-88629500D01*
G75*
G02*
X86633500Y-88867000I-237500J0D01*
G01*
X86133500Y-88867000D01*
G75*
G02*
X85896000Y-88629500I0J237500D01*
G01*
G37*
%TD.AperFunction*%
%TO.P,R8,1*%
%TO.N,/SDA*%
%TA.AperFunction,SMDPad,CuDef*%
G36*
G01*
X84071000Y-88629500D02*
X84071000Y-88154500D01*
G75*
G02*
X84308500Y-87917000I237500J0D01*
G01*
X84808500Y-87917000D01*
G75*
G02*
X85046000Y-88154500I0J-237500D01*
G01*
X85046000Y-88629500D01*
G75*
G02*
X84808500Y-88867000I-237500J0D01*
G01*
X84308500Y-88867000D01*
G75*
G02*
X84071000Y-88629500I0J237500D01*
G01*
G37*
%TD.AperFunction*%
%TD*%
%TO.P,R7,2*%
%TO.N,/RX_LED*%
%TA.AperFunction,SMDPad,CuDef*%
G36*
G01*
X112030500Y-78633500D02*
X112505500Y-78633500D01*
G75*
G02*
X112743000Y-78871000I0J-237500D01*
G01*
X112743000Y-79371000D01*
G75*
G02*
X112505500Y-79608500I-237500J0D01*
G01*
X112030500Y-79608500D01*
G75*
G02*
X111793000Y-79371000I0J237500D01*
G01*
X111793000Y-78871000D01*
G75*
G02*
X112030500Y-78633500I237500J0D01*
G01*
G37*
%TD.AperFunction*%
%TO.P,R7,1*%
%TO.N,Net-(D5-Pad1)*%
%TA.AperFunction,SMDPad,CuDef*%
G36*
G01*
X112030500Y-76808500D02*
X112505500Y-76808500D01*
G75*
G02*
X112743000Y-77046000I0J-237500D01*
G01*
X112743000Y-77546000D01*
G75*
G02*
X112505500Y-77783500I-237500J0D01*
G01*
X112030500Y-77783500D01*
G75*
G02*
X111793000Y-77546000I0J237500D01*
G01*
X111793000Y-77046000D01*
G75*
G02*
X112030500Y-76808500I237500J0D01*
G01*
G37*
%TD.AperFunction*%
%TD*%
%TO.P,R6,2*%
%TO.N,Net-(D4-Pad1)*%
%TA.AperFunction,SMDPad,CuDef*%
G36*
G01*
X115553500Y-77680000D02*
X115078500Y-77680000D01*
G75*
G02*
X114841000Y-77442500I0J237500D01*
G01*
X114841000Y-76942500D01*
G75*
G02*
X115078500Y-76705000I237500J0D01*
G01*
X115553500Y-76705000D01*
G75*
G02*
X115791000Y-76942500I0J-237500D01*
G01*
X115791000Y-77442500D01*
G75*
G02*
X115553500Y-77680000I-237500J0D01*
G01*
G37*
%TD.AperFunction*%
%TO.P,R6,1*%
%TO.N,/TX_LED*%
%TA.AperFunction,SMDPad,CuDef*%
G36*
G01*
X115553500Y-79505000D02*
X115078500Y-79505000D01*
G75*
G02*
X114841000Y-79267500I0J237500D01*
G01*
X114841000Y-78767500D01*
G75*
G02*
X115078500Y-78530000I237500J0D01*
G01*
X115553500Y-78530000D01*
G75*
G02*
X115791000Y-78767500I0J-237500D01*
G01*
X115791000Y-79267500D01*
G75*
G02*
X115553500Y-79505000I-237500J0D01*
G01*
G37*
%TD.AperFunction*%
%TD*%
%TO.P,R5,2*%
%TO.N,Net-(D3-Pad1)*%
%TA.AperFunction,SMDPad,CuDef*%
G36*
G01*
X108949500Y-77680000D02*
X108474500Y-77680000D01*
G75*
G02*
X108237000Y-77442500I0J237500D01*
G01*
X108237000Y-76942500D01*
G75*
G02*
X108474500Y-76705000I237500J0D01*
G01*
X108949500Y-76705000D01*
G75*
G02*
X109187000Y-76942500I0J-237500D01*
G01*
X109187000Y-77442500D01*
G75*
G02*
X108949500Y-77680000I-237500J0D01*
G01*
G37*
%TD.AperFunction*%
%TO.P,R5,1*%
%TO.N,GND*%
%TA.AperFunction,SMDPad,CuDef*%
G36*
G01*
X108949500Y-79505000D02*
X108474500Y-79505000D01*
G75*
G02*
X108237000Y-79267500I0J237500D01*
G01*
X108237000Y-78767500D01*
G75*
G02*
X108474500Y-78530000I237500J0D01*
G01*
X108949500Y-78530000D01*
G75*
G02*
X109187000Y-78767500I0J-237500D01*
G01*
X109187000Y-79267500D01*
G75*
G02*
X108949500Y-79505000I-237500J0D01*
G01*
G37*
%TD.AperFunction*%
%TD*%
%TO.P,R4,2*%
%TO.N,Net-(D2-Pad1)*%
%TA.AperFunction,SMDPad,CuDef*%
G36*
G01*
X118601500Y-77680000D02*
X118126500Y-77680000D01*
G75*
G02*
X117889000Y-77442500I0J237500D01*
G01*
X117889000Y-76942500D01*
G75*
G02*
X118126500Y-76705000I237500J0D01*
G01*
X118601500Y-76705000D01*
G75*
G02*
X118839000Y-76942500I0J-237500D01*
G01*
X118839000Y-77442500D01*
G75*
G02*
X118601500Y-77680000I-237500J0D01*
G01*
G37*
%TD.AperFunction*%
%TO.P,R4,1*%
%TO.N,GND*%
%TA.AperFunction,SMDPad,CuDef*%
G36*
G01*
X118601500Y-79505000D02*
X118126500Y-79505000D01*
G75*
G02*
X117889000Y-79267500I0J237500D01*
G01*
X117889000Y-78767500D01*
G75*
G02*
X118126500Y-78530000I237500J0D01*
G01*
X118601500Y-78530000D01*
G75*
G02*
X118839000Y-78767500I0J-237500D01*
G01*
X118839000Y-79267500D01*
G75*
G02*
X118601500Y-79505000I-237500J0D01*
G01*
G37*
%TD.AperFunction*%
%TD*%
%TO.P,R3,2*%
%TO.N,GND*%
%TA.AperFunction,SMDPad,CuDef*%
G36*
G01*
X116249000Y-82787500D02*
X116249000Y-82312500D01*
G75*
G02*
X116486500Y-82075000I237500J0D01*
G01*
X116986500Y-82075000D01*
G75*
G02*
X117224000Y-82312500I0J-237500D01*
G01*
X117224000Y-82787500D01*
G75*
G02*
X116986500Y-83025000I-237500J0D01*
G01*
X116486500Y-83025000D01*
G75*
G02*
X116249000Y-82787500I0J237500D01*
G01*
G37*
%TD.AperFunction*%
%TO.P,R3,1*%
%TO.N,/CC2*%
%TA.AperFunction,SMDPad,CuDef*%
G36*
G01*
X114424000Y-82787500D02*
X114424000Y-82312500D01*
G75*
G02*
X114661500Y-82075000I237500J0D01*
G01*
X115161500Y-82075000D01*
G75*
G02*
X115399000Y-82312500I0J-237500D01*
G01*
X115399000Y-82787500D01*
G75*
G02*
X115161500Y-83025000I-237500J0D01*
G01*
X114661500Y-83025000D01*
G75*
G02*
X114424000Y-82787500I0J237500D01*
G01*
G37*
%TD.AperFunction*%
%TD*%
%TO.P,R2,2*%
%TO.N,/CC1*%
%TA.AperFunction,SMDPad,CuDef*%
G36*
G01*
X115399000Y-95012500D02*
X115399000Y-95487500D01*
G75*
G02*
X115161500Y-95725000I-237500J0D01*
G01*
X114661500Y-95725000D01*
G75*
G02*
X114424000Y-95487500I0J237500D01*
G01*
X114424000Y-95012500D01*
G75*
G02*
X114661500Y-94775000I237500J0D01*
G01*
X115161500Y-94775000D01*
G75*
G02*
X115399000Y-95012500I0J-237500D01*
G01*
G37*
%TD.AperFunction*%
%TO.P,R2,1*%
%TO.N,GND*%
%TA.AperFunction,SMDPad,CuDef*%
G36*
G01*
X117224000Y-95012500D02*
X117224000Y-95487500D01*
G75*
G02*
X116986500Y-95725000I-237500J0D01*
G01*
X116486500Y-95725000D01*
G75*
G02*
X116249000Y-95487500I0J237500D01*
G01*
X116249000Y-95012500D01*
G75*
G02*
X116486500Y-94775000I237500J0D01*
G01*
X116986500Y-94775000D01*
G75*
G02*
X117224000Y-95012500I0J-237500D01*
G01*
G37*
%TD.AperFunction*%
%TD*%
%TO.P,R1,2*%
%TO.N,GND*%
%TA.AperFunction,SMDPad,CuDef*%
G36*
G01*
X85046000Y-82947500D02*
X85046000Y-83422500D01*
G75*
G02*
X84808500Y-83660000I-237500J0D01*
G01*
X84308500Y-83660000D01*
G75*
G02*
X84071000Y-83422500I0J237500D01*
G01*
X84071000Y-82947500D01*
G75*
G02*
X84308500Y-82710000I237500J0D01*
G01*
X84808500Y-82710000D01*
G75*
G02*
X85046000Y-82947500I0J-237500D01*
G01*
G37*
%TD.AperFunction*%
%TO.P,R1,1*%
%TO.N,/CONT_DETECT*%
%TA.AperFunction,SMDPad,CuDef*%
G36*
G01*
X86871000Y-82947500D02*
X86871000Y-83422500D01*
G75*
G02*
X86633500Y-83660000I-237500J0D01*
G01*
X86133500Y-83660000D01*
G75*
G02*
X85896000Y-83422500I0J237500D01*
G01*
X85896000Y-82947500D01*
G75*
G02*
X86133500Y-82710000I237500J0D01*
G01*
X86633500Y-82710000D01*
G75*
G02*
X86871000Y-82947500I0J-237500D01*
G01*
G37*
%TD.AperFunction*%
%TD*%
D22*
%TO.P,J2,5*%
%TO.N,GND*%
X88519000Y-93345000D03*
%TO.P,J2,4*%
%TO.N,+3V3*%
X88519000Y-90805000D03*
%TO.P,J2,3*%
%TO.N,/SDA*%
X88519000Y-88265000D03*
%TO.P,J2,2*%
%TO.N,/SCL*%
X88519000Y-85725000D03*
D23*
%TO.P,J2,1*%
%TO.N,/CONT_DETECT*%
X88519000Y-83185000D03*
%TD*%
%TO.P,F1,2*%
%TO.N,+5VA*%
%TA.AperFunction,SMDPad,CuDef*%
G36*
G01*
X112972000Y-95446001D02*
X112972000Y-94545999D01*
G75*
G02*
X113221999Y-94296000I249999J0D01*
G01*
X113872001Y-94296000D01*
G75*
G02*
X114122000Y-94545999I0J-249999D01*
G01*
X114122000Y-95446001D01*
G75*
G02*
X113872001Y-95696000I-249999J0D01*
G01*
X113221999Y-95696000D01*
G75*
G02*
X112972000Y-95446001I0J249999D01*
G01*
G37*
%TD.AperFunction*%
%TO.P,F1,1*%
%TO.N,Net-(D1-Pad2)*%
%TA.AperFunction,SMDPad,CuDef*%
G36*
G01*
X110922000Y-95446001D02*
X110922000Y-94545999D01*
G75*
G02*
X111171999Y-94296000I249999J0D01*
G01*
X111822001Y-94296000D01*
G75*
G02*
X112072000Y-94545999I0J-249999D01*
G01*
X112072000Y-95446001D01*
G75*
G02*
X111822001Y-95696000I-249999J0D01*
G01*
X111171999Y-95696000D01*
G75*
G02*
X110922000Y-95446001I0J249999D01*
G01*
G37*
%TD.AperFunction*%
%TD*%
%TO.P,D5,2*%
%TO.N,+5V*%
%TA.AperFunction,SMDPad,CuDef*%
G36*
G01*
X112251500Y-73818000D02*
X111776500Y-73818000D01*
G75*
G02*
X111539000Y-73580500I0J237500D01*
G01*
X111539000Y-73005500D01*
G75*
G02*
X111776500Y-72768000I237500J0D01*
G01*
X112251500Y-72768000D01*
G75*
G02*
X112489000Y-73005500I0J-237500D01*
G01*
X112489000Y-73580500D01*
G75*
G02*
X112251500Y-73818000I-237500J0D01*
G01*
G37*
%TD.AperFunction*%
%TO.P,D5,1*%
%TO.N,Net-(D5-Pad1)*%
%TA.AperFunction,SMDPad,CuDef*%
G36*
G01*
X112251500Y-75568000D02*
X111776500Y-75568000D01*
G75*
G02*
X111539000Y-75330500I0J237500D01*
G01*
X111539000Y-74755500D01*
G75*
G02*
X111776500Y-74518000I237500J0D01*
G01*
X112251500Y-74518000D01*
G75*
G02*
X112489000Y-74755500I0J-237500D01*
G01*
X112489000Y-75330500D01*
G75*
G02*
X112251500Y-75568000I-237500J0D01*
G01*
G37*
%TD.AperFunction*%
%TD*%
%TO.P,D4,2*%
%TO.N,+5V*%
%TA.AperFunction,SMDPad,CuDef*%
G36*
G01*
X115426500Y-73818000D02*
X114951500Y-73818000D01*
G75*
G02*
X114714000Y-73580500I0J237500D01*
G01*
X114714000Y-73005500D01*
G75*
G02*
X114951500Y-72768000I237500J0D01*
G01*
X115426500Y-72768000D01*
G75*
G02*
X115664000Y-73005500I0J-237500D01*
G01*
X115664000Y-73580500D01*
G75*
G02*
X115426500Y-73818000I-237500J0D01*
G01*
G37*
%TD.AperFunction*%
%TO.P,D4,1*%
%TO.N,Net-(D4-Pad1)*%
%TA.AperFunction,SMDPad,CuDef*%
G36*
G01*
X115426500Y-75568000D02*
X114951500Y-75568000D01*
G75*
G02*
X114714000Y-75330500I0J237500D01*
G01*
X114714000Y-74755500D01*
G75*
G02*
X114951500Y-74518000I237500J0D01*
G01*
X115426500Y-74518000D01*
G75*
G02*
X115664000Y-74755500I0J-237500D01*
G01*
X115664000Y-75330500D01*
G75*
G02*
X115426500Y-75568000I-237500J0D01*
G01*
G37*
%TD.AperFunction*%
%TD*%
%TO.P,D3,2*%
%TO.N,+3V3*%
%TA.AperFunction,SMDPad,CuDef*%
G36*
G01*
X109076500Y-73818000D02*
X108601500Y-73818000D01*
G75*
G02*
X108364000Y-73580500I0J237500D01*
G01*
X108364000Y-73005500D01*
G75*
G02*
X108601500Y-72768000I237500J0D01*
G01*
X109076500Y-72768000D01*
G75*
G02*
X109314000Y-73005500I0J-237500D01*
G01*
X109314000Y-73580500D01*
G75*
G02*
X109076500Y-73818000I-237500J0D01*
G01*
G37*
%TD.AperFunction*%
%TO.P,D3,1*%
%TO.N,Net-(D3-Pad1)*%
%TA.AperFunction,SMDPad,CuDef*%
G36*
G01*
X109076500Y-75568000D02*
X108601500Y-75568000D01*
G75*
G02*
X108364000Y-75330500I0J237500D01*
G01*
X108364000Y-74755500D01*
G75*
G02*
X108601500Y-74518000I237500J0D01*
G01*
X109076500Y-74518000D01*
G75*
G02*
X109314000Y-74755500I0J-237500D01*
G01*
X109314000Y-75330500D01*
G75*
G02*
X109076500Y-75568000I-237500J0D01*
G01*
G37*
%TD.AperFunction*%
%TD*%
%TO.P,D2,2*%
%TO.N,/STATUS*%
%TA.AperFunction,SMDPad,CuDef*%
G36*
G01*
X118601500Y-73691000D02*
X118126500Y-73691000D01*
G75*
G02*
X117889000Y-73453500I0J237500D01*
G01*
X117889000Y-72878500D01*
G75*
G02*
X118126500Y-72641000I237500J0D01*
G01*
X118601500Y-72641000D01*
G75*
G02*
X118839000Y-72878500I0J-237500D01*
G01*
X118839000Y-73453500D01*
G75*
G02*
X118601500Y-73691000I-237500J0D01*
G01*
G37*
%TD.AperFunction*%
%TO.P,D2,1*%
%TO.N,Net-(D2-Pad1)*%
%TA.AperFunction,SMDPad,CuDef*%
G36*
G01*
X118601500Y-75441000D02*
X118126500Y-75441000D01*
G75*
G02*
X117889000Y-75203500I0J237500D01*
G01*
X117889000Y-74628500D01*
G75*
G02*
X118126500Y-74391000I237500J0D01*
G01*
X118601500Y-74391000D01*
G75*
G02*
X118839000Y-74628500I0J-237500D01*
G01*
X118839000Y-75203500D01*
G75*
G02*
X118601500Y-75441000I-237500J0D01*
G01*
G37*
%TD.AperFunction*%
%TD*%
%TO.P,C8,2*%
%TO.N,Net-(C8-Pad2)*%
%TA.AperFunction,SMDPad,CuDef*%
G36*
G01*
X103561000Y-82312500D02*
X103561000Y-82787500D01*
G75*
G02*
X103323500Y-83025000I-237500J0D01*
G01*
X102723500Y-83025000D01*
G75*
G02*
X102486000Y-82787500I0J237500D01*
G01*
X102486000Y-82312500D01*
G75*
G02*
X102723500Y-82075000I237500J0D01*
G01*
X103323500Y-82075000D01*
G75*
G02*
X103561000Y-82312500I0J-237500D01*
G01*
G37*
%TD.AperFunction*%
%TO.P,C8,1*%
%TO.N,GND*%
%TA.AperFunction,SMDPad,CuDef*%
G36*
G01*
X105286000Y-82312500D02*
X105286000Y-82787500D01*
G75*
G02*
X105048500Y-83025000I-237500J0D01*
G01*
X104448500Y-83025000D01*
G75*
G02*
X104211000Y-82787500I0J237500D01*
G01*
X104211000Y-82312500D01*
G75*
G02*
X104448500Y-82075000I237500J0D01*
G01*
X105048500Y-82075000D01*
G75*
G02*
X105286000Y-82312500I0J-237500D01*
G01*
G37*
%TD.AperFunction*%
%TD*%
%TO.P,C7,1*%
%TO.N,Net-(C7-Pad1)*%
%TA.AperFunction,SMDPad,CuDef*%
G36*
G01*
X102232000Y-91677500D02*
X102232000Y-91202500D01*
G75*
G02*
X102469500Y-90965000I237500J0D01*
G01*
X103069500Y-90965000D01*
G75*
G02*
X103307000Y-91202500I0J-237500D01*
G01*
X103307000Y-91677500D01*
G75*
G02*
X103069500Y-91915000I-237500J0D01*
G01*
X102469500Y-91915000D01*
G75*
G02*
X102232000Y-91677500I0J237500D01*
G01*
G37*
%TD.AperFunction*%
%TO.P,C7,2*%
%TO.N,GND*%
%TA.AperFunction,SMDPad,CuDef*%
G36*
G01*
X103957000Y-91677500D02*
X103957000Y-91202500D01*
G75*
G02*
X104194500Y-90965000I237500J0D01*
G01*
X104794500Y-90965000D01*
G75*
G02*
X105032000Y-91202500I0J-237500D01*
G01*
X105032000Y-91677500D01*
G75*
G02*
X104794500Y-91915000I-237500J0D01*
G01*
X104194500Y-91915000D01*
G75*
G02*
X103957000Y-91677500I0J237500D01*
G01*
G37*
%TD.AperFunction*%
%TD*%
%TO.P,C4,2*%
%TO.N,+3V3*%
%TA.AperFunction,SMDPad,CuDef*%
G36*
G01*
X85796000Y-92058500D02*
X85796000Y-91583500D01*
G75*
G02*
X86033500Y-91346000I237500J0D01*
G01*
X86633500Y-91346000D01*
G75*
G02*
X86871000Y-91583500I0J-237500D01*
G01*
X86871000Y-92058500D01*
G75*
G02*
X86633500Y-92296000I-237500J0D01*
G01*
X86033500Y-92296000D01*
G75*
G02*
X85796000Y-92058500I0J237500D01*
G01*
G37*
%TD.AperFunction*%
%TO.P,C4,1*%
%TO.N,GND*%
%TA.AperFunction,SMDPad,CuDef*%
G36*
G01*
X84071000Y-92058500D02*
X84071000Y-91583500D01*
G75*
G02*
X84308500Y-91346000I237500J0D01*
G01*
X84908500Y-91346000D01*
G75*
G02*
X85146000Y-91583500I0J-237500D01*
G01*
X85146000Y-92058500D01*
G75*
G02*
X84908500Y-92296000I-237500J0D01*
G01*
X84308500Y-92296000D01*
G75*
G02*
X84071000Y-92058500I0J237500D01*
G01*
G37*
%TD.AperFunction*%
%TD*%
%TO.P,C3,2*%
%TO.N,+3V3*%
%TA.AperFunction,SMDPad,CuDef*%
G36*
G01*
X85796000Y-90661500D02*
X85796000Y-90186500D01*
G75*
G02*
X86033500Y-89949000I237500J0D01*
G01*
X86633500Y-89949000D01*
G75*
G02*
X86871000Y-90186500I0J-237500D01*
G01*
X86871000Y-90661500D01*
G75*
G02*
X86633500Y-90899000I-237500J0D01*
G01*
X86033500Y-90899000D01*
G75*
G02*
X85796000Y-90661500I0J237500D01*
G01*
G37*
%TD.AperFunction*%
%TO.P,C3,1*%
%TO.N,GND*%
%TA.AperFunction,SMDPad,CuDef*%
G36*
G01*
X84071000Y-90661500D02*
X84071000Y-90186500D01*
G75*
G02*
X84308500Y-89949000I237500J0D01*
G01*
X84908500Y-89949000D01*
G75*
G02*
X85146000Y-90186500I0J-237500D01*
G01*
X85146000Y-90661500D01*
G75*
G02*
X84908500Y-90899000I-237500J0D01*
G01*
X84308500Y-90899000D01*
G75*
G02*
X84071000Y-90661500I0J237500D01*
G01*
G37*
%TD.AperFunction*%
%TD*%
%TO.P,C2,2*%
%TO.N,+5V*%
%TA.AperFunction,SMDPad,CuDef*%
G36*
G01*
X103957000Y-78469500D02*
X103957000Y-77994500D01*
G75*
G02*
X104194500Y-77757000I237500J0D01*
G01*
X104794500Y-77757000D01*
G75*
G02*
X105032000Y-77994500I0J-237500D01*
G01*
X105032000Y-78469500D01*
G75*
G02*
X104794500Y-78707000I-237500J0D01*
G01*
X104194500Y-78707000D01*
G75*
G02*
X103957000Y-78469500I0J237500D01*
G01*
G37*
%TD.AperFunction*%
%TO.P,C2,1*%
%TO.N,GND*%
%TA.AperFunction,SMDPad,CuDef*%
G36*
G01*
X102232000Y-78469500D02*
X102232000Y-77994500D01*
G75*
G02*
X102469500Y-77757000I237500J0D01*
G01*
X103069500Y-77757000D01*
G75*
G02*
X103307000Y-77994500I0J-237500D01*
G01*
X103307000Y-78469500D01*
G75*
G02*
X103069500Y-78707000I-237500J0D01*
G01*
X102469500Y-78707000D01*
G75*
G02*
X102232000Y-78469500I0J237500D01*
G01*
G37*
%TD.AperFunction*%
%TD*%
%TO.P,C1,2*%
%TO.N,+5V*%
%TA.AperFunction,SMDPad,CuDef*%
G36*
G01*
X100500000Y-78049000D02*
X100975000Y-78049000D01*
G75*
G02*
X101212500Y-78286500I0J-237500D01*
G01*
X101212500Y-78886500D01*
G75*
G02*
X100975000Y-79124000I-237500J0D01*
G01*
X100500000Y-79124000D01*
G75*
G02*
X100262500Y-78886500I0J237500D01*
G01*
X100262500Y-78286500D01*
G75*
G02*
X100500000Y-78049000I237500J0D01*
G01*
G37*
%TD.AperFunction*%
%TO.P,C1,1*%
%TO.N,GND*%
%TA.AperFunction,SMDPad,CuDef*%
G36*
G01*
X100500000Y-76324000D02*
X100975000Y-76324000D01*
G75*
G02*
X101212500Y-76561500I0J-237500D01*
G01*
X101212500Y-77161500D01*
G75*
G02*
X100975000Y-77399000I-237500J0D01*
G01*
X100500000Y-77399000D01*
G75*
G02*
X100262500Y-77161500I0J237500D01*
G01*
X100262500Y-76561500D01*
G75*
G02*
X100500000Y-76324000I237500J0D01*
G01*
G37*
%TD.AperFunction*%
%TD*%
D30*
%TO.N,+5V*%
X104494500Y-75718500D03*
X111760000Y-71628000D03*
%TO.N,GND*%
X96774000Y-86868000D03*
X92710000Y-83693000D03*
X95377000Y-92837000D03*
X93218000Y-93472000D03*
X101219000Y-91567000D03*
X110617000Y-92710000D03*
X118745000Y-94107000D03*
X118364000Y-80518000D03*
X116840000Y-76454000D03*
X113665000Y-71628000D03*
X118872000Y-71628000D03*
X110109000Y-71628000D03*
X110617000Y-76327000D03*
X107442000Y-75819000D03*
X102489000Y-76073000D03*
X75311000Y-75565000D03*
X82550000Y-83058000D03*
X101981000Y-87376000D03*
X104521000Y-92583000D03*
X93091000Y-91694000D03*
X73152000Y-88900000D03*
X77343000Y-86487000D03*
X82296000Y-93599000D03*
X84709000Y-76200000D03*
X98298000Y-80899000D03*
X110871000Y-79248000D03*
X118364000Y-82550000D03*
X94107000Y-74930000D03*
X95377000Y-70866000D03*
X100965000Y-71120000D03*
X97409000Y-92837000D03*
X100203000Y-91948000D03*
X109982000Y-86995000D03*
X109855000Y-82804000D03*
X105791000Y-79121000D03*
D31*
X83312000Y-91313000D03*
X82677000Y-94869000D03*
X88519000Y-95504000D03*
X71120000Y-93218000D03*
X77724000Y-80264000D03*
X116713000Y-71628000D03*
X99568000Y-79756000D03*
X93091000Y-70993000D03*
X96520000Y-72009000D03*
X100711000Y-74803000D03*
D30*
%TO.N,+3V3*%
X70993000Y-73406000D03*
%TO.N,/STATUS*%
X106172000Y-89535000D03*
X112395000Y-80645000D03*
%TO.N,+5VA*%
X115951000Y-84201000D03*
%TO.N,/D-*%
X114027800Y-88754800D03*
%TO.N,/D+*%
X114034000Y-87769000D03*
D31*
%TO.N,/SDA*%
X93853000Y-80518000D03*
D30*
%TO.N,/SCL*%
X93853000Y-79248000D03*
D31*
%TO.N,/CONT_DETECT*%
X92964000Y-81915000D03*
X101981000Y-79121000D03*
D30*
%TO.N,/ID*%
X111252000Y-84201000D03*
X115443000Y-87503000D03*
D31*
%TO.N,/X*%
X100076000Y-82804000D03*
D30*
%TO.N,/RESET*%
X100838000Y-83439000D03*
%TO.N,/MOSI*%
X102235000Y-83566000D03*
%TO.N,/SCLK*%
X102679500Y-84391500D03*
%TO.N,/MISO*%
X101600000Y-82804000D03*
%TO.N,/RX_LED*%
X103378000Y-85090000D03*
X110617000Y-80772000D03*
X103378000Y-85090000D03*
%TO.N,/DIP_SW6*%
X86868000Y-84455000D03*
%TO.N,Net-(JP1-Pad2)*%
X90932000Y-90551000D03*
D31*
X103632000Y-79248000D03*
%TD*%
D32*
%TO.N,+5V*%
X92710000Y-84995000D02*
X93758000Y-84995000D01*
X100737500Y-78586500D02*
X100737500Y-80237500D01*
X100076000Y-80899000D02*
X100737500Y-80237500D01*
X104494500Y-79528500D02*
X104494500Y-78232000D01*
X115189000Y-73293000D02*
X112014000Y-73293000D01*
X84471000Y-94615000D02*
X89535000Y-94615000D01*
X89535000Y-94615000D02*
X92075000Y-92075000D01*
X92075000Y-92075000D02*
X92075000Y-91567000D01*
X92837000Y-90805000D02*
X94020000Y-90805000D01*
X92075000Y-91567000D02*
X92837000Y-90805000D01*
X93866930Y-84980000D02*
X92852000Y-84980000D01*
X94162000Y-85275070D02*
X93866930Y-84980000D01*
X94162000Y-90790000D02*
X94162000Y-85275070D01*
X93866930Y-84980000D02*
X94264930Y-84582000D01*
X97764930Y-84582000D02*
X98162000Y-84184930D01*
X98162000Y-84184930D02*
X98162000Y-83170000D01*
X94264930Y-84582000D02*
X97764930Y-84582000D01*
X98162000Y-83170000D02*
X98162000Y-82051000D01*
X99314000Y-80899000D02*
X100076000Y-80899000D01*
X98162000Y-82051000D02*
X99314000Y-80899000D01*
X99457070Y-86480000D02*
X99170390Y-86766680D01*
X99162000Y-89653780D02*
X99162000Y-90790000D01*
X99170390Y-89645390D02*
X99162000Y-89653780D01*
X99200780Y-88980000D02*
X99170390Y-89010390D01*
X100472000Y-88980000D02*
X99200780Y-88980000D01*
X99170390Y-89010390D02*
X99170390Y-89645390D01*
X99170390Y-86766680D02*
X99170390Y-89010390D01*
X104494500Y-78232000D02*
X104494500Y-75718500D01*
X111760000Y-71628000D02*
X111760000Y-72136000D01*
X112014000Y-72390000D02*
X112014000Y-73293000D01*
X111760000Y-72136000D02*
X112014000Y-72390000D01*
X99457070Y-86480000D02*
X100472000Y-86480000D01*
X99170390Y-86193320D02*
X99457070Y-86480000D01*
X99170390Y-84945508D02*
X99170390Y-86193320D01*
X98903281Y-84678399D02*
X99170390Y-84945508D01*
X98521399Y-84678399D02*
X98903281Y-84678399D01*
X98162000Y-84319000D02*
X98521399Y-84678399D01*
X98162000Y-83170000D02*
X98162000Y-84319000D01*
D33*
X104267000Y-95123000D02*
X104394000Y-95123000D01*
D32*
X104394000Y-94996000D02*
X104267000Y-95123000D01*
X106554000Y-94996000D02*
X104394000Y-94996000D01*
X106554000Y-94996000D02*
X106554000Y-94616000D01*
X106554000Y-91187000D02*
X106554000Y-94996000D01*
X105791000Y-90424000D02*
X106554000Y-91187000D01*
X100584000Y-90424000D02*
X105791000Y-90424000D01*
X100218000Y-90790000D02*
X100584000Y-90424000D01*
X99162000Y-90790000D02*
X100218000Y-90790000D01*
X101514110Y-77809890D02*
X101514110Y-75650890D01*
X100737500Y-78586500D02*
X101514110Y-77809890D01*
X101514110Y-75650890D02*
X102362000Y-74803000D01*
X103579000Y-74803000D02*
X104494500Y-75718500D01*
X102362000Y-74803000D02*
X103579000Y-74803000D01*
X79917890Y-92329000D02*
X83058000Y-92329000D01*
X70358000Y-88773000D02*
X72304399Y-90719399D01*
X70358000Y-75819000D02*
X70358000Y-88773000D01*
X73406000Y-72771000D02*
X70358000Y-75819000D01*
X87586000Y-72771000D02*
X73406000Y-72771000D01*
X83058000Y-92329000D02*
X84471000Y-93742000D01*
X78308289Y-90719399D02*
X79917890Y-92329000D01*
X89281000Y-74466000D02*
X87586000Y-72771000D01*
X84471000Y-93742000D02*
X84471000Y-94615000D01*
X72304399Y-90719399D02*
X78308289Y-90719399D01*
X89281000Y-74953500D02*
X89281000Y-74466000D01*
D34*
%TO.N,GND*%
X95377000Y-92837000D02*
X94996000Y-92837000D01*
X94662000Y-92503000D02*
X94662000Y-90790000D01*
X94996000Y-92837000D02*
X94662000Y-92503000D01*
X100965000Y-91948000D02*
X100203000Y-92710000D01*
X100203000Y-92710000D02*
X98806000Y-92710000D01*
X98662000Y-92566000D02*
X98662000Y-90790000D01*
X98806000Y-92710000D02*
X98662000Y-92566000D01*
X100495000Y-87503000D02*
X100472000Y-87480000D01*
X101981000Y-87503000D02*
X100495000Y-87503000D01*
X92710000Y-84338000D02*
X92852000Y-84480000D01*
X92710000Y-83693000D02*
X92710000Y-84338000D01*
X97662000Y-81027000D02*
X97662000Y-83170000D01*
X98044000Y-80645000D02*
X97662000Y-81027000D01*
D35*
X111103000Y-92837000D02*
X112196000Y-91744000D01*
D34*
X110617000Y-92837000D02*
X111103000Y-92837000D01*
X95657500Y-74930000D02*
X96165500Y-74422000D01*
X94107000Y-74930000D02*
X95657500Y-74930000D01*
X103759000Y-92583000D02*
X101727000Y-94615000D01*
X104521000Y-92583000D02*
X103759000Y-92583000D01*
X100787201Y-93675201D02*
X101727000Y-94615000D01*
X98247201Y-93675201D02*
X100787201Y-93675201D01*
X97409000Y-92837000D02*
X98247201Y-93675201D01*
X109347000Y-82296000D02*
X109855000Y-82804000D01*
X108204000Y-82296000D02*
X109347000Y-82296000D01*
X94662000Y-89790000D02*
X94996000Y-89456000D01*
X94662000Y-90790000D02*
X94662000Y-89790000D01*
X94996000Y-88646000D02*
X96662000Y-86980000D01*
X94996000Y-89456000D02*
X94996000Y-88646000D01*
X98662000Y-89790000D02*
X98153000Y-89281000D01*
X98662000Y-90790000D02*
X98662000Y-89790000D01*
X98153000Y-88471000D02*
X96662000Y-86980000D01*
X98153000Y-89281000D02*
X98153000Y-88471000D01*
X81407000Y-94488000D02*
X82296000Y-93599000D01*
X79375000Y-94488000D02*
X81407000Y-94488000D01*
D33*
X112201000Y-85294000D02*
X110823600Y-85294000D01*
X109855000Y-84325400D02*
X109855000Y-82804000D01*
X110823600Y-85294000D02*
X109855000Y-84325400D01*
D34*
X109258999Y-86271999D02*
X107099999Y-86271999D01*
X109982000Y-86995000D02*
X109258999Y-86271999D01*
X104748500Y-83920500D02*
X104748500Y-82550000D01*
X107099999Y-86271999D02*
X104748500Y-83920500D01*
D36*
X107442000Y-73406000D02*
X107442000Y-75819000D01*
X105156000Y-71120000D02*
X107442000Y-73406000D01*
D34*
X112196000Y-91744000D02*
X112196000Y-92274000D01*
X112196000Y-92274000D02*
X111633000Y-92837000D01*
X111633000Y-92837000D02*
X110617000Y-92837000D01*
D32*
%TO.N,+3V3*%
X86471000Y-91958500D02*
X86333500Y-91821000D01*
X86471000Y-93665000D02*
X86471000Y-91958500D01*
X86333500Y-91821000D02*
X86333500Y-90424000D01*
X86333500Y-88442000D02*
X86383500Y-88392000D01*
X86333500Y-90424000D02*
X86333500Y-88442000D01*
X86383500Y-85852000D02*
X86383500Y-88392000D01*
X86383500Y-84986500D02*
X86383500Y-85852000D01*
X86106000Y-84709000D02*
X86383500Y-84986500D01*
X82550000Y-84709000D02*
X86106000Y-84709000D01*
X82169000Y-85090000D02*
X82550000Y-84709000D01*
X82169000Y-86233000D02*
X82169000Y-85090000D01*
X108847601Y-70567231D02*
X107622370Y-69342000D01*
X108847601Y-73284399D02*
X108847601Y-70567231D01*
X108839000Y-73293000D02*
X108847601Y-73284399D01*
X107622370Y-69342000D02*
X71755000Y-69342000D01*
X71755000Y-69342000D02*
X70993000Y-70104000D01*
X70993000Y-70104000D02*
X70993000Y-73406000D01*
X88138000Y-90424000D02*
X88519000Y-90805000D01*
X86333500Y-90424000D02*
X88138000Y-90424000D01*
D34*
%TO.N,Net-(C7-Pad1)*%
X98648181Y-93091010D02*
X102361990Y-93091010D01*
X98162000Y-92604829D02*
X98648181Y-93091010D01*
X98162000Y-90790000D02*
X98162000Y-92604829D01*
X102769500Y-92683500D02*
X102769500Y-91440000D01*
X102361990Y-93091010D02*
X102769500Y-92683500D01*
D33*
%TO.N,Net-(C8-Pad2)*%
X103378000Y-83439000D02*
X103124000Y-83439000D01*
X103023500Y-83338500D02*
X103023500Y-82550000D01*
X103124000Y-83439000D02*
X103023500Y-83338500D01*
X104267000Y-85471000D02*
X104267000Y-84328000D01*
X103150410Y-86259410D02*
X103478590Y-86259410D01*
X104267000Y-84328000D02*
X103378000Y-83439000D01*
X102922820Y-86487000D02*
X103150410Y-86259410D01*
X102051262Y-86487000D02*
X102922820Y-86487000D01*
X103478590Y-86259410D02*
X104267000Y-85471000D01*
X101558262Y-86980000D02*
X102051262Y-86487000D01*
X100472000Y-86980000D02*
X101558262Y-86980000D01*
D36*
%TO.N,Net-(D1-Pad2)*%
X109854000Y-94996000D02*
X111243000Y-94996000D01*
D33*
%TO.N,/STATUS*%
X118364000Y-73166000D02*
X118364000Y-73406000D01*
X100472000Y-89480000D02*
X101038190Y-90046190D01*
X101063589Y-90020791D02*
X105686209Y-90020791D01*
X101038190Y-90046190D02*
X101063589Y-90020791D01*
X105686209Y-90020791D02*
X106172000Y-89535000D01*
X112395000Y-80645000D02*
X113538000Y-79502000D01*
X113538000Y-79502000D02*
X113538000Y-74549000D01*
X113795210Y-74291790D02*
X116462210Y-74291790D01*
X113538000Y-74549000D02*
X113795210Y-74291790D01*
X117588000Y-73166000D02*
X118364000Y-73166000D01*
X116462210Y-74291790D02*
X117588000Y-73166000D01*
D34*
%TO.N,Net-(D2-Pad1)*%
X118364000Y-77192500D02*
X118364000Y-74916000D01*
%TO.N,Net-(D3-Pad1)*%
X108712000Y-77192500D02*
X108712000Y-75057000D01*
%TO.N,Net-(D4-Pad1)*%
X115316000Y-75170000D02*
X115189000Y-75043000D01*
X115316000Y-77192500D02*
X115316000Y-75170000D01*
%TO.N,Net-(D5-Pad1)*%
X112268000Y-75297000D02*
X112014000Y-75043000D01*
X112268000Y-77296000D02*
X112268000Y-75297000D01*
D32*
%TO.N,+5VA*%
X115951000Y-84201000D02*
X119761000Y-88011000D01*
X119761000Y-95377000D02*
X118999000Y-96139000D01*
X119761000Y-88011000D02*
X119761000Y-95377000D01*
X118999000Y-96139000D02*
X113538000Y-96139000D01*
X113293000Y-95894000D02*
X113293000Y-94996000D01*
X113538000Y-96139000D02*
X113293000Y-95894000D01*
X110580000Y-90969000D02*
X112171000Y-90969000D01*
X110109000Y-91440000D02*
X110580000Y-90969000D01*
X110109000Y-91821000D02*
X110109000Y-91440000D01*
X109474000Y-92456000D02*
X110109000Y-91821000D01*
X108204000Y-92456000D02*
X109474000Y-92456000D01*
X108204000Y-92456000D02*
X108204000Y-93345000D01*
X108204000Y-93345000D02*
X108585000Y-93726000D01*
X113293000Y-94243000D02*
X113293000Y-94996000D01*
X112776000Y-93726000D02*
X113293000Y-94243000D01*
X108585000Y-93726000D02*
X112776000Y-93726000D01*
X115951000Y-84201000D02*
X116335418Y-84201000D01*
X119888000Y-82423000D02*
X118913610Y-83397390D01*
X119888000Y-81661000D02*
X119888000Y-82423000D01*
X116754610Y-83397390D02*
X115951000Y-84201000D01*
X117602000Y-81661000D02*
X119888000Y-81661000D01*
X117221000Y-81280000D02*
X117602000Y-81661000D01*
X110772800Y-86069000D02*
X109477190Y-84773390D01*
X107052399Y-81743231D02*
X107651231Y-81144399D01*
X110819370Y-82804000D02*
X112776000Y-82804000D01*
X109477190Y-84773390D02*
X109477190Y-83947000D01*
X109477190Y-83947000D02*
X108977791Y-83447601D01*
X107052399Y-82848769D02*
X107052399Y-81743231D01*
X108977791Y-83447601D02*
X107651231Y-83447601D01*
X107651231Y-83447601D02*
X107052399Y-82848769D01*
X107651231Y-81144399D02*
X109159769Y-81144399D01*
X118913610Y-83397390D02*
X116754610Y-83397390D01*
X109159769Y-81144399D02*
X110819370Y-82804000D01*
X112201000Y-86069000D02*
X110772800Y-86069000D01*
X114300000Y-81280000D02*
X117221000Y-81280000D01*
X112776000Y-82804000D02*
X114300000Y-81280000D01*
D33*
%TO.N,/D-*%
X108458000Y-89916000D02*
X108204000Y-89916000D01*
X113276000Y-88269000D02*
X112201000Y-88269000D01*
X113578400Y-88269000D02*
X114046000Y-88736600D01*
X112201000Y-88269000D02*
X113578400Y-88269000D01*
X113513600Y-89269000D02*
X112201000Y-89269000D01*
X114046000Y-88736600D02*
X114027800Y-88754800D01*
X112201000Y-89269000D02*
X110756000Y-89269000D01*
X110109000Y-89916000D02*
X108204000Y-89916000D01*
X110756000Y-89269000D02*
X110109000Y-89916000D01*
X105409300Y-88416200D02*
X104671500Y-89154000D01*
X106363370Y-88797200D02*
X105982370Y-88416200D01*
X107085200Y-88797200D02*
X106363370Y-88797200D01*
X105982370Y-88416200D02*
X105409300Y-88416200D01*
X108204000Y-89916000D02*
X107085200Y-88797200D01*
X114027800Y-88754800D02*
X113513600Y-89269000D01*
%TO.N,/D+*%
X112205000Y-88773000D02*
X112201000Y-88769000D01*
X113276000Y-88769000D02*
X112201000Y-88769000D01*
X112201000Y-88769000D02*
X110823600Y-88769000D01*
X112201000Y-87769000D02*
X114034000Y-87769000D01*
X110648400Y-87769000D02*
X112201000Y-87769000D01*
X109009400Y-88181400D02*
X108204000Y-87376000D01*
X110236000Y-88181400D02*
X109009400Y-88181400D01*
X110236000Y-88181400D02*
X110648400Y-87769000D01*
X110823600Y-88769000D02*
X110236000Y-88181400D01*
X105409300Y-88113800D02*
X104671500Y-87376000D01*
X106488630Y-88494800D02*
X106107630Y-88113800D01*
X106107630Y-88113800D02*
X105409300Y-88113800D01*
X108204000Y-87376000D02*
X107085200Y-88494800D01*
X107085200Y-88494800D02*
X106488630Y-88494800D01*
X114034000Y-87769000D02*
X114034000Y-87769000D01*
%TO.N,/SDA*%
X83820000Y-88392000D02*
X82169000Y-90043000D01*
X84558500Y-88392000D02*
X83820000Y-88392000D01*
X95662000Y-83170000D02*
X95662000Y-81438000D01*
X95662000Y-81438000D02*
X94742000Y-80518000D01*
X94742000Y-80518000D02*
X93853000Y-80518000D01*
%TO.N,/SCL*%
X81175201Y-87144201D02*
X84178799Y-87144201D01*
X80264000Y-86233000D02*
X81175201Y-87144201D01*
X84558500Y-86764500D02*
X84558500Y-85852000D01*
X84178799Y-87144201D02*
X84558500Y-86764500D01*
X96162000Y-83170000D02*
X96162000Y-81049000D01*
X96162000Y-81049000D02*
X94361000Y-79248000D01*
X94361000Y-79248000D02*
X93853000Y-79248000D01*
%TO.N,/CONT_DETECT*%
X82169000Y-88138000D02*
X81556201Y-88138000D01*
X80701377Y-87226799D02*
X79524201Y-87226799D01*
X81556201Y-88081623D02*
X80701377Y-87226799D01*
X81556201Y-88138000D02*
X81556201Y-88081623D01*
X79524201Y-87226799D02*
X79121000Y-86823598D01*
X79121000Y-86823598D02*
X79121000Y-85344000D01*
X79121000Y-85344000D02*
X80264000Y-84201000D01*
X80264000Y-84201000D02*
X86106000Y-84201000D01*
X86383500Y-83923500D02*
X86383500Y-83185000D01*
X86106000Y-84201000D02*
X86383500Y-83923500D01*
X86383500Y-83185000D02*
X88900000Y-83185000D01*
X93218000Y-81788000D02*
X93518000Y-81488000D01*
X94662000Y-82170000D02*
X94662000Y-83170000D01*
X93518000Y-81488000D02*
X93980000Y-81488000D01*
X93980000Y-81488000D02*
X94662000Y-82170000D01*
X92964000Y-81915000D02*
X93218000Y-81788000D01*
X101570000Y-80772000D02*
X101570000Y-79532000D01*
X101570000Y-79532000D02*
X101981000Y-79121000D01*
%TO.N,/ID*%
X111379000Y-84201000D02*
X111252000Y-84201000D01*
X115443000Y-87503000D02*
X115443000Y-84582000D01*
X115213910Y-84352910D02*
X115213910Y-83414090D01*
X115213910Y-83414090D02*
X115625210Y-83002790D01*
X115443000Y-84582000D02*
X115213910Y-84352910D01*
X115625210Y-83002790D02*
X115752210Y-83002790D01*
X113136402Y-83181810D02*
X112398190Y-83181810D01*
X115752210Y-83002790D02*
X115824000Y-82931000D01*
X115824000Y-82931000D02*
X115824000Y-82319212D01*
X114657212Y-81661000D02*
X113136402Y-83181810D01*
X115824000Y-82319212D02*
X115165788Y-81661000D01*
X115165788Y-81661000D02*
X114657212Y-81661000D01*
X112398190Y-83181810D02*
X111379000Y-84201000D01*
%TO.N,/X*%
X99162000Y-83170000D02*
X99583000Y-83170000D01*
X99583000Y-83170000D02*
X99949000Y-82804000D01*
X99949000Y-82804000D02*
X100076000Y-82804000D01*
%TO.N,/RESET*%
X89281000Y-71737000D02*
X89898000Y-71120000D01*
X89281000Y-73128500D02*
X89281000Y-71737000D01*
X98662000Y-82085304D02*
X98662000Y-83170000D01*
X99213304Y-81534000D02*
X98662000Y-82085304D01*
X100457000Y-81534000D02*
X99213304Y-81534000D01*
X100838000Y-81915000D02*
X100457000Y-81534000D01*
X105052172Y-73128500D02*
X89281000Y-73128500D01*
X105791000Y-75812368D02*
X105791000Y-73867328D01*
X108282422Y-78303790D02*
X105791000Y-75812368D01*
X112969210Y-78678922D02*
X112594078Y-78303790D01*
X112969210Y-79563078D02*
X112969210Y-78678922D01*
X111981962Y-79834710D02*
X112697578Y-79834710D01*
X111193201Y-80623471D02*
X111981962Y-79834710D01*
X111801320Y-81231590D02*
X111193201Y-80623471D01*
X112674238Y-81231590D02*
X111801320Y-81231590D01*
X109341590Y-80766590D02*
X110998000Y-82423000D01*
X114614790Y-79291038D02*
X112674238Y-81231590D01*
X105791000Y-73867328D02*
X105052172Y-73128500D01*
X110998000Y-82423000D02*
X112338172Y-82423000D01*
X112338172Y-82423000D02*
X115029962Y-79731210D01*
X112594078Y-78303790D02*
X108282422Y-78303790D01*
X116017210Y-78575422D02*
X115745578Y-78303790D01*
X112697578Y-79834710D02*
X112969210Y-79563078D01*
X115029962Y-79731210D02*
X115745578Y-79731210D01*
X114614790Y-78575422D02*
X114614790Y-79291038D01*
X115745578Y-79731210D02*
X116017210Y-79459578D01*
X116017210Y-79459578D02*
X116017210Y-78575422D01*
X115745578Y-78303790D02*
X114886422Y-78303790D01*
X114886422Y-78303790D02*
X114614790Y-78575422D01*
X100838000Y-81915000D02*
X101092000Y-81661000D01*
X101185386Y-81661000D02*
X101312386Y-81788000D01*
X101092000Y-81661000D02*
X101185386Y-81661000D01*
X106431410Y-80766590D02*
X109341590Y-80766590D01*
X105410000Y-81788000D02*
X106431410Y-80766590D01*
X101312386Y-81788000D02*
X105410000Y-81788000D01*
X100838000Y-83439000D02*
X100838000Y-81915000D01*
%TO.N,/MOSI*%
X101885001Y-83915999D02*
X101885001Y-84613001D01*
X102235000Y-83566000D02*
X101885001Y-83915999D01*
X101518002Y-84980000D02*
X100472000Y-84980000D01*
X101885001Y-84613001D02*
X101518002Y-84980000D01*
%TO.N,/SCLK*%
X102679500Y-84391500D02*
X102679500Y-84899500D01*
X102099000Y-85480000D02*
X100472000Y-85480000D01*
X102679500Y-84899500D02*
X102099000Y-85480000D01*
%TO.N,/MISO*%
X101055778Y-84074000D02*
X101600000Y-83529778D01*
X100838000Y-84074000D02*
X101055778Y-84074000D01*
X100711000Y-84201000D02*
X100838000Y-84074000D01*
X101600000Y-83529778D02*
X101600000Y-82804000D01*
X100711000Y-84455000D02*
X100711000Y-84201000D01*
X100686000Y-84480000D02*
X100711000Y-84455000D01*
X100472000Y-84480000D02*
X100686000Y-84480000D01*
%TO.N,/TX_LED*%
X92329000Y-82296000D02*
X93203000Y-83170000D01*
X92329000Y-74676000D02*
X92329000Y-82296000D01*
X93284210Y-73720790D02*
X92329000Y-74676000D01*
X93203000Y-83170000D02*
X94162000Y-83170000D01*
X105216790Y-76633050D02*
X105216790Y-76393210D01*
X104714210Y-73720790D02*
X104714210Y-73731630D01*
X104714210Y-73731630D02*
X105216790Y-74234210D01*
X105216790Y-76393210D02*
X105216790Y-74234210D01*
X104714210Y-73720790D02*
X93284210Y-73720790D01*
X112799500Y-81534000D02*
X115316000Y-79017500D01*
X110536672Y-81534000D02*
X112799500Y-81534000D01*
X108498164Y-80304164D02*
X109306836Y-80304164D01*
X105216790Y-77022790D02*
X108498164Y-80304164D01*
X109306836Y-80304164D02*
X110536672Y-81534000D01*
X105216790Y-76393210D02*
X105216790Y-77022790D01*
%TO.N,/RX_LED*%
X112268000Y-79121000D02*
X110617000Y-80772000D01*
X100472000Y-85980000D02*
X102615000Y-85980000D01*
X103378000Y-85217000D02*
X103378000Y-85090000D01*
X102615000Y-85980000D02*
X103378000Y-85217000D01*
X103378000Y-85090000D02*
X103378000Y-85090000D01*
%TO.N,/DIP_SW1*%
X92710000Y-85995000D02*
X91465618Y-85995000D01*
X91111590Y-85640973D02*
X91111590Y-79322410D01*
X90402180Y-78613000D02*
X85344000Y-78613000D01*
X91111590Y-79322410D02*
X90402180Y-78613000D01*
X91465617Y-85995000D02*
X91111590Y-85640973D01*
X92710000Y-85995000D02*
X91465617Y-85995000D01*
%TO.N,/DIP_SW2*%
X91330617Y-86495000D02*
X90735181Y-85899564D01*
X92710000Y-86495000D02*
X91330617Y-86495000D01*
X90735181Y-85899564D02*
X90735181Y-79940181D01*
X90735181Y-79940181D02*
X90551000Y-79756000D01*
X83947000Y-79756000D02*
X82804000Y-78613000D01*
X90551000Y-79756000D02*
X83947000Y-79756000D01*
%TO.N,/DIP_SW3*%
X91332234Y-86995000D02*
X90382771Y-86045537D01*
X92710000Y-86995000D02*
X91332234Y-86995000D01*
X90382771Y-86045537D02*
X90382771Y-80476771D01*
X90382771Y-80476771D02*
X90170000Y-80264000D01*
X81915000Y-80264000D02*
X80264000Y-78613000D01*
X90170000Y-80264000D02*
X81915000Y-80264000D01*
%TO.N,/DIP_SW4*%
X78994000Y-79883000D02*
X77724000Y-78613000D01*
X80134298Y-79883000D02*
X78994000Y-79883000D01*
X80867708Y-80616410D02*
X80134298Y-79883000D01*
X90030361Y-86191510D02*
X90030361Y-80886361D01*
X89760410Y-80616410D02*
X80867708Y-80616410D01*
X91333851Y-87495000D02*
X90030361Y-86191510D01*
X90030361Y-80886361D02*
X89760410Y-80616410D01*
X92710000Y-87495000D02*
X91333851Y-87495000D01*
%TO.N,/DIP_SW5*%
X76962000Y-80391000D02*
X75184000Y-78613000D01*
X76962000Y-82039298D02*
X76962000Y-80391000D01*
X80146617Y-83820000D02*
X78742702Y-83820000D01*
X82940617Y-81026000D02*
X80146617Y-83820000D01*
X89535000Y-81026000D02*
X82940617Y-81026000D01*
X78742702Y-83820000D02*
X76962000Y-82039298D01*
X89677951Y-86337483D02*
X89677951Y-81168951D01*
X91335468Y-87995000D02*
X89677951Y-86337483D01*
X89677951Y-81168951D02*
X89535000Y-81026000D01*
X92710000Y-87995000D02*
X91335468Y-87995000D01*
%TO.N,/DIP_SW6*%
X92710000Y-88495000D02*
X90908000Y-88495000D01*
X90908000Y-88495000D02*
X89408000Y-86995000D01*
X89408000Y-86995000D02*
X87757000Y-86995000D01*
X87147210Y-86385210D02*
X87147210Y-84734210D01*
X87757000Y-86995000D02*
X87147210Y-86385210D01*
X87147210Y-84734210D02*
X86868000Y-84455000D01*
X86868000Y-84455000D02*
X86868000Y-84455000D01*
%TO.N,Net-(U2-Pad32)*%
X92852000Y-88980000D02*
X91741000Y-88980000D01*
%TO.N,/CONFIG*%
X91464000Y-85092000D02*
X91464000Y-78510000D01*
X91852000Y-85480000D02*
X91464000Y-85092000D01*
X92852000Y-85480000D02*
X91852000Y-85480000D01*
X82663000Y-74549000D02*
X86360000Y-74549000D01*
X91264590Y-78310590D02*
X91464000Y-78510000D01*
X90121590Y-78310590D02*
X91264590Y-78310590D01*
X86360000Y-74549000D02*
X90121590Y-78310590D01*
D34*
%TO.N,Net-(D6-Pad1)*%
X78128500Y-74549000D02*
X80913000Y-74549000D01*
D33*
%TO.N,/rD-*%
X102846500Y-89154000D02*
X102846500Y-88622500D01*
X102719000Y-88495000D02*
X100330000Y-88495000D01*
X102846500Y-88622500D02*
X102719000Y-88495000D01*
%TO.N,/rD+*%
X102846500Y-87376000D02*
X102846500Y-87907500D01*
X102759000Y-87995000D02*
X100330000Y-87995000D01*
X102846500Y-87907500D02*
X102759000Y-87995000D01*
%TO.N,/XTAL+*%
X95336000Y-78154000D02*
X95336000Y-78572000D01*
X95260500Y-78078500D02*
X95336000Y-78154000D01*
X93218000Y-78078500D02*
X95260500Y-78078500D01*
X96662000Y-80406000D02*
X96662000Y-83170000D01*
X95336000Y-79080000D02*
X96662000Y-80406000D01*
X95336000Y-78154000D02*
X95336000Y-79080000D01*
%TO.N,/XTAL-*%
X97382500Y-76300500D02*
X97536000Y-76454000D01*
X98044000Y-74422000D02*
X98044000Y-76300500D01*
X96520000Y-78994000D02*
X97162000Y-79636000D01*
X96520000Y-76617600D02*
X96520000Y-78994000D01*
X97162000Y-79636000D02*
X97162000Y-83170000D01*
X96683600Y-76454000D02*
X96520000Y-76617600D01*
X97536000Y-76454000D02*
X96683600Y-76454000D01*
%TO.N,/CC1*%
X114534000Y-89769000D02*
X112201000Y-89769000D01*
X114911500Y-90146500D02*
X114534000Y-89769000D01*
X114911500Y-95250000D02*
X114911500Y-90146500D01*
%TO.N,/CC2*%
X114911500Y-84478172D02*
X114911500Y-82550000D01*
X115140590Y-84707262D02*
X114911500Y-84478172D01*
X115140590Y-86952632D02*
X115140590Y-84707262D01*
X114866799Y-87226423D02*
X115140590Y-86952632D01*
X112201000Y-86769000D02*
X113566000Y-86769000D01*
X113566000Y-86769000D02*
X114012799Y-87215799D01*
X114438953Y-87215799D02*
X114449577Y-87226423D01*
X114012799Y-87215799D02*
X114438953Y-87215799D01*
X114449577Y-87226423D02*
X114866799Y-87226423D01*
D34*
%TO.N,Net-(JP1-Pad2)*%
X90932000Y-90551000D02*
X90932000Y-90043000D01*
X91495000Y-89480000D02*
X92852000Y-89480000D01*
X90932000Y-90043000D02*
X91495000Y-89480000D01*
D33*
X103632000Y-79248000D02*
X103124000Y-79248000D01*
X102870000Y-79502000D02*
X102870000Y-80772000D01*
X103124000Y-79248000D02*
X102870000Y-79502000D01*
%TD*%
D34*
%TO.N,GND*%
X71757956Y-91214666D02*
X71781024Y-91242774D01*
X71809130Y-91265840D01*
X71809131Y-91265841D01*
X71868359Y-91314448D01*
X71893186Y-91334823D01*
X72021150Y-91403221D01*
X72089306Y-91423896D01*
X72160000Y-91445341D01*
X72304399Y-91459563D01*
X72340585Y-91455999D01*
X78003180Y-91455999D01*
X78915436Y-92368255D01*
X78910770Y-92368806D01*
X78506256Y-92500092D01*
X78204764Y-92661242D01*
X78045865Y-92979260D01*
X79375000Y-94308395D01*
X79389143Y-94294253D01*
X79568748Y-94473858D01*
X79554605Y-94488000D01*
X79568748Y-94502143D01*
X79389143Y-94681748D01*
X79375000Y-94667605D01*
X79360858Y-94681748D01*
X79181253Y-94502143D01*
X79195395Y-94488000D01*
X77866260Y-93158865D01*
X77548242Y-93317764D01*
X77355041Y-93696632D01*
X77239466Y-94105913D01*
X77205958Y-94529876D01*
X77255806Y-94952230D01*
X77387092Y-95356744D01*
X77548242Y-95658236D01*
X77866258Y-95817134D01*
X77823392Y-95860000D01*
X75592608Y-95860000D01*
X75549742Y-95817134D01*
X75867758Y-95658236D01*
X76060959Y-95279368D01*
X76176534Y-94870087D01*
X76210042Y-94446124D01*
X76160194Y-94023770D01*
X76028908Y-93619256D01*
X75867758Y-93317764D01*
X75549740Y-93158865D01*
X74220605Y-94488000D01*
X74234748Y-94502143D01*
X74055143Y-94681748D01*
X74041000Y-94667605D01*
X74026858Y-94681748D01*
X73847253Y-94502143D01*
X73861395Y-94488000D01*
X72532260Y-93158865D01*
X72214242Y-93317764D01*
X72021041Y-93696632D01*
X71905466Y-94105913D01*
X71871958Y-94529876D01*
X71921806Y-94952230D01*
X72053092Y-95356744D01*
X72214242Y-95658236D01*
X72532258Y-95817134D01*
X72489392Y-95860000D01*
X70256000Y-95860000D01*
X70256000Y-92979260D01*
X72711865Y-92979260D01*
X74041000Y-94308395D01*
X75370135Y-92979260D01*
X75211236Y-92661242D01*
X74832368Y-92468041D01*
X74423087Y-92352466D01*
X73999124Y-92318958D01*
X73576770Y-92368806D01*
X73172256Y-92500092D01*
X72870764Y-92661242D01*
X72711865Y-92979260D01*
X70256000Y-92979260D01*
X70256000Y-89712709D01*
X71757956Y-91214666D01*
%TA.AperFunction,Conductor*%
D37*
G36*
X71757956Y-91214666D02*
G01*
X71781024Y-91242774D01*
X71809130Y-91265840D01*
X71809131Y-91265841D01*
X71868359Y-91314448D01*
X71893186Y-91334823D01*
X72021150Y-91403221D01*
X72089306Y-91423896D01*
X72160000Y-91445341D01*
X72304399Y-91459563D01*
X72340585Y-91455999D01*
X78003180Y-91455999D01*
X78915436Y-92368255D01*
X78910770Y-92368806D01*
X78506256Y-92500092D01*
X78204764Y-92661242D01*
X78045865Y-92979260D01*
X79375000Y-94308395D01*
X79389143Y-94294253D01*
X79568748Y-94473858D01*
X79554605Y-94488000D01*
X79568748Y-94502143D01*
X79389143Y-94681748D01*
X79375000Y-94667605D01*
X79360858Y-94681748D01*
X79181253Y-94502143D01*
X79195395Y-94488000D01*
X77866260Y-93158865D01*
X77548242Y-93317764D01*
X77355041Y-93696632D01*
X77239466Y-94105913D01*
X77205958Y-94529876D01*
X77255806Y-94952230D01*
X77387092Y-95356744D01*
X77548242Y-95658236D01*
X77866258Y-95817134D01*
X77823392Y-95860000D01*
X75592608Y-95860000D01*
X75549742Y-95817134D01*
X75867758Y-95658236D01*
X76060959Y-95279368D01*
X76176534Y-94870087D01*
X76210042Y-94446124D01*
X76160194Y-94023770D01*
X76028908Y-93619256D01*
X75867758Y-93317764D01*
X75549740Y-93158865D01*
X74220605Y-94488000D01*
X74234748Y-94502143D01*
X74055143Y-94681748D01*
X74041000Y-94667605D01*
X74026858Y-94681748D01*
X73847253Y-94502143D01*
X73861395Y-94488000D01*
X72532260Y-93158865D01*
X72214242Y-93317764D01*
X72021041Y-93696632D01*
X71905466Y-94105913D01*
X71871958Y-94529876D01*
X71921806Y-94952230D01*
X72053092Y-95356744D01*
X72214242Y-95658236D01*
X72532258Y-95817134D01*
X72489392Y-95860000D01*
X70256000Y-95860000D01*
X70256000Y-92979260D01*
X72711865Y-92979260D01*
X74041000Y-94308395D01*
X75370135Y-92979260D01*
X75211236Y-92661242D01*
X74832368Y-92468041D01*
X74423087Y-92352466D01*
X73999124Y-92318958D01*
X73576770Y-92368806D01*
X73172256Y-92500092D01*
X72870764Y-92661242D01*
X72711865Y-92979260D01*
X70256000Y-92979260D01*
X70256000Y-89712709D01*
X71757956Y-91214666D01*
G37*
%TD.AperFunction*%
D34*
X83516306Y-93829016D02*
X83490463Y-93860506D01*
X83431498Y-93970820D01*
X83395188Y-94090518D01*
X83382928Y-94215000D01*
X83382928Y-95015000D01*
X83395188Y-95139482D01*
X83431498Y-95259180D01*
X83490463Y-95369494D01*
X83569815Y-95466185D01*
X83666506Y-95545537D01*
X83776820Y-95604502D01*
X83896518Y-95640812D01*
X84021000Y-95653072D01*
X84921000Y-95653072D01*
X85045482Y-95640812D01*
X85165180Y-95604502D01*
X85275494Y-95545537D01*
X85372185Y-95466185D01*
X85451537Y-95369494D01*
X85460143Y-95353393D01*
X85544750Y-95438000D01*
X86344000Y-95438000D01*
X86344000Y-95418000D01*
X86598000Y-95418000D01*
X86598000Y-95438000D01*
X87397250Y-95438000D01*
X87483650Y-95351600D01*
X89498817Y-95351600D01*
X89535000Y-95355164D01*
X89571183Y-95351600D01*
X89571186Y-95351600D01*
X89679399Y-95340942D01*
X89818249Y-95298822D01*
X89946213Y-95230424D01*
X90058375Y-95138375D01*
X90072240Y-95121481D01*
X90171430Y-95360948D01*
X90343773Y-95618877D01*
X90563123Y-95838227D01*
X90595709Y-95860000D01*
X87556249Y-95860000D01*
X87556000Y-95850750D01*
X87397250Y-95692000D01*
X86598000Y-95692000D01*
X86598000Y-95712000D01*
X86344000Y-95712000D01*
X86344000Y-95692000D01*
X85544750Y-95692000D01*
X85386000Y-95850750D01*
X85385751Y-95860000D01*
X80926608Y-95860000D01*
X80883742Y-95817134D01*
X81201758Y-95658236D01*
X81394959Y-95279368D01*
X81510534Y-94870087D01*
X81544042Y-94446124D01*
X81494194Y-94023770D01*
X81362908Y-93619256D01*
X81201758Y-93317764D01*
X80883742Y-93158866D01*
X80977008Y-93065600D01*
X82752891Y-93065600D01*
X83516306Y-93829016D01*
%TA.AperFunction,Conductor*%
D37*
G36*
X83516306Y-93829016D02*
G01*
X83490463Y-93860506D01*
X83431498Y-93970820D01*
X83395188Y-94090518D01*
X83382928Y-94215000D01*
X83382928Y-95015000D01*
X83395188Y-95139482D01*
X83431498Y-95259180D01*
X83490463Y-95369494D01*
X83569815Y-95466185D01*
X83666506Y-95545537D01*
X83776820Y-95604502D01*
X83896518Y-95640812D01*
X84021000Y-95653072D01*
X84921000Y-95653072D01*
X85045482Y-95640812D01*
X85165180Y-95604502D01*
X85275494Y-95545537D01*
X85372185Y-95466185D01*
X85451537Y-95369494D01*
X85460143Y-95353393D01*
X85544750Y-95438000D01*
X86344000Y-95438000D01*
X86344000Y-95418000D01*
X86598000Y-95418000D01*
X86598000Y-95438000D01*
X87397250Y-95438000D01*
X87483650Y-95351600D01*
X89498817Y-95351600D01*
X89535000Y-95355164D01*
X89571183Y-95351600D01*
X89571186Y-95351600D01*
X89679399Y-95340942D01*
X89818249Y-95298822D01*
X89946213Y-95230424D01*
X90058375Y-95138375D01*
X90072240Y-95121481D01*
X90171430Y-95360948D01*
X90343773Y-95618877D01*
X90563123Y-95838227D01*
X90595709Y-95860000D01*
X87556249Y-95860000D01*
X87556000Y-95850750D01*
X87397250Y-95692000D01*
X86598000Y-95692000D01*
X86598000Y-95712000D01*
X86344000Y-95712000D01*
X86344000Y-95692000D01*
X85544750Y-95692000D01*
X85386000Y-95850750D01*
X85385751Y-95860000D01*
X80926608Y-95860000D01*
X80883742Y-95817134D01*
X81201758Y-95658236D01*
X81394959Y-95279368D01*
X81510534Y-94870087D01*
X81544042Y-94446124D01*
X81494194Y-94023770D01*
X81362908Y-93619256D01*
X81201758Y-93317764D01*
X80883742Y-93158866D01*
X80977008Y-93065600D01*
X82752891Y-93065600D01*
X83516306Y-93829016D01*
G37*
%TD.AperFunction*%
D34*
X119024400Y-88316110D02*
X119024401Y-92181149D01*
X118902449Y-92032551D01*
X118729623Y-91890716D01*
X118532447Y-91785324D01*
X118318499Y-91720423D01*
X118151752Y-91704000D01*
X117440248Y-91704000D01*
X117273501Y-91720423D01*
X117059553Y-91785324D01*
X116862377Y-91890716D01*
X116689551Y-92032551D01*
X116547716Y-92205377D01*
X116442324Y-92402553D01*
X116377423Y-92616501D01*
X116355509Y-92839000D01*
X116377423Y-93061499D01*
X116442324Y-93275447D01*
X116547716Y-93472623D01*
X116689551Y-93645449D01*
X116862377Y-93787284D01*
X117059553Y-93892676D01*
X117273501Y-93957577D01*
X117440248Y-93974000D01*
X118151752Y-93974000D01*
X118318499Y-93957577D01*
X118532447Y-93892676D01*
X118729623Y-93787284D01*
X118902449Y-93645449D01*
X119024401Y-93496851D01*
X119024401Y-95071889D01*
X118693891Y-95402400D01*
X117725650Y-95402400D01*
X117700250Y-95377000D01*
X116863500Y-95377000D01*
X116863500Y-95397000D01*
X116609500Y-95397000D01*
X116609500Y-95377000D01*
X116589500Y-95377000D01*
X116589500Y-95123000D01*
X116609500Y-95123000D01*
X116609500Y-94298750D01*
X116863500Y-94298750D01*
X116863500Y-95123000D01*
X117700250Y-95123000D01*
X117859000Y-94964250D01*
X117862072Y-94775000D01*
X117849812Y-94650518D01*
X117813502Y-94530820D01*
X117754537Y-94420506D01*
X117675185Y-94323815D01*
X117578494Y-94244463D01*
X117468180Y-94185498D01*
X117348482Y-94149188D01*
X117224000Y-94136928D01*
X117022250Y-94140000D01*
X116863500Y-94298750D01*
X116609500Y-94298750D01*
X116450750Y-94140000D01*
X116249000Y-94136928D01*
X116124518Y-94149188D01*
X116004820Y-94185498D01*
X115894506Y-94244463D01*
X115797815Y-94323815D01*
X115756783Y-94373812D01*
X115647942Y-94284488D01*
X115622700Y-94270996D01*
X115622700Y-90181428D01*
X115626140Y-90146500D01*
X115622700Y-90111571D01*
X115622700Y-90111564D01*
X115612409Y-90007080D01*
X115585690Y-89919000D01*
X115571742Y-89873018D01*
X115537246Y-89808482D01*
X115505702Y-89749467D01*
X115444112Y-89674420D01*
X115439098Y-89668310D01*
X115439097Y-89668309D01*
X115416827Y-89641173D01*
X115389690Y-89618902D01*
X115061601Y-89290814D01*
X115039327Y-89263673D01*
X114931033Y-89174798D01*
X114921990Y-89169964D01*
X114974947Y-89042114D01*
X115012800Y-88851814D01*
X115012800Y-88657786D01*
X114974947Y-88467486D01*
X114921924Y-88339478D01*
X114976428Y-88375896D01*
X115155686Y-88450147D01*
X115345986Y-88488000D01*
X115540014Y-88488000D01*
X115730314Y-88450147D01*
X115909572Y-88375896D01*
X116070901Y-88268099D01*
X116208099Y-88130901D01*
X116315896Y-87969572D01*
X116390147Y-87790314D01*
X116428000Y-87600014D01*
X116428000Y-87405986D01*
X116390147Y-87215686D01*
X116315896Y-87036428D01*
X116208099Y-86875099D01*
X116154200Y-86821200D01*
X116154200Y-85445909D01*
X119024400Y-88316110D01*
%TA.AperFunction,Conductor*%
D37*
G36*
X119024400Y-88316110D02*
G01*
X119024401Y-92181149D01*
X118902449Y-92032551D01*
X118729623Y-91890716D01*
X118532447Y-91785324D01*
X118318499Y-91720423D01*
X118151752Y-91704000D01*
X117440248Y-91704000D01*
X117273501Y-91720423D01*
X117059553Y-91785324D01*
X116862377Y-91890716D01*
X116689551Y-92032551D01*
X116547716Y-92205377D01*
X116442324Y-92402553D01*
X116377423Y-92616501D01*
X116355509Y-92839000D01*
X116377423Y-93061499D01*
X116442324Y-93275447D01*
X116547716Y-93472623D01*
X116689551Y-93645449D01*
X116862377Y-93787284D01*
X117059553Y-93892676D01*
X117273501Y-93957577D01*
X117440248Y-93974000D01*
X118151752Y-93974000D01*
X118318499Y-93957577D01*
X118532447Y-93892676D01*
X118729623Y-93787284D01*
X118902449Y-93645449D01*
X119024401Y-93496851D01*
X119024401Y-95071889D01*
X118693891Y-95402400D01*
X117725650Y-95402400D01*
X117700250Y-95377000D01*
X116863500Y-95377000D01*
X116863500Y-95397000D01*
X116609500Y-95397000D01*
X116609500Y-95377000D01*
X116589500Y-95377000D01*
X116589500Y-95123000D01*
X116609500Y-95123000D01*
X116609500Y-94298750D01*
X116863500Y-94298750D01*
X116863500Y-95123000D01*
X117700250Y-95123000D01*
X117859000Y-94964250D01*
X117862072Y-94775000D01*
X117849812Y-94650518D01*
X117813502Y-94530820D01*
X117754537Y-94420506D01*
X117675185Y-94323815D01*
X117578494Y-94244463D01*
X117468180Y-94185498D01*
X117348482Y-94149188D01*
X117224000Y-94136928D01*
X117022250Y-94140000D01*
X116863500Y-94298750D01*
X116609500Y-94298750D01*
X116450750Y-94140000D01*
X116249000Y-94136928D01*
X116124518Y-94149188D01*
X116004820Y-94185498D01*
X115894506Y-94244463D01*
X115797815Y-94323815D01*
X115756783Y-94373812D01*
X115647942Y-94284488D01*
X115622700Y-94270996D01*
X115622700Y-90181428D01*
X115626140Y-90146500D01*
X115622700Y-90111571D01*
X115622700Y-90111564D01*
X115612409Y-90007080D01*
X115585690Y-89919000D01*
X115571742Y-89873018D01*
X115537246Y-89808482D01*
X115505702Y-89749467D01*
X115444112Y-89674420D01*
X115439098Y-89668310D01*
X115439097Y-89668309D01*
X115416827Y-89641173D01*
X115389690Y-89618902D01*
X115061601Y-89290814D01*
X115039327Y-89263673D01*
X114931033Y-89174798D01*
X114921990Y-89169964D01*
X114974947Y-89042114D01*
X115012800Y-88851814D01*
X115012800Y-88657786D01*
X114974947Y-88467486D01*
X114921924Y-88339478D01*
X114976428Y-88375896D01*
X115155686Y-88450147D01*
X115345986Y-88488000D01*
X115540014Y-88488000D01*
X115730314Y-88450147D01*
X115909572Y-88375896D01*
X116070901Y-88268099D01*
X116208099Y-88130901D01*
X116315896Y-87969572D01*
X116390147Y-87790314D01*
X116428000Y-87600014D01*
X116428000Y-87405986D01*
X116390147Y-87215686D01*
X116315896Y-87036428D01*
X116208099Y-86875099D01*
X116154200Y-86821200D01*
X116154200Y-85445909D01*
X119024400Y-88316110D01*
G37*
%TD.AperFunction*%
D34*
X101920748Y-94600858D02*
X101906605Y-94615000D01*
X101920748Y-94629143D01*
X101741143Y-94808748D01*
X101727000Y-94794605D01*
X101712858Y-94808748D01*
X101533253Y-94629143D01*
X101547395Y-94615000D01*
X101533253Y-94600858D01*
X101712858Y-94421253D01*
X101727000Y-94435395D01*
X101741143Y-94421253D01*
X101920748Y-94600858D01*
%TA.AperFunction,Conductor*%
D37*
G36*
X101920748Y-94600858D02*
G01*
X101906605Y-94615000D01*
X101920748Y-94629143D01*
X101741143Y-94808748D01*
X101727000Y-94794605D01*
X101712858Y-94808748D01*
X101533253Y-94629143D01*
X101547395Y-94615000D01*
X101533253Y-94600858D01*
X101712858Y-94421253D01*
X101727000Y-94435395D01*
X101741143Y-94421253D01*
X101920748Y-94600858D01*
G37*
%TD.AperFunction*%
D34*
X105817400Y-91492110D02*
X105817401Y-93829172D01*
X105749506Y-93865463D01*
X105652815Y-93944815D01*
X105573463Y-94041506D01*
X105514498Y-94151820D01*
X105513741Y-94154315D01*
X105490227Y-94119123D01*
X105270877Y-93899773D01*
X105012948Y-93727430D01*
X104726352Y-93608718D01*
X104422104Y-93548200D01*
X104111896Y-93548200D01*
X103807648Y-93608718D01*
X103521052Y-93727430D01*
X103263123Y-93899773D01*
X103175825Y-93987071D01*
X103162865Y-93949914D01*
X103077723Y-93790623D01*
X102819478Y-93702130D01*
X102824025Y-93697583D01*
X102903412Y-93632432D01*
X102927274Y-93603356D01*
X103281847Y-93248783D01*
X103310922Y-93224922D01*
X103406145Y-93108892D01*
X103476902Y-92976515D01*
X103520474Y-92832878D01*
X103531500Y-92720926D01*
X103531500Y-92720924D01*
X103535186Y-92683501D01*
X103531500Y-92646078D01*
X103531500Y-92418576D01*
X103554606Y-92406226D01*
X103602506Y-92445537D01*
X103712820Y-92504502D01*
X103832518Y-92540812D01*
X103957000Y-92553072D01*
X104208750Y-92550000D01*
X104367500Y-92391250D01*
X104367500Y-91567000D01*
X104621500Y-91567000D01*
X104621500Y-92391250D01*
X104780250Y-92550000D01*
X105032000Y-92553072D01*
X105156482Y-92540812D01*
X105276180Y-92504502D01*
X105386494Y-92445537D01*
X105483185Y-92366185D01*
X105562537Y-92269494D01*
X105621502Y-92159180D01*
X105657812Y-92039482D01*
X105670072Y-91915000D01*
X105667000Y-91725750D01*
X105508250Y-91567000D01*
X104621500Y-91567000D01*
X104367500Y-91567000D01*
X104347500Y-91567000D01*
X104347500Y-91313000D01*
X104367500Y-91313000D01*
X104367500Y-91293000D01*
X104621500Y-91293000D01*
X104621500Y-91313000D01*
X105508250Y-91313000D01*
X105573270Y-91247980D01*
X105817400Y-91492110D01*
%TA.AperFunction,Conductor*%
D37*
G36*
X105817400Y-91492110D02*
G01*
X105817401Y-93829172D01*
X105749506Y-93865463D01*
X105652815Y-93944815D01*
X105573463Y-94041506D01*
X105514498Y-94151820D01*
X105513741Y-94154315D01*
X105490227Y-94119123D01*
X105270877Y-93899773D01*
X105012948Y-93727430D01*
X104726352Y-93608718D01*
X104422104Y-93548200D01*
X104111896Y-93548200D01*
X103807648Y-93608718D01*
X103521052Y-93727430D01*
X103263123Y-93899773D01*
X103175825Y-93987071D01*
X103162865Y-93949914D01*
X103077723Y-93790623D01*
X102819478Y-93702130D01*
X102824025Y-93697583D01*
X102903412Y-93632432D01*
X102927274Y-93603356D01*
X103281847Y-93248783D01*
X103310922Y-93224922D01*
X103406145Y-93108892D01*
X103476902Y-92976515D01*
X103520474Y-92832878D01*
X103531500Y-92720926D01*
X103531500Y-92720924D01*
X103535186Y-92683501D01*
X103531500Y-92646078D01*
X103531500Y-92418576D01*
X103554606Y-92406226D01*
X103602506Y-92445537D01*
X103712820Y-92504502D01*
X103832518Y-92540812D01*
X103957000Y-92553072D01*
X104208750Y-92550000D01*
X104367500Y-92391250D01*
X104367500Y-91567000D01*
X104621500Y-91567000D01*
X104621500Y-92391250D01*
X104780250Y-92550000D01*
X105032000Y-92553072D01*
X105156482Y-92540812D01*
X105276180Y-92504502D01*
X105386494Y-92445537D01*
X105483185Y-92366185D01*
X105562537Y-92269494D01*
X105621502Y-92159180D01*
X105657812Y-92039482D01*
X105670072Y-91915000D01*
X105667000Y-91725750D01*
X105508250Y-91567000D01*
X104621500Y-91567000D01*
X104367500Y-91567000D01*
X104347500Y-91567000D01*
X104347500Y-91313000D01*
X104367500Y-91313000D01*
X104367500Y-91293000D01*
X104621500Y-91293000D01*
X104621500Y-91313000D01*
X105508250Y-91313000D01*
X105573270Y-91247980D01*
X105817400Y-91492110D01*
G37*
%TD.AperFunction*%
D34*
X93398928Y-91727500D02*
X93412389Y-91864175D01*
X93452256Y-91995597D01*
X93516996Y-92116717D01*
X93604121Y-92222879D01*
X93710283Y-92310004D01*
X93831403Y-92374744D01*
X93962825Y-92414611D01*
X94099500Y-92428072D01*
X94224500Y-92428072D01*
X94361175Y-92414611D01*
X94384051Y-92407671D01*
X94404514Y-92414166D01*
X94503250Y-92425000D01*
X94638973Y-92289277D01*
X94662000Y-92270379D01*
X94685027Y-92289277D01*
X94820750Y-92425000D01*
X94919486Y-92414166D01*
X94939949Y-92407671D01*
X94962825Y-92414611D01*
X95099500Y-92428072D01*
X95224500Y-92428072D01*
X95361175Y-92414611D01*
X95412000Y-92399193D01*
X95462825Y-92414611D01*
X95599500Y-92428072D01*
X95724500Y-92428072D01*
X95861175Y-92414611D01*
X95912000Y-92399193D01*
X95962825Y-92414611D01*
X96099500Y-92428072D01*
X96224500Y-92428072D01*
X96361175Y-92414611D01*
X96412000Y-92399193D01*
X96462825Y-92414611D01*
X96599500Y-92428072D01*
X96724500Y-92428072D01*
X96861175Y-92414611D01*
X96912000Y-92399193D01*
X96962825Y-92414611D01*
X97099500Y-92428072D01*
X97224500Y-92428072D01*
X97361175Y-92414611D01*
X97400001Y-92402833D01*
X97400001Y-92567396D01*
X97396314Y-92604829D01*
X97411027Y-92754207D01*
X97454599Y-92897844D01*
X97525355Y-93030221D01*
X97589919Y-93108892D01*
X97620579Y-93146251D01*
X97649649Y-93170108D01*
X98082897Y-93603356D01*
X98106759Y-93632432D01*
X98158619Y-93674992D01*
X98222788Y-93727655D01*
X98260350Y-93747732D01*
X98343862Y-93792370D01*
X98183123Y-93899773D01*
X98092735Y-93990161D01*
X98042570Y-93869052D01*
X97870227Y-93611123D01*
X97650877Y-93391773D01*
X97392948Y-93219430D01*
X97106352Y-93100718D01*
X96802104Y-93040200D01*
X96491896Y-93040200D01*
X96187648Y-93100718D01*
X95901052Y-93219430D01*
X95643123Y-93391773D01*
X95423773Y-93611123D01*
X95251430Y-93869052D01*
X95201265Y-93990161D01*
X95110877Y-93899773D01*
X94852948Y-93727430D01*
X94566352Y-93608718D01*
X94262104Y-93548200D01*
X93951896Y-93548200D01*
X93647648Y-93608718D01*
X93361052Y-93727430D01*
X93103123Y-93899773D01*
X93012735Y-93990161D01*
X92962570Y-93869052D01*
X92790227Y-93611123D01*
X92570877Y-93391773D01*
X92312948Y-93219430D01*
X92072059Y-93119650D01*
X92570268Y-92621441D01*
X92598374Y-92598375D01*
X92690424Y-92486213D01*
X92758822Y-92358249D01*
X92800942Y-92219399D01*
X92811600Y-92111186D01*
X92811600Y-92111177D01*
X92815163Y-92075001D01*
X92811600Y-92038825D01*
X92811600Y-91872109D01*
X93142110Y-91541600D01*
X93398928Y-91541600D01*
X93398928Y-91727500D01*
%TA.AperFunction,Conductor*%
D37*
G36*
X93398928Y-91727500D02*
G01*
X93412389Y-91864175D01*
X93452256Y-91995597D01*
X93516996Y-92116717D01*
X93604121Y-92222879D01*
X93710283Y-92310004D01*
X93831403Y-92374744D01*
X93962825Y-92414611D01*
X94099500Y-92428072D01*
X94224500Y-92428072D01*
X94361175Y-92414611D01*
X94384051Y-92407671D01*
X94404514Y-92414166D01*
X94503250Y-92425000D01*
X94638973Y-92289277D01*
X94662000Y-92270379D01*
X94685027Y-92289277D01*
X94820750Y-92425000D01*
X94919486Y-92414166D01*
X94939949Y-92407671D01*
X94962825Y-92414611D01*
X95099500Y-92428072D01*
X95224500Y-92428072D01*
X95361175Y-92414611D01*
X95412000Y-92399193D01*
X95462825Y-92414611D01*
X95599500Y-92428072D01*
X95724500Y-92428072D01*
X95861175Y-92414611D01*
X95912000Y-92399193D01*
X95962825Y-92414611D01*
X96099500Y-92428072D01*
X96224500Y-92428072D01*
X96361175Y-92414611D01*
X96412000Y-92399193D01*
X96462825Y-92414611D01*
X96599500Y-92428072D01*
X96724500Y-92428072D01*
X96861175Y-92414611D01*
X96912000Y-92399193D01*
X96962825Y-92414611D01*
X97099500Y-92428072D01*
X97224500Y-92428072D01*
X97361175Y-92414611D01*
X97400001Y-92402833D01*
X97400001Y-92567396D01*
X97396314Y-92604829D01*
X97411027Y-92754207D01*
X97454599Y-92897844D01*
X97525355Y-93030221D01*
X97589919Y-93108892D01*
X97620579Y-93146251D01*
X97649649Y-93170108D01*
X98082897Y-93603356D01*
X98106759Y-93632432D01*
X98158619Y-93674992D01*
X98222788Y-93727655D01*
X98260350Y-93747732D01*
X98343862Y-93792370D01*
X98183123Y-93899773D01*
X98092735Y-93990161D01*
X98042570Y-93869052D01*
X97870227Y-93611123D01*
X97650877Y-93391773D01*
X97392948Y-93219430D01*
X97106352Y-93100718D01*
X96802104Y-93040200D01*
X96491896Y-93040200D01*
X96187648Y-93100718D01*
X95901052Y-93219430D01*
X95643123Y-93391773D01*
X95423773Y-93611123D01*
X95251430Y-93869052D01*
X95201265Y-93990161D01*
X95110877Y-93899773D01*
X94852948Y-93727430D01*
X94566352Y-93608718D01*
X94262104Y-93548200D01*
X93951896Y-93548200D01*
X93647648Y-93608718D01*
X93361052Y-93727430D01*
X93103123Y-93899773D01*
X93012735Y-93990161D01*
X92962570Y-93869052D01*
X92790227Y-93611123D01*
X92570877Y-93391773D01*
X92312948Y-93219430D01*
X92072059Y-93119650D01*
X92570268Y-92621441D01*
X92598374Y-92598375D01*
X92690424Y-92486213D01*
X92758822Y-92358249D01*
X92800942Y-92219399D01*
X92811600Y-92111186D01*
X92811600Y-92111177D01*
X92815163Y-92075001D01*
X92811600Y-92038825D01*
X92811600Y-91872109D01*
X93142110Y-91541600D01*
X93398928Y-91541600D01*
X93398928Y-91727500D01*
G37*
%TD.AperFunction*%
D34*
X88646000Y-93218000D02*
X88666000Y-93218000D01*
X88666000Y-93472000D01*
X88646000Y-93472000D01*
X88646000Y-93492000D01*
X88392000Y-93492000D01*
X88392000Y-93472000D01*
X88372000Y-93472000D01*
X88372000Y-93218000D01*
X88392000Y-93218000D01*
X88392000Y-93198000D01*
X88646000Y-93198000D01*
X88646000Y-93218000D01*
%TA.AperFunction,Conductor*%
D37*
G36*
X88646000Y-93218000D02*
G01*
X88666000Y-93218000D01*
X88666000Y-93472000D01*
X88646000Y-93472000D01*
X88646000Y-93492000D01*
X88392000Y-93492000D01*
X88392000Y-93472000D01*
X88372000Y-93472000D01*
X88372000Y-93218000D01*
X88392000Y-93218000D01*
X88392000Y-93198000D01*
X88646000Y-93198000D01*
X88646000Y-93218000D01*
G37*
%TD.AperFunction*%
D34*
X110519815Y-92495185D02*
X110616506Y-92574537D01*
X110726820Y-92633502D01*
X110846518Y-92669812D01*
X110971000Y-92682072D01*
X110975839Y-92682056D01*
X110976000Y-92682072D01*
X111915250Y-92679000D01*
X111944110Y-92650140D01*
X111925509Y-92839000D01*
X111940322Y-92989400D01*
X109985160Y-92989400D01*
X109997375Y-92979375D01*
X110020445Y-92951264D01*
X110500302Y-92471408D01*
X110519815Y-92495185D01*
%TA.AperFunction,Conductor*%
D37*
G36*
X110519815Y-92495185D02*
G01*
X110616506Y-92574537D01*
X110726820Y-92633502D01*
X110846518Y-92669812D01*
X110971000Y-92682072D01*
X110975839Y-92682056D01*
X110976000Y-92682072D01*
X111915250Y-92679000D01*
X111944110Y-92650140D01*
X111925509Y-92839000D01*
X111940322Y-92989400D01*
X109985160Y-92989400D01*
X109997375Y-92979375D01*
X110020445Y-92951264D01*
X110500302Y-92471408D01*
X110519815Y-92495185D01*
G37*
%TD.AperFunction*%
D34*
X101593928Y-91202500D02*
X101593928Y-91677500D01*
X101610752Y-91848316D01*
X101660577Y-92012567D01*
X101741488Y-92163942D01*
X101850377Y-92296623D01*
X101889840Y-92329010D01*
X99578159Y-92329010D01*
X99613717Y-92310004D01*
X99719879Y-92222879D01*
X99807004Y-92116717D01*
X99871744Y-91995597D01*
X99911611Y-91864175D01*
X99925072Y-91727500D01*
X99925072Y-91526600D01*
X100181817Y-91526600D01*
X100218000Y-91530164D01*
X100254183Y-91526600D01*
X100254186Y-91526600D01*
X100362399Y-91515942D01*
X100501249Y-91473822D01*
X100629213Y-91405424D01*
X100741375Y-91313375D01*
X100764446Y-91285263D01*
X100889109Y-91160600D01*
X101598055Y-91160600D01*
X101593928Y-91202500D01*
%TA.AperFunction,Conductor*%
D37*
G36*
X101593928Y-91202500D02*
G01*
X101593928Y-91677500D01*
X101610752Y-91848316D01*
X101660577Y-92012567D01*
X101741488Y-92163942D01*
X101850377Y-92296623D01*
X101889840Y-92329010D01*
X99578159Y-92329010D01*
X99613717Y-92310004D01*
X99719879Y-92222879D01*
X99807004Y-92116717D01*
X99871744Y-91995597D01*
X99911611Y-91864175D01*
X99925072Y-91727500D01*
X99925072Y-91526600D01*
X100181817Y-91526600D01*
X100218000Y-91530164D01*
X100254183Y-91526600D01*
X100254186Y-91526600D01*
X100362399Y-91515942D01*
X100501249Y-91473822D01*
X100629213Y-91405424D01*
X100741375Y-91313375D01*
X100764446Y-91285263D01*
X100889109Y-91160600D01*
X101598055Y-91160600D01*
X101593928Y-91202500D01*
G37*
%TD.AperFunction*%
D34*
X75461506Y-73543463D02*
X75364815Y-73622815D01*
X75285463Y-73719506D01*
X75226498Y-73829820D01*
X75190188Y-73949518D01*
X75177928Y-74074000D01*
X75181000Y-74263250D01*
X75339750Y-74422000D01*
X76176500Y-74422000D01*
X76176500Y-74402000D01*
X76430500Y-74402000D01*
X76430500Y-74422000D01*
X76450500Y-74422000D01*
X76450500Y-74676000D01*
X76430500Y-74676000D01*
X76430500Y-75500250D01*
X76589250Y-75659000D01*
X76791000Y-75662072D01*
X76915482Y-75649812D01*
X77035180Y-75613502D01*
X77145494Y-75554537D01*
X77242185Y-75475185D01*
X77283217Y-75425188D01*
X77392058Y-75514512D01*
X77543433Y-75595423D01*
X77707684Y-75645248D01*
X77878500Y-75662072D01*
X78378500Y-75662072D01*
X78549316Y-75645248D01*
X78713567Y-75595423D01*
X78864942Y-75514512D01*
X78997623Y-75405623D01*
X79075278Y-75311000D01*
X79928722Y-75311000D01*
X80006377Y-75405623D01*
X80139058Y-75514512D01*
X80290433Y-75595423D01*
X80454684Y-75645248D01*
X80625500Y-75662072D01*
X81200500Y-75662072D01*
X81371316Y-75645248D01*
X81535567Y-75595423D01*
X81686942Y-75514512D01*
X81788000Y-75431575D01*
X81889058Y-75514512D01*
X82040433Y-75595423D01*
X82204684Y-75645248D01*
X82375500Y-75662072D01*
X82950500Y-75662072D01*
X83121316Y-75645248D01*
X83285567Y-75595423D01*
X83436942Y-75514512D01*
X83569623Y-75405623D01*
X83678512Y-75272942D01*
X83685323Y-75260200D01*
X86065413Y-75260200D01*
X88707011Y-77901800D01*
X86594650Y-77901800D01*
X86458637Y-77698241D01*
X86258759Y-77498363D01*
X86023727Y-77341320D01*
X85762574Y-77233147D01*
X85485335Y-77178000D01*
X85202665Y-77178000D01*
X84925426Y-77233147D01*
X84664273Y-77341320D01*
X84429241Y-77498363D01*
X84229363Y-77698241D01*
X84074000Y-77930759D01*
X83918637Y-77698241D01*
X83718759Y-77498363D01*
X83483727Y-77341320D01*
X83222574Y-77233147D01*
X82945335Y-77178000D01*
X82662665Y-77178000D01*
X82385426Y-77233147D01*
X82124273Y-77341320D01*
X81889241Y-77498363D01*
X81689363Y-77698241D01*
X81534000Y-77930759D01*
X81378637Y-77698241D01*
X81178759Y-77498363D01*
X80943727Y-77341320D01*
X80682574Y-77233147D01*
X80405335Y-77178000D01*
X80122665Y-77178000D01*
X79845426Y-77233147D01*
X79584273Y-77341320D01*
X79349241Y-77498363D01*
X79149363Y-77698241D01*
X78994000Y-77930759D01*
X78838637Y-77698241D01*
X78638759Y-77498363D01*
X78403727Y-77341320D01*
X78142574Y-77233147D01*
X77865335Y-77178000D01*
X77582665Y-77178000D01*
X77305426Y-77233147D01*
X77044273Y-77341320D01*
X76809241Y-77498363D01*
X76609363Y-77698241D01*
X76454000Y-77930759D01*
X76298637Y-77698241D01*
X76098759Y-77498363D01*
X75863727Y-77341320D01*
X75602574Y-77233147D01*
X75325335Y-77178000D01*
X75042665Y-77178000D01*
X74765426Y-77233147D01*
X74504273Y-77341320D01*
X74269241Y-77498363D01*
X74069363Y-77698241D01*
X73914000Y-77930759D01*
X73758637Y-77698241D01*
X73558759Y-77498363D01*
X73323727Y-77341320D01*
X73062574Y-77233147D01*
X72785335Y-77178000D01*
X72502665Y-77178000D01*
X72225426Y-77233147D01*
X71964273Y-77341320D01*
X71729241Y-77498363D01*
X71529363Y-77698241D01*
X71372320Y-77933273D01*
X71264147Y-78194426D01*
X71209000Y-78471665D01*
X71209000Y-78754335D01*
X71264147Y-79031574D01*
X71372320Y-79292727D01*
X71529363Y-79527759D01*
X71729241Y-79727637D01*
X71964273Y-79884680D01*
X72225426Y-79992853D01*
X72502665Y-80048000D01*
X72785335Y-80048000D01*
X72832059Y-80038706D01*
X72711865Y-80279260D01*
X74041000Y-81608395D01*
X75370135Y-80279260D01*
X75254585Y-80048000D01*
X75325335Y-80048000D01*
X75565450Y-80000238D01*
X76250801Y-80685590D01*
X76250800Y-82004372D01*
X76247360Y-82039298D01*
X76250800Y-82074224D01*
X76250800Y-82074233D01*
X76261091Y-82178717D01*
X76301758Y-82312778D01*
X76367798Y-82436330D01*
X76456673Y-82544624D01*
X76483810Y-82566896D01*
X78215105Y-84298191D01*
X78237375Y-84325327D01*
X78345669Y-84414202D01*
X78469221Y-84480242D01*
X78603282Y-84520909D01*
X78707766Y-84531200D01*
X78707773Y-84531200D01*
X78742702Y-84534640D01*
X78777630Y-84531200D01*
X78928013Y-84531200D01*
X78642810Y-84816403D01*
X78615674Y-84838673D01*
X78593404Y-84865809D01*
X78593403Y-84865810D01*
X78526798Y-84946968D01*
X78472153Y-85049202D01*
X78460759Y-85070519D01*
X78420092Y-85204580D01*
X78413623Y-85270256D01*
X78406360Y-85344000D01*
X78409801Y-85378936D01*
X78409800Y-86788672D01*
X78406360Y-86823598D01*
X78409800Y-86858524D01*
X78409800Y-86858533D01*
X78420091Y-86963017D01*
X78460758Y-87097078D01*
X78526798Y-87220630D01*
X78615673Y-87328924D01*
X78642810Y-87351195D01*
X78996603Y-87704989D01*
X79018874Y-87732126D01*
X79047686Y-87755771D01*
X79042805Y-87767555D01*
X78994000Y-88012916D01*
X78994000Y-88263084D01*
X79042805Y-88508445D01*
X79138541Y-88739571D01*
X79277527Y-88947578D01*
X79454422Y-89124473D01*
X79662429Y-89263459D01*
X79665220Y-89264615D01*
X80264000Y-89863395D01*
X80862780Y-89264615D01*
X80865571Y-89263459D01*
X81073578Y-89124473D01*
X81216500Y-88981551D01*
X81325449Y-89090500D01*
X81182527Y-89233422D01*
X81043541Y-89441429D01*
X81042385Y-89444220D01*
X80443605Y-90043000D01*
X81042385Y-90641780D01*
X81043541Y-90644571D01*
X81182527Y-90852578D01*
X81359422Y-91029473D01*
X81567429Y-91168459D01*
X81798555Y-91264195D01*
X82043916Y-91313000D01*
X82294084Y-91313000D01*
X82539445Y-91264195D01*
X82770571Y-91168459D01*
X82978578Y-91029473D01*
X83155473Y-90852578D01*
X83294459Y-90644571D01*
X83390195Y-90413445D01*
X83439000Y-90168084D01*
X83439000Y-90141250D01*
X83594750Y-90297000D01*
X84481500Y-90297000D01*
X84481500Y-90277000D01*
X84735500Y-90277000D01*
X84735500Y-90297000D01*
X84755500Y-90297000D01*
X84755500Y-90551000D01*
X84735500Y-90551000D01*
X84735500Y-91694000D01*
X84755500Y-91694000D01*
X84755500Y-91948000D01*
X84735500Y-91948000D01*
X84735500Y-91968000D01*
X84481500Y-91968000D01*
X84481500Y-91948000D01*
X84461500Y-91948000D01*
X84461500Y-91694000D01*
X84481500Y-91694000D01*
X84481500Y-90551000D01*
X83594750Y-90551000D01*
X83436000Y-90709750D01*
X83432928Y-90899000D01*
X83445188Y-91023482D01*
X83475225Y-91122500D01*
X83445188Y-91221518D01*
X83432928Y-91346000D01*
X83436000Y-91535250D01*
X83594748Y-91693998D01*
X83436000Y-91693998D01*
X83436000Y-91695823D01*
X83341249Y-91645178D01*
X83202399Y-91603058D01*
X83094186Y-91592400D01*
X83094183Y-91592400D01*
X83058000Y-91588836D01*
X83021817Y-91592400D01*
X80223000Y-91592400D01*
X79890030Y-91259430D01*
X80091059Y-91307373D01*
X80341049Y-91316818D01*
X80588078Y-91277310D01*
X80822653Y-91190369D01*
X80907631Y-91144946D01*
X80959195Y-90917800D01*
X80264000Y-90222605D01*
X80249858Y-90236748D01*
X80070253Y-90057143D01*
X80084395Y-90043000D01*
X79389200Y-89347805D01*
X79162054Y-89399369D01*
X79057661Y-89626716D01*
X78999627Y-89870059D01*
X78990182Y-90120049D01*
X79029690Y-90367078D01*
X79048542Y-90417943D01*
X78854734Y-90224135D01*
X78831664Y-90196024D01*
X78719502Y-90103975D01*
X78591538Y-90035577D01*
X78452688Y-89993457D01*
X78344475Y-89982799D01*
X78344472Y-89982799D01*
X78308289Y-89979235D01*
X78272106Y-89982799D01*
X72609509Y-89982799D01*
X71094600Y-88467891D01*
X71094600Y-83296740D01*
X72711865Y-83296740D01*
X72870764Y-83614758D01*
X73249632Y-83807959D01*
X73658913Y-83923534D01*
X74082876Y-83957042D01*
X74505230Y-83907194D01*
X74909744Y-83775908D01*
X75211236Y-83614758D01*
X75370135Y-83296740D01*
X74041000Y-81967605D01*
X72711865Y-83296740D01*
X71094600Y-83296740D01*
X71094600Y-81829876D01*
X71871958Y-81829876D01*
X71921806Y-82252230D01*
X72053092Y-82656744D01*
X72214242Y-82958236D01*
X72532260Y-83117135D01*
X73861395Y-81788000D01*
X74220605Y-81788000D01*
X75549740Y-83117135D01*
X75867758Y-82958236D01*
X76060959Y-82579368D01*
X76176534Y-82170087D01*
X76210042Y-81746124D01*
X76160194Y-81323770D01*
X76028908Y-80919256D01*
X75867758Y-80617764D01*
X75549740Y-80458865D01*
X74220605Y-81788000D01*
X73861395Y-81788000D01*
X72532260Y-80458865D01*
X72214242Y-80617764D01*
X72021041Y-80996632D01*
X71905466Y-81405913D01*
X71871958Y-81829876D01*
X71094600Y-81829876D01*
X71094600Y-76124109D01*
X72194709Y-75024000D01*
X75177928Y-75024000D01*
X75190188Y-75148482D01*
X75226498Y-75268180D01*
X75285463Y-75378494D01*
X75364815Y-75475185D01*
X75461506Y-75554537D01*
X75571820Y-75613502D01*
X75691518Y-75649812D01*
X75816000Y-75662072D01*
X76017750Y-75659000D01*
X76176500Y-75500250D01*
X76176500Y-74676000D01*
X75339750Y-74676000D01*
X75181000Y-74834750D01*
X75177928Y-75024000D01*
X72194709Y-75024000D01*
X73711110Y-73507600D01*
X75528600Y-73507600D01*
X75461506Y-73543463D01*
%TA.AperFunction,Conductor*%
D37*
G36*
X75461506Y-73543463D02*
G01*
X75364815Y-73622815D01*
X75285463Y-73719506D01*
X75226498Y-73829820D01*
X75190188Y-73949518D01*
X75177928Y-74074000D01*
X75181000Y-74263250D01*
X75339750Y-74422000D01*
X76176500Y-74422000D01*
X76176500Y-74402000D01*
X76430500Y-74402000D01*
X76430500Y-74422000D01*
X76450500Y-74422000D01*
X76450500Y-74676000D01*
X76430500Y-74676000D01*
X76430500Y-75500250D01*
X76589250Y-75659000D01*
X76791000Y-75662072D01*
X76915482Y-75649812D01*
X77035180Y-75613502D01*
X77145494Y-75554537D01*
X77242185Y-75475185D01*
X77283217Y-75425188D01*
X77392058Y-75514512D01*
X77543433Y-75595423D01*
X77707684Y-75645248D01*
X77878500Y-75662072D01*
X78378500Y-75662072D01*
X78549316Y-75645248D01*
X78713567Y-75595423D01*
X78864942Y-75514512D01*
X78997623Y-75405623D01*
X79075278Y-75311000D01*
X79928722Y-75311000D01*
X80006377Y-75405623D01*
X80139058Y-75514512D01*
X80290433Y-75595423D01*
X80454684Y-75645248D01*
X80625500Y-75662072D01*
X81200500Y-75662072D01*
X81371316Y-75645248D01*
X81535567Y-75595423D01*
X81686942Y-75514512D01*
X81788000Y-75431575D01*
X81889058Y-75514512D01*
X82040433Y-75595423D01*
X82204684Y-75645248D01*
X82375500Y-75662072D01*
X82950500Y-75662072D01*
X83121316Y-75645248D01*
X83285567Y-75595423D01*
X83436942Y-75514512D01*
X83569623Y-75405623D01*
X83678512Y-75272942D01*
X83685323Y-75260200D01*
X86065413Y-75260200D01*
X88707011Y-77901800D01*
X86594650Y-77901800D01*
X86458637Y-77698241D01*
X86258759Y-77498363D01*
X86023727Y-77341320D01*
X85762574Y-77233147D01*
X85485335Y-77178000D01*
X85202665Y-77178000D01*
X84925426Y-77233147D01*
X84664273Y-77341320D01*
X84429241Y-77498363D01*
X84229363Y-77698241D01*
X84074000Y-77930759D01*
X83918637Y-77698241D01*
X83718759Y-77498363D01*
X83483727Y-77341320D01*
X83222574Y-77233147D01*
X82945335Y-77178000D01*
X82662665Y-77178000D01*
X82385426Y-77233147D01*
X82124273Y-77341320D01*
X81889241Y-77498363D01*
X81689363Y-77698241D01*
X81534000Y-77930759D01*
X81378637Y-77698241D01*
X81178759Y-77498363D01*
X80943727Y-77341320D01*
X80682574Y-77233147D01*
X80405335Y-77178000D01*
X80122665Y-77178000D01*
X79845426Y-77233147D01*
X79584273Y-77341320D01*
X79349241Y-77498363D01*
X79149363Y-77698241D01*
X78994000Y-77930759D01*
X78838637Y-77698241D01*
X78638759Y-77498363D01*
X78403727Y-77341320D01*
X78142574Y-77233147D01*
X77865335Y-77178000D01*
X77582665Y-77178000D01*
X77305426Y-77233147D01*
X77044273Y-77341320D01*
X76809241Y-77498363D01*
X76609363Y-77698241D01*
X76454000Y-77930759D01*
X76298637Y-77698241D01*
X76098759Y-77498363D01*
X75863727Y-77341320D01*
X75602574Y-77233147D01*
X75325335Y-77178000D01*
X75042665Y-77178000D01*
X74765426Y-77233147D01*
X74504273Y-77341320D01*
X74269241Y-77498363D01*
X74069363Y-77698241D01*
X73914000Y-77930759D01*
X73758637Y-77698241D01*
X73558759Y-77498363D01*
X73323727Y-77341320D01*
X73062574Y-77233147D01*
X72785335Y-77178000D01*
X72502665Y-77178000D01*
X72225426Y-77233147D01*
X71964273Y-77341320D01*
X71729241Y-77498363D01*
X71529363Y-77698241D01*
X71372320Y-77933273D01*
X71264147Y-78194426D01*
X71209000Y-78471665D01*
X71209000Y-78754335D01*
X71264147Y-79031574D01*
X71372320Y-79292727D01*
X71529363Y-79527759D01*
X71729241Y-79727637D01*
X71964273Y-79884680D01*
X72225426Y-79992853D01*
X72502665Y-80048000D01*
X72785335Y-80048000D01*
X72832059Y-80038706D01*
X72711865Y-80279260D01*
X74041000Y-81608395D01*
X75370135Y-80279260D01*
X75254585Y-80048000D01*
X75325335Y-80048000D01*
X75565450Y-80000238D01*
X76250801Y-80685590D01*
X76250800Y-82004372D01*
X76247360Y-82039298D01*
X76250800Y-82074224D01*
X76250800Y-82074233D01*
X76261091Y-82178717D01*
X76301758Y-82312778D01*
X76367798Y-82436330D01*
X76456673Y-82544624D01*
X76483810Y-82566896D01*
X78215105Y-84298191D01*
X78237375Y-84325327D01*
X78345669Y-84414202D01*
X78469221Y-84480242D01*
X78603282Y-84520909D01*
X78707766Y-84531200D01*
X78707773Y-84531200D01*
X78742702Y-84534640D01*
X78777630Y-84531200D01*
X78928013Y-84531200D01*
X78642810Y-84816403D01*
X78615674Y-84838673D01*
X78593404Y-84865809D01*
X78593403Y-84865810D01*
X78526798Y-84946968D01*
X78472153Y-85049202D01*
X78460759Y-85070519D01*
X78420092Y-85204580D01*
X78413623Y-85270256D01*
X78406360Y-85344000D01*
X78409801Y-85378936D01*
X78409800Y-86788672D01*
X78406360Y-86823598D01*
X78409800Y-86858524D01*
X78409800Y-86858533D01*
X78420091Y-86963017D01*
X78460758Y-87097078D01*
X78526798Y-87220630D01*
X78615673Y-87328924D01*
X78642810Y-87351195D01*
X78996603Y-87704989D01*
X79018874Y-87732126D01*
X79047686Y-87755771D01*
X79042805Y-87767555D01*
X78994000Y-88012916D01*
X78994000Y-88263084D01*
X79042805Y-88508445D01*
X79138541Y-88739571D01*
X79277527Y-88947578D01*
X79454422Y-89124473D01*
X79662429Y-89263459D01*
X79665220Y-89264615D01*
X80264000Y-89863395D01*
X80862780Y-89264615D01*
X80865571Y-89263459D01*
X81073578Y-89124473D01*
X81216500Y-88981551D01*
X81325449Y-89090500D01*
X81182527Y-89233422D01*
X81043541Y-89441429D01*
X81042385Y-89444220D01*
X80443605Y-90043000D01*
X81042385Y-90641780D01*
X81043541Y-90644571D01*
X81182527Y-90852578D01*
X81359422Y-91029473D01*
X81567429Y-91168459D01*
X81798555Y-91264195D01*
X82043916Y-91313000D01*
X82294084Y-91313000D01*
X82539445Y-91264195D01*
X82770571Y-91168459D01*
X82978578Y-91029473D01*
X83155473Y-90852578D01*
X83294459Y-90644571D01*
X83390195Y-90413445D01*
X83439000Y-90168084D01*
X83439000Y-90141250D01*
X83594750Y-90297000D01*
X84481500Y-90297000D01*
X84481500Y-90277000D01*
X84735500Y-90277000D01*
X84735500Y-90297000D01*
X84755500Y-90297000D01*
X84755500Y-90551000D01*
X84735500Y-90551000D01*
X84735500Y-91694000D01*
X84755500Y-91694000D01*
X84755500Y-91948000D01*
X84735500Y-91948000D01*
X84735500Y-91968000D01*
X84481500Y-91968000D01*
X84481500Y-91948000D01*
X84461500Y-91948000D01*
X84461500Y-91694000D01*
X84481500Y-91694000D01*
X84481500Y-90551000D01*
X83594750Y-90551000D01*
X83436000Y-90709750D01*
X83432928Y-90899000D01*
X83445188Y-91023482D01*
X83475225Y-91122500D01*
X83445188Y-91221518D01*
X83432928Y-91346000D01*
X83436000Y-91535250D01*
X83594748Y-91693998D01*
X83436000Y-91693998D01*
X83436000Y-91695823D01*
X83341249Y-91645178D01*
X83202399Y-91603058D01*
X83094186Y-91592400D01*
X83094183Y-91592400D01*
X83058000Y-91588836D01*
X83021817Y-91592400D01*
X80223000Y-91592400D01*
X79890030Y-91259430D01*
X80091059Y-91307373D01*
X80341049Y-91316818D01*
X80588078Y-91277310D01*
X80822653Y-91190369D01*
X80907631Y-91144946D01*
X80959195Y-90917800D01*
X80264000Y-90222605D01*
X80249858Y-90236748D01*
X80070253Y-90057143D01*
X80084395Y-90043000D01*
X79389200Y-89347805D01*
X79162054Y-89399369D01*
X79057661Y-89626716D01*
X78999627Y-89870059D01*
X78990182Y-90120049D01*
X79029690Y-90367078D01*
X79048542Y-90417943D01*
X78854734Y-90224135D01*
X78831664Y-90196024D01*
X78719502Y-90103975D01*
X78591538Y-90035577D01*
X78452688Y-89993457D01*
X78344475Y-89982799D01*
X78344472Y-89982799D01*
X78308289Y-89979235D01*
X78272106Y-89982799D01*
X72609509Y-89982799D01*
X71094600Y-88467891D01*
X71094600Y-83296740D01*
X72711865Y-83296740D01*
X72870764Y-83614758D01*
X73249632Y-83807959D01*
X73658913Y-83923534D01*
X74082876Y-83957042D01*
X74505230Y-83907194D01*
X74909744Y-83775908D01*
X75211236Y-83614758D01*
X75370135Y-83296740D01*
X74041000Y-81967605D01*
X72711865Y-83296740D01*
X71094600Y-83296740D01*
X71094600Y-81829876D01*
X71871958Y-81829876D01*
X71921806Y-82252230D01*
X72053092Y-82656744D01*
X72214242Y-82958236D01*
X72532260Y-83117135D01*
X73861395Y-81788000D01*
X74220605Y-81788000D01*
X75549740Y-83117135D01*
X75867758Y-82958236D01*
X76060959Y-82579368D01*
X76176534Y-82170087D01*
X76210042Y-81746124D01*
X76160194Y-81323770D01*
X76028908Y-80919256D01*
X75867758Y-80617764D01*
X75549740Y-80458865D01*
X74220605Y-81788000D01*
X73861395Y-81788000D01*
X72532260Y-80458865D01*
X72214242Y-80617764D01*
X72021041Y-80996632D01*
X71905466Y-81405913D01*
X71871958Y-81829876D01*
X71094600Y-81829876D01*
X71094600Y-76124109D01*
X72194709Y-75024000D01*
X75177928Y-75024000D01*
X75190188Y-75148482D01*
X75226498Y-75268180D01*
X75285463Y-75378494D01*
X75364815Y-75475185D01*
X75461506Y-75554537D01*
X75571820Y-75613502D01*
X75691518Y-75649812D01*
X75816000Y-75662072D01*
X76017750Y-75659000D01*
X76176500Y-75500250D01*
X76176500Y-74676000D01*
X75339750Y-74676000D01*
X75181000Y-74834750D01*
X75177928Y-75024000D01*
X72194709Y-75024000D01*
X73711110Y-73507600D01*
X75528600Y-73507600D01*
X75461506Y-73543463D01*
G37*
%TD.AperFunction*%
D34*
X106315799Y-82812585D02*
X106312235Y-82848769D01*
X106315799Y-82884952D01*
X106315799Y-82884954D01*
X106326457Y-82993167D01*
X106368577Y-83132017D01*
X106413046Y-83215212D01*
X106436975Y-83259981D01*
X106504130Y-83341809D01*
X106529024Y-83372143D01*
X106557131Y-83395210D01*
X107050907Y-83888986D01*
X107050525Y-83889368D01*
X106888010Y-84132589D01*
X106776068Y-84402842D01*
X106719000Y-84689740D01*
X106719000Y-84982260D01*
X106776068Y-85269158D01*
X106888010Y-85539411D01*
X107050525Y-85782632D01*
X107257368Y-85989475D01*
X107431760Y-86106000D01*
X107257368Y-86222525D01*
X107050525Y-86429368D01*
X106888010Y-86672589D01*
X106776068Y-86942842D01*
X106719000Y-87229740D01*
X106719000Y-87522260D01*
X106767947Y-87768329D01*
X106635231Y-87635614D01*
X106612957Y-87608473D01*
X106504663Y-87519598D01*
X106381111Y-87453558D01*
X106247050Y-87412891D01*
X106142566Y-87402600D01*
X106142556Y-87402600D01*
X106107630Y-87399160D01*
X106072704Y-87402600D01*
X105924072Y-87402600D01*
X105924072Y-87138500D01*
X105907248Y-86967684D01*
X105857423Y-86803433D01*
X105776512Y-86652058D01*
X105667623Y-86519377D01*
X105534942Y-86410488D01*
X105383567Y-86329577D01*
X105219316Y-86279752D01*
X105048500Y-86262928D01*
X104548500Y-86262928D01*
X104473470Y-86270318D01*
X104745195Y-85998593D01*
X104772326Y-85976327D01*
X104794593Y-85949195D01*
X104794597Y-85949191D01*
X104861202Y-85868033D01*
X104886068Y-85821512D01*
X104927242Y-85744481D01*
X104967909Y-85610420D01*
X104978200Y-85505936D01*
X104978200Y-85505927D01*
X104981640Y-85471001D01*
X104978200Y-85436075D01*
X104978200Y-84362928D01*
X104981640Y-84328000D01*
X104978200Y-84293071D01*
X104978200Y-84293064D01*
X104967909Y-84188580D01*
X104927242Y-84054519D01*
X104861202Y-83930967D01*
X104772327Y-83822673D01*
X104745190Y-83800403D01*
X104533769Y-83588981D01*
X104621500Y-83501250D01*
X104621500Y-82677000D01*
X104875500Y-82677000D01*
X104875500Y-83501250D01*
X105034250Y-83660000D01*
X105286000Y-83663072D01*
X105410482Y-83650812D01*
X105530180Y-83614502D01*
X105640494Y-83555537D01*
X105737185Y-83476185D01*
X105816537Y-83379494D01*
X105875502Y-83269180D01*
X105911812Y-83149482D01*
X105924072Y-83025000D01*
X105921000Y-82835750D01*
X105762250Y-82677000D01*
X104875500Y-82677000D01*
X104621500Y-82677000D01*
X104601500Y-82677000D01*
X104601500Y-82499200D01*
X105375074Y-82499200D01*
X105410000Y-82502640D01*
X105444926Y-82499200D01*
X105444936Y-82499200D01*
X105549420Y-82488909D01*
X105683481Y-82448242D01*
X105730705Y-82423000D01*
X105762250Y-82423000D01*
X105798472Y-82386778D01*
X105807033Y-82382202D01*
X105915327Y-82293327D01*
X105937602Y-82266185D01*
X106315800Y-81887988D01*
X106315799Y-82812585D01*
%TA.AperFunction,Conductor*%
D37*
G36*
X106315799Y-82812585D02*
G01*
X106312235Y-82848769D01*
X106315799Y-82884952D01*
X106315799Y-82884954D01*
X106326457Y-82993167D01*
X106368577Y-83132017D01*
X106413046Y-83215212D01*
X106436975Y-83259981D01*
X106504130Y-83341809D01*
X106529024Y-83372143D01*
X106557131Y-83395210D01*
X107050907Y-83888986D01*
X107050525Y-83889368D01*
X106888010Y-84132589D01*
X106776068Y-84402842D01*
X106719000Y-84689740D01*
X106719000Y-84982260D01*
X106776068Y-85269158D01*
X106888010Y-85539411D01*
X107050525Y-85782632D01*
X107257368Y-85989475D01*
X107431760Y-86106000D01*
X107257368Y-86222525D01*
X107050525Y-86429368D01*
X106888010Y-86672589D01*
X106776068Y-86942842D01*
X106719000Y-87229740D01*
X106719000Y-87522260D01*
X106767947Y-87768329D01*
X106635231Y-87635614D01*
X106612957Y-87608473D01*
X106504663Y-87519598D01*
X106381111Y-87453558D01*
X106247050Y-87412891D01*
X106142566Y-87402600D01*
X106142556Y-87402600D01*
X106107630Y-87399160D01*
X106072704Y-87402600D01*
X105924072Y-87402600D01*
X105924072Y-87138500D01*
X105907248Y-86967684D01*
X105857423Y-86803433D01*
X105776512Y-86652058D01*
X105667623Y-86519377D01*
X105534942Y-86410488D01*
X105383567Y-86329577D01*
X105219316Y-86279752D01*
X105048500Y-86262928D01*
X104548500Y-86262928D01*
X104473470Y-86270318D01*
X104745195Y-85998593D01*
X104772326Y-85976327D01*
X104794593Y-85949195D01*
X104794597Y-85949191D01*
X104861202Y-85868033D01*
X104886068Y-85821512D01*
X104927242Y-85744481D01*
X104967909Y-85610420D01*
X104978200Y-85505936D01*
X104978200Y-85505927D01*
X104981640Y-85471001D01*
X104978200Y-85436075D01*
X104978200Y-84362928D01*
X104981640Y-84328000D01*
X104978200Y-84293071D01*
X104978200Y-84293064D01*
X104967909Y-84188580D01*
X104927242Y-84054519D01*
X104861202Y-83930967D01*
X104772327Y-83822673D01*
X104745190Y-83800403D01*
X104533769Y-83588981D01*
X104621500Y-83501250D01*
X104621500Y-82677000D01*
X104875500Y-82677000D01*
X104875500Y-83501250D01*
X105034250Y-83660000D01*
X105286000Y-83663072D01*
X105410482Y-83650812D01*
X105530180Y-83614502D01*
X105640494Y-83555537D01*
X105737185Y-83476185D01*
X105816537Y-83379494D01*
X105875502Y-83269180D01*
X105911812Y-83149482D01*
X105924072Y-83025000D01*
X105921000Y-82835750D01*
X105762250Y-82677000D01*
X104875500Y-82677000D01*
X104621500Y-82677000D01*
X104601500Y-82677000D01*
X104601500Y-82499200D01*
X105375074Y-82499200D01*
X105410000Y-82502640D01*
X105444926Y-82499200D01*
X105444936Y-82499200D01*
X105549420Y-82488909D01*
X105683481Y-82448242D01*
X105730705Y-82423000D01*
X105762250Y-82423000D01*
X105798472Y-82386778D01*
X105807033Y-82382202D01*
X105915327Y-82293327D01*
X105937602Y-82266185D01*
X106315800Y-81887988D01*
X106315799Y-82812585D01*
G37*
%TD.AperFunction*%
D34*
X110226359Y-86564269D02*
X110249425Y-86592375D01*
X110277531Y-86615441D01*
X110277532Y-86615442D01*
X110289277Y-86625081D01*
X110337928Y-86665008D01*
X110337928Y-86919000D01*
X110347777Y-87019000D01*
X110337928Y-87119000D01*
X110337928Y-87128530D01*
X110251367Y-87174798D01*
X110176085Y-87236581D01*
X110143073Y-87263673D01*
X110120802Y-87290810D01*
X109941412Y-87470200D01*
X109689000Y-87470200D01*
X109689000Y-87229740D01*
X109631932Y-86942842D01*
X109519990Y-86672589D01*
X109357475Y-86429368D01*
X109150632Y-86222525D01*
X108976240Y-86106000D01*
X109150632Y-85989475D01*
X109357475Y-85782632D01*
X109392421Y-85730331D01*
X110226359Y-86564269D01*
%TA.AperFunction,Conductor*%
D37*
G36*
X110226359Y-86564269D02*
G01*
X110249425Y-86592375D01*
X110277531Y-86615441D01*
X110277532Y-86615442D01*
X110289277Y-86625081D01*
X110337928Y-86665008D01*
X110337928Y-86919000D01*
X110347777Y-87019000D01*
X110337928Y-87119000D01*
X110337928Y-87128530D01*
X110251367Y-87174798D01*
X110176085Y-87236581D01*
X110143073Y-87263673D01*
X110120802Y-87290810D01*
X109941412Y-87470200D01*
X109689000Y-87470200D01*
X109689000Y-87229740D01*
X109631932Y-86942842D01*
X109519990Y-86672589D01*
X109357475Y-86429368D01*
X109150632Y-86222525D01*
X108976240Y-86106000D01*
X109150632Y-85989475D01*
X109357475Y-85782632D01*
X109392421Y-85730331D01*
X110226359Y-86564269D01*
G37*
%TD.AperFunction*%
D34*
X96789000Y-86853000D02*
X96809000Y-86853000D01*
X96809000Y-87107000D01*
X96789000Y-87107000D01*
X96789000Y-87127000D01*
X96535000Y-87127000D01*
X96535000Y-87107000D01*
X96515000Y-87107000D01*
X96515000Y-86853000D01*
X96535000Y-86853000D01*
X96535000Y-86833000D01*
X96789000Y-86833000D01*
X96789000Y-86853000D01*
%TA.AperFunction,Conductor*%
D37*
G36*
X96789000Y-86853000D02*
G01*
X96809000Y-86853000D01*
X96809000Y-87107000D01*
X96789000Y-87107000D01*
X96789000Y-87127000D01*
X96535000Y-87127000D01*
X96535000Y-87107000D01*
X96515000Y-87107000D01*
X96515000Y-86853000D01*
X96535000Y-86853000D01*
X96535000Y-86833000D01*
X96789000Y-86833000D01*
X96789000Y-86853000D01*
G37*
%TD.AperFunction*%
D34*
X110272929Y-83299269D02*
X110295995Y-83327375D01*
X110408157Y-83419424D01*
X110536121Y-83487822D01*
X110563786Y-83496214D01*
X110486901Y-83573099D01*
X110379104Y-83734428D01*
X110304853Y-83913686D01*
X110267000Y-84103986D01*
X110267000Y-84298014D01*
X110304853Y-84488314D01*
X110355078Y-84609569D01*
X110213790Y-84468281D01*
X110213790Y-83983186D01*
X110217354Y-83947000D01*
X110203132Y-83802601D01*
X110193320Y-83770256D01*
X110161012Y-83663751D01*
X110092614Y-83535787D01*
X110056004Y-83491178D01*
X110023632Y-83451732D01*
X110023631Y-83451731D01*
X110000565Y-83423625D01*
X109972458Y-83400559D01*
X109526997Y-82955098D01*
X109600825Y-82800099D01*
X109641072Y-82667411D01*
X110272929Y-83299269D01*
%TA.AperFunction,Conductor*%
D37*
G36*
X110272929Y-83299269D02*
G01*
X110295995Y-83327375D01*
X110408157Y-83419424D01*
X110536121Y-83487822D01*
X110563786Y-83496214D01*
X110486901Y-83573099D01*
X110379104Y-83734428D01*
X110304853Y-83913686D01*
X110267000Y-84103986D01*
X110267000Y-84298014D01*
X110304853Y-84488314D01*
X110355078Y-84609569D01*
X110213790Y-84468281D01*
X110213790Y-83983186D01*
X110217354Y-83947000D01*
X110203132Y-83802601D01*
X110193320Y-83770256D01*
X110161012Y-83663751D01*
X110092614Y-83535787D01*
X110056004Y-83491178D01*
X110023632Y-83451732D01*
X110023631Y-83451731D01*
X110000565Y-83423625D01*
X109972458Y-83400559D01*
X109526997Y-82955098D01*
X109600825Y-82800099D01*
X109641072Y-82667411D01*
X110272929Y-83299269D01*
G37*
%TD.AperFunction*%
D34*
X92675407Y-83648196D02*
X92697673Y-83675327D01*
X92724804Y-83697593D01*
X92724809Y-83697598D01*
X92752106Y-83720000D01*
X92724998Y-83720000D01*
X92724998Y-83878748D01*
X92566250Y-83720000D01*
X92175200Y-83718327D01*
X92175200Y-83147988D01*
X92675407Y-83648196D01*
%TA.AperFunction,Conductor*%
D37*
G36*
X92675407Y-83648196D02*
G01*
X92697673Y-83675327D01*
X92724804Y-83697593D01*
X92724809Y-83697598D01*
X92752106Y-83720000D01*
X92724998Y-83720000D01*
X92724998Y-83878748D01*
X92566250Y-83720000D01*
X92175200Y-83718327D01*
X92175200Y-83147988D01*
X92675407Y-83648196D01*
G37*
%TD.AperFunction*%
D34*
X87424820Y-81745498D02*
X87314506Y-81804463D01*
X87217815Y-81883815D01*
X87138463Y-81980506D01*
X87079498Y-82090820D01*
X87051555Y-82182935D01*
X86968567Y-82138577D01*
X86804316Y-82088752D01*
X86633500Y-82071928D01*
X86133500Y-82071928D01*
X85962684Y-82088752D01*
X85798433Y-82138577D01*
X85647058Y-82219488D01*
X85538217Y-82308812D01*
X85497185Y-82258815D01*
X85400494Y-82179463D01*
X85290180Y-82120498D01*
X85170482Y-82084188D01*
X85046000Y-82071928D01*
X84844250Y-82075000D01*
X84685500Y-82233750D01*
X84685500Y-83058000D01*
X84705500Y-83058000D01*
X84705500Y-83312000D01*
X84685500Y-83312000D01*
X84685500Y-83332000D01*
X84431500Y-83332000D01*
X84431500Y-83312000D01*
X83594750Y-83312000D01*
X83436000Y-83470750D01*
X83435691Y-83489800D01*
X81482605Y-83489800D01*
X82262405Y-82710000D01*
X83432928Y-82710000D01*
X83436000Y-82899250D01*
X83594750Y-83058000D01*
X84431500Y-83058000D01*
X84431500Y-82233750D01*
X84272750Y-82075000D01*
X84071000Y-82071928D01*
X83946518Y-82084188D01*
X83826820Y-82120498D01*
X83716506Y-82179463D01*
X83619815Y-82258815D01*
X83540463Y-82355506D01*
X83481498Y-82465820D01*
X83445188Y-82585518D01*
X83432928Y-82710000D01*
X82262405Y-82710000D01*
X83235206Y-81737200D01*
X87452175Y-81737200D01*
X87424820Y-81745498D01*
%TA.AperFunction,Conductor*%
D37*
G36*
X87424820Y-81745498D02*
G01*
X87314506Y-81804463D01*
X87217815Y-81883815D01*
X87138463Y-81980506D01*
X87079498Y-82090820D01*
X87051555Y-82182935D01*
X86968567Y-82138577D01*
X86804316Y-82088752D01*
X86633500Y-82071928D01*
X86133500Y-82071928D01*
X85962684Y-82088752D01*
X85798433Y-82138577D01*
X85647058Y-82219488D01*
X85538217Y-82308812D01*
X85497185Y-82258815D01*
X85400494Y-82179463D01*
X85290180Y-82120498D01*
X85170482Y-82084188D01*
X85046000Y-82071928D01*
X84844250Y-82075000D01*
X84685500Y-82233750D01*
X84685500Y-83058000D01*
X84705500Y-83058000D01*
X84705500Y-83312000D01*
X84685500Y-83312000D01*
X84685500Y-83332000D01*
X84431500Y-83332000D01*
X84431500Y-83312000D01*
X83594750Y-83312000D01*
X83436000Y-83470750D01*
X83435691Y-83489800D01*
X81482605Y-83489800D01*
X82262405Y-82710000D01*
X83432928Y-82710000D01*
X83436000Y-82899250D01*
X83594750Y-83058000D01*
X84431500Y-83058000D01*
X84431500Y-82233750D01*
X84272750Y-82075000D01*
X84071000Y-82071928D01*
X83946518Y-82084188D01*
X83826820Y-82120498D01*
X83716506Y-82179463D01*
X83619815Y-82258815D01*
X83540463Y-82355506D01*
X83481498Y-82465820D01*
X83445188Y-82585518D01*
X83432928Y-82710000D01*
X82262405Y-82710000D01*
X83235206Y-81737200D01*
X87452175Y-81737200D01*
X87424820Y-81745498D01*
G37*
%TD.AperFunction*%
D34*
X118608501Y-82660790D02*
X116790785Y-82660790D01*
X116754609Y-82657227D01*
X116718433Y-82660790D01*
X116718424Y-82660790D01*
X116610211Y-82671448D01*
X116591909Y-82677000D01*
X116589500Y-82677000D01*
X116589500Y-82423000D01*
X116609500Y-82423000D01*
X116609500Y-82403000D01*
X116863500Y-82403000D01*
X116863500Y-82423000D01*
X117700250Y-82423000D01*
X117725650Y-82397600D01*
X118871691Y-82397600D01*
X118608501Y-82660790D01*
%TA.AperFunction,Conductor*%
D37*
G36*
X118608501Y-82660790D02*
G01*
X116790785Y-82660790D01*
X116754609Y-82657227D01*
X116718433Y-82660790D01*
X116718424Y-82660790D01*
X116610211Y-82671448D01*
X116591909Y-82677000D01*
X116589500Y-82677000D01*
X116589500Y-82423000D01*
X116609500Y-82423000D01*
X116609500Y-82403000D01*
X116863500Y-82403000D01*
X116863500Y-82423000D01*
X117700250Y-82423000D01*
X117725650Y-82397600D01*
X118871691Y-82397600D01*
X118608501Y-82660790D01*
G37*
%TD.AperFunction*%
D34*
X108331000Y-82169000D02*
X108351000Y-82169000D01*
X108351000Y-82423000D01*
X108331000Y-82423000D01*
X108331000Y-82443000D01*
X108077000Y-82443000D01*
X108077000Y-82423000D01*
X108057000Y-82423000D01*
X108057000Y-82169000D01*
X108077000Y-82169000D01*
X108077000Y-82149000D01*
X108331000Y-82149000D01*
X108331000Y-82169000D01*
%TA.AperFunction,Conductor*%
D37*
G36*
X108331000Y-82169000D02*
G01*
X108351000Y-82169000D01*
X108351000Y-82423000D01*
X108331000Y-82423000D01*
X108331000Y-82443000D01*
X108077000Y-82443000D01*
X108077000Y-82423000D01*
X108057000Y-82423000D01*
X108057000Y-82169000D01*
X108077000Y-82169000D01*
X108077000Y-82149000D01*
X108331000Y-82149000D01*
X108331000Y-82169000D01*
G37*
%TD.AperFunction*%
D34*
X78158682Y-80053470D02*
X78045865Y-80279260D01*
X79375000Y-81608395D01*
X79389143Y-81594253D01*
X79568748Y-81773858D01*
X79554605Y-81788000D01*
X79568748Y-81802143D01*
X79389143Y-81981748D01*
X79375000Y-81967605D01*
X79360858Y-81981748D01*
X79181253Y-81802143D01*
X79195395Y-81788000D01*
X77866260Y-80458865D01*
X77673200Y-80555328D01*
X77673200Y-80425928D01*
X77676640Y-80391000D01*
X77673200Y-80356071D01*
X77673200Y-80356064D01*
X77662909Y-80251580D01*
X77655283Y-80226439D01*
X77622242Y-80117518D01*
X77585084Y-80048000D01*
X77865335Y-80048000D01*
X78105449Y-80000238D01*
X78158682Y-80053470D01*
%TA.AperFunction,Conductor*%
D37*
G36*
X78158682Y-80053470D02*
G01*
X78045865Y-80279260D01*
X79375000Y-81608395D01*
X79389143Y-81594253D01*
X79568748Y-81773858D01*
X79554605Y-81788000D01*
X79568748Y-81802143D01*
X79389143Y-81981748D01*
X79375000Y-81967605D01*
X79360858Y-81981748D01*
X79181253Y-81802143D01*
X79195395Y-81788000D01*
X77866260Y-80458865D01*
X77673200Y-80555328D01*
X77673200Y-80425928D01*
X77676640Y-80391000D01*
X77673200Y-80356071D01*
X77673200Y-80356064D01*
X77662909Y-80251580D01*
X77655283Y-80226439D01*
X77622242Y-80117518D01*
X77585084Y-80048000D01*
X77865335Y-80048000D01*
X78105449Y-80000238D01*
X78158682Y-80053470D01*
G37*
%TD.AperFunction*%
D34*
X101018842Y-75104449D02*
X100990736Y-75127515D01*
X100967670Y-75155621D01*
X100967668Y-75155623D01*
X100898686Y-75239678D01*
X100830288Y-75367643D01*
X100788169Y-75506492D01*
X100773946Y-75650890D01*
X100777511Y-75687083D01*
X100777510Y-77008500D01*
X100610500Y-77008500D01*
X100610500Y-76988500D01*
X99786250Y-76988500D01*
X99627500Y-77147250D01*
X99624428Y-77399000D01*
X99636688Y-77523482D01*
X99672998Y-77643180D01*
X99731963Y-77753494D01*
X99771274Y-77801394D01*
X99691077Y-77951433D01*
X99641252Y-78115684D01*
X99624428Y-78286500D01*
X99624428Y-78886500D01*
X99641252Y-79057316D01*
X99691077Y-79221567D01*
X99771988Y-79372942D01*
X99880877Y-79505623D01*
X100000901Y-79604124D01*
X100000901Y-79932390D01*
X99770891Y-80162400D01*
X99350183Y-80162400D01*
X99313999Y-80158836D01*
X99277816Y-80162400D01*
X99277814Y-80162400D01*
X99169601Y-80173058D01*
X99030751Y-80215178D01*
X98986196Y-80238993D01*
X98902786Y-80283576D01*
X98821861Y-80349990D01*
X98790625Y-80375625D01*
X98767559Y-80403731D01*
X97873200Y-81298091D01*
X97873200Y-79670925D01*
X97876640Y-79635999D01*
X97873200Y-79601073D01*
X97873200Y-79601064D01*
X97862909Y-79496580D01*
X97831207Y-79392072D01*
X98236000Y-79392072D01*
X98360482Y-79379812D01*
X98480180Y-79343502D01*
X98590494Y-79284537D01*
X98687185Y-79205185D01*
X98766537Y-79108494D01*
X98825502Y-78998180D01*
X98861812Y-78878482D01*
X98874072Y-78754000D01*
X98874072Y-77554000D01*
X98861812Y-77429518D01*
X98825502Y-77309820D01*
X98822391Y-77304000D01*
X98825502Y-77298180D01*
X98861812Y-77178482D01*
X98874072Y-77054000D01*
X98874072Y-76324000D01*
X99624428Y-76324000D01*
X99627500Y-76575750D01*
X99786250Y-76734500D01*
X100610500Y-76734500D01*
X100610500Y-75847750D01*
X100451750Y-75689000D01*
X100262500Y-75685928D01*
X100138018Y-75698188D01*
X100018320Y-75734498D01*
X99908006Y-75793463D01*
X99811315Y-75872815D01*
X99731963Y-75969506D01*
X99672998Y-76079820D01*
X99636688Y-76199518D01*
X99624428Y-76324000D01*
X98874072Y-76324000D01*
X98874072Y-75854000D01*
X98861812Y-75729518D01*
X98825502Y-75609820D01*
X98766537Y-75499506D01*
X98755200Y-75485692D01*
X98755200Y-75323287D01*
X98809623Y-75278623D01*
X98918512Y-75145942D01*
X98999423Y-74994567D01*
X99049248Y-74830316D01*
X99066072Y-74659500D01*
X99066072Y-74431990D01*
X101691300Y-74431990D01*
X101018842Y-75104449D01*
%TA.AperFunction,Conductor*%
D37*
G36*
X101018842Y-75104449D02*
G01*
X100990736Y-75127515D01*
X100967670Y-75155621D01*
X100967668Y-75155623D01*
X100898686Y-75239678D01*
X100830288Y-75367643D01*
X100788169Y-75506492D01*
X100773946Y-75650890D01*
X100777511Y-75687083D01*
X100777510Y-77008500D01*
X100610500Y-77008500D01*
X100610500Y-76988500D01*
X99786250Y-76988500D01*
X99627500Y-77147250D01*
X99624428Y-77399000D01*
X99636688Y-77523482D01*
X99672998Y-77643180D01*
X99731963Y-77753494D01*
X99771274Y-77801394D01*
X99691077Y-77951433D01*
X99641252Y-78115684D01*
X99624428Y-78286500D01*
X99624428Y-78886500D01*
X99641252Y-79057316D01*
X99691077Y-79221567D01*
X99771988Y-79372942D01*
X99880877Y-79505623D01*
X100000901Y-79604124D01*
X100000901Y-79932390D01*
X99770891Y-80162400D01*
X99350183Y-80162400D01*
X99313999Y-80158836D01*
X99277816Y-80162400D01*
X99277814Y-80162400D01*
X99169601Y-80173058D01*
X99030751Y-80215178D01*
X98986196Y-80238993D01*
X98902786Y-80283576D01*
X98821861Y-80349990D01*
X98790625Y-80375625D01*
X98767559Y-80403731D01*
X97873200Y-81298091D01*
X97873200Y-79670925D01*
X97876640Y-79635999D01*
X97873200Y-79601073D01*
X97873200Y-79601064D01*
X97862909Y-79496580D01*
X97831207Y-79392072D01*
X98236000Y-79392072D01*
X98360482Y-79379812D01*
X98480180Y-79343502D01*
X98590494Y-79284537D01*
X98687185Y-79205185D01*
X98766537Y-79108494D01*
X98825502Y-78998180D01*
X98861812Y-78878482D01*
X98874072Y-78754000D01*
X98874072Y-77554000D01*
X98861812Y-77429518D01*
X98825502Y-77309820D01*
X98822391Y-77304000D01*
X98825502Y-77298180D01*
X98861812Y-77178482D01*
X98874072Y-77054000D01*
X98874072Y-76324000D01*
X99624428Y-76324000D01*
X99627500Y-76575750D01*
X99786250Y-76734500D01*
X100610500Y-76734500D01*
X100610500Y-75847750D01*
X100451750Y-75689000D01*
X100262500Y-75685928D01*
X100138018Y-75698188D01*
X100018320Y-75734498D01*
X99908006Y-75793463D01*
X99811315Y-75872815D01*
X99731963Y-75969506D01*
X99672998Y-76079820D01*
X99636688Y-76199518D01*
X99624428Y-76324000D01*
X98874072Y-76324000D01*
X98874072Y-75854000D01*
X98861812Y-75729518D01*
X98825502Y-75609820D01*
X98766537Y-75499506D01*
X98755200Y-75485692D01*
X98755200Y-75323287D01*
X98809623Y-75278623D01*
X98918512Y-75145942D01*
X98999423Y-74994567D01*
X99049248Y-74830316D01*
X99066072Y-74659500D01*
X99066072Y-74431990D01*
X101691300Y-74431990D01*
X101018842Y-75104449D01*
G37*
%TD.AperFunction*%
D34*
X107243601Y-80055390D02*
X106466338Y-80055390D01*
X106431410Y-80051950D01*
X106396481Y-80055390D01*
X106396474Y-80055390D01*
X106291990Y-80065681D01*
X106157929Y-80106348D01*
X106034377Y-80172388D01*
X105926083Y-80261263D01*
X105903813Y-80288399D01*
X105115413Y-81076800D01*
X104008072Y-81076800D01*
X104008072Y-80212502D01*
X104122256Y-80165205D01*
X104122632Y-80164954D01*
X104211251Y-80212322D01*
X104350101Y-80254442D01*
X104494500Y-80268664D01*
X104638898Y-80254442D01*
X104777748Y-80212322D01*
X104905712Y-80143924D01*
X105017874Y-80051875D01*
X105109924Y-79939713D01*
X105178322Y-79811749D01*
X105220442Y-79672899D01*
X105231100Y-79564686D01*
X105231100Y-79224153D01*
X105280942Y-79197512D01*
X105413623Y-79088623D01*
X105522512Y-78955942D01*
X105603423Y-78804567D01*
X105653248Y-78640316D01*
X105668964Y-78480751D01*
X107243601Y-80055390D01*
%TA.AperFunction,Conductor*%
D37*
G36*
X107243601Y-80055390D02*
G01*
X106466338Y-80055390D01*
X106431410Y-80051950D01*
X106396481Y-80055390D01*
X106396474Y-80055390D01*
X106291990Y-80065681D01*
X106157929Y-80106348D01*
X106034377Y-80172388D01*
X105926083Y-80261263D01*
X105903813Y-80288399D01*
X105115413Y-81076800D01*
X104008072Y-81076800D01*
X104008072Y-80212502D01*
X104122256Y-80165205D01*
X104122632Y-80164954D01*
X104211251Y-80212322D01*
X104350101Y-80254442D01*
X104494500Y-80268664D01*
X104638898Y-80254442D01*
X104777748Y-80212322D01*
X104905712Y-80143924D01*
X105017874Y-80051875D01*
X105109924Y-79939713D01*
X105178322Y-79811749D01*
X105220442Y-79672899D01*
X105231100Y-79564686D01*
X105231100Y-79224153D01*
X105280942Y-79197512D01*
X105413623Y-79088623D01*
X105522512Y-78955942D01*
X105603423Y-78804567D01*
X105653248Y-78640316D01*
X105668964Y-78480751D01*
X107243601Y-80055390D01*
G37*
%TD.AperFunction*%
D34*
X120244001Y-81016064D02*
X120171249Y-80977178D01*
X120032399Y-80935058D01*
X119924186Y-80924400D01*
X119888000Y-80920836D01*
X119851814Y-80924400D01*
X117907109Y-80924400D01*
X117767446Y-80784737D01*
X117744375Y-80756625D01*
X117632213Y-80664576D01*
X117504249Y-80596178D01*
X117365399Y-80554058D01*
X117257186Y-80543400D01*
X117257183Y-80543400D01*
X117221000Y-80539836D01*
X117184817Y-80543400D01*
X115223560Y-80543400D01*
X115324550Y-80442410D01*
X115710652Y-80442410D01*
X115745578Y-80445850D01*
X115780504Y-80442410D01*
X115780514Y-80442410D01*
X115884998Y-80432119D01*
X116019059Y-80391452D01*
X116142611Y-80325412D01*
X116250905Y-80236537D01*
X116273179Y-80209396D01*
X116495404Y-79987171D01*
X116522536Y-79964905D01*
X116544803Y-79937773D01*
X116544808Y-79937768D01*
X116589559Y-79883238D01*
X116611412Y-79856611D01*
X116677452Y-79733059D01*
X116718119Y-79598998D01*
X116727377Y-79505000D01*
X117250928Y-79505000D01*
X117263188Y-79629482D01*
X117299498Y-79749180D01*
X117358463Y-79859494D01*
X117437815Y-79956185D01*
X117534506Y-80035537D01*
X117644820Y-80094502D01*
X117764518Y-80130812D01*
X117889000Y-80143072D01*
X118078250Y-80140000D01*
X118237000Y-79981250D01*
X118237000Y-79144500D01*
X118491000Y-79144500D01*
X118491000Y-79981250D01*
X118649750Y-80140000D01*
X118839000Y-80143072D01*
X118963482Y-80130812D01*
X119083180Y-80094502D01*
X119193494Y-80035537D01*
X119290185Y-79956185D01*
X119369537Y-79859494D01*
X119428502Y-79749180D01*
X119464812Y-79629482D01*
X119477072Y-79505000D01*
X119474000Y-79303250D01*
X119315250Y-79144500D01*
X118491000Y-79144500D01*
X118237000Y-79144500D01*
X117412750Y-79144500D01*
X117254000Y-79303250D01*
X117250928Y-79505000D01*
X116727377Y-79505000D01*
X116728410Y-79494514D01*
X116728410Y-79494507D01*
X116731850Y-79459578D01*
X116728410Y-79424650D01*
X116728410Y-78610350D01*
X116731850Y-78575422D01*
X116728410Y-78540493D01*
X116728410Y-78540486D01*
X116718119Y-78436002D01*
X116677452Y-78301941D01*
X116611412Y-78178389D01*
X116522537Y-78070095D01*
X116495400Y-78047824D01*
X116314605Y-77867029D01*
X116362423Y-77777567D01*
X116412248Y-77613316D01*
X116429072Y-77442500D01*
X116429072Y-76942500D01*
X116412248Y-76771684D01*
X116362423Y-76607433D01*
X116281512Y-76456058D01*
X116172623Y-76323377D01*
X116078000Y-76245722D01*
X116078000Y-75910172D01*
X116154512Y-75816942D01*
X116235423Y-75665567D01*
X116285248Y-75501316D01*
X116302072Y-75330500D01*
X116302072Y-75002990D01*
X116427284Y-75002990D01*
X116462210Y-75006430D01*
X116497136Y-75002990D01*
X116497146Y-75002990D01*
X116601630Y-74992699D01*
X116735691Y-74952032D01*
X116859243Y-74885992D01*
X116967537Y-74797117D01*
X116989811Y-74769976D01*
X117263999Y-74495789D01*
X117250928Y-74628500D01*
X117250928Y-75203500D01*
X117267752Y-75374316D01*
X117317577Y-75538567D01*
X117398488Y-75689942D01*
X117507377Y-75822623D01*
X117602001Y-75900279D01*
X117602000Y-76245721D01*
X117507377Y-76323377D01*
X117398488Y-76456058D01*
X117317577Y-76607433D01*
X117267752Y-76771684D01*
X117250928Y-76942500D01*
X117250928Y-77442500D01*
X117267752Y-77613316D01*
X117317577Y-77777567D01*
X117398488Y-77928942D01*
X117487812Y-78037783D01*
X117437815Y-78078815D01*
X117358463Y-78175506D01*
X117299498Y-78285820D01*
X117263188Y-78405518D01*
X117250928Y-78530000D01*
X117254000Y-78731750D01*
X117412750Y-78890500D01*
X118237000Y-78890500D01*
X118237000Y-78870500D01*
X118491000Y-78870500D01*
X118491000Y-78890500D01*
X119315250Y-78890500D01*
X119474000Y-78731750D01*
X119477072Y-78530000D01*
X119464812Y-78405518D01*
X119428502Y-78285820D01*
X119369537Y-78175506D01*
X119290185Y-78078815D01*
X119240188Y-78037783D01*
X119329512Y-77928942D01*
X119410423Y-77777567D01*
X119460248Y-77613316D01*
X119477072Y-77442500D01*
X119477072Y-76942500D01*
X119460248Y-76771684D01*
X119410423Y-76607433D01*
X119329512Y-76456058D01*
X119220623Y-76323377D01*
X119126000Y-76245722D01*
X119126000Y-75900278D01*
X119220623Y-75822623D01*
X119329512Y-75689942D01*
X119410423Y-75538567D01*
X119460248Y-75374316D01*
X119477072Y-75203500D01*
X119477072Y-74628500D01*
X119460248Y-74457684D01*
X119410423Y-74293433D01*
X119329512Y-74142058D01*
X119246575Y-74041000D01*
X119329512Y-73939942D01*
X119410423Y-73788567D01*
X119460248Y-73624316D01*
X119477072Y-73453500D01*
X119477072Y-72878500D01*
X119460248Y-72707684D01*
X119410423Y-72543433D01*
X119329512Y-72392058D01*
X119220623Y-72259377D01*
X119087942Y-72150488D01*
X118936567Y-72069577D01*
X118772316Y-72019752D01*
X118601500Y-72002928D01*
X118126500Y-72002928D01*
X117955684Y-72019752D01*
X117791433Y-72069577D01*
X117640058Y-72150488D01*
X117507377Y-72259377D01*
X117398488Y-72392058D01*
X117342203Y-72497360D01*
X117314519Y-72505758D01*
X117190967Y-72571798D01*
X117190965Y-72571799D01*
X117190966Y-72571799D01*
X117109808Y-72638403D01*
X117109804Y-72638407D01*
X117082673Y-72660673D01*
X117060407Y-72687804D01*
X116302072Y-73446140D01*
X116302072Y-73005500D01*
X116285248Y-72834684D01*
X116235423Y-72670433D01*
X116154512Y-72519058D01*
X116045623Y-72386377D01*
X115912942Y-72277488D01*
X115761567Y-72196577D01*
X115597316Y-72146752D01*
X115426500Y-72129928D01*
X114951500Y-72129928D01*
X114780684Y-72146752D01*
X114616433Y-72196577D01*
X114465058Y-72277488D01*
X114332377Y-72386377D01*
X114223488Y-72519058D01*
X114203528Y-72556400D01*
X112999472Y-72556400D01*
X112979512Y-72519058D01*
X112870623Y-72386377D01*
X112743535Y-72282078D01*
X112739942Y-72245601D01*
X112697822Y-72106751D01*
X112658401Y-72032998D01*
X112707147Y-71915314D01*
X112745000Y-71725014D01*
X112745000Y-71530986D01*
X112707147Y-71340686D01*
X112632896Y-71161428D01*
X112525099Y-71000099D01*
X112387901Y-70862901D01*
X112226572Y-70755104D01*
X112047314Y-70680853D01*
X111857014Y-70643000D01*
X111662986Y-70643000D01*
X111472686Y-70680853D01*
X111293428Y-70755104D01*
X111132099Y-70862901D01*
X110994901Y-71000099D01*
X110887104Y-71161428D01*
X110812853Y-71340686D01*
X110775000Y-71530986D01*
X110775000Y-71725014D01*
X110812853Y-71915314D01*
X110887104Y-72094572D01*
X110994901Y-72255901D01*
X111040441Y-72301441D01*
X111076178Y-72419249D01*
X111097564Y-72459259D01*
X111048488Y-72519058D01*
X110967577Y-72670433D01*
X110917752Y-72834684D01*
X110900928Y-73005500D01*
X110900928Y-73580500D01*
X110917752Y-73751316D01*
X110967577Y-73915567D01*
X111048488Y-74066942D01*
X111131425Y-74168000D01*
X111048488Y-74269058D01*
X110967577Y-74420433D01*
X110917752Y-74584684D01*
X110900928Y-74755500D01*
X110900928Y-75330500D01*
X110917752Y-75501316D01*
X110967577Y-75665567D01*
X111048488Y-75816942D01*
X111157377Y-75949623D01*
X111290058Y-76058512D01*
X111441433Y-76139423D01*
X111506001Y-76159009D01*
X111506000Y-76349221D01*
X111411377Y-76426877D01*
X111302488Y-76559558D01*
X111221577Y-76710933D01*
X111171752Y-76875184D01*
X111154928Y-77046000D01*
X111154928Y-77546000D01*
X111159517Y-77592590D01*
X109810289Y-77592590D01*
X109825072Y-77442500D01*
X109825072Y-76942500D01*
X109808248Y-76771684D01*
X109758423Y-76607433D01*
X109677512Y-76456058D01*
X109568623Y-76323377D01*
X109474000Y-76245722D01*
X109474000Y-76106052D01*
X109562942Y-76058512D01*
X109695623Y-75949623D01*
X109804512Y-75816942D01*
X109885423Y-75665567D01*
X109935248Y-75501316D01*
X109952072Y-75330500D01*
X109952072Y-74755500D01*
X109935248Y-74584684D01*
X109885423Y-74420433D01*
X109804512Y-74269058D01*
X109721575Y-74168000D01*
X109804512Y-74066942D01*
X109885423Y-73915567D01*
X109935248Y-73751316D01*
X109952072Y-73580500D01*
X109952072Y-73005500D01*
X109935248Y-72834684D01*
X109885423Y-72670433D01*
X109804512Y-72519058D01*
X109695623Y-72386377D01*
X109584201Y-72294935D01*
X109584201Y-70603406D01*
X109587764Y-70567230D01*
X109584201Y-70531054D01*
X109584201Y-70531045D01*
X109573543Y-70422832D01*
X109531423Y-70283982D01*
X109463025Y-70156018D01*
X109370976Y-70043856D01*
X109342870Y-70020790D01*
X108562079Y-69240000D01*
X120244001Y-69240000D01*
X120244001Y-81016064D01*
%TA.AperFunction,Conductor*%
D37*
G36*
X120244001Y-81016064D02*
G01*
X120171249Y-80977178D01*
X120032399Y-80935058D01*
X119924186Y-80924400D01*
X119888000Y-80920836D01*
X119851814Y-80924400D01*
X117907109Y-80924400D01*
X117767446Y-80784737D01*
X117744375Y-80756625D01*
X117632213Y-80664576D01*
X117504249Y-80596178D01*
X117365399Y-80554058D01*
X117257186Y-80543400D01*
X117257183Y-80543400D01*
X117221000Y-80539836D01*
X117184817Y-80543400D01*
X115223560Y-80543400D01*
X115324550Y-80442410D01*
X115710652Y-80442410D01*
X115745578Y-80445850D01*
X115780504Y-80442410D01*
X115780514Y-80442410D01*
X115884998Y-80432119D01*
X116019059Y-80391452D01*
X116142611Y-80325412D01*
X116250905Y-80236537D01*
X116273179Y-80209396D01*
X116495404Y-79987171D01*
X116522536Y-79964905D01*
X116544803Y-79937773D01*
X116544808Y-79937768D01*
X116589559Y-79883238D01*
X116611412Y-79856611D01*
X116677452Y-79733059D01*
X116718119Y-79598998D01*
X116727377Y-79505000D01*
X117250928Y-79505000D01*
X117263188Y-79629482D01*
X117299498Y-79749180D01*
X117358463Y-79859494D01*
X117437815Y-79956185D01*
X117534506Y-80035537D01*
X117644820Y-80094502D01*
X117764518Y-80130812D01*
X117889000Y-80143072D01*
X118078250Y-80140000D01*
X118237000Y-79981250D01*
X118237000Y-79144500D01*
X118491000Y-79144500D01*
X118491000Y-79981250D01*
X118649750Y-80140000D01*
X118839000Y-80143072D01*
X118963482Y-80130812D01*
X119083180Y-80094502D01*
X119193494Y-80035537D01*
X119290185Y-79956185D01*
X119369537Y-79859494D01*
X119428502Y-79749180D01*
X119464812Y-79629482D01*
X119477072Y-79505000D01*
X119474000Y-79303250D01*
X119315250Y-79144500D01*
X118491000Y-79144500D01*
X118237000Y-79144500D01*
X117412750Y-79144500D01*
X117254000Y-79303250D01*
X117250928Y-79505000D01*
X116727377Y-79505000D01*
X116728410Y-79494514D01*
X116728410Y-79494507D01*
X116731850Y-79459578D01*
X116728410Y-79424650D01*
X116728410Y-78610350D01*
X116731850Y-78575422D01*
X116728410Y-78540493D01*
X116728410Y-78540486D01*
X116718119Y-78436002D01*
X116677452Y-78301941D01*
X116611412Y-78178389D01*
X116522537Y-78070095D01*
X116495400Y-78047824D01*
X116314605Y-77867029D01*
X116362423Y-77777567D01*
X116412248Y-77613316D01*
X116429072Y-77442500D01*
X116429072Y-76942500D01*
X116412248Y-76771684D01*
X116362423Y-76607433D01*
X116281512Y-76456058D01*
X116172623Y-76323377D01*
X116078000Y-76245722D01*
X116078000Y-75910172D01*
X116154512Y-75816942D01*
X116235423Y-75665567D01*
X116285248Y-75501316D01*
X116302072Y-75330500D01*
X116302072Y-75002990D01*
X116427284Y-75002990D01*
X116462210Y-75006430D01*
X116497136Y-75002990D01*
X116497146Y-75002990D01*
X116601630Y-74992699D01*
X116735691Y-74952032D01*
X116859243Y-74885992D01*
X116967537Y-74797117D01*
X116989811Y-74769976D01*
X117263999Y-74495789D01*
X117250928Y-74628500D01*
X117250928Y-75203500D01*
X117267752Y-75374316D01*
X117317577Y-75538567D01*
X117398488Y-75689942D01*
X117507377Y-75822623D01*
X117602001Y-75900279D01*
X117602000Y-76245721D01*
X117507377Y-76323377D01*
X117398488Y-76456058D01*
X117317577Y-76607433D01*
X117267752Y-76771684D01*
X117250928Y-76942500D01*
X117250928Y-77442500D01*
X117267752Y-77613316D01*
X117317577Y-77777567D01*
X117398488Y-77928942D01*
X117487812Y-78037783D01*
X117437815Y-78078815D01*
X117358463Y-78175506D01*
X117299498Y-78285820D01*
X117263188Y-78405518D01*
X117250928Y-78530000D01*
X117254000Y-78731750D01*
X117412750Y-78890500D01*
X118237000Y-78890500D01*
X118237000Y-78870500D01*
X118491000Y-78870500D01*
X118491000Y-78890500D01*
X119315250Y-78890500D01*
X119474000Y-78731750D01*
X119477072Y-78530000D01*
X119464812Y-78405518D01*
X119428502Y-78285820D01*
X119369537Y-78175506D01*
X119290185Y-78078815D01*
X119240188Y-78037783D01*
X119329512Y-77928942D01*
X119410423Y-77777567D01*
X119460248Y-77613316D01*
X119477072Y-77442500D01*
X119477072Y-76942500D01*
X119460248Y-76771684D01*
X119410423Y-76607433D01*
X119329512Y-76456058D01*
X119220623Y-76323377D01*
X119126000Y-76245722D01*
X119126000Y-75900278D01*
X119220623Y-75822623D01*
X119329512Y-75689942D01*
X119410423Y-75538567D01*
X119460248Y-75374316D01*
X119477072Y-75203500D01*
X119477072Y-74628500D01*
X119460248Y-74457684D01*
X119410423Y-74293433D01*
X119329512Y-74142058D01*
X119246575Y-74041000D01*
X119329512Y-73939942D01*
X119410423Y-73788567D01*
X119460248Y-73624316D01*
X119477072Y-73453500D01*
X119477072Y-72878500D01*
X119460248Y-72707684D01*
X119410423Y-72543433D01*
X119329512Y-72392058D01*
X119220623Y-72259377D01*
X119087942Y-72150488D01*
X118936567Y-72069577D01*
X118772316Y-72019752D01*
X118601500Y-72002928D01*
X118126500Y-72002928D01*
X117955684Y-72019752D01*
X117791433Y-72069577D01*
X117640058Y-72150488D01*
X117507377Y-72259377D01*
X117398488Y-72392058D01*
X117342203Y-72497360D01*
X117314519Y-72505758D01*
X117190967Y-72571798D01*
X117190965Y-72571799D01*
X117190966Y-72571799D01*
X117109808Y-72638403D01*
X117109804Y-72638407D01*
X117082673Y-72660673D01*
X117060407Y-72687804D01*
X116302072Y-73446140D01*
X116302072Y-73005500D01*
X116285248Y-72834684D01*
X116235423Y-72670433D01*
X116154512Y-72519058D01*
X116045623Y-72386377D01*
X115912942Y-72277488D01*
X115761567Y-72196577D01*
X115597316Y-72146752D01*
X115426500Y-72129928D01*
X114951500Y-72129928D01*
X114780684Y-72146752D01*
X114616433Y-72196577D01*
X114465058Y-72277488D01*
X114332377Y-72386377D01*
X114223488Y-72519058D01*
X114203528Y-72556400D01*
X112999472Y-72556400D01*
X112979512Y-72519058D01*
X112870623Y-72386377D01*
X112743535Y-72282078D01*
X112739942Y-72245601D01*
X112697822Y-72106751D01*
X112658401Y-72032998D01*
X112707147Y-71915314D01*
X112745000Y-71725014D01*
X112745000Y-71530986D01*
X112707147Y-71340686D01*
X112632896Y-71161428D01*
X112525099Y-71000099D01*
X112387901Y-70862901D01*
X112226572Y-70755104D01*
X112047314Y-70680853D01*
X111857014Y-70643000D01*
X111662986Y-70643000D01*
X111472686Y-70680853D01*
X111293428Y-70755104D01*
X111132099Y-70862901D01*
X110994901Y-71000099D01*
X110887104Y-71161428D01*
X110812853Y-71340686D01*
X110775000Y-71530986D01*
X110775000Y-71725014D01*
X110812853Y-71915314D01*
X110887104Y-72094572D01*
X110994901Y-72255901D01*
X111040441Y-72301441D01*
X111076178Y-72419249D01*
X111097564Y-72459259D01*
X111048488Y-72519058D01*
X110967577Y-72670433D01*
X110917752Y-72834684D01*
X110900928Y-73005500D01*
X110900928Y-73580500D01*
X110917752Y-73751316D01*
X110967577Y-73915567D01*
X111048488Y-74066942D01*
X111131425Y-74168000D01*
X111048488Y-74269058D01*
X110967577Y-74420433D01*
X110917752Y-74584684D01*
X110900928Y-74755500D01*
X110900928Y-75330500D01*
X110917752Y-75501316D01*
X110967577Y-75665567D01*
X111048488Y-75816942D01*
X111157377Y-75949623D01*
X111290058Y-76058512D01*
X111441433Y-76139423D01*
X111506001Y-76159009D01*
X111506000Y-76349221D01*
X111411377Y-76426877D01*
X111302488Y-76559558D01*
X111221577Y-76710933D01*
X111171752Y-76875184D01*
X111154928Y-77046000D01*
X111154928Y-77546000D01*
X111159517Y-77592590D01*
X109810289Y-77592590D01*
X109825072Y-77442500D01*
X109825072Y-76942500D01*
X109808248Y-76771684D01*
X109758423Y-76607433D01*
X109677512Y-76456058D01*
X109568623Y-76323377D01*
X109474000Y-76245722D01*
X109474000Y-76106052D01*
X109562942Y-76058512D01*
X109695623Y-75949623D01*
X109804512Y-75816942D01*
X109885423Y-75665567D01*
X109935248Y-75501316D01*
X109952072Y-75330500D01*
X109952072Y-74755500D01*
X109935248Y-74584684D01*
X109885423Y-74420433D01*
X109804512Y-74269058D01*
X109721575Y-74168000D01*
X109804512Y-74066942D01*
X109885423Y-73915567D01*
X109935248Y-73751316D01*
X109952072Y-73580500D01*
X109952072Y-73005500D01*
X109935248Y-72834684D01*
X109885423Y-72670433D01*
X109804512Y-72519058D01*
X109695623Y-72386377D01*
X109584201Y-72294935D01*
X109584201Y-70603406D01*
X109587764Y-70567230D01*
X109584201Y-70531054D01*
X109584201Y-70531045D01*
X109573543Y-70422832D01*
X109531423Y-70283982D01*
X109463025Y-70156018D01*
X109370976Y-70043856D01*
X109342870Y-70020790D01*
X108562079Y-69240000D01*
X120244001Y-69240000D01*
X120244001Y-81016064D01*
G37*
%TD.AperFunction*%
D34*
X111154928Y-79228284D02*
X110596212Y-79787000D01*
X110519986Y-79787000D01*
X110329686Y-79824853D01*
X110150428Y-79899104D01*
X110004842Y-79996382D01*
X109834437Y-79825978D01*
X109812163Y-79798837D01*
X109768926Y-79763353D01*
X109776502Y-79749180D01*
X109812812Y-79629482D01*
X109825072Y-79505000D01*
X109822000Y-79303250D01*
X109663250Y-79144500D01*
X108839000Y-79144500D01*
X108839000Y-79164500D01*
X108585000Y-79164500D01*
X108585000Y-79144500D01*
X108565000Y-79144500D01*
X108565000Y-79014990D01*
X111154928Y-79014990D01*
X111154928Y-79228284D01*
%TA.AperFunction,Conductor*%
D37*
G36*
X111154928Y-79228284D02*
G01*
X110596212Y-79787000D01*
X110519986Y-79787000D01*
X110329686Y-79824853D01*
X110150428Y-79899104D01*
X110004842Y-79996382D01*
X109834437Y-79825978D01*
X109812163Y-79798837D01*
X109768926Y-79763353D01*
X109776502Y-79749180D01*
X109812812Y-79629482D01*
X109825072Y-79505000D01*
X109822000Y-79303250D01*
X109663250Y-79144500D01*
X108839000Y-79144500D01*
X108839000Y-79164500D01*
X108585000Y-79164500D01*
X108585000Y-79144500D01*
X108565000Y-79144500D01*
X108565000Y-79014990D01*
X111154928Y-79014990D01*
X111154928Y-79228284D01*
G37*
%TD.AperFunction*%
D34*
X103509500Y-75775209D02*
X103509500Y-75815514D01*
X103547353Y-76005814D01*
X103621604Y-76185072D01*
X103729401Y-76346401D01*
X103757901Y-76374901D01*
X103757900Y-77239847D01*
X103709394Y-77265774D01*
X103661494Y-77226463D01*
X103551180Y-77167498D01*
X103431482Y-77131188D01*
X103307000Y-77118928D01*
X103055250Y-77122000D01*
X102896500Y-77280750D01*
X102896500Y-78105000D01*
X102916500Y-78105000D01*
X102916500Y-78359000D01*
X102896500Y-78359000D01*
X102896500Y-78379000D01*
X102702711Y-78379000D01*
X102640774Y-78317063D01*
X102622500Y-78304853D01*
X102622500Y-78105000D01*
X102642500Y-78105000D01*
X102642500Y-77280750D01*
X102483750Y-77122000D01*
X102250710Y-77119156D01*
X102250710Y-75955999D01*
X102667110Y-75539600D01*
X103273891Y-75539600D01*
X103509500Y-75775209D01*
%TA.AperFunction,Conductor*%
D37*
G36*
X103509500Y-75775209D02*
G01*
X103509500Y-75815514D01*
X103547353Y-76005814D01*
X103621604Y-76185072D01*
X103729401Y-76346401D01*
X103757901Y-76374901D01*
X103757900Y-77239847D01*
X103709394Y-77265774D01*
X103661494Y-77226463D01*
X103551180Y-77167498D01*
X103431482Y-77131188D01*
X103307000Y-77118928D01*
X103055250Y-77122000D01*
X102896500Y-77280750D01*
X102896500Y-78105000D01*
X102916500Y-78105000D01*
X102916500Y-78359000D01*
X102896500Y-78359000D01*
X102896500Y-78379000D01*
X102702711Y-78379000D01*
X102640774Y-78317063D01*
X102622500Y-78304853D01*
X102622500Y-78105000D01*
X102642500Y-78105000D01*
X102642500Y-77280750D01*
X102483750Y-77122000D01*
X102250710Y-77119156D01*
X102250710Y-75955999D01*
X102667110Y-75539600D01*
X103273891Y-75539600D01*
X103509500Y-75775209D01*
G37*
%TD.AperFunction*%
D34*
X106542525Y-72066632D02*
X106749368Y-72273475D01*
X106992589Y-72435990D01*
X107262842Y-72547932D01*
X107549740Y-72605000D01*
X107827551Y-72605000D01*
X107792577Y-72670433D01*
X107742752Y-72834684D01*
X107725928Y-73005500D01*
X107725928Y-73580500D01*
X107742752Y-73751316D01*
X107792577Y-73915567D01*
X107873488Y-74066942D01*
X107956425Y-74168000D01*
X107873488Y-74269058D01*
X107792577Y-74420433D01*
X107742752Y-74584684D01*
X107725928Y-74755500D01*
X107725928Y-75330500D01*
X107742752Y-75501316D01*
X107792577Y-75665567D01*
X107873488Y-75816942D01*
X107950001Y-75910172D01*
X107950000Y-76245721D01*
X107855377Y-76323377D01*
X107746488Y-76456058D01*
X107665577Y-76607433D01*
X107648418Y-76663998D01*
X106502200Y-75517781D01*
X106502200Y-73902256D01*
X106505640Y-73867328D01*
X106502200Y-73832399D01*
X106502200Y-73832392D01*
X106491909Y-73727908D01*
X106462679Y-73631549D01*
X106451242Y-73593846D01*
X106385202Y-73470295D01*
X106318598Y-73389137D01*
X106318593Y-73389132D01*
X106296327Y-73362001D01*
X106269196Y-73339735D01*
X105579773Y-72650314D01*
X105557499Y-72623173D01*
X105449205Y-72534298D01*
X105325653Y-72468258D01*
X105283002Y-72455320D01*
X105283002Y-72440156D01*
X105512890Y-72561476D01*
X105660099Y-72516825D01*
X105922920Y-72391641D01*
X106156269Y-72217588D01*
X106351178Y-72001355D01*
X106420805Y-71884466D01*
X106542525Y-72066632D01*
%TA.AperFunction,Conductor*%
D37*
G36*
X106542525Y-72066632D02*
G01*
X106749368Y-72273475D01*
X106992589Y-72435990D01*
X107262842Y-72547932D01*
X107549740Y-72605000D01*
X107827551Y-72605000D01*
X107792577Y-72670433D01*
X107742752Y-72834684D01*
X107725928Y-73005500D01*
X107725928Y-73580500D01*
X107742752Y-73751316D01*
X107792577Y-73915567D01*
X107873488Y-74066942D01*
X107956425Y-74168000D01*
X107873488Y-74269058D01*
X107792577Y-74420433D01*
X107742752Y-74584684D01*
X107725928Y-74755500D01*
X107725928Y-75330500D01*
X107742752Y-75501316D01*
X107792577Y-75665567D01*
X107873488Y-75816942D01*
X107950001Y-75910172D01*
X107950000Y-76245721D01*
X107855377Y-76323377D01*
X107746488Y-76456058D01*
X107665577Y-76607433D01*
X107648418Y-76663998D01*
X106502200Y-75517781D01*
X106502200Y-73902256D01*
X106505640Y-73867328D01*
X106502200Y-73832399D01*
X106502200Y-73832392D01*
X106491909Y-73727908D01*
X106462679Y-73631549D01*
X106451242Y-73593846D01*
X106385202Y-73470295D01*
X106318598Y-73389137D01*
X106318593Y-73389132D01*
X106296327Y-73362001D01*
X106269196Y-73339735D01*
X105579773Y-72650314D01*
X105557499Y-72623173D01*
X105449205Y-72534298D01*
X105325653Y-72468258D01*
X105283002Y-72455320D01*
X105283002Y-72440156D01*
X105512890Y-72561476D01*
X105660099Y-72516825D01*
X105922920Y-72391641D01*
X106156269Y-72217588D01*
X106351178Y-72001355D01*
X106420805Y-71884466D01*
X106542525Y-72066632D01*
G37*
%TD.AperFunction*%
D34*
X94993000Y-74549002D02*
X95151748Y-74549002D01*
X94993000Y-74707750D01*
X94989928Y-74897000D01*
X95002188Y-75021482D01*
X95038498Y-75141180D01*
X95078452Y-75215928D01*
X94636000Y-75215928D01*
X94511518Y-75228188D01*
X94391820Y-75264498D01*
X94281506Y-75323463D01*
X94184815Y-75402815D01*
X94180093Y-75408569D01*
X94144185Y-75364815D01*
X94047494Y-75285463D01*
X93937180Y-75226498D01*
X93817482Y-75190188D01*
X93693000Y-75177928D01*
X93503750Y-75181000D01*
X93345000Y-75339750D01*
X93345000Y-76226500D01*
X93365000Y-76226500D01*
X93365000Y-76480500D01*
X93345000Y-76480500D01*
X93345000Y-76500500D01*
X93091000Y-76500500D01*
X93091000Y-76480500D01*
X93071000Y-76480500D01*
X93071000Y-76226500D01*
X93091000Y-76226500D01*
X93091000Y-75339750D01*
X93040200Y-75288950D01*
X93040200Y-74970587D01*
X93578798Y-74431990D01*
X94993000Y-74431990D01*
X94993000Y-74549002D01*
%TA.AperFunction,Conductor*%
D37*
G36*
X94993000Y-74549002D02*
G01*
X95151748Y-74549002D01*
X94993000Y-74707750D01*
X94989928Y-74897000D01*
X95002188Y-75021482D01*
X95038498Y-75141180D01*
X95078452Y-75215928D01*
X94636000Y-75215928D01*
X94511518Y-75228188D01*
X94391820Y-75264498D01*
X94281506Y-75323463D01*
X94184815Y-75402815D01*
X94180093Y-75408569D01*
X94144185Y-75364815D01*
X94047494Y-75285463D01*
X93937180Y-75226498D01*
X93817482Y-75190188D01*
X93693000Y-75177928D01*
X93503750Y-75181000D01*
X93345000Y-75339750D01*
X93345000Y-76226500D01*
X93365000Y-76226500D01*
X93365000Y-76480500D01*
X93345000Y-76480500D01*
X93345000Y-76500500D01*
X93091000Y-76500500D01*
X93091000Y-76480500D01*
X93071000Y-76480500D01*
X93071000Y-76226500D01*
X93091000Y-76226500D01*
X93091000Y-75339750D01*
X93040200Y-75288950D01*
X93040200Y-74970587D01*
X93578798Y-74431990D01*
X94993000Y-74431990D01*
X94993000Y-74549002D01*
G37*
%TD.AperFunction*%
D34*
X88182188Y-70195518D02*
X88169928Y-70320000D01*
X88169928Y-71920000D01*
X88182188Y-72044482D01*
X88218498Y-72164180D01*
X88277463Y-72274494D01*
X88344717Y-72356443D01*
X88315488Y-72392058D01*
X88292247Y-72435538D01*
X88132445Y-72275736D01*
X88109375Y-72247625D01*
X87997213Y-72155576D01*
X87869249Y-72087178D01*
X87730399Y-72045058D01*
X87622186Y-72034400D01*
X87622183Y-72034400D01*
X87586000Y-72030836D01*
X87549817Y-72034400D01*
X86734345Y-72034400D01*
X86769812Y-71917482D01*
X86782072Y-71793000D01*
X86779000Y-71278750D01*
X86620250Y-71120000D01*
X85471000Y-71120000D01*
X85471000Y-71140000D01*
X85217000Y-71140000D01*
X85217000Y-71120000D01*
X82931000Y-71120000D01*
X82931000Y-71140000D01*
X82677000Y-71140000D01*
X82677000Y-71120000D01*
X80391000Y-71120000D01*
X80391000Y-71140000D01*
X80137000Y-71140000D01*
X80137000Y-71120000D01*
X77851000Y-71120000D01*
X77851000Y-71140000D01*
X77597000Y-71140000D01*
X77597000Y-71120000D01*
X75311000Y-71120000D01*
X75311000Y-71140000D01*
X75057000Y-71140000D01*
X75057000Y-71120000D01*
X72771000Y-71120000D01*
X72771000Y-72262915D01*
X72836428Y-72298862D01*
X71952832Y-73182458D01*
X71940147Y-73118686D01*
X71865896Y-72939428D01*
X71758099Y-72778099D01*
X71729600Y-72749600D01*
X71729600Y-72092851D01*
X71906580Y-72224037D01*
X72160913Y-72344246D01*
X72294961Y-72384904D01*
X72517000Y-72262915D01*
X72517000Y-71120000D01*
X72497000Y-71120000D01*
X72497000Y-70866000D01*
X72517000Y-70866000D01*
X72517000Y-70846000D01*
X72771000Y-70846000D01*
X72771000Y-70866000D01*
X75057000Y-70866000D01*
X75057000Y-70846000D01*
X75311000Y-70846000D01*
X75311000Y-70866000D01*
X77597000Y-70866000D01*
X77597000Y-70846000D01*
X77851000Y-70846000D01*
X77851000Y-70866000D01*
X80137000Y-70866000D01*
X80137000Y-70846000D01*
X80391000Y-70846000D01*
X80391000Y-70866000D01*
X82677000Y-70866000D01*
X82677000Y-70846000D01*
X82931000Y-70846000D01*
X82931000Y-70866000D01*
X85217000Y-70866000D01*
X85217000Y-70846000D01*
X85471000Y-70846000D01*
X85471000Y-70866000D01*
X86620250Y-70866000D01*
X86779000Y-70707250D01*
X86782072Y-70193000D01*
X86770805Y-70078600D01*
X88217655Y-70078600D01*
X88182188Y-70195518D01*
%TA.AperFunction,Conductor*%
D37*
G36*
X88182188Y-70195518D02*
G01*
X88169928Y-70320000D01*
X88169928Y-71920000D01*
X88182188Y-72044482D01*
X88218498Y-72164180D01*
X88277463Y-72274494D01*
X88344717Y-72356443D01*
X88315488Y-72392058D01*
X88292247Y-72435538D01*
X88132445Y-72275736D01*
X88109375Y-72247625D01*
X87997213Y-72155576D01*
X87869249Y-72087178D01*
X87730399Y-72045058D01*
X87622186Y-72034400D01*
X87622183Y-72034400D01*
X87586000Y-72030836D01*
X87549817Y-72034400D01*
X86734345Y-72034400D01*
X86769812Y-71917482D01*
X86782072Y-71793000D01*
X86779000Y-71278750D01*
X86620250Y-71120000D01*
X85471000Y-71120000D01*
X85471000Y-71140000D01*
X85217000Y-71140000D01*
X85217000Y-71120000D01*
X82931000Y-71120000D01*
X82931000Y-71140000D01*
X82677000Y-71140000D01*
X82677000Y-71120000D01*
X80391000Y-71120000D01*
X80391000Y-71140000D01*
X80137000Y-71140000D01*
X80137000Y-71120000D01*
X77851000Y-71120000D01*
X77851000Y-71140000D01*
X77597000Y-71140000D01*
X77597000Y-71120000D01*
X75311000Y-71120000D01*
X75311000Y-71140000D01*
X75057000Y-71140000D01*
X75057000Y-71120000D01*
X72771000Y-71120000D01*
X72771000Y-72262915D01*
X72836428Y-72298862D01*
X71952832Y-73182458D01*
X71940147Y-73118686D01*
X71865896Y-72939428D01*
X71758099Y-72778099D01*
X71729600Y-72749600D01*
X71729600Y-72092851D01*
X71906580Y-72224037D01*
X72160913Y-72344246D01*
X72294961Y-72384904D01*
X72517000Y-72262915D01*
X72517000Y-71120000D01*
X72497000Y-71120000D01*
X72497000Y-70866000D01*
X72517000Y-70866000D01*
X72517000Y-70846000D01*
X72771000Y-70846000D01*
X72771000Y-70866000D01*
X75057000Y-70866000D01*
X75057000Y-70846000D01*
X75311000Y-70846000D01*
X75311000Y-70866000D01*
X77597000Y-70866000D01*
X77597000Y-70846000D01*
X77851000Y-70846000D01*
X77851000Y-70866000D01*
X80137000Y-70866000D01*
X80137000Y-70846000D01*
X80391000Y-70846000D01*
X80391000Y-70866000D01*
X82677000Y-70866000D01*
X82677000Y-70846000D01*
X82931000Y-70846000D01*
X82931000Y-70866000D01*
X85217000Y-70866000D01*
X85217000Y-70846000D01*
X85471000Y-70846000D01*
X85471000Y-70866000D01*
X86620250Y-70866000D01*
X86779000Y-70707250D01*
X86782072Y-70193000D01*
X86770805Y-70078600D01*
X88217655Y-70078600D01*
X88182188Y-70195518D01*
G37*
%TD.AperFunction*%
D34*
X97362188Y-70195518D02*
X97349928Y-70320000D01*
X97353000Y-70834250D01*
X97511750Y-70993000D01*
X98951000Y-70993000D01*
X98951000Y-70973000D01*
X99205000Y-70973000D01*
X99205000Y-70993000D01*
X100644250Y-70993000D01*
X100803000Y-70834250D01*
X100806072Y-70320000D01*
X100793812Y-70195518D01*
X100758345Y-70078600D01*
X101160487Y-70078600D01*
X101140188Y-70145518D01*
X101127928Y-70270000D01*
X101127928Y-71970000D01*
X101140188Y-72094482D01*
X101176498Y-72214180D01*
X101235463Y-72324494D01*
X101311627Y-72417300D01*
X100562994Y-72417300D01*
X100619185Y-72371185D01*
X100698537Y-72274494D01*
X100757502Y-72164180D01*
X100793812Y-72044482D01*
X100806072Y-71920000D01*
X100803000Y-71405750D01*
X100644250Y-71247000D01*
X99205000Y-71247000D01*
X99205000Y-71267000D01*
X98951000Y-71267000D01*
X98951000Y-71247000D01*
X97511750Y-71247000D01*
X97353000Y-71405750D01*
X97349928Y-71920000D01*
X97362188Y-72044482D01*
X97398498Y-72164180D01*
X97457463Y-72274494D01*
X97536815Y-72371185D01*
X97593006Y-72417300D01*
X91382994Y-72417300D01*
X91439185Y-72371185D01*
X91518537Y-72274494D01*
X91577502Y-72164180D01*
X91613812Y-72044482D01*
X91626072Y-71920000D01*
X91626072Y-70320000D01*
X91613812Y-70195518D01*
X91578345Y-70078600D01*
X97397655Y-70078600D01*
X97362188Y-70195518D01*
%TA.AperFunction,Conductor*%
D37*
G36*
X97362188Y-70195518D02*
G01*
X97349928Y-70320000D01*
X97353000Y-70834250D01*
X97511750Y-70993000D01*
X98951000Y-70993000D01*
X98951000Y-70973000D01*
X99205000Y-70973000D01*
X99205000Y-70993000D01*
X100644250Y-70993000D01*
X100803000Y-70834250D01*
X100806072Y-70320000D01*
X100793812Y-70195518D01*
X100758345Y-70078600D01*
X101160487Y-70078600D01*
X101140188Y-70145518D01*
X101127928Y-70270000D01*
X101127928Y-71970000D01*
X101140188Y-72094482D01*
X101176498Y-72214180D01*
X101235463Y-72324494D01*
X101311627Y-72417300D01*
X100562994Y-72417300D01*
X100619185Y-72371185D01*
X100698537Y-72274494D01*
X100757502Y-72164180D01*
X100793812Y-72044482D01*
X100806072Y-71920000D01*
X100803000Y-71405750D01*
X100644250Y-71247000D01*
X99205000Y-71247000D01*
X99205000Y-71267000D01*
X98951000Y-71267000D01*
X98951000Y-71247000D01*
X97511750Y-71247000D01*
X97353000Y-71405750D01*
X97349928Y-71920000D01*
X97362188Y-72044482D01*
X97398498Y-72164180D01*
X97457463Y-72274494D01*
X97536815Y-72371185D01*
X97593006Y-72417300D01*
X91382994Y-72417300D01*
X91439185Y-72371185D01*
X91518537Y-72274494D01*
X91577502Y-72164180D01*
X91613812Y-72044482D01*
X91626072Y-71920000D01*
X91626072Y-70320000D01*
X91613812Y-70195518D01*
X91578345Y-70078600D01*
X97397655Y-70078600D01*
X97362188Y-70195518D01*
G37*
%TD.AperFunction*%
D34*
X105283000Y-70993000D02*
X105303000Y-70993000D01*
X105303000Y-71247000D01*
X105283000Y-71247000D01*
X105283000Y-71267000D01*
X105029000Y-71267000D01*
X105029000Y-71247000D01*
X105009000Y-71247000D01*
X105009000Y-70993000D01*
X105029000Y-70993000D01*
X105029000Y-70973000D01*
X105283000Y-70973000D01*
X105283000Y-70993000D01*
%TA.AperFunction,Conductor*%
D37*
G36*
X105283000Y-70993000D02*
G01*
X105303000Y-70993000D01*
X105303000Y-71247000D01*
X105283000Y-71247000D01*
X105283000Y-71267000D01*
X105029000Y-71267000D01*
X105029000Y-71247000D01*
X105009000Y-71247000D01*
X105009000Y-70993000D01*
X105029000Y-70993000D01*
X105029000Y-70973000D01*
X105283000Y-70973000D01*
X105283000Y-70993000D01*
G37*
%TD.AperFunction*%
%TD*%
M02*
