M48
; DRILL file {KiCad (5.1.9)-1} date 07/30/21 14:52:03
; FORMAT={-:-/ absolute / metric / decimal}
; #@! TF.CreationDate,2021-07-30T14:52:03-07:00
; #@! TF.GenerationSoftware,Kicad,Pcbnew,(5.1.9)-1
FMAT,2
METRIC
T1C0.350
T2C0.400
T3C0.600
T4C0.635
T5C0.800
T6C1.000
T7C1.016
T8C1.905
T9C0.650
%
G90
G05
T1
X70.993Y-73.406
X73.152Y-88.9
X75.311Y-75.565
X77.343Y-86.487
X82.296Y-93.599
X82.55Y-83.058
X84.709Y-76.2
X86.868Y-84.455
X90.932Y-90.551
X92.71Y-83.693
X93.091Y-91.694
X93.218Y-93.472
X93.853Y-79.248
X94.107Y-74.93
X95.377Y-70.866
X95.377Y-92.837
X96.774Y-86.868
X97.409Y-92.837
X98.298Y-80.899
X100.203Y-91.948
X100.838Y-83.439
X100.965Y-71.12
X101.219Y-91.567
X101.6Y-82.804
X101.981Y-87.376
X102.235Y-83.566
X102.489Y-76.073
X102.679Y-84.391
X103.378Y-85.09
X103.378Y-85.09
X104.495Y-75.718
X104.521Y-92.583
X105.791Y-79.121
X106.172Y-89.535
X107.442Y-75.819
X109.855Y-82.804
X109.982Y-86.995
X110.109Y-71.628
X110.617Y-76.327
X110.617Y-80.772
X110.617Y-92.71
X110.871Y-79.248
X111.252Y-84.201
X111.76Y-71.628
X112.395Y-80.645
X113.665Y-71.628
X114.028Y-88.755
X114.034Y-87.769
X115.443Y-87.503
X115.951Y-84.201
X116.84Y-76.454
X118.364Y-80.518
X118.364Y-82.55
X118.745Y-94.107
X118.872Y-71.628
T2
X71.12Y-93.218
X77.724Y-80.264
X82.677Y-94.869
X83.312Y-91.313
X88.519Y-95.504
X92.964Y-81.915
X93.091Y-70.993
X93.853Y-80.518
X96.52Y-72.009
X99.568Y-79.756
X100.076Y-82.804
X100.711Y-74.803
X101.981Y-79.121
X103.632Y-79.248
X116.713Y-71.628
T4
X80.264Y-86.233
X80.264Y-88.138
X80.264Y-90.043
X82.169Y-86.233
X82.169Y-88.138
X82.169Y-90.043
T5
X72.644Y-70.993
X72.644Y-78.613
X75.184Y-70.993
X75.184Y-78.613
X77.724Y-70.993
X77.724Y-78.613
X80.264Y-70.993
X80.264Y-78.613
X82.804Y-70.993
X82.804Y-78.613
X85.344Y-70.993
X85.344Y-78.613
T6
X88.519Y-83.185
X88.519Y-85.725
X88.519Y-88.265
X88.519Y-90.805
X88.519Y-93.345
X102.616Y-71.12
X105.156Y-71.12
X107.696Y-71.12
X108.204Y-82.296
X108.204Y-84.836
X108.204Y-87.376
X108.204Y-89.916
X108.204Y-92.456
T7
X91.567Y-94.615
X94.107Y-95.123
X96.647Y-94.615
X99.187Y-95.123
X101.727Y-94.615
X104.267Y-95.123
T8
X74.041Y-81.788
X74.041Y-94.488
X79.375Y-81.788
X79.375Y-94.488
T9
X114.146Y-85.629
X114.146Y-91.409
T3
X113.066Y-84.199G85X114.166Y-84.199
G05
X113.066Y-92.839G85X114.166Y-92.839
G05
X117.496Y-84.199G85X118.096Y-84.199
G05
X117.496Y-92.839G85X118.096Y-92.839
G05
T0
M30
