%TF.GenerationSoftware,KiCad,Pcbnew,(5.1.9)-1*%
%TF.CreationDate,2021-07-30T14:52:09-07:00*%
%TF.ProjectId,NullWiiConv2.2,4e756c6c-5769-4694-936f-6e76322e322e,rev?*%
%TF.SameCoordinates,Original*%
%TF.FileFunction,Soldermask,Top*%
%TF.FilePolarity,Negative*%
%FSLAX46Y46*%
G04 Gerber Fmt 4.6, Leading zero omitted, Abs format (unit mm)*
G04 Created by KiCad (PCBNEW (5.1.9)-1) date 2021-07-30 14:52:09*
%MOMM*%
%LPD*%
G01*
G04 APERTURE LIST*
%ADD10C,0.100000*%
%ADD11R,1.000000X1.500000*%
%ADD12R,4.000000X4.000000*%
%ADD13R,0.900000X1.200000*%
%ADD14O,1.600000X1.000000*%
%ADD15O,2.100000X1.000000*%
%ADD16C,0.650000*%
%ADD17R,2.450000X0.300000*%
%ADD18R,2.450000X0.600000*%
%ADD19C,3.048000*%
%ADD20C,1.270000*%
%ADD21R,1.270000X1.270000*%
%ADD22O,1.700000X1.700000*%
%ADD23R,1.700000X1.700000*%
%ADD24R,2.180000X1.600000*%
%ADD25R,1.400000X1.200000*%
%ADD26C,2.082800*%
%ADD27O,1.600000X1.600000*%
%ADD28R,1.600000X1.600000*%
%ADD29R,0.900000X0.800000*%
G04 APERTURE END LIST*
D10*
%TO.C,JP1*%
G36*
X102120000Y-81522000D02*
G01*
X101570000Y-81522000D01*
X101570000Y-81521398D01*
X101545466Y-81521398D01*
X101496635Y-81516588D01*
X101448510Y-81507016D01*
X101401555Y-81492772D01*
X101356222Y-81473995D01*
X101312949Y-81450864D01*
X101272150Y-81423604D01*
X101234221Y-81392476D01*
X101199524Y-81357779D01*
X101168396Y-81319850D01*
X101141136Y-81279051D01*
X101118005Y-81235778D01*
X101099228Y-81190445D01*
X101084984Y-81143490D01*
X101075412Y-81095365D01*
X101070602Y-81046534D01*
X101070602Y-81022000D01*
X101070000Y-81022000D01*
X101070000Y-80522000D01*
X101070602Y-80522000D01*
X101070602Y-80497466D01*
X101075412Y-80448635D01*
X101084984Y-80400510D01*
X101099228Y-80353555D01*
X101118005Y-80308222D01*
X101141136Y-80264949D01*
X101168396Y-80224150D01*
X101199524Y-80186221D01*
X101234221Y-80151524D01*
X101272150Y-80120396D01*
X101312949Y-80093136D01*
X101356222Y-80070005D01*
X101401555Y-80051228D01*
X101448510Y-80036984D01*
X101496635Y-80027412D01*
X101545466Y-80022602D01*
X101570000Y-80022602D01*
X101570000Y-80022000D01*
X102120000Y-80022000D01*
X102120000Y-81522000D01*
G37*
D11*
X102870000Y-80772000D03*
D10*
G36*
X104170000Y-80022602D02*
G01*
X104194534Y-80022602D01*
X104243365Y-80027412D01*
X104291490Y-80036984D01*
X104338445Y-80051228D01*
X104383778Y-80070005D01*
X104427051Y-80093136D01*
X104467850Y-80120396D01*
X104505779Y-80151524D01*
X104540476Y-80186221D01*
X104571604Y-80224150D01*
X104598864Y-80264949D01*
X104621995Y-80308222D01*
X104640772Y-80353555D01*
X104655016Y-80400510D01*
X104664588Y-80448635D01*
X104669398Y-80497466D01*
X104669398Y-80522000D01*
X104670000Y-80522000D01*
X104670000Y-81022000D01*
X104669398Y-81022000D01*
X104669398Y-81046534D01*
X104664588Y-81095365D01*
X104655016Y-81143490D01*
X104640772Y-81190445D01*
X104621995Y-81235778D01*
X104598864Y-81279051D01*
X104571604Y-81319850D01*
X104540476Y-81357779D01*
X104505779Y-81392476D01*
X104467850Y-81423604D01*
X104427051Y-81450864D01*
X104383778Y-81473995D01*
X104338445Y-81492772D01*
X104291490Y-81507016D01*
X104243365Y-81516588D01*
X104194534Y-81521398D01*
X104170000Y-81521398D01*
X104170000Y-81522000D01*
X103620000Y-81522000D01*
X103620000Y-80022000D01*
X104170000Y-80022000D01*
X104170000Y-80022602D01*
G37*
%TD*%
D12*
%TO.C,U2*%
X96662000Y-86980000D03*
G36*
G01*
X99287000Y-89852500D02*
X99287000Y-91727500D01*
G75*
G02*
X99224500Y-91790000I-62500J0D01*
G01*
X99099500Y-91790000D01*
G75*
G02*
X99037000Y-91727500I0J62500D01*
G01*
X99037000Y-89852500D01*
G75*
G02*
X99099500Y-89790000I62500J0D01*
G01*
X99224500Y-89790000D01*
G75*
G02*
X99287000Y-89852500I0J-62500D01*
G01*
G37*
G36*
G01*
X98787000Y-89852500D02*
X98787000Y-91727500D01*
G75*
G02*
X98724500Y-91790000I-62500J0D01*
G01*
X98599500Y-91790000D01*
G75*
G02*
X98537000Y-91727500I0J62500D01*
G01*
X98537000Y-89852500D01*
G75*
G02*
X98599500Y-89790000I62500J0D01*
G01*
X98724500Y-89790000D01*
G75*
G02*
X98787000Y-89852500I0J-62500D01*
G01*
G37*
G36*
G01*
X98287000Y-89852500D02*
X98287000Y-91727500D01*
G75*
G02*
X98224500Y-91790000I-62500J0D01*
G01*
X98099500Y-91790000D01*
G75*
G02*
X98037000Y-91727500I0J62500D01*
G01*
X98037000Y-89852500D01*
G75*
G02*
X98099500Y-89790000I62500J0D01*
G01*
X98224500Y-89790000D01*
G75*
G02*
X98287000Y-89852500I0J-62500D01*
G01*
G37*
G36*
G01*
X97787000Y-89852500D02*
X97787000Y-91727500D01*
G75*
G02*
X97724500Y-91790000I-62500J0D01*
G01*
X97599500Y-91790000D01*
G75*
G02*
X97537000Y-91727500I0J62500D01*
G01*
X97537000Y-89852500D01*
G75*
G02*
X97599500Y-89790000I62500J0D01*
G01*
X97724500Y-89790000D01*
G75*
G02*
X97787000Y-89852500I0J-62500D01*
G01*
G37*
G36*
G01*
X97287000Y-89852500D02*
X97287000Y-91727500D01*
G75*
G02*
X97224500Y-91790000I-62500J0D01*
G01*
X97099500Y-91790000D01*
G75*
G02*
X97037000Y-91727500I0J62500D01*
G01*
X97037000Y-89852500D01*
G75*
G02*
X97099500Y-89790000I62500J0D01*
G01*
X97224500Y-89790000D01*
G75*
G02*
X97287000Y-89852500I0J-62500D01*
G01*
G37*
G36*
G01*
X96787000Y-89852500D02*
X96787000Y-91727500D01*
G75*
G02*
X96724500Y-91790000I-62500J0D01*
G01*
X96599500Y-91790000D01*
G75*
G02*
X96537000Y-91727500I0J62500D01*
G01*
X96537000Y-89852500D01*
G75*
G02*
X96599500Y-89790000I62500J0D01*
G01*
X96724500Y-89790000D01*
G75*
G02*
X96787000Y-89852500I0J-62500D01*
G01*
G37*
G36*
G01*
X96287000Y-89852500D02*
X96287000Y-91727500D01*
G75*
G02*
X96224500Y-91790000I-62500J0D01*
G01*
X96099500Y-91790000D01*
G75*
G02*
X96037000Y-91727500I0J62500D01*
G01*
X96037000Y-89852500D01*
G75*
G02*
X96099500Y-89790000I62500J0D01*
G01*
X96224500Y-89790000D01*
G75*
G02*
X96287000Y-89852500I0J-62500D01*
G01*
G37*
G36*
G01*
X95787000Y-89852500D02*
X95787000Y-91727500D01*
G75*
G02*
X95724500Y-91790000I-62500J0D01*
G01*
X95599500Y-91790000D01*
G75*
G02*
X95537000Y-91727500I0J62500D01*
G01*
X95537000Y-89852500D01*
G75*
G02*
X95599500Y-89790000I62500J0D01*
G01*
X95724500Y-89790000D01*
G75*
G02*
X95787000Y-89852500I0J-62500D01*
G01*
G37*
G36*
G01*
X95287000Y-89852500D02*
X95287000Y-91727500D01*
G75*
G02*
X95224500Y-91790000I-62500J0D01*
G01*
X95099500Y-91790000D01*
G75*
G02*
X95037000Y-91727500I0J62500D01*
G01*
X95037000Y-89852500D01*
G75*
G02*
X95099500Y-89790000I62500J0D01*
G01*
X95224500Y-89790000D01*
G75*
G02*
X95287000Y-89852500I0J-62500D01*
G01*
G37*
G36*
G01*
X94787000Y-89852500D02*
X94787000Y-91727500D01*
G75*
G02*
X94724500Y-91790000I-62500J0D01*
G01*
X94599500Y-91790000D01*
G75*
G02*
X94537000Y-91727500I0J62500D01*
G01*
X94537000Y-89852500D01*
G75*
G02*
X94599500Y-89790000I62500J0D01*
G01*
X94724500Y-89790000D01*
G75*
G02*
X94787000Y-89852500I0J-62500D01*
G01*
G37*
G36*
G01*
X94287000Y-89852500D02*
X94287000Y-91727500D01*
G75*
G02*
X94224500Y-91790000I-62500J0D01*
G01*
X94099500Y-91790000D01*
G75*
G02*
X94037000Y-91727500I0J62500D01*
G01*
X94037000Y-89852500D01*
G75*
G02*
X94099500Y-89790000I62500J0D01*
G01*
X94224500Y-89790000D01*
G75*
G02*
X94287000Y-89852500I0J-62500D01*
G01*
G37*
G36*
G01*
X93852000Y-89417500D02*
X93852000Y-89542500D01*
G75*
G02*
X93789500Y-89605000I-62500J0D01*
G01*
X91914500Y-89605000D01*
G75*
G02*
X91852000Y-89542500I0J62500D01*
G01*
X91852000Y-89417500D01*
G75*
G02*
X91914500Y-89355000I62500J0D01*
G01*
X93789500Y-89355000D01*
G75*
G02*
X93852000Y-89417500I0J-62500D01*
G01*
G37*
G36*
G01*
X93852000Y-88917500D02*
X93852000Y-89042500D01*
G75*
G02*
X93789500Y-89105000I-62500J0D01*
G01*
X91914500Y-89105000D01*
G75*
G02*
X91852000Y-89042500I0J62500D01*
G01*
X91852000Y-88917500D01*
G75*
G02*
X91914500Y-88855000I62500J0D01*
G01*
X93789500Y-88855000D01*
G75*
G02*
X93852000Y-88917500I0J-62500D01*
G01*
G37*
G36*
G01*
X93852000Y-88417500D02*
X93852000Y-88542500D01*
G75*
G02*
X93789500Y-88605000I-62500J0D01*
G01*
X91914500Y-88605000D01*
G75*
G02*
X91852000Y-88542500I0J62500D01*
G01*
X91852000Y-88417500D01*
G75*
G02*
X91914500Y-88355000I62500J0D01*
G01*
X93789500Y-88355000D01*
G75*
G02*
X93852000Y-88417500I0J-62500D01*
G01*
G37*
G36*
G01*
X93852000Y-87917500D02*
X93852000Y-88042500D01*
G75*
G02*
X93789500Y-88105000I-62500J0D01*
G01*
X91914500Y-88105000D01*
G75*
G02*
X91852000Y-88042500I0J62500D01*
G01*
X91852000Y-87917500D01*
G75*
G02*
X91914500Y-87855000I62500J0D01*
G01*
X93789500Y-87855000D01*
G75*
G02*
X93852000Y-87917500I0J-62500D01*
G01*
G37*
G36*
G01*
X93852000Y-87417500D02*
X93852000Y-87542500D01*
G75*
G02*
X93789500Y-87605000I-62500J0D01*
G01*
X91914500Y-87605000D01*
G75*
G02*
X91852000Y-87542500I0J62500D01*
G01*
X91852000Y-87417500D01*
G75*
G02*
X91914500Y-87355000I62500J0D01*
G01*
X93789500Y-87355000D01*
G75*
G02*
X93852000Y-87417500I0J-62500D01*
G01*
G37*
G36*
G01*
X93852000Y-86917500D02*
X93852000Y-87042500D01*
G75*
G02*
X93789500Y-87105000I-62500J0D01*
G01*
X91914500Y-87105000D01*
G75*
G02*
X91852000Y-87042500I0J62500D01*
G01*
X91852000Y-86917500D01*
G75*
G02*
X91914500Y-86855000I62500J0D01*
G01*
X93789500Y-86855000D01*
G75*
G02*
X93852000Y-86917500I0J-62500D01*
G01*
G37*
G36*
G01*
X93852000Y-86417500D02*
X93852000Y-86542500D01*
G75*
G02*
X93789500Y-86605000I-62500J0D01*
G01*
X91914500Y-86605000D01*
G75*
G02*
X91852000Y-86542500I0J62500D01*
G01*
X91852000Y-86417500D01*
G75*
G02*
X91914500Y-86355000I62500J0D01*
G01*
X93789500Y-86355000D01*
G75*
G02*
X93852000Y-86417500I0J-62500D01*
G01*
G37*
G36*
G01*
X93852000Y-85917500D02*
X93852000Y-86042500D01*
G75*
G02*
X93789500Y-86105000I-62500J0D01*
G01*
X91914500Y-86105000D01*
G75*
G02*
X91852000Y-86042500I0J62500D01*
G01*
X91852000Y-85917500D01*
G75*
G02*
X91914500Y-85855000I62500J0D01*
G01*
X93789500Y-85855000D01*
G75*
G02*
X93852000Y-85917500I0J-62500D01*
G01*
G37*
G36*
G01*
X93852000Y-85417500D02*
X93852000Y-85542500D01*
G75*
G02*
X93789500Y-85605000I-62500J0D01*
G01*
X91914500Y-85605000D01*
G75*
G02*
X91852000Y-85542500I0J62500D01*
G01*
X91852000Y-85417500D01*
G75*
G02*
X91914500Y-85355000I62500J0D01*
G01*
X93789500Y-85355000D01*
G75*
G02*
X93852000Y-85417500I0J-62500D01*
G01*
G37*
G36*
G01*
X93852000Y-84917500D02*
X93852000Y-85042500D01*
G75*
G02*
X93789500Y-85105000I-62500J0D01*
G01*
X91914500Y-85105000D01*
G75*
G02*
X91852000Y-85042500I0J62500D01*
G01*
X91852000Y-84917500D01*
G75*
G02*
X91914500Y-84855000I62500J0D01*
G01*
X93789500Y-84855000D01*
G75*
G02*
X93852000Y-84917500I0J-62500D01*
G01*
G37*
G36*
G01*
X93852000Y-84417500D02*
X93852000Y-84542500D01*
G75*
G02*
X93789500Y-84605000I-62500J0D01*
G01*
X91914500Y-84605000D01*
G75*
G02*
X91852000Y-84542500I0J62500D01*
G01*
X91852000Y-84417500D01*
G75*
G02*
X91914500Y-84355000I62500J0D01*
G01*
X93789500Y-84355000D01*
G75*
G02*
X93852000Y-84417500I0J-62500D01*
G01*
G37*
G36*
G01*
X94287000Y-82232500D02*
X94287000Y-84107500D01*
G75*
G02*
X94224500Y-84170000I-62500J0D01*
G01*
X94099500Y-84170000D01*
G75*
G02*
X94037000Y-84107500I0J62500D01*
G01*
X94037000Y-82232500D01*
G75*
G02*
X94099500Y-82170000I62500J0D01*
G01*
X94224500Y-82170000D01*
G75*
G02*
X94287000Y-82232500I0J-62500D01*
G01*
G37*
G36*
G01*
X94787000Y-82232500D02*
X94787000Y-84107500D01*
G75*
G02*
X94724500Y-84170000I-62500J0D01*
G01*
X94599500Y-84170000D01*
G75*
G02*
X94537000Y-84107500I0J62500D01*
G01*
X94537000Y-82232500D01*
G75*
G02*
X94599500Y-82170000I62500J0D01*
G01*
X94724500Y-82170000D01*
G75*
G02*
X94787000Y-82232500I0J-62500D01*
G01*
G37*
G36*
G01*
X95287000Y-82232500D02*
X95287000Y-84107500D01*
G75*
G02*
X95224500Y-84170000I-62500J0D01*
G01*
X95099500Y-84170000D01*
G75*
G02*
X95037000Y-84107500I0J62500D01*
G01*
X95037000Y-82232500D01*
G75*
G02*
X95099500Y-82170000I62500J0D01*
G01*
X95224500Y-82170000D01*
G75*
G02*
X95287000Y-82232500I0J-62500D01*
G01*
G37*
G36*
G01*
X95787000Y-82232500D02*
X95787000Y-84107500D01*
G75*
G02*
X95724500Y-84170000I-62500J0D01*
G01*
X95599500Y-84170000D01*
G75*
G02*
X95537000Y-84107500I0J62500D01*
G01*
X95537000Y-82232500D01*
G75*
G02*
X95599500Y-82170000I62500J0D01*
G01*
X95724500Y-82170000D01*
G75*
G02*
X95787000Y-82232500I0J-62500D01*
G01*
G37*
G36*
G01*
X96287000Y-82232500D02*
X96287000Y-84107500D01*
G75*
G02*
X96224500Y-84170000I-62500J0D01*
G01*
X96099500Y-84170000D01*
G75*
G02*
X96037000Y-84107500I0J62500D01*
G01*
X96037000Y-82232500D01*
G75*
G02*
X96099500Y-82170000I62500J0D01*
G01*
X96224500Y-82170000D01*
G75*
G02*
X96287000Y-82232500I0J-62500D01*
G01*
G37*
G36*
G01*
X96787000Y-82232500D02*
X96787000Y-84107500D01*
G75*
G02*
X96724500Y-84170000I-62500J0D01*
G01*
X96599500Y-84170000D01*
G75*
G02*
X96537000Y-84107500I0J62500D01*
G01*
X96537000Y-82232500D01*
G75*
G02*
X96599500Y-82170000I62500J0D01*
G01*
X96724500Y-82170000D01*
G75*
G02*
X96787000Y-82232500I0J-62500D01*
G01*
G37*
G36*
G01*
X97287000Y-82232500D02*
X97287000Y-84107500D01*
G75*
G02*
X97224500Y-84170000I-62500J0D01*
G01*
X97099500Y-84170000D01*
G75*
G02*
X97037000Y-84107500I0J62500D01*
G01*
X97037000Y-82232500D01*
G75*
G02*
X97099500Y-82170000I62500J0D01*
G01*
X97224500Y-82170000D01*
G75*
G02*
X97287000Y-82232500I0J-62500D01*
G01*
G37*
G36*
G01*
X97787000Y-82232500D02*
X97787000Y-84107500D01*
G75*
G02*
X97724500Y-84170000I-62500J0D01*
G01*
X97599500Y-84170000D01*
G75*
G02*
X97537000Y-84107500I0J62500D01*
G01*
X97537000Y-82232500D01*
G75*
G02*
X97599500Y-82170000I62500J0D01*
G01*
X97724500Y-82170000D01*
G75*
G02*
X97787000Y-82232500I0J-62500D01*
G01*
G37*
G36*
G01*
X98287000Y-82232500D02*
X98287000Y-84107500D01*
G75*
G02*
X98224500Y-84170000I-62500J0D01*
G01*
X98099500Y-84170000D01*
G75*
G02*
X98037000Y-84107500I0J62500D01*
G01*
X98037000Y-82232500D01*
G75*
G02*
X98099500Y-82170000I62500J0D01*
G01*
X98224500Y-82170000D01*
G75*
G02*
X98287000Y-82232500I0J-62500D01*
G01*
G37*
G36*
G01*
X98787000Y-82232500D02*
X98787000Y-84107500D01*
G75*
G02*
X98724500Y-84170000I-62500J0D01*
G01*
X98599500Y-84170000D01*
G75*
G02*
X98537000Y-84107500I0J62500D01*
G01*
X98537000Y-82232500D01*
G75*
G02*
X98599500Y-82170000I62500J0D01*
G01*
X98724500Y-82170000D01*
G75*
G02*
X98787000Y-82232500I0J-62500D01*
G01*
G37*
G36*
G01*
X99287000Y-82232500D02*
X99287000Y-84107500D01*
G75*
G02*
X99224500Y-84170000I-62500J0D01*
G01*
X99099500Y-84170000D01*
G75*
G02*
X99037000Y-84107500I0J62500D01*
G01*
X99037000Y-82232500D01*
G75*
G02*
X99099500Y-82170000I62500J0D01*
G01*
X99224500Y-82170000D01*
G75*
G02*
X99287000Y-82232500I0J-62500D01*
G01*
G37*
G36*
G01*
X101472000Y-84417500D02*
X101472000Y-84542500D01*
G75*
G02*
X101409500Y-84605000I-62500J0D01*
G01*
X99534500Y-84605000D01*
G75*
G02*
X99472000Y-84542500I0J62500D01*
G01*
X99472000Y-84417500D01*
G75*
G02*
X99534500Y-84355000I62500J0D01*
G01*
X101409500Y-84355000D01*
G75*
G02*
X101472000Y-84417500I0J-62500D01*
G01*
G37*
G36*
G01*
X101472000Y-84917500D02*
X101472000Y-85042500D01*
G75*
G02*
X101409500Y-85105000I-62500J0D01*
G01*
X99534500Y-85105000D01*
G75*
G02*
X99472000Y-85042500I0J62500D01*
G01*
X99472000Y-84917500D01*
G75*
G02*
X99534500Y-84855000I62500J0D01*
G01*
X101409500Y-84855000D01*
G75*
G02*
X101472000Y-84917500I0J-62500D01*
G01*
G37*
G36*
G01*
X101472000Y-85417500D02*
X101472000Y-85542500D01*
G75*
G02*
X101409500Y-85605000I-62500J0D01*
G01*
X99534500Y-85605000D01*
G75*
G02*
X99472000Y-85542500I0J62500D01*
G01*
X99472000Y-85417500D01*
G75*
G02*
X99534500Y-85355000I62500J0D01*
G01*
X101409500Y-85355000D01*
G75*
G02*
X101472000Y-85417500I0J-62500D01*
G01*
G37*
G36*
G01*
X101472000Y-85917500D02*
X101472000Y-86042500D01*
G75*
G02*
X101409500Y-86105000I-62500J0D01*
G01*
X99534500Y-86105000D01*
G75*
G02*
X99472000Y-86042500I0J62500D01*
G01*
X99472000Y-85917500D01*
G75*
G02*
X99534500Y-85855000I62500J0D01*
G01*
X101409500Y-85855000D01*
G75*
G02*
X101472000Y-85917500I0J-62500D01*
G01*
G37*
G36*
G01*
X101472000Y-86417500D02*
X101472000Y-86542500D01*
G75*
G02*
X101409500Y-86605000I-62500J0D01*
G01*
X99534500Y-86605000D01*
G75*
G02*
X99472000Y-86542500I0J62500D01*
G01*
X99472000Y-86417500D01*
G75*
G02*
X99534500Y-86355000I62500J0D01*
G01*
X101409500Y-86355000D01*
G75*
G02*
X101472000Y-86417500I0J-62500D01*
G01*
G37*
G36*
G01*
X101472000Y-86917500D02*
X101472000Y-87042500D01*
G75*
G02*
X101409500Y-87105000I-62500J0D01*
G01*
X99534500Y-87105000D01*
G75*
G02*
X99472000Y-87042500I0J62500D01*
G01*
X99472000Y-86917500D01*
G75*
G02*
X99534500Y-86855000I62500J0D01*
G01*
X101409500Y-86855000D01*
G75*
G02*
X101472000Y-86917500I0J-62500D01*
G01*
G37*
G36*
G01*
X101472000Y-87417500D02*
X101472000Y-87542500D01*
G75*
G02*
X101409500Y-87605000I-62500J0D01*
G01*
X99534500Y-87605000D01*
G75*
G02*
X99472000Y-87542500I0J62500D01*
G01*
X99472000Y-87417500D01*
G75*
G02*
X99534500Y-87355000I62500J0D01*
G01*
X101409500Y-87355000D01*
G75*
G02*
X101472000Y-87417500I0J-62500D01*
G01*
G37*
G36*
G01*
X101472000Y-87917500D02*
X101472000Y-88042500D01*
G75*
G02*
X101409500Y-88105000I-62500J0D01*
G01*
X99534500Y-88105000D01*
G75*
G02*
X99472000Y-88042500I0J62500D01*
G01*
X99472000Y-87917500D01*
G75*
G02*
X99534500Y-87855000I62500J0D01*
G01*
X101409500Y-87855000D01*
G75*
G02*
X101472000Y-87917500I0J-62500D01*
G01*
G37*
G36*
G01*
X101472000Y-88417500D02*
X101472000Y-88542500D01*
G75*
G02*
X101409500Y-88605000I-62500J0D01*
G01*
X99534500Y-88605000D01*
G75*
G02*
X99472000Y-88542500I0J62500D01*
G01*
X99472000Y-88417500D01*
G75*
G02*
X99534500Y-88355000I62500J0D01*
G01*
X101409500Y-88355000D01*
G75*
G02*
X101472000Y-88417500I0J-62500D01*
G01*
G37*
G36*
G01*
X101472000Y-88917500D02*
X101472000Y-89042500D01*
G75*
G02*
X101409500Y-89105000I-62500J0D01*
G01*
X99534500Y-89105000D01*
G75*
G02*
X99472000Y-89042500I0J62500D01*
G01*
X99472000Y-88917500D01*
G75*
G02*
X99534500Y-88855000I62500J0D01*
G01*
X101409500Y-88855000D01*
G75*
G02*
X101472000Y-88917500I0J-62500D01*
G01*
G37*
G36*
G01*
X101472000Y-89417500D02*
X101472000Y-89542500D01*
G75*
G02*
X101409500Y-89605000I-62500J0D01*
G01*
X99534500Y-89605000D01*
G75*
G02*
X99472000Y-89542500I0J62500D01*
G01*
X99472000Y-89417500D01*
G75*
G02*
X99534500Y-89355000I62500J0D01*
G01*
X101409500Y-89355000D01*
G75*
G02*
X101472000Y-89417500I0J-62500D01*
G01*
G37*
%TD*%
D13*
%TO.C,D1*%
X109854000Y-94996000D03*
X106554000Y-94996000D03*
%TD*%
D14*
%TO.C,J1*%
X117796000Y-84199000D03*
X117796000Y-92839000D03*
D15*
X113616000Y-84199000D03*
X113616000Y-92839000D03*
D16*
X114146000Y-91409000D03*
X114146000Y-85629000D03*
D17*
X112201000Y-88769000D03*
X112201000Y-88269000D03*
X112201000Y-87769000D03*
X112201000Y-89269000D03*
X112201000Y-87269000D03*
X112201000Y-89769000D03*
X112201000Y-86769000D03*
X112201000Y-90269000D03*
D18*
X112201000Y-90969000D03*
X112201000Y-86069000D03*
X112201000Y-91744000D03*
X112201000Y-85294000D03*
X112196000Y-91744000D03*
X112171000Y-90969000D03*
X112196000Y-86069000D03*
X112196000Y-85294000D03*
%TD*%
D19*
%TO.C,P1*%
X79375000Y-94488000D03*
X74041000Y-81788000D03*
X74041000Y-94488000D03*
X79375000Y-81788000D03*
D20*
X80264000Y-90043000D03*
X82169000Y-90043000D03*
X80264000Y-88138000D03*
X82169000Y-88138000D03*
X80264000Y-86233000D03*
D21*
X82169000Y-86233000D03*
%TD*%
D22*
%TO.C,J4*%
X108204000Y-82296000D03*
X108204000Y-84836000D03*
X108204000Y-87376000D03*
X108204000Y-89916000D03*
D23*
X108204000Y-92456000D03*
%TD*%
D24*
%TO.C,SW2*%
X89898000Y-71120000D03*
X99078000Y-71120000D03*
%TD*%
%TO.C,C6*%
G36*
G01*
X97353000Y-74659500D02*
X97353000Y-74184500D01*
G75*
G02*
X97590500Y-73947000I237500J0D01*
G01*
X98190500Y-73947000D01*
G75*
G02*
X98428000Y-74184500I0J-237500D01*
G01*
X98428000Y-74659500D01*
G75*
G02*
X98190500Y-74897000I-237500J0D01*
G01*
X97590500Y-74897000D01*
G75*
G02*
X97353000Y-74659500I0J237500D01*
G01*
G37*
G36*
G01*
X95628000Y-74659500D02*
X95628000Y-74184500D01*
G75*
G02*
X95865500Y-73947000I237500J0D01*
G01*
X96465500Y-73947000D01*
G75*
G02*
X96703000Y-74184500I0J-237500D01*
G01*
X96703000Y-74659500D01*
G75*
G02*
X96465500Y-74897000I-237500J0D01*
G01*
X95865500Y-74897000D01*
G75*
G02*
X95628000Y-74659500I0J237500D01*
G01*
G37*
%TD*%
%TO.C,C5*%
G36*
G01*
X93455500Y-76891000D02*
X92980500Y-76891000D01*
G75*
G02*
X92743000Y-76653500I0J237500D01*
G01*
X92743000Y-76053500D01*
G75*
G02*
X92980500Y-75816000I237500J0D01*
G01*
X93455500Y-75816000D01*
G75*
G02*
X93693000Y-76053500I0J-237500D01*
G01*
X93693000Y-76653500D01*
G75*
G02*
X93455500Y-76891000I-237500J0D01*
G01*
G37*
G36*
G01*
X93455500Y-78616000D02*
X92980500Y-78616000D01*
G75*
G02*
X92743000Y-78378500I0J237500D01*
G01*
X92743000Y-77778500D01*
G75*
G02*
X92980500Y-77541000I237500J0D01*
G01*
X93455500Y-77541000D01*
G75*
G02*
X93693000Y-77778500I0J-237500D01*
G01*
X93693000Y-78378500D01*
G75*
G02*
X93455500Y-78616000I-237500J0D01*
G01*
G37*
%TD*%
D25*
%TO.C,Y1*%
X95336000Y-76454000D03*
X97536000Y-76454000D03*
X97536000Y-78154000D03*
X95336000Y-78154000D03*
%TD*%
D26*
%TO.C,J5*%
X104267000Y-95123000D03*
X101727000Y-94615000D03*
X99187000Y-95123000D03*
X96647000Y-94615000D03*
X94107000Y-95123000D03*
X91567000Y-94615000D03*
%TD*%
D27*
%TO.C,SW1*%
X85344000Y-78613000D03*
X72644000Y-70993000D03*
X82804000Y-78613000D03*
X75184000Y-70993000D03*
X80264000Y-78613000D03*
X77724000Y-70993000D03*
X77724000Y-78613000D03*
X80264000Y-70993000D03*
X75184000Y-78613000D03*
X82804000Y-70993000D03*
X72644000Y-78613000D03*
D28*
X85344000Y-70993000D03*
%TD*%
D22*
%TO.C,SW3*%
X107696000Y-71120000D03*
X105156000Y-71120000D03*
D23*
X102616000Y-71120000D03*
%TD*%
%TO.C,R15*%
G36*
G01*
X77641000Y-74786500D02*
X77641000Y-74311500D01*
G75*
G02*
X77878500Y-74074000I237500J0D01*
G01*
X78378500Y-74074000D01*
G75*
G02*
X78616000Y-74311500I0J-237500D01*
G01*
X78616000Y-74786500D01*
G75*
G02*
X78378500Y-75024000I-237500J0D01*
G01*
X77878500Y-75024000D01*
G75*
G02*
X77641000Y-74786500I0J237500D01*
G01*
G37*
G36*
G01*
X75816000Y-74786500D02*
X75816000Y-74311500D01*
G75*
G02*
X76053500Y-74074000I237500J0D01*
G01*
X76553500Y-74074000D01*
G75*
G02*
X76791000Y-74311500I0J-237500D01*
G01*
X76791000Y-74786500D01*
G75*
G02*
X76553500Y-75024000I-237500J0D01*
G01*
X76053500Y-75024000D01*
G75*
G02*
X75816000Y-74786500I0J237500D01*
G01*
G37*
%TD*%
%TO.C,D6*%
G36*
G01*
X82138000Y-74786500D02*
X82138000Y-74311500D01*
G75*
G02*
X82375500Y-74074000I237500J0D01*
G01*
X82950500Y-74074000D01*
G75*
G02*
X83188000Y-74311500I0J-237500D01*
G01*
X83188000Y-74786500D01*
G75*
G02*
X82950500Y-75024000I-237500J0D01*
G01*
X82375500Y-75024000D01*
G75*
G02*
X82138000Y-74786500I0J237500D01*
G01*
G37*
G36*
G01*
X80388000Y-74786500D02*
X80388000Y-74311500D01*
G75*
G02*
X80625500Y-74074000I237500J0D01*
G01*
X81200500Y-74074000D01*
G75*
G02*
X81438000Y-74311500I0J-237500D01*
G01*
X81438000Y-74786500D01*
G75*
G02*
X81200500Y-75024000I-237500J0D01*
G01*
X80625500Y-75024000D01*
G75*
G02*
X80388000Y-74786500I0J237500D01*
G01*
G37*
%TD*%
D29*
%TO.C,U1*%
X84471000Y-94615000D03*
X86471000Y-93665000D03*
X86471000Y-95565000D03*
%TD*%
%TO.C,R14*%
G36*
G01*
X89043500Y-74466000D02*
X89518500Y-74466000D01*
G75*
G02*
X89756000Y-74703500I0J-237500D01*
G01*
X89756000Y-75203500D01*
G75*
G02*
X89518500Y-75441000I-237500J0D01*
G01*
X89043500Y-75441000D01*
G75*
G02*
X88806000Y-75203500I0J237500D01*
G01*
X88806000Y-74703500D01*
G75*
G02*
X89043500Y-74466000I237500J0D01*
G01*
G37*
G36*
G01*
X89043500Y-72641000D02*
X89518500Y-72641000D01*
G75*
G02*
X89756000Y-72878500I0J-237500D01*
G01*
X89756000Y-73378500D01*
G75*
G02*
X89518500Y-73616000I-237500J0D01*
G01*
X89043500Y-73616000D01*
G75*
G02*
X88806000Y-73378500I0J237500D01*
G01*
X88806000Y-72878500D01*
G75*
G02*
X89043500Y-72641000I237500J0D01*
G01*
G37*
%TD*%
%TO.C,R13*%
G36*
G01*
X102486000Y-87613500D02*
X102486000Y-87138500D01*
G75*
G02*
X102723500Y-86901000I237500J0D01*
G01*
X103223500Y-86901000D01*
G75*
G02*
X103461000Y-87138500I0J-237500D01*
G01*
X103461000Y-87613500D01*
G75*
G02*
X103223500Y-87851000I-237500J0D01*
G01*
X102723500Y-87851000D01*
G75*
G02*
X102486000Y-87613500I0J237500D01*
G01*
G37*
G36*
G01*
X104311000Y-87613500D02*
X104311000Y-87138500D01*
G75*
G02*
X104548500Y-86901000I237500J0D01*
G01*
X105048500Y-86901000D01*
G75*
G02*
X105286000Y-87138500I0J-237500D01*
G01*
X105286000Y-87613500D01*
G75*
G02*
X105048500Y-87851000I-237500J0D01*
G01*
X104548500Y-87851000D01*
G75*
G02*
X104311000Y-87613500I0J237500D01*
G01*
G37*
%TD*%
%TO.C,R12*%
G36*
G01*
X105286000Y-88916500D02*
X105286000Y-89391500D01*
G75*
G02*
X105048500Y-89629000I-237500J0D01*
G01*
X104548500Y-89629000D01*
G75*
G02*
X104311000Y-89391500I0J237500D01*
G01*
X104311000Y-88916500D01*
G75*
G02*
X104548500Y-88679000I237500J0D01*
G01*
X105048500Y-88679000D01*
G75*
G02*
X105286000Y-88916500I0J-237500D01*
G01*
G37*
G36*
G01*
X103461000Y-88916500D02*
X103461000Y-89391500D01*
G75*
G02*
X103223500Y-89629000I-237500J0D01*
G01*
X102723500Y-89629000D01*
G75*
G02*
X102486000Y-89391500I0J237500D01*
G01*
X102486000Y-88916500D01*
G75*
G02*
X102723500Y-88679000I237500J0D01*
G01*
X103223500Y-88679000D01*
G75*
G02*
X103461000Y-88916500I0J-237500D01*
G01*
G37*
%TD*%
%TO.C,R9*%
G36*
G01*
X85896000Y-86089500D02*
X85896000Y-85614500D01*
G75*
G02*
X86133500Y-85377000I237500J0D01*
G01*
X86633500Y-85377000D01*
G75*
G02*
X86871000Y-85614500I0J-237500D01*
G01*
X86871000Y-86089500D01*
G75*
G02*
X86633500Y-86327000I-237500J0D01*
G01*
X86133500Y-86327000D01*
G75*
G02*
X85896000Y-86089500I0J237500D01*
G01*
G37*
G36*
G01*
X84071000Y-86089500D02*
X84071000Y-85614500D01*
G75*
G02*
X84308500Y-85377000I237500J0D01*
G01*
X84808500Y-85377000D01*
G75*
G02*
X85046000Y-85614500I0J-237500D01*
G01*
X85046000Y-86089500D01*
G75*
G02*
X84808500Y-86327000I-237500J0D01*
G01*
X84308500Y-86327000D01*
G75*
G02*
X84071000Y-86089500I0J237500D01*
G01*
G37*
%TD*%
%TO.C,R8*%
G36*
G01*
X85896000Y-88629500D02*
X85896000Y-88154500D01*
G75*
G02*
X86133500Y-87917000I237500J0D01*
G01*
X86633500Y-87917000D01*
G75*
G02*
X86871000Y-88154500I0J-237500D01*
G01*
X86871000Y-88629500D01*
G75*
G02*
X86633500Y-88867000I-237500J0D01*
G01*
X86133500Y-88867000D01*
G75*
G02*
X85896000Y-88629500I0J237500D01*
G01*
G37*
G36*
G01*
X84071000Y-88629500D02*
X84071000Y-88154500D01*
G75*
G02*
X84308500Y-87917000I237500J0D01*
G01*
X84808500Y-87917000D01*
G75*
G02*
X85046000Y-88154500I0J-237500D01*
G01*
X85046000Y-88629500D01*
G75*
G02*
X84808500Y-88867000I-237500J0D01*
G01*
X84308500Y-88867000D01*
G75*
G02*
X84071000Y-88629500I0J237500D01*
G01*
G37*
%TD*%
%TO.C,R7*%
G36*
G01*
X112030500Y-78633500D02*
X112505500Y-78633500D01*
G75*
G02*
X112743000Y-78871000I0J-237500D01*
G01*
X112743000Y-79371000D01*
G75*
G02*
X112505500Y-79608500I-237500J0D01*
G01*
X112030500Y-79608500D01*
G75*
G02*
X111793000Y-79371000I0J237500D01*
G01*
X111793000Y-78871000D01*
G75*
G02*
X112030500Y-78633500I237500J0D01*
G01*
G37*
G36*
G01*
X112030500Y-76808500D02*
X112505500Y-76808500D01*
G75*
G02*
X112743000Y-77046000I0J-237500D01*
G01*
X112743000Y-77546000D01*
G75*
G02*
X112505500Y-77783500I-237500J0D01*
G01*
X112030500Y-77783500D01*
G75*
G02*
X111793000Y-77546000I0J237500D01*
G01*
X111793000Y-77046000D01*
G75*
G02*
X112030500Y-76808500I237500J0D01*
G01*
G37*
%TD*%
%TO.C,R6*%
G36*
G01*
X115553500Y-77680000D02*
X115078500Y-77680000D01*
G75*
G02*
X114841000Y-77442500I0J237500D01*
G01*
X114841000Y-76942500D01*
G75*
G02*
X115078500Y-76705000I237500J0D01*
G01*
X115553500Y-76705000D01*
G75*
G02*
X115791000Y-76942500I0J-237500D01*
G01*
X115791000Y-77442500D01*
G75*
G02*
X115553500Y-77680000I-237500J0D01*
G01*
G37*
G36*
G01*
X115553500Y-79505000D02*
X115078500Y-79505000D01*
G75*
G02*
X114841000Y-79267500I0J237500D01*
G01*
X114841000Y-78767500D01*
G75*
G02*
X115078500Y-78530000I237500J0D01*
G01*
X115553500Y-78530000D01*
G75*
G02*
X115791000Y-78767500I0J-237500D01*
G01*
X115791000Y-79267500D01*
G75*
G02*
X115553500Y-79505000I-237500J0D01*
G01*
G37*
%TD*%
%TO.C,R5*%
G36*
G01*
X108949500Y-77680000D02*
X108474500Y-77680000D01*
G75*
G02*
X108237000Y-77442500I0J237500D01*
G01*
X108237000Y-76942500D01*
G75*
G02*
X108474500Y-76705000I237500J0D01*
G01*
X108949500Y-76705000D01*
G75*
G02*
X109187000Y-76942500I0J-237500D01*
G01*
X109187000Y-77442500D01*
G75*
G02*
X108949500Y-77680000I-237500J0D01*
G01*
G37*
G36*
G01*
X108949500Y-79505000D02*
X108474500Y-79505000D01*
G75*
G02*
X108237000Y-79267500I0J237500D01*
G01*
X108237000Y-78767500D01*
G75*
G02*
X108474500Y-78530000I237500J0D01*
G01*
X108949500Y-78530000D01*
G75*
G02*
X109187000Y-78767500I0J-237500D01*
G01*
X109187000Y-79267500D01*
G75*
G02*
X108949500Y-79505000I-237500J0D01*
G01*
G37*
%TD*%
%TO.C,R4*%
G36*
G01*
X118601500Y-77680000D02*
X118126500Y-77680000D01*
G75*
G02*
X117889000Y-77442500I0J237500D01*
G01*
X117889000Y-76942500D01*
G75*
G02*
X118126500Y-76705000I237500J0D01*
G01*
X118601500Y-76705000D01*
G75*
G02*
X118839000Y-76942500I0J-237500D01*
G01*
X118839000Y-77442500D01*
G75*
G02*
X118601500Y-77680000I-237500J0D01*
G01*
G37*
G36*
G01*
X118601500Y-79505000D02*
X118126500Y-79505000D01*
G75*
G02*
X117889000Y-79267500I0J237500D01*
G01*
X117889000Y-78767500D01*
G75*
G02*
X118126500Y-78530000I237500J0D01*
G01*
X118601500Y-78530000D01*
G75*
G02*
X118839000Y-78767500I0J-237500D01*
G01*
X118839000Y-79267500D01*
G75*
G02*
X118601500Y-79505000I-237500J0D01*
G01*
G37*
%TD*%
%TO.C,R3*%
G36*
G01*
X116249000Y-82787500D02*
X116249000Y-82312500D01*
G75*
G02*
X116486500Y-82075000I237500J0D01*
G01*
X116986500Y-82075000D01*
G75*
G02*
X117224000Y-82312500I0J-237500D01*
G01*
X117224000Y-82787500D01*
G75*
G02*
X116986500Y-83025000I-237500J0D01*
G01*
X116486500Y-83025000D01*
G75*
G02*
X116249000Y-82787500I0J237500D01*
G01*
G37*
G36*
G01*
X114424000Y-82787500D02*
X114424000Y-82312500D01*
G75*
G02*
X114661500Y-82075000I237500J0D01*
G01*
X115161500Y-82075000D01*
G75*
G02*
X115399000Y-82312500I0J-237500D01*
G01*
X115399000Y-82787500D01*
G75*
G02*
X115161500Y-83025000I-237500J0D01*
G01*
X114661500Y-83025000D01*
G75*
G02*
X114424000Y-82787500I0J237500D01*
G01*
G37*
%TD*%
%TO.C,R2*%
G36*
G01*
X115399000Y-95012500D02*
X115399000Y-95487500D01*
G75*
G02*
X115161500Y-95725000I-237500J0D01*
G01*
X114661500Y-95725000D01*
G75*
G02*
X114424000Y-95487500I0J237500D01*
G01*
X114424000Y-95012500D01*
G75*
G02*
X114661500Y-94775000I237500J0D01*
G01*
X115161500Y-94775000D01*
G75*
G02*
X115399000Y-95012500I0J-237500D01*
G01*
G37*
G36*
G01*
X117224000Y-95012500D02*
X117224000Y-95487500D01*
G75*
G02*
X116986500Y-95725000I-237500J0D01*
G01*
X116486500Y-95725000D01*
G75*
G02*
X116249000Y-95487500I0J237500D01*
G01*
X116249000Y-95012500D01*
G75*
G02*
X116486500Y-94775000I237500J0D01*
G01*
X116986500Y-94775000D01*
G75*
G02*
X117224000Y-95012500I0J-237500D01*
G01*
G37*
%TD*%
%TO.C,R1*%
G36*
G01*
X85046000Y-82947500D02*
X85046000Y-83422500D01*
G75*
G02*
X84808500Y-83660000I-237500J0D01*
G01*
X84308500Y-83660000D01*
G75*
G02*
X84071000Y-83422500I0J237500D01*
G01*
X84071000Y-82947500D01*
G75*
G02*
X84308500Y-82710000I237500J0D01*
G01*
X84808500Y-82710000D01*
G75*
G02*
X85046000Y-82947500I0J-237500D01*
G01*
G37*
G36*
G01*
X86871000Y-82947500D02*
X86871000Y-83422500D01*
G75*
G02*
X86633500Y-83660000I-237500J0D01*
G01*
X86133500Y-83660000D01*
G75*
G02*
X85896000Y-83422500I0J237500D01*
G01*
X85896000Y-82947500D01*
G75*
G02*
X86133500Y-82710000I237500J0D01*
G01*
X86633500Y-82710000D01*
G75*
G02*
X86871000Y-82947500I0J-237500D01*
G01*
G37*
%TD*%
D22*
%TO.C,J2*%
X88519000Y-93345000D03*
X88519000Y-90805000D03*
X88519000Y-88265000D03*
X88519000Y-85725000D03*
D23*
X88519000Y-83185000D03*
%TD*%
%TO.C,F1*%
G36*
G01*
X112972000Y-95446001D02*
X112972000Y-94545999D01*
G75*
G02*
X113221999Y-94296000I249999J0D01*
G01*
X113872001Y-94296000D01*
G75*
G02*
X114122000Y-94545999I0J-249999D01*
G01*
X114122000Y-95446001D01*
G75*
G02*
X113872001Y-95696000I-249999J0D01*
G01*
X113221999Y-95696000D01*
G75*
G02*
X112972000Y-95446001I0J249999D01*
G01*
G37*
G36*
G01*
X110922000Y-95446001D02*
X110922000Y-94545999D01*
G75*
G02*
X111171999Y-94296000I249999J0D01*
G01*
X111822001Y-94296000D01*
G75*
G02*
X112072000Y-94545999I0J-249999D01*
G01*
X112072000Y-95446001D01*
G75*
G02*
X111822001Y-95696000I-249999J0D01*
G01*
X111171999Y-95696000D01*
G75*
G02*
X110922000Y-95446001I0J249999D01*
G01*
G37*
%TD*%
%TO.C,D5*%
G36*
G01*
X112251500Y-73818000D02*
X111776500Y-73818000D01*
G75*
G02*
X111539000Y-73580500I0J237500D01*
G01*
X111539000Y-73005500D01*
G75*
G02*
X111776500Y-72768000I237500J0D01*
G01*
X112251500Y-72768000D01*
G75*
G02*
X112489000Y-73005500I0J-237500D01*
G01*
X112489000Y-73580500D01*
G75*
G02*
X112251500Y-73818000I-237500J0D01*
G01*
G37*
G36*
G01*
X112251500Y-75568000D02*
X111776500Y-75568000D01*
G75*
G02*
X111539000Y-75330500I0J237500D01*
G01*
X111539000Y-74755500D01*
G75*
G02*
X111776500Y-74518000I237500J0D01*
G01*
X112251500Y-74518000D01*
G75*
G02*
X112489000Y-74755500I0J-237500D01*
G01*
X112489000Y-75330500D01*
G75*
G02*
X112251500Y-75568000I-237500J0D01*
G01*
G37*
%TD*%
%TO.C,D4*%
G36*
G01*
X115426500Y-73818000D02*
X114951500Y-73818000D01*
G75*
G02*
X114714000Y-73580500I0J237500D01*
G01*
X114714000Y-73005500D01*
G75*
G02*
X114951500Y-72768000I237500J0D01*
G01*
X115426500Y-72768000D01*
G75*
G02*
X115664000Y-73005500I0J-237500D01*
G01*
X115664000Y-73580500D01*
G75*
G02*
X115426500Y-73818000I-237500J0D01*
G01*
G37*
G36*
G01*
X115426500Y-75568000D02*
X114951500Y-75568000D01*
G75*
G02*
X114714000Y-75330500I0J237500D01*
G01*
X114714000Y-74755500D01*
G75*
G02*
X114951500Y-74518000I237500J0D01*
G01*
X115426500Y-74518000D01*
G75*
G02*
X115664000Y-74755500I0J-237500D01*
G01*
X115664000Y-75330500D01*
G75*
G02*
X115426500Y-75568000I-237500J0D01*
G01*
G37*
%TD*%
%TO.C,D3*%
G36*
G01*
X109076500Y-73818000D02*
X108601500Y-73818000D01*
G75*
G02*
X108364000Y-73580500I0J237500D01*
G01*
X108364000Y-73005500D01*
G75*
G02*
X108601500Y-72768000I237500J0D01*
G01*
X109076500Y-72768000D01*
G75*
G02*
X109314000Y-73005500I0J-237500D01*
G01*
X109314000Y-73580500D01*
G75*
G02*
X109076500Y-73818000I-237500J0D01*
G01*
G37*
G36*
G01*
X109076500Y-75568000D02*
X108601500Y-75568000D01*
G75*
G02*
X108364000Y-75330500I0J237500D01*
G01*
X108364000Y-74755500D01*
G75*
G02*
X108601500Y-74518000I237500J0D01*
G01*
X109076500Y-74518000D01*
G75*
G02*
X109314000Y-74755500I0J-237500D01*
G01*
X109314000Y-75330500D01*
G75*
G02*
X109076500Y-75568000I-237500J0D01*
G01*
G37*
%TD*%
%TO.C,D2*%
G36*
G01*
X118601500Y-73691000D02*
X118126500Y-73691000D01*
G75*
G02*
X117889000Y-73453500I0J237500D01*
G01*
X117889000Y-72878500D01*
G75*
G02*
X118126500Y-72641000I237500J0D01*
G01*
X118601500Y-72641000D01*
G75*
G02*
X118839000Y-72878500I0J-237500D01*
G01*
X118839000Y-73453500D01*
G75*
G02*
X118601500Y-73691000I-237500J0D01*
G01*
G37*
G36*
G01*
X118601500Y-75441000D02*
X118126500Y-75441000D01*
G75*
G02*
X117889000Y-75203500I0J237500D01*
G01*
X117889000Y-74628500D01*
G75*
G02*
X118126500Y-74391000I237500J0D01*
G01*
X118601500Y-74391000D01*
G75*
G02*
X118839000Y-74628500I0J-237500D01*
G01*
X118839000Y-75203500D01*
G75*
G02*
X118601500Y-75441000I-237500J0D01*
G01*
G37*
%TD*%
%TO.C,C8*%
G36*
G01*
X103561000Y-82312500D02*
X103561000Y-82787500D01*
G75*
G02*
X103323500Y-83025000I-237500J0D01*
G01*
X102723500Y-83025000D01*
G75*
G02*
X102486000Y-82787500I0J237500D01*
G01*
X102486000Y-82312500D01*
G75*
G02*
X102723500Y-82075000I237500J0D01*
G01*
X103323500Y-82075000D01*
G75*
G02*
X103561000Y-82312500I0J-237500D01*
G01*
G37*
G36*
G01*
X105286000Y-82312500D02*
X105286000Y-82787500D01*
G75*
G02*
X105048500Y-83025000I-237500J0D01*
G01*
X104448500Y-83025000D01*
G75*
G02*
X104211000Y-82787500I0J237500D01*
G01*
X104211000Y-82312500D01*
G75*
G02*
X104448500Y-82075000I237500J0D01*
G01*
X105048500Y-82075000D01*
G75*
G02*
X105286000Y-82312500I0J-237500D01*
G01*
G37*
%TD*%
%TO.C,C7*%
G36*
G01*
X102232000Y-91677500D02*
X102232000Y-91202500D01*
G75*
G02*
X102469500Y-90965000I237500J0D01*
G01*
X103069500Y-90965000D01*
G75*
G02*
X103307000Y-91202500I0J-237500D01*
G01*
X103307000Y-91677500D01*
G75*
G02*
X103069500Y-91915000I-237500J0D01*
G01*
X102469500Y-91915000D01*
G75*
G02*
X102232000Y-91677500I0J237500D01*
G01*
G37*
G36*
G01*
X103957000Y-91677500D02*
X103957000Y-91202500D01*
G75*
G02*
X104194500Y-90965000I237500J0D01*
G01*
X104794500Y-90965000D01*
G75*
G02*
X105032000Y-91202500I0J-237500D01*
G01*
X105032000Y-91677500D01*
G75*
G02*
X104794500Y-91915000I-237500J0D01*
G01*
X104194500Y-91915000D01*
G75*
G02*
X103957000Y-91677500I0J237500D01*
G01*
G37*
%TD*%
%TO.C,C4*%
G36*
G01*
X85796000Y-92058500D02*
X85796000Y-91583500D01*
G75*
G02*
X86033500Y-91346000I237500J0D01*
G01*
X86633500Y-91346000D01*
G75*
G02*
X86871000Y-91583500I0J-237500D01*
G01*
X86871000Y-92058500D01*
G75*
G02*
X86633500Y-92296000I-237500J0D01*
G01*
X86033500Y-92296000D01*
G75*
G02*
X85796000Y-92058500I0J237500D01*
G01*
G37*
G36*
G01*
X84071000Y-92058500D02*
X84071000Y-91583500D01*
G75*
G02*
X84308500Y-91346000I237500J0D01*
G01*
X84908500Y-91346000D01*
G75*
G02*
X85146000Y-91583500I0J-237500D01*
G01*
X85146000Y-92058500D01*
G75*
G02*
X84908500Y-92296000I-237500J0D01*
G01*
X84308500Y-92296000D01*
G75*
G02*
X84071000Y-92058500I0J237500D01*
G01*
G37*
%TD*%
%TO.C,C3*%
G36*
G01*
X85796000Y-90661500D02*
X85796000Y-90186500D01*
G75*
G02*
X86033500Y-89949000I237500J0D01*
G01*
X86633500Y-89949000D01*
G75*
G02*
X86871000Y-90186500I0J-237500D01*
G01*
X86871000Y-90661500D01*
G75*
G02*
X86633500Y-90899000I-237500J0D01*
G01*
X86033500Y-90899000D01*
G75*
G02*
X85796000Y-90661500I0J237500D01*
G01*
G37*
G36*
G01*
X84071000Y-90661500D02*
X84071000Y-90186500D01*
G75*
G02*
X84308500Y-89949000I237500J0D01*
G01*
X84908500Y-89949000D01*
G75*
G02*
X85146000Y-90186500I0J-237500D01*
G01*
X85146000Y-90661500D01*
G75*
G02*
X84908500Y-90899000I-237500J0D01*
G01*
X84308500Y-90899000D01*
G75*
G02*
X84071000Y-90661500I0J237500D01*
G01*
G37*
%TD*%
%TO.C,C2*%
G36*
G01*
X103957000Y-78469500D02*
X103957000Y-77994500D01*
G75*
G02*
X104194500Y-77757000I237500J0D01*
G01*
X104794500Y-77757000D01*
G75*
G02*
X105032000Y-77994500I0J-237500D01*
G01*
X105032000Y-78469500D01*
G75*
G02*
X104794500Y-78707000I-237500J0D01*
G01*
X104194500Y-78707000D01*
G75*
G02*
X103957000Y-78469500I0J237500D01*
G01*
G37*
G36*
G01*
X102232000Y-78469500D02*
X102232000Y-77994500D01*
G75*
G02*
X102469500Y-77757000I237500J0D01*
G01*
X103069500Y-77757000D01*
G75*
G02*
X103307000Y-77994500I0J-237500D01*
G01*
X103307000Y-78469500D01*
G75*
G02*
X103069500Y-78707000I-237500J0D01*
G01*
X102469500Y-78707000D01*
G75*
G02*
X102232000Y-78469500I0J237500D01*
G01*
G37*
%TD*%
%TO.C,C1*%
G36*
G01*
X100500000Y-78049000D02*
X100975000Y-78049000D01*
G75*
G02*
X101212500Y-78286500I0J-237500D01*
G01*
X101212500Y-78886500D01*
G75*
G02*
X100975000Y-79124000I-237500J0D01*
G01*
X100500000Y-79124000D01*
G75*
G02*
X100262500Y-78886500I0J237500D01*
G01*
X100262500Y-78286500D01*
G75*
G02*
X100500000Y-78049000I237500J0D01*
G01*
G37*
G36*
G01*
X100500000Y-76324000D02*
X100975000Y-76324000D01*
G75*
G02*
X101212500Y-76561500I0J-237500D01*
G01*
X101212500Y-77161500D01*
G75*
G02*
X100975000Y-77399000I-237500J0D01*
G01*
X100500000Y-77399000D01*
G75*
G02*
X100262500Y-77161500I0J237500D01*
G01*
X100262500Y-76561500D01*
G75*
G02*
X100500000Y-76324000I237500J0D01*
G01*
G37*
%TD*%
M02*
