%TF.GenerationSoftware,KiCad,Pcbnew,(5.1.9)-1*%
%TF.CreationDate,2021-07-30T14:52:09-07:00*%
%TF.ProjectId,NullWiiConv2.2,4e756c6c-5769-4694-936f-6e76322e322e,rev?*%
%TF.SameCoordinates,Original*%
%TF.FileFunction,Soldermask,Bot*%
%TF.FilePolarity,Negative*%
%FSLAX46Y46*%
G04 Gerber Fmt 4.6, Leading zero omitted, Abs format (unit mm)*
G04 Created by KiCad (PCBNEW (5.1.9)-1) date 2021-07-30 14:52:09*
%MOMM*%
%LPD*%
G01*
G04 APERTURE LIST*
%ADD10O,1.600000X1.000000*%
%ADD11O,2.100000X1.000000*%
%ADD12C,0.650000*%
%ADD13C,3.048000*%
%ADD14C,1.270000*%
%ADD15R,1.270000X1.270000*%
%ADD16O,1.700000X1.700000*%
%ADD17R,1.700000X1.700000*%
%ADD18C,2.082800*%
%ADD19O,1.600000X1.600000*%
%ADD20R,1.600000X1.600000*%
%ADD21R,1.380000X0.450000*%
%ADD22R,1.550000X1.425000*%
%ADD23R,1.300000X1.650000*%
%ADD24R,1.900000X1.800000*%
%ADD25R,1.900000X1.000000*%
G04 APERTURE END LIST*
D10*
%TO.C,J1*%
X117796000Y-84199000D03*
X117796000Y-92839000D03*
D11*
X113616000Y-84199000D03*
X113616000Y-92839000D03*
D12*
X114146000Y-91409000D03*
X114146000Y-85629000D03*
%TD*%
D13*
%TO.C,P1*%
X79375000Y-94488000D03*
X74041000Y-81788000D03*
X74041000Y-94488000D03*
X79375000Y-81788000D03*
D14*
X80264000Y-90043000D03*
X82169000Y-90043000D03*
X80264000Y-88138000D03*
X82169000Y-88138000D03*
X80264000Y-86233000D03*
D15*
X82169000Y-86233000D03*
%TD*%
D16*
%TO.C,J4*%
X108204000Y-82296000D03*
X108204000Y-84836000D03*
X108204000Y-87376000D03*
X108204000Y-89916000D03*
D17*
X108204000Y-92456000D03*
%TD*%
D18*
%TO.C,J5*%
X104267000Y-95123000D03*
X101727000Y-94615000D03*
X99187000Y-95123000D03*
X96647000Y-94615000D03*
X94107000Y-95123000D03*
X91567000Y-94615000D03*
%TD*%
D19*
%TO.C,SW1*%
X85344000Y-78613000D03*
X72644000Y-70993000D03*
X82804000Y-78613000D03*
X75184000Y-70993000D03*
X80264000Y-78613000D03*
X77724000Y-70993000D03*
X77724000Y-78613000D03*
X80264000Y-70993000D03*
X75184000Y-78613000D03*
X82804000Y-70993000D03*
X72644000Y-78613000D03*
D20*
X85344000Y-70993000D03*
%TD*%
D16*
%TO.C,SW3*%
X107696000Y-71120000D03*
X105156000Y-71120000D03*
D17*
X102616000Y-71120000D03*
%TD*%
D21*
%TO.C,J3*%
X116777000Y-86965000D03*
X116777000Y-87615000D03*
X116777000Y-88265000D03*
X116777000Y-88915000D03*
X116777000Y-89565000D03*
D22*
X116862000Y-85777500D03*
X116862000Y-90752500D03*
D23*
X119437000Y-84890000D03*
X119437000Y-91640000D03*
D24*
X119437000Y-87115000D03*
D25*
X119437000Y-89815000D03*
%TD*%
D16*
%TO.C,J2*%
X88519000Y-93345000D03*
X88519000Y-90805000D03*
X88519000Y-88265000D03*
X88519000Y-85725000D03*
D17*
X88519000Y-83185000D03*
%TD*%
M02*
